<svg xmlns="http://www.w3.org/2000/svg" xmlns:xlink="http://www.w3.org/1999/xlink" viewBox="0 0 300.21 89.06"><defs><style>.cls-1{fill:#fff;}.cls-2{fill:url(#名称未設定グラデーション_27);}.cls-3{fill:url(#名称未設定グラデーション_27-2);}.cls-4{fill:url(#名称未設定グラデーション_27-3);}.cls-5{fill:url(#名称未設定グラデーション_27-4);}.cls-6{fill:url(#名称未設定グラデーション_27-5);}.cls-7{fill:url(#名称未設定グラデーション_27-6);}.cls-8{fill:url(#名称未設定グラデーション_27-7);}.cls-9{fill:url(#名称未設定グラデーション_27-8);}.cls-10{fill:url(#名称未設定グラデーション_27-9);}.cls-11{fill:url(#名称未設定グラデーション_27-10);}.cls-12{fill:url(#名称未設定グラデーション_27-11);}.cls-13{fill:url(#名称未設定グラデーション_27-12);}.cls-14{fill:url(#名称未設定グラデーション_27-13);}.cls-15{fill:url(#名称未設定グラデーション_27-14);}.cls-16{fill:url(#名称未設定グラデーション_27-15);}.cls-17{fill:url(#名称未設定グラデーション_27-16);}.cls-18{fill:url(#名称未設定グラデーション_27-17);}.cls-19{fill:url(#名称未設定グラデーション_27-18);}.cls-20{fill:url(#名称未設定グラデーション_27-19);}.cls-21{fill:url(#名称未設定グラデーション_27-20);}.cls-22{fill:url(#名称未設定グラデーション_27-21);}.cls-23{fill:url(#名称未設定グラデーション_27-22);}.cls-24{fill:url(#名称未設定グラデーション_27-23);}.cls-25{fill:#191919;}</style><linearGradient id="名称未設定グラデーション_27" x1="265.07" y1="38.42" x2="290.61" y2="12.88" gradientUnits="userSpaceOnUse"><stop offset="0" stop-color="#34afa5" stop-opacity="0.15"/><stop offset="0.5" stop-color="#b3d6a5" stop-opacity="0.15"/><stop offset="1" stop-color="#b484b8" stop-opacity="0.15"/></linearGradient><linearGradient id="名称未設定グラデーション_27-2" x1="67.1" y1="16.24" x2="72.63" y2="10.71" xlink:href="#名称未設定グラデーション_27"/><linearGradient id="名称未設定グラデーション_27-3" x1="56.06" y1="19.4" x2="60.3" y2="15.16" xlink:href="#名称未設定グラデーション_27"/><linearGradient id="名称未設定グラデーション_27-4" x1="52.1" y1="32.03" x2="57.63" y2="26.5" xlink:href="#名称未設定グラデーション_27"/><linearGradient id="名称未設定グラデーション_27-5" x1="55.22" y1="43.04" x2="60.93" y2="37.33" xlink:href="#名称未設定グラデーション_27"/><linearGradient id="名称未設定グラデーション_27-6" x1="66.97" y1="46.69" x2="72.5" y2="41.16" xlink:href="#名称未設定グラデーション_27"/><linearGradient id="名称未設定グラデーション_27-7" x1="78.98" y1="42.59" x2="83.21" y2="38.36" xlink:href="#名称未設定グラデーション_27"/><linearGradient id="名称未設定グラデーション_27-8" x1="82.19" y1="32.03" x2="87.73" y2="26.5" xlink:href="#名称未設定グラデーション_27"/><linearGradient id="名称未設定グラデーション_27-9" x1="78.69" y1="19.57" x2="84.39" y2="13.86" xlink:href="#名称未設定グラデーション_27"/><linearGradient id="名称未設定グラデーション_27-10" x1="8.72" y1="40.42" x2="45.01" y2="4.13" xlink:href="#名称未設定グラデーション_27"/><linearGradient id="名称未設定グラデーション_27-11" x1="97.52" y1="50.6" x2="139.84" y2="8.28" xlink:href="#名称未設定グラデーション_27"/><linearGradient id="名称未設定グラデーション_27-12" x1="163.07" y1="41.99" x2="189.18" y2="15.89" xlink:href="#名称未設定グラデーション_27"/><linearGradient id="名称未設定グラデーション_27-13" x1="232.67" y1="46.49" x2="267.82" y2="11.34" xlink:href="#名称未設定グラデーション_27"/><linearGradient id="名称未設定グラデーション_27-14" x1="194.41" y1="48.09" x2="225.75" y2="16.75" xlink:href="#名称未設定グラデーション_27"/><linearGradient id="名称未設定グラデーション_27-15" x1="9.71" y1="83.83" x2="35.03" y2="58.5" xlink:href="#名称未設定グラデーション_27"/><linearGradient id="名称未設定グラデーション_27-16" x1="45.86" y1="83.46" x2="69.86" y2="59.45" xlink:href="#名称未設定グラデーション_27"/><linearGradient id="名称未設定グラデーション_27-17" x1="77.63" y1="91.41" x2="104.68" y2="64.36" xlink:href="#名称未設定グラデーション_27"/><linearGradient id="名称未設定グラデーション_27-18" x1="112.26" y1="86.66" x2="142.42" y2="56.5" xlink:href="#名称未設定グラデーション_27"/><linearGradient id="名称未設定グラデーション_27-19" x1="150.84" y1="91.41" x2="177.89" y2="64.36" xlink:href="#名称未設定グラデーション_27"/><linearGradient id="名称未設定グラデーション_27-20" x1="192.78" y1="86.38" x2="218.73" y2="60.44" xlink:href="#名称未設定グラデーション_27"/><linearGradient id="名称未設定グラデーション_27-21" x1="223.77" y1="81.88" x2="246.47" y2="59.18" xlink:href="#名称未設定グラデーション_27"/><linearGradient id="名称未設定グラデーション_27-22" x1="253.8" y1="80.4" x2="274.07" y2="60.12" xlink:href="#名称未設定グラデーション_27"/><linearGradient id="名称未設定グラデーション_27-23" x1="273.88" y1="82.36" x2="297.08" y2="59.15" xlink:href="#名称未設定グラデーション_27"/></defs><title>アセット 1</title><g id="レイヤー_2" data-name="レイヤー 2"><g id="レイヤー_1-2" data-name="レイヤー 1"><polygon class="cls-1" points="279.54 43.56 279.54 33.91 300.21 22.49 279.54 11.06 273.42 7.26 273.42 46.77 279.54 46.77 279.54 43.56"/><polygon class="cls-1" points="69.86 7.94 66.86 16.01 72.86 16.01 69.86 7.94"/><polygon class="cls-1" points="63.16 18.01 55.33 14.43 58.92 22.25 63.16 18.01"/><polygon class="cls-1" points="49.34 29.27 57.4 32.26 57.4 26.27 49.34 29.27"/><polygon class="cls-1" points="58.81 35.21 55.22 43.03 63.05 39.45 58.81 35.21"/><polygon class="cls-1" points="72.73 41.39 66.74 41.39 69.73 49.46 72.73 41.39"/><polygon class="cls-1" points="80.28 35.44 76.37 39.98 84.44 42.97 80.28 35.44"/><polygon class="cls-1" points="82.42 32.26 90.49 29.27 82.42 26.27 82.42 32.26"/><polygon class="cls-1" points="84.39 13.86 76.57 17.45 80.81 21.69 84.39 13.86"/><polygon class="cls-1" points="22.72 31.4 23.05 32.26 24.88 27.73 25.87 30.4 28.14 23.98 37.66 47.78 51.73 10.85 45.36 10.85 37.6 32.27 29.65 10.85 24.6 10.85 16.49 32.27 8.94 10.85 2 10.85 16.08 47.78 22.72 31.4"/><path class="cls-1" d="M99.6,33.09h2.81l6,9.52h0l2.48,4H118l-4.33-6.73a14.18,14.18,0,0,1,7.67-2.18c3.51.11,6,1.73,8.67,3.44s5.59,3.6,9.64,3.74h.49c3.75,0,7.56-1.49,11.33-4.42l-.61-.79c-3.75,2.91-7.52,4.35-11.18,4.2s-6.49-1.88-9.13-3.58-5.39-3.48-9.18-3.6A15.2,15.2,0,0,0,113.14,39l-1.79-2.78c3.41-2.6,6.76-3.89,10-3.79,3.51.11,6,1.73,8.67,3.45s5.59,3.6,9.64,3.74h.49c3.75,0,7.39-1.36,11.16-4.3l.13-.52a19.67,19.67,0,0,0,1-6.09c0-10.3-7.25-17.85-17.65-17.85H123.22V31.62a11.91,11.91,0,0,0-1.83-.21c-3.45-.1-7,1.24-10.58,3.95l-1.72-2.68c5.1-1.27,8-5.35,8-10.71,0-6.53-4.75-11.12-11.84-11.12H93.48V46.56H99.6Zm29.74-16.43h5.51c6.94,0,11.32,5.51,11.32,12a12.2,12.2,0,0,1-4.58,9.82,14.94,14.94,0,0,1-1.89.08c-3.77-.13-6.49-1.89-9.13-3.58-.4-.27-.82-.53-1.23-.79Zm-29.74,0h4.85c3.93,0,6.37,1.79,6.37,5.31s-2.44,5.3-6.37,5.3H99.6Z"/><path class="cls-1" d="M176.11,47.38a18,18,0,0,0,13.72-6.07l-4.08-4a12.71,12.71,0,0,1-9.64,4.39c-7,0-11.89-5.87-11.89-12.76s4.85-12.75,11.89-12.75a12.29,12.29,0,0,1,9.08,3.93l4.13-4a17.89,17.89,0,0,0-13.21-5.61C165.8,10.45,158,18.36,158,28.91S165.8,47.38,176.11,47.38Z"/><path class="cls-1" d="M239.07,22.79l11.17,17,9.25-14.06a11.75,11.75,0,0,0,1.92-.65v21.7h6.13V11.06h-5.67L255.1,21.52a11.38,11.38,0,0,1-1.76-.77,6.81,6.81,0,0,0-3.5-1,7.18,7.18,0,0,0-4.38,1.89l-6.85-10.57H233V46.77h6.12Zm22.34,0V24c-.36.17-.71.32-1.06.45ZM250.24,29l-2.84-4.4a5.17,5.17,0,0,1,2.47-.69,5.69,5.69,0,0,1,3,.89l.06,0Zm-.37-8.28a5.61,5.61,0,0,1,3,.9,13.53,13.53,0,0,0,1.66.75l-1,1.62-.15-.07a6.81,6.81,0,0,0-3.5-1,6,6,0,0,0-3,.84L246,22.48A6.34,6.34,0,0,1,249.87,20.74Z"/><polygon class="cls-1" points="202.53 38.3 209.63 38.3 212.89 46.77 227.07 46.77 213.19 11.06 210.69 4.76 210.69 4.75 210.5 4.28 211.29 2.29 210.57 2 210.08 3.23 209.59 2 208.87 2.29 209.66 4.28 206.97 11.06 193.09 46.77 199.27 46.77 202.53 38.3"/><path class="cls-1" d="M22.37,89.06c10.09,0,17.5-7.66,17.5-17.9s-7.41-17.9-17.5-17.9-17.5,7.67-17.5,17.9S12.28,89.06,22.37,89.06Zm0-30.16c7,0,11.47,5.59,11.47,12.26s-4.5,12.27-11.47,12.27S10.9,77.84,10.9,71.16,15.4,58.9,22.37,58.9Z"/><path class="cls-1" d="M69.65,79.42c0-6.28-4.41-8.65-9.7-10.63-4.74-1.78-7.46-2.72-7.46-5.74,0-2.32,2.32-4.15,5.29-4.15,4.3,0,7.17,3.91,7.17,3.91l4.1-4.06a14.86,14.86,0,0,0-11.27-5.49c-7,0-11.33,4.9-11.33,9.79,0,6.43,5.74,9.2,10.83,11,4.11,1.44,6.33,2.47,6.33,5.39s-3.06,4-6,4c-5.24,0-8.21-5.2-8.21-5.2L44.92,82a15.14,15.14,0,0,0,12.66,7.07C64.11,89.06,69.65,85.7,69.65,79.42Z"/><path class="cls-1" d="M83.84,80.26H98.48l3.16,8.21h6L94.17,53.86h-6L74.69,88.47h6Zm7.32-18.94,5.19,13.5H86Z"/><polygon class="cls-1" points="114.06 53.86 114.06 88.47 120 88.47 120 72.84 133.6 88.47 141.46 88.47 126.23 70.87 139.78 53.86 132.36 53.86 120 69.38 120 53.86 114.06 53.86"/><path class="cls-1" d="M180.83,88.47,167.38,53.86h-6L147.9,88.47h6l3.17-8.21h14.63l3.17,8.21ZM159.17,74.82l5.19-13.5,5.2,13.5Z"/><path class="cls-1" d="M194.24,87.84H217V82.2H205.91l8-10.28a14.35,14.35,0,0,0,3-8.51c0-5.73-3.61-10.78-11.08-10.78-9.24,0-11.47,8.66-11.47,8.66l5.29,1.92s1.09-5,6.18-5A5.09,5.09,0,0,1,211,63.51c0,3.91-2.72,6.53-4,8.21Z"/><path class="cls-1" d="M235.14,52.63c-8.8,0-13.06,8.51-13.06,17.9s4.26,17.9,13.06,17.9,13-8.5,13-17.9S243.94,52.63,235.14,52.63Zm0,30.26c-4.8,0-7.12-5.58-7.12-12.36s2.32-12.36,7.12-12.36,7,5.59,7,12.36S239.93,82.89,235.14,82.89Z"/><polygon class="cls-1" points="261.24 87.84 267.17 87.84 267.17 53.23 262.28 53.23 251.75 61.63 255.16 65.98 261.24 61.14 261.24 87.84"/><path class="cls-1" d="M292.5,69.44a8.27,8.27,0,0,0,3.86-6.82c0-5.14-3.66-10-10.88-10s-10.88,4.85-10.88,10a8.27,8.27,0,0,0,3.86,6.82,8.61,8.61,0,0,0-4.85,8.21c0,5.79,4.35,10.78,11.87,10.78s11.87-5,11.87-10.78A8.61,8.61,0,0,0,292.5,69.44Zm-7-11.37c2.77,0,5,1.78,5,4.6s-2.23,4.6-5,4.6-5-1.78-5-4.6S282.71,58.07,285.48,58.07Zm0,24.92c-3.91,0-5.88-2.62-5.88-5.44s2-5.34,5.88-5.34,5.88,2.53,5.88,5.34S289.39,83,285.48,83Z"/><polygon class="cls-2" points="279.54 43.56 279.54 33.91 300.21 22.49 279.54 11.06 273.42 7.26 273.42 46.77 279.54 46.77 279.54 43.56"/><polygon class="cls-3" points="69.86 7.94 66.86 16.01 72.86 16.01 69.86 7.94"/><polygon class="cls-4" points="63.16 18.01 55.33 14.43 58.92 22.25 63.16 18.01"/><polygon class="cls-5" points="49.34 29.27 57.4 32.26 57.4 26.27 49.34 29.27"/><polygon class="cls-6" points="58.81 35.21 55.22 43.03 63.05 39.45 58.81 35.21"/><polygon class="cls-7" points="72.73 41.39 66.74 41.39 69.73 49.46 72.73 41.39"/><polygon class="cls-8" points="80.28 35.44 76.37 39.98 84.44 42.97 80.28 35.44"/><polygon class="cls-9" points="82.42 32.26 90.49 29.27 82.42 26.27 82.42 32.26"/><polygon class="cls-10" points="84.39 13.86 76.57 17.45 80.81 21.69 84.39 13.86"/><polygon class="cls-11" points="22.72 31.4 23.05 32.26 24.88 27.73 25.87 30.4 28.14 23.98 37.66 47.78 51.73 10.85 45.36 10.85 37.6 32.27 29.65 10.85 24.6 10.85 16.49 32.27 8.94 10.85 2 10.85 16.08 47.78 22.72 31.4"/><path class="cls-12" d="M99.6,33.09h2.81l6,9.52h0l2.48,4H118l-4.33-6.73a14.18,14.18,0,0,1,7.67-2.18c3.51.11,6,1.73,8.67,3.44s5.59,3.6,9.64,3.74h.49c3.75,0,7.56-1.49,11.33-4.42l-.61-.79c-3.75,2.91-7.52,4.35-11.18,4.2s-6.49-1.88-9.13-3.58-5.39-3.48-9.18-3.6A15.2,15.2,0,0,0,113.14,39l-1.79-2.78c3.41-2.6,6.76-3.89,10-3.79,3.51.11,6,1.73,8.67,3.45s5.59,3.6,9.64,3.74h.49c3.75,0,7.39-1.36,11.16-4.3l.13-.52a19.67,19.67,0,0,0,1-6.09c0-10.3-7.25-17.85-17.65-17.85H123.22V31.62a11.91,11.91,0,0,0-1.83-.21c-3.45-.1-7,1.24-10.58,3.95l-1.72-2.68c5.1-1.27,8-5.35,8-10.71,0-6.53-4.75-11.12-11.84-11.12H93.48V46.56H99.6Zm29.74-16.43h5.51c6.94,0,11.32,5.51,11.32,12a12.2,12.2,0,0,1-4.58,9.82,14.94,14.94,0,0,1-1.89.08c-3.77-.13-6.49-1.89-9.13-3.58-.4-.27-.82-.53-1.23-.79Zm-29.74,0h4.85c3.93,0,6.37,1.79,6.37,5.31s-2.44,5.3-6.37,5.3H99.6Z"/><path class="cls-13" d="M176.11,47.38a18,18,0,0,0,13.72-6.07l-4.08-4a12.71,12.71,0,0,1-9.64,4.39c-7,0-11.89-5.87-11.89-12.76s4.85-12.75,11.89-12.75a12.29,12.29,0,0,1,9.08,3.93l4.13-4a17.89,17.89,0,0,0-13.21-5.61C165.8,10.45,158,18.36,158,28.91S165.8,47.38,176.11,47.38Z"/><path class="cls-14" d="M239.07,22.79l11.17,17,9.25-14.06a11.75,11.75,0,0,0,1.92-.65v21.7h6.13V11.06h-5.67L255.1,21.52a11.38,11.38,0,0,1-1.76-.77,6.81,6.81,0,0,0-3.5-1,7.18,7.18,0,0,0-4.38,1.89l-6.85-10.57H233V46.77h6.12Zm22.34,0V24c-.36.17-.71.32-1.06.45ZM250.24,29l-2.84-4.4a5.17,5.17,0,0,1,2.47-.69,5.69,5.69,0,0,1,3,.89l.06,0Zm-.37-8.28a5.61,5.61,0,0,1,3,.9,13.53,13.53,0,0,0,1.66.75l-1,1.62-.15-.07a6.81,6.81,0,0,0-3.5-1,6,6,0,0,0-3,.84L246,22.48A6.34,6.34,0,0,1,249.87,20.74Z"/><polygon class="cls-15" points="202.53 38.3 209.63 38.3 212.89 46.77 227.07 46.77 213.19 11.06 210.69 4.76 210.69 4.75 210.5 4.28 211.29 2.29 210.57 2 210.08 3.23 209.59 2 208.87 2.29 209.66 4.28 206.97 11.06 193.09 46.77 199.27 46.77 202.53 38.3"/><path class="cls-16" d="M22.37,89.06c10.09,0,17.5-7.66,17.5-17.9s-7.41-17.9-17.5-17.9-17.5,7.67-17.5,17.9S12.28,89.06,22.37,89.06Zm0-30.16c7,0,11.47,5.59,11.47,12.26s-4.5,12.27-11.47,12.27S10.9,77.84,10.9,71.16,15.4,58.9,22.37,58.9Z"/><path class="cls-17" d="M69.65,79.42c0-6.28-4.41-8.65-9.7-10.63-4.74-1.78-7.46-2.72-7.46-5.74,0-2.32,2.32-4.15,5.29-4.15,4.3,0,7.17,3.91,7.17,3.91l4.1-4.06a14.86,14.86,0,0,0-11.27-5.49c-7,0-11.33,4.9-11.33,9.79,0,6.43,5.74,9.2,10.83,11,4.11,1.44,6.33,2.47,6.33,5.39s-3.06,4-6,4c-5.24,0-8.21-5.2-8.21-5.2L44.92,82a15.14,15.14,0,0,0,12.66,7.07C64.11,89.06,69.65,85.7,69.65,79.42Z"/><path class="cls-18" d="M83.84,80.26H98.48l3.16,8.21h6L94.17,53.86h-6L74.69,88.47h6Zm7.32-18.94,5.19,13.5H86Z"/><polygon class="cls-19" points="114.06 53.86 114.06 88.47 120 88.47 120 72.84 133.6 88.47 141.46 88.47 126.23 70.87 139.78 53.86 132.36 53.86 120 69.38 120 53.86 114.06 53.86"/><path class="cls-20" d="M180.83,88.47,167.38,53.86h-6L147.9,88.47h6l3.17-8.21h14.63l3.17,8.21ZM159.17,74.82l5.19-13.5,5.2,13.5Z"/><path class="cls-21" d="M194.24,87.84H217V82.2H205.91l8-10.28a14.35,14.35,0,0,0,3-8.51c0-5.73-3.61-10.78-11.08-10.78-9.24,0-11.47,8.66-11.47,8.66l5.29,1.92s1.09-5,6.18-5A5.09,5.09,0,0,1,211,63.51c0,3.91-2.72,6.53-4,8.21Z"/><path class="cls-22" d="M235.14,52.63c-8.8,0-13.06,8.51-13.06,17.9s4.26,17.9,13.06,17.9,13-8.5,13-17.9S243.94,52.63,235.14,52.63Zm0,30.26c-4.8,0-7.12-5.58-7.12-12.36s2.32-12.36,7.12-12.36,7,5.59,7,12.36S239.93,82.89,235.14,82.89Z"/><polygon class="cls-23" points="261.24 87.84 267.17 87.84 267.17 53.23 262.28 53.23 251.75 61.63 255.16 65.98 261.24 61.14 261.24 87.84"/><path class="cls-24" d="M292.5,69.44a8.27,8.27,0,0,0,3.86-6.82c0-5.14-3.66-10-10.88-10s-10.88,4.85-10.88,10a8.27,8.27,0,0,0,3.86,6.82,8.61,8.61,0,0,0-4.85,8.21c0,5.79,4.35,10.78,11.87,10.78s11.87-5,11.87-10.78A8.61,8.61,0,0,0,292.5,69.44Zm-7-11.37c2.77,0,5,1.78,5,4.6s-2.23,4.6-5,4.6-5-1.78-5-4.6S282.71,58.07,285.48,58.07Zm0,24.92c-3.91,0-5.88-2.62-5.88-5.44s2-5.34,5.88-5.34,5.88,2.53,5.88,5.34S289.39,83,285.48,83Z"/><polygon class="cls-25" points="277.54 41.56 277.54 31.91 298.21 20.49 277.54 9.06 271.42 5.26 271.42 44.77 277.54 44.77 277.54 41.56"/><polygon class="cls-25" points="67.86 5.94 64.86 14.01 70.86 14.01 67.86 5.94"/><polygon class="cls-25" points="61.16 16.01 53.33 12.43 56.92 20.25 61.16 16.01"/><polygon class="cls-25" points="47.34 27.27 55.4 30.26 55.4 24.27 47.34 27.27"/><polygon class="cls-25" points="56.81 33.21 53.22 41.03 61.05 37.45 56.81 33.21"/><polygon class="cls-25" points="70.73 39.39 64.74 39.39 67.73 47.46 70.73 39.39"/><polygon class="cls-25" points="78.28 33.44 74.37 37.98 82.44 40.97 78.28 33.44"/><polygon class="cls-25" points="80.42 30.26 88.49 27.27 80.42 24.27 80.42 30.26"/><polygon class="cls-25" points="82.39 11.86 74.57 15.45 78.81 19.69 82.39 11.86"/><polygon class="cls-25" points="20.72 29.4 21.05 30.26 22.88 25.73 23.87 28.4 26.14 21.98 35.66 45.78 49.73 8.85 43.36 8.85 35.6 30.27 27.65 8.85 22.6 8.85 14.49 30.27 6.94 8.85 0 8.85 14.08 45.78 20.72 29.4"/><path class="cls-25" d="M97.6,31.09h2.81l6,9.52h0l2.48,4H116l-4.33-6.73a14.18,14.18,0,0,1,7.67-2.18c3.51.11,6,1.73,8.67,3.44s5.59,3.6,9.64,3.74h.49c3.75,0,7.56-1.49,11.33-4.42l-.61-.79c-3.75,2.91-7.52,4.35-11.18,4.2s-6.49-1.88-9.13-3.58-5.39-3.48-9.18-3.6A15.2,15.2,0,0,0,111.14,37l-1.79-2.78c3.41-2.6,6.76-3.89,10-3.79,3.51.11,6,1.73,8.67,3.45s5.59,3.6,9.64,3.74h.49c3.75,0,7.39-1.36,11.16-4.3l.13-.52a19.67,19.67,0,0,0,1-6.09c0-10.3-7.25-17.85-17.65-17.85H121.22V29.62a11.91,11.91,0,0,0-1.83-.21c-3.45-.1-7,1.24-10.58,3.95l-1.72-2.68c5.1-1.27,8-5.35,8-10.71,0-6.53-4.75-11.12-11.84-11.12H91.48V44.56H97.6Zm29.74-16.43h5.51c6.94,0,11.32,5.51,11.32,12a12.2,12.2,0,0,1-4.58,9.82,14.94,14.94,0,0,1-1.89.08c-3.77-.13-6.49-1.89-9.13-3.58-.4-.27-.82-.53-1.23-.79Zm-29.74,0h4.85c3.93,0,6.37,1.79,6.37,5.31s-2.44,5.3-6.37,5.3H97.6Z"/><path class="cls-25" d="M174.11,45.38a18,18,0,0,0,13.72-6.07l-4.08-4a12.71,12.71,0,0,1-9.64,4.39c-7,0-11.89-5.87-11.89-12.76s4.85-12.75,11.89-12.75a12.29,12.29,0,0,1,9.08,3.93l4.13-4a17.89,17.89,0,0,0-13.21-5.61C163.8,8.45,156,16.36,156,26.91S163.8,45.38,174.11,45.38Z"/><path class="cls-25" d="M237.07,20.79l11.17,17,9.25-14.06a11.75,11.75,0,0,0,1.92-.65v21.7h6.13V9.06h-5.67L253.1,19.52a11.38,11.38,0,0,1-1.76-.77,6.81,6.81,0,0,0-3.5-1,7.18,7.18,0,0,0-4.38,1.89L236.61,9.06H231V44.77h6.12Zm22.34,0V22c-.36.17-.71.32-1.06.45ZM248.24,27l-2.84-4.4a5.17,5.17,0,0,1,2.47-.69,5.69,5.69,0,0,1,3,.89l.06,0Zm-.37-8.28a5.61,5.61,0,0,1,3,.9,13.53,13.53,0,0,0,1.66.75l-1,1.62-.15-.07a6.81,6.81,0,0,0-3.5-1,6,6,0,0,0-3,.84L244,20.48A6.34,6.34,0,0,1,247.87,18.74Z"/><polygon class="cls-25" points="200.53 36.3 207.63 36.3 210.89 44.77 225.07 44.77 211.19 9.06 208.69 2.76 208.69 2.75 208.5 2.28 209.29 0.29 208.57 0 208.08 1.23 207.59 0 206.87 0.29 207.66 2.28 204.97 9.06 191.09 44.77 197.27 44.77 200.53 36.3"/><path class="cls-25" d="M20.37,87.06c10.09,0,17.5-7.66,17.5-17.9s-7.41-17.9-17.5-17.9-17.5,7.67-17.5,17.9S10.28,87.06,20.37,87.06Zm0-30.16c7,0,11.47,5.59,11.47,12.26s-4.5,12.27-11.47,12.27S8.9,75.84,8.9,69.16,13.4,56.9,20.37,56.9Z"/><path class="cls-25" d="M67.65,77.42c0-6.28-4.41-8.65-9.7-10.63-4.74-1.78-7.46-2.72-7.46-5.74,0-2.32,2.32-4.15,5.29-4.15,4.3,0,7.17,3.91,7.17,3.91l4.1-4.06a14.86,14.86,0,0,0-11.27-5.49c-7,0-11.33,4.9-11.33,9.79,0,6.43,5.74,9.2,10.83,11,4.11,1.44,6.33,2.47,6.33,5.39s-3.06,4-6,4c-5.24,0-8.21-5.2-8.21-5.2L42.92,80a15.14,15.14,0,0,0,12.66,7.07C62.11,87.06,67.65,83.7,67.65,77.42Z"/><path class="cls-25" d="M81.84,78.26H96.48l3.16,8.21h6L92.17,51.86h-6L72.69,86.47h6Zm7.32-18.94,5.19,13.5H84Z"/><polygon class="cls-25" points="112.06 51.86 112.06 86.47 118 86.47 118 70.84 131.6 86.47 139.46 86.47 124.23 68.87 137.78 51.86 130.36 51.86 118 67.38 118 51.86 112.06 51.86"/><path class="cls-25" d="M178.83,86.47,165.38,51.86h-6L145.9,86.47h6l3.17-8.21h14.63l3.17,8.21ZM157.17,72.82l5.19-13.5,5.2,13.5Z"/><path class="cls-25" d="M192.24,85.84H215V80.2H203.91l8-10.28a14.35,14.35,0,0,0,3-8.51c0-5.73-3.61-10.78-11.08-10.78-9.24,0-11.47,8.66-11.47,8.66l5.29,1.92s1.09-5,6.18-5A5.09,5.09,0,0,1,209,61.51c0,3.91-2.72,6.53-4,8.21Z"/><path class="cls-25" d="M233.14,50.63c-8.8,0-13.06,8.51-13.06,17.9s4.26,17.9,13.06,17.9,13-8.5,13-17.9S241.94,50.63,233.14,50.63Zm0,30.26c-4.8,0-7.12-5.58-7.12-12.36s2.32-12.36,7.12-12.36,7,5.59,7,12.36S237.93,80.89,233.14,80.89Z"/><polygon class="cls-25" points="259.24 85.84 265.17 85.84 265.17 51.23 260.28 51.23 249.75 59.63 253.16 63.98 259.24 59.14 259.24 85.84"/><path class="cls-25" d="M290.5,67.44a8.27,8.27,0,0,0,3.86-6.82c0-5.14-3.66-10-10.88-10s-10.88,4.85-10.88,10a8.27,8.27,0,0,0,3.86,6.82,8.61,8.61,0,0,0-4.85,8.21c0,5.79,4.35,10.78,11.87,10.78s11.87-5,11.87-10.78A8.61,8.61,0,0,0,290.5,67.44Zm-7-11.37c2.77,0,5,1.78,5,4.6s-2.23,4.6-5,4.6-5-1.78-5-4.6S280.71,56.07,283.48,56.07Zm0,24.92c-3.91,0-5.88-2.62-5.88-5.44s2-5.34,5.88-5.34,5.88,2.53,5.88,5.34S287.39,81,283.48,81Z"/></g></g></svg>