<svg xmlns="http://www.w3.org/2000/svg" viewBox="0 0 299.71 194.54"><defs><style>.cls-1{fill:#fff;}.cls-2{fill:#191919;}</style></defs><title>logo-front</title><g id="レイヤー_2" data-name="レイヤー 2"><g id="レイヤー_1-2" data-name="レイヤー 1"><polygon class="cls-1" points="279.04 43.06 279.04 33.41 299.71 21.99 279.04 10.56 272.92 6.76 272.92 46.27 279.04 46.27 279.04 43.06"/><polygon class="cls-1" points="69.36 7.44 66.36 15.51 72.36 15.51 69.36 7.44"/><polygon class="cls-1" points="62.66 17.51 54.83 13.93 58.42 21.75 62.66 17.51"/><polygon class="cls-1" points="48.84 28.77 56.9 31.76 56.9 25.77 48.84 28.77"/><polygon class="cls-1" points="58.31 34.71 54.72 42.53 62.55 38.95 58.31 34.71"/><polygon class="cls-1" points="72.23 40.89 66.24 40.89 69.23 48.96 72.23 40.89"/><polygon class="cls-1" points="79.78 34.94 75.87 39.48 83.94 42.47 79.78 34.94"/><polygon class="cls-1" points="81.92 31.76 89.99 28.77 81.92 25.77 81.92 31.76"/><polygon class="cls-1" points="83.89 13.36 76.07 16.95 80.31 21.19 83.89 13.36"/><polygon class="cls-1" points="22.22 30.9 22.55 31.76 24.38 27.23 25.37 29.9 27.64 23.48 37.16 47.28 51.23 10.35 44.86 10.35 37.1 31.77 29.15 10.35 24.1 10.35 15.99 31.77 8.44 10.35 1.5 10.35 15.58 47.28 22.22 30.9"/><path class="cls-1" d="M99.1,32.59h2.81l6,9.52h0l2.48,4h7.15l-4.33-6.73a14.18,14.18,0,0,1,7.67-2.18c3.51.11,6,1.73,8.67,3.44s5.59,3.6,9.64,3.74h.49c3.75,0,7.56-1.49,11.33-4.42l-.61-.79c-3.75,2.91-7.52,4.35-11.18,4.2s-6.49-1.88-9.13-3.58-5.39-3.48-9.18-3.6a15.2,15.2,0,0,0-8.25,2.33l-1.79-2.78c3.41-2.6,6.76-3.89,10-3.79,3.51.11,6,1.73,8.67,3.45s5.59,3.6,9.64,3.74h.49c3.75,0,7.39-1.36,11.16-4.3l.13-.52a19.67,19.67,0,0,0,1-6.09c0-10.3-7.25-17.85-17.65-17.85H122.72V31.12a11.91,11.91,0,0,0-1.83-.21c-3.45-.1-7,1.24-10.58,3.95l-1.72-2.68c5.1-1.27,8-5.35,8-10.71,0-6.53-4.75-11.12-11.84-11.12H93V46.06H99.1Zm29.74-16.43h5.51c6.94,0,11.32,5.51,11.32,12A12.2,12.2,0,0,1,141.09,38a14.94,14.94,0,0,1-1.89.08c-3.77-.13-6.49-1.89-9.13-3.58-.4-.27-.82-.53-1.23-.79Zm-29.74,0H104c3.93,0,6.37,1.79,6.37,5.31s-2.44,5.3-6.37,5.3H99.1Z"/><path class="cls-1" d="M175.61,46.88a18,18,0,0,0,13.72-6.07l-4.08-4a12.71,12.71,0,0,1-9.64,4.39c-7,0-11.89-5.87-11.89-12.76s4.85-12.75,11.89-12.75a12.29,12.29,0,0,1,9.08,3.93l4.13-4A17.89,17.89,0,0,0,175.61,10c-10.31,0-18.11,7.91-18.11,18.46S165.3,46.88,175.61,46.88Z"/><path class="cls-1" d="M238.57,22.29l11.17,17L259,25.22a11.75,11.75,0,0,0,1.92-.65v21.7H267V10.56h-5.67L254.6,21a11.38,11.38,0,0,1-1.76-.77,6.81,6.81,0,0,0-3.5-1A7.18,7.18,0,0,0,245,21.13l-6.85-10.57h-5.66V46.27h6.12Zm22.34,0v1.18c-.36.17-.71.32-1.06.45Zm-11.17,6.23-2.84-4.4a5.17,5.17,0,0,1,2.47-.69,5.69,5.69,0,0,1,3,.89l.06,0Zm-.37-8.28a5.61,5.61,0,0,1,3,.9,13.53,13.53,0,0,0,1.66.75l-1,1.62-.15-.07a6.81,6.81,0,0,0-3.5-1,6,6,0,0,0-3,.84L245.51,22A6.34,6.34,0,0,1,249.37,20.24Z"/><polygon class="cls-1" points="202.03 37.8 209.13 37.8 212.39 46.27 226.57 46.27 212.69 10.56 210.19 4.26 210.19 4.25 210 3.78 210.79 1.79 210.07 1.5 209.58 2.73 209.09 1.5 208.37 1.79 209.16 3.78 206.47 10.56 192.59 46.27 198.77 46.27 202.03 37.8"/><path class="cls-1" d="M21.87,88.56c10.09,0,17.5-7.66,17.5-17.9S32,52.76,21.87,52.76s-17.5,7.67-17.5,17.9S11.78,88.56,21.87,88.56Zm0-30.16c7,0,11.47,5.59,11.47,12.26s-4.5,12.27-11.47,12.27S10.4,77.34,10.4,70.66,14.9,58.4,21.87,58.4Z"/><path class="cls-1" d="M69.15,78.92c0-6.28-4.41-8.65-9.7-10.63C54.71,66.51,52,65.57,52,62.55c0-2.32,2.32-4.15,5.29-4.15,4.3,0,7.17,3.91,7.17,3.91l4.1-4.06a14.86,14.86,0,0,0-11.27-5.49c-7,0-11.33,4.9-11.33,9.79,0,6.43,5.74,9.2,10.83,11C60.89,75,63.11,76,63.11,78.92s-3.06,4-6,4c-5.24,0-8.21-5.2-8.21-5.2l-4.45,3.76a15.14,15.14,0,0,0,12.66,7.07C63.61,88.56,69.15,85.2,69.15,78.92Z"/><path class="cls-1" d="M83.34,79.76H98L101.14,88h6L93.67,53.36h-6L74.19,88h6Zm7.32-18.94,5.19,13.5H85.47Z"/><polygon class="cls-1" points="113.56 53.36 113.56 87.97 119.5 87.97 119.5 72.34 133.1 87.97 140.96 87.97 125.73 70.37 139.28 53.36 131.86 53.36 119.5 68.88 119.5 53.36 113.56 53.36"/><path class="cls-1" d="M180.33,88,166.88,53.36h-6L147.4,88h6l3.17-8.21h14.63L174.35,88ZM158.67,74.32l5.19-13.5,5.2,13.5Z"/><path class="cls-1" d="M193.74,87.34h22.8V81.7H205.41l8-10.28a14.35,14.35,0,0,0,3-8.51c0-5.73-3.61-10.78-11.08-10.78-9.24,0-11.47,8.66-11.47,8.66l5.29,1.92s1.09-5,6.18-5A5.09,5.09,0,0,1,210.46,63c0,3.91-2.72,6.53-4,8.21Z"/><path class="cls-1" d="M234.64,52.13c-8.8,0-13.06,8.51-13.06,17.9s4.26,17.9,13.06,17.9,13-8.5,13-17.9S243.44,52.13,234.64,52.13Zm0,30.26c-4.8,0-7.12-5.58-7.12-12.36s2.32-12.36,7.12-12.36,7,5.59,7,12.36S239.43,82.39,234.64,82.39Z"/><polygon class="cls-1" points="260.74 87.34 266.67 87.34 266.67 52.73 261.78 52.73 251.25 61.13 254.66 65.48 260.74 60.64 260.74 87.34"/><path class="cls-1" d="M292,68.94a8.27,8.27,0,0,0,3.86-6.82c0-5.14-3.66-10-10.88-10S274.1,57,274.1,62.12A8.27,8.27,0,0,0,278,68.94a8.61,8.61,0,0,0-4.85,8.21c0,5.79,4.35,10.78,11.87,10.78s11.87-5,11.87-10.78A8.61,8.61,0,0,0,292,68.94Zm-7-11.37c2.77,0,5,1.78,5,4.6s-2.23,4.6-5,4.6-5-1.78-5-4.6S282.21,57.57,285,57.57Zm0,24.92c-3.91,0-5.88-2.62-5.88-5.44s2-5.34,5.88-5.34,5.88,2.53,5.88,5.34S288.89,82.49,285,82.49Z"/><path class="cls-1" d="M16,116.88a5.09,5.09,0,0,0,.36-1.15,9.3,9.3,0,0,0,.15-1.21q0-.63,0-1.56a9.67,9.67,0,0,0-.3-2.45,6.14,6.14,0,0,0-1-2.05A4.86,4.86,0,0,0,13.56,107a5.45,5.45,0,0,0-2.46-.52,5.22,5.22,0,0,0-2.16.45,5.34,5.34,0,0,0-1.73,1.21A5.64,5.64,0,0,0,6,109.93a5.38,5.38,0,0,0-.43,2.16v2H9.26V112a1.67,1.67,0,0,1,1.8-1.84,1.73,1.73,0,0,1,1,.27,1.75,1.75,0,0,1,.54.67,2.35,2.35,0,0,1,.19.92c0,.35,0,.68,0,1a16.92,16.92,0,0,1-.07,1.74,4.51,4.51,0,0,1-.58,1.64L5.59,128.9v3.46H16.53v-3.67H9.91l5.4-10.41C15.6,117.73,15.83,117.26,16,116.88Z"/><path class="cls-1" d="M30.11,131.1a5.5,5.5,0,0,0,1.21-1.73,5.59,5.59,0,0,0,.45-2.3V112a5.59,5.59,0,0,0-.45-2.3A5.38,5.38,0,0,0,30.11,108a5.14,5.14,0,0,0-1.75-1.1,5.83,5.83,0,0,0-4.14,0,5.1,5.1,0,0,0-1.74,1.1,5.23,5.23,0,0,0-1.21,1.73,5.59,5.59,0,0,0-.45,2.3v15a5.59,5.59,0,0,0,.45,2.3,5.34,5.34,0,0,0,1.21,1.73,5.1,5.1,0,0,0,1.74,1.1,5.83,5.83,0,0,0,4.14,0A5.14,5.14,0,0,0,30.11,131.1Zm-2-4a1.79,1.79,0,0,1-.5,1.31,1.73,1.73,0,0,1-1.3.52,1.7,1.7,0,0,1-1.29-.52,1.79,1.79,0,0,1-.51-1.31V112a1.78,1.78,0,0,1,.51-1.31,1.71,1.71,0,0,1,1.29-.53,1.73,1.73,0,0,1,1.3.53,1.77,1.77,0,0,1,.5,1.31Z"/><polygon class="cls-1" points="40.06 132.36 43.73 132.36 43.73 106.73 40.06 106.73 36.38 109.43 36.38 113.32 40.06 110.62 40.06 132.36"/><path class="cls-1" d="M59.53,117.87a3.27,3.27,0,0,0,.56-1.1,6.23,6.23,0,0,0,.22-1.4q0-.8,0-2c0-.69,0-1.29-.05-1.78a5.51,5.51,0,0,0-.24-1.28,5.07,5.07,0,0,0-.43-1,8.43,8.43,0,0,0-.61-.9,5,5,0,0,0-1.8-1.46,5.52,5.52,0,0,0-4.68,0,5,5,0,0,0-1.8,1.46,6,6,0,0,0-.59.9,5.78,5.78,0,0,0-.42,1,6,6,0,0,0-.25,1.28c0,.49-.07,1.09-.07,1.78s0,1.42,0,2a6.23,6.23,0,0,0,.22,1.4,3.27,3.27,0,0,0,.56,1.1,7,7,0,0,0,1,1,5.4,5.4,0,0,0-1,1,3.53,3.53,0,0,0-.56,1.19,8.27,8.27,0,0,0-.22,1.68q0,1,0,2.43c0,.79,0,1.44.05,2s.09,1,.16,1.35a4.1,4.1,0,0,0,.31,1,6.87,6.87,0,0,0,.49.83,5.12,5.12,0,0,0,1.72,1.6,5.94,5.94,0,0,0,5.48,0,5.22,5.22,0,0,0,1.72-1.6,6.87,6.87,0,0,0,.49-.83,4.1,4.1,0,0,0,.31-1c.07-.39.12-.84.16-1.35s.05-1.17.05-2q0-1.44,0-2.43a8.27,8.27,0,0,0-.22-1.68,3.53,3.53,0,0,0-.56-1.19,5.4,5.4,0,0,0-1-1A7,7,0,0,0,59.53,117.87Zm-2.86,9.23a1.71,1.71,0,0,1-.54,1.28,1.79,1.79,0,0,1-2.52,0,1.71,1.71,0,0,1-.54-1.28v-5a1.69,1.69,0,0,1,.54-1.27,1.76,1.76,0,0,1,2.52,0,1.69,1.69,0,0,1,.54,1.27Zm0-11.37a1.72,1.72,0,0,1-.54,1.28,1.79,1.79,0,0,1-2.52,0,1.72,1.72,0,0,1-.54-1.28V112a1.69,1.69,0,0,1,.54-1.27,1.76,1.76,0,0,1,2.52,0,1.69,1.69,0,0,1,.54,1.27Z"/><rect class="cls-1" x="64.69" y="128.69" width="3.67" height="3.67"/><path class="cls-1" d="M74.43,131.1a5.24,5.24,0,0,0,1.75,1.1,5.83,5.83,0,0,0,4.14,0,5.1,5.1,0,0,0,1.74-1.1,5.34,5.34,0,0,0,1.21-1.73,5.59,5.59,0,0,0,.45-2.3V112a5.59,5.59,0,0,0-.45-2.3A5.23,5.23,0,0,0,82.06,108a5.1,5.1,0,0,0-1.74-1.1,5.83,5.83,0,0,0-4.14,0,5.24,5.24,0,0,0-1.75,1.1,5.36,5.36,0,0,0-1.2,1.73,5.43,5.43,0,0,0-.45,2.3v15a5.42,5.42,0,0,0,1.65,4Zm2-19.08a1.77,1.77,0,0,1,.5-1.31,1.73,1.73,0,0,1,1.3-.53,1.7,1.7,0,0,1,1.29.53,1.78,1.78,0,0,1,.51,1.31v15a1.79,1.79,0,0,1-.51,1.31,1.69,1.69,0,0,1-1.29.52,1.73,1.73,0,0,1-1.3-.52,1.79,1.79,0,0,1-.5-1.31Z"/><path class="cls-1" d="M98.12,130.09a6.48,6.48,0,0,0,.42-.83,6.2,6.2,0,0,0,.27-1c0-.36.08-.81.1-1.35s0-1.23,0-2.07c0-1,0-1.84,0-2.5s-.06-1.21-.1-1.64a6.25,6.25,0,0,0-.26-1,3.41,3.41,0,0,0-.39-.79,3.65,3.65,0,0,0-1.3-1.19,3.61,3.61,0,0,0-1.8-.47,4.39,4.39,0,0,0-1,.09,1.57,1.57,0,0,0-.56.23l-.07-.07,4.18-10.76H93.51l-4.82,12.89c-.12.33-.23.65-.32.95a5.55,5.55,0,0,0-.22,1c-.05.38-.08.83-.11,1.35s0,1.17,0,2,0,1.53,0,2.07a8.77,8.77,0,0,0,.15,1.35,3.37,3.37,0,0,0,.23,1,4.89,4.89,0,0,0,.45.83,5.21,5.21,0,0,0,1.91,1.82,5.46,5.46,0,0,0,2.7.67,5.69,5.69,0,0,0,2.72-.65A5,5,0,0,0,98.12,130.09Zm-2.84-3a1.74,1.74,0,0,1-.54,1.33,1.84,1.84,0,0,1-2.52,0,1.74,1.74,0,0,1-.54-1.33v-4.75a1.75,1.75,0,0,1,.54-1.34,1.84,1.84,0,0,1,2.52,0,1.75,1.75,0,0,1,.54,1.34Z"/><rect class="cls-1" x="103.3" y="128.69" width="3.67" height="3.67"/><path class="cls-1" d="M118.93,132.2a5.1,5.1,0,0,0,1.74-1.1,5.34,5.34,0,0,0,1.21-1.73,5.59,5.59,0,0,0,.45-2.3V112a5.59,5.59,0,0,0-.45-2.3,5.23,5.23,0,0,0-1.21-1.73,5.1,5.1,0,0,0-1.74-1.1,5.83,5.83,0,0,0-4.14,0A5.14,5.14,0,0,0,113,108a5.38,5.38,0,0,0-1.21,1.73,5.59,5.59,0,0,0-.45,2.3v15a5.59,5.59,0,0,0,.45,2.3A5.5,5.5,0,0,0,113,131.1a5.14,5.14,0,0,0,1.75,1.1,5.83,5.83,0,0,0,4.14,0Zm-3.87-5.13V112a1.77,1.77,0,0,1,.5-1.31,1.73,1.73,0,0,1,1.3-.53,1.71,1.71,0,0,1,1.29.53,1.78,1.78,0,0,1,.51,1.31v15a1.79,1.79,0,0,1-.51,1.31,1.7,1.7,0,0,1-1.29.52,1.73,1.73,0,0,1-1.3-.52A1.79,1.79,0,0,1,115.06,127.07Z"/><path class="cls-1" d="M137,116.88a5.09,5.09,0,0,0,.36-1.15,9.32,9.32,0,0,0,.14-1.21c0-.42,0-.94,0-1.56a9.24,9.24,0,0,0-.31-2.45,6.12,6.12,0,0,0-.95-2.05,5,5,0,0,0-1.71-1.43,5.49,5.49,0,0,0-2.47-.52,5.32,5.32,0,0,0-3.88,1.66,5.47,5.47,0,0,0-1.19,1.76,5.38,5.38,0,0,0-.43,2.16v2h3.67V112a1.83,1.83,0,0,1,.48-1.37,1.85,1.85,0,0,1,1.32-.47,1.72,1.72,0,0,1,1,.27,1.75,1.75,0,0,1,.54.67,2.35,2.35,0,0,1,.2.92c0,.35,0,.68,0,1,0,.69,0,1.28-.07,1.74a4.51,4.51,0,0,1-.58,1.64l-6.62,12.49v3.46h10.94v-3.67h-6.62l5.4-10.41C136.62,117.73,136.85,117.26,137,116.88Z"/><rect class="cls-1" x="141.23" y="120.55" width="10.84" height="3.67"/><path class="cls-1" d="M164.11,132.2a5.24,5.24,0,0,0,1.75-1.1,5.47,5.47,0,0,0,1.2-1.73,5.59,5.59,0,0,0,.45-2.3V112a5.59,5.59,0,0,0-.45-2.3,5.36,5.36,0,0,0-1.2-1.73,5.24,5.24,0,0,0-1.75-1.1,5.83,5.83,0,0,0-4.14,0,5.24,5.24,0,0,0-1.75,1.1,5.36,5.36,0,0,0-1.2,1.73,5.59,5.59,0,0,0-.45,2.3v15a5.59,5.59,0,0,0,.45,2.3,5.47,5.47,0,0,0,1.2,1.73,5.24,5.24,0,0,0,1.75,1.1,5.83,5.83,0,0,0,4.14,0Zm-3.87-5.13V112a1.81,1.81,0,0,1,.5-1.31,1.86,1.86,0,0,1,2.6,0,1.81,1.81,0,0,1,.5,1.31v15a1.83,1.83,0,0,1-.5,1.31,1.88,1.88,0,0,1-2.6,0A1.83,1.83,0,0,1,160.24,127.07Z"/><path class="cls-1" d="M174.57,131.91a5.46,5.46,0,0,0,2.7.67,5.69,5.69,0,0,0,2.72-.65,5,5,0,0,0,1.92-1.84,6.48,6.48,0,0,0,.42-.83,4.58,4.58,0,0,0,.27-1c.05-.36.08-.81.11-1.35s0-1.23,0-2.07c0-1,0-1.84,0-2.5s-.06-1.21-.11-1.64a6.37,6.37,0,0,0-.25-1,3.91,3.91,0,0,0-.4-.79,3.77,3.77,0,0,0-3.09-1.66,4.55,4.55,0,0,0-1,.09,1.51,1.51,0,0,0-.55.23l-.07-.07,4.17-10.76h-4.1l-4.83,12.89c-.12.33-.23.65-.32.95a5.55,5.55,0,0,0-.22,1c-.05.38-.08.83-.11,1.35s0,1.17,0,2,0,1.53,0,2.07a10.23,10.23,0,0,0,.15,1.35,4.2,4.2,0,0,0,.23,1,4.89,4.89,0,0,0,.45.83A5.21,5.21,0,0,0,174.57,131.91Zm.9-9.59A1.75,1.75,0,0,1,176,121a1.84,1.84,0,0,1,2.52,0,1.75,1.75,0,0,1,.54,1.34v4.75a1.74,1.74,0,0,1-.54,1.33,1.84,1.84,0,0,1-2.52,0,1.74,1.74,0,0,1-.54-1.33Z"/><rect class="cls-1" x="187.09" y="128.69" width="3.67" height="3.67"/><path class="cls-1" d="M204.46,108a5.1,5.1,0,0,0-1.74-1.1,5.83,5.83,0,0,0-4.14,0,5.24,5.24,0,0,0-1.75,1.1,5.36,5.36,0,0,0-1.2,1.73,5.59,5.59,0,0,0-.45,2.3v15a5.59,5.59,0,0,0,.45,2.3,5.47,5.47,0,0,0,1.2,1.73,5.24,5.24,0,0,0,1.75,1.1,5.83,5.83,0,0,0,4.14,0,5.1,5.1,0,0,0,1.74-1.1,5.34,5.34,0,0,0,1.21-1.73,5.59,5.59,0,0,0,.45-2.3V112a5.59,5.59,0,0,0-.45-2.3A5.23,5.23,0,0,0,204.46,108Zm-2,19.08a1.79,1.79,0,0,1-.51,1.31,1.69,1.69,0,0,1-1.29.52,1.73,1.73,0,0,1-1.3-.52,1.83,1.83,0,0,1-.5-1.31V112a1.81,1.81,0,0,1,.5-1.31,1.73,1.73,0,0,1,1.3-.53,1.7,1.7,0,0,1,1.29.53,1.78,1.78,0,0,1,.51,1.31Z"/><path class="cls-1" d="M221,117.28a4.81,4.81,0,0,0,.27-1.37c0-.55,0-1.27,0-2.16a14.71,14.71,0,0,0-.32-3.53,4,4,0,0,0-.45-1,7.92,7.92,0,0,0-.63-.87,5.7,5.7,0,0,0-1.5-1.2,4.75,4.75,0,0,0-2.5-.6,5.55,5.55,0,0,0-2.16.43A5.92,5.92,0,0,0,212,108.1a5.1,5.1,0,0,0-1.19,1.72,5.34,5.34,0,0,0-.43,2.13v2.12h3.67V112a2.13,2.13,0,0,1,.41-1.18,1.56,1.56,0,0,1,1.39-.62,1.72,1.72,0,0,1,1.31.51,1.76,1.76,0,0,1,.49,1.29v3.32q0,1.44-.63,1.83a4.57,4.57,0,0,1-2.29.4v3.24a11.54,11.54,0,0,1,1.46.07,1.61,1.61,0,0,1,.88.36,2.5,2.5,0,0,1,.58,2v3.67a2.19,2.19,0,0,1-.49,1.5,1.84,1.84,0,0,1-2.62,0,2.09,2.09,0,0,1-.49-1.43V125h-3.67v2.08a5.67,5.67,0,0,0,.52,2.56,5.13,5.13,0,0,0,1.31,1.69,5,5,0,0,0,1.77.94,6.5,6.5,0,0,0,1.83.29,5.21,5.21,0,0,0,2.79-.67,5.82,5.82,0,0,0,1.75-1.67,6.57,6.57,0,0,0,.47-.83,4.88,4.88,0,0,0,.29-1,12.12,12.12,0,0,0,.16-1.37c0-.55,0-1.25,0-2.09s0-1.66,0-2.25a5.54,5.54,0,0,0-.26-1.53,2.87,2.87,0,0,0-.66-1.08,7,7,0,0,0-1.32-1,7.85,7.85,0,0,0,1.24-.86A2.87,2.87,0,0,0,221,117.28Z"/><polygon class="cls-1" points="14.11 149.3 11.66 149.3 8.09 157.1 8.04 157.1 8.04 149.3 5.59 149.3 5.59 166.39 8.04 166.39 8.04 161.28 9.36 158.81 12.14 166.39 14.73 166.39 10.78 156.14 14.11 149.3"/><path class="cls-1" d="M23.15,155a3.32,3.32,0,0,0-1.18-.72,4.27,4.27,0,0,0-1.44-.24,3.83,3.83,0,0,0-1.51.28,3.37,3.37,0,0,0-1.15.75,3.9,3.9,0,0,0-1.11,2.64h2.38a1.49,1.49,0,0,1,.51-.91,1.39,1.39,0,0,1,.88-.31,1,1,0,0,1,1,.41,1.81,1.81,0,0,1,.26,1v1.27a2.17,2.17,0,0,0-.36,0,1.14,1.14,0,0,1-.28,0l-.27,0h-.26a6,6,0,0,0-1.9.25,2.57,2.57,0,0,0-1.17.76,2.78,2.78,0,0,0-.63,1.3,8.87,8.87,0,0,0-.17,1.82,4.43,4.43,0,0,0,.26,1.64,2.2,2.2,0,0,0,.66,1,2.11,2.11,0,0,0,.85.49,3,3,0,0,0,.87.14,2.27,2.27,0,0,0,1.38-.36,4.5,4.5,0,0,0,1-1h0v1.25H24.2v-8.47a4.35,4.35,0,0,0-.29-1.68A3.47,3.47,0,0,0,23.15,155Zm-1.4,7.78a1.73,1.73,0,0,1-.34,1.15,1.24,1.24,0,0,1-1,.41,1.1,1.1,0,0,1-.93-.44,1.72,1.72,0,0,1-.34-1.12,1.5,1.5,0,0,1,.57-1.36,2.35,2.35,0,0,1,1.35-.37,3.71,3.71,0,0,1,.67.07Z"/><path class="cls-1" d="M33.64,154.75a2.06,2.06,0,0,0-.81-.51,2.7,2.7,0,0,0-.92-.16,2.37,2.37,0,0,0-1.38.37,3.47,3.47,0,0,0-.92,1h-.05v-1.18H27.11v12.17h2.45v-8.18a2.37,2.37,0,0,1,.27-1.25,1,1,0,0,1,1-.43,1.07,1.07,0,0,1,.88.38A1.63,1.63,0,0,1,32,158v8.42h2.44v-9.33a3.93,3.93,0,0,0-.21-1.38A2.68,2.68,0,0,0,33.64,154.75Z"/><path class="cls-1" d="M40.75,164.23a1.05,1.05,0,0,1-1-.43,2.43,2.43,0,0,1-.35-.94h-2.3a4.14,4.14,0,0,0,.33,1.6,3.34,3.34,0,0,0,.82,1.14,3.54,3.54,0,0,0,2.5.94,3.73,3.73,0,0,0,1.46-.29,3.47,3.47,0,0,0,1.15-.79,4,4,0,0,0,.76-1.17,3.72,3.72,0,0,0,.27-1.43,4,4,0,0,0-.51-2A3.48,3.48,0,0,0,42,159.43l-1.44-.57a1.61,1.61,0,0,1-.86-.59,1.47,1.47,0,0,1-.17-.66,1.31,1.31,0,0,1,.31-.85,1.11,1.11,0,0,1,.89-.38,1.27,1.27,0,0,1,.85.32,1.21,1.21,0,0,1,.4.93h2.3a3.67,3.67,0,0,0-1-2.54,3.22,3.22,0,0,0-1.09-.75,3.89,3.89,0,0,0-2.77,0,3.19,3.19,0,0,0-1.13.73,3.38,3.38,0,0,0-.79,1.14,3.42,3.42,0,0,0-.29,1.43,3.3,3.3,0,0,0,.66,2.08A4,4,0,0,0,39.72,161l1.18.43a2.16,2.16,0,0,1,1,.63,1.46,1.46,0,0,1,.26.86,1.18,1.18,0,0,1-.42,1A1.42,1.42,0,0,1,40.75,164.23Z"/><path class="cls-1" d="M48.68,166.4a3,3,0,0,0,.88.14,2.31,2.31,0,0,0,1.38-.36,4.48,4.48,0,0,0,1-1H52v1.25h2.45v-8.47a4.54,4.54,0,0,0-.29-1.68,3.49,3.49,0,0,0-.77-1.2,3.28,3.28,0,0,0-1.17-.72,4.27,4.27,0,0,0-1.44-.24,3.88,3.88,0,0,0-1.52.28,3.47,3.47,0,0,0-1.15.75,3.89,3.89,0,0,0-1.1,2.64h2.37a1.5,1.5,0,0,1,.52-.91,1.37,1.37,0,0,1,.88-.31,1,1,0,0,1,1,.41,1.89,1.89,0,0,1,.26,1v1.27a2.3,2.3,0,0,0-.36,0,1.23,1.23,0,0,1-.29,0l-.26,0h-.27a5.92,5.92,0,0,0-1.89.25,2.6,2.6,0,0,0-1.18.76,2.87,2.87,0,0,0-.62,1.3,8.87,8.87,0,0,0-.17,1.82,4.45,4.45,0,0,0,.25,1.64,2.38,2.38,0,0,0,.66,1A2.18,2.18,0,0,0,48.68,166.4Zm1.25-4.94a2.41,2.41,0,0,1,1.36-.37,3.8,3.8,0,0,1,.67.07v1.66a1.74,1.74,0,0,1-.35,1.15,1.2,1.2,0,0,1-1,.41,1.14,1.14,0,0,1-.94-.44,1.78,1.78,0,0,1-.33-1.12A1.52,1.52,0,0,1,49.93,161.46Z"/><rect class="cls-1" x="57.32" y="149.3" width="2.45" height="2.45"/><rect class="cls-1" x="57.32" y="154.22" width="2.45" height="12.17"/><path class="cls-1" d="M71.22,166.22a3.82,3.82,0,0,0,3.06,0,4,4,0,0,0,1.28-.86,4.12,4.12,0,0,0,.85-1.26,3.93,3.93,0,0,0,.3-1.55V149.3H74.26v13a1.84,1.84,0,0,1-.43,1.35,1.57,1.57,0,0,1-2.16,0,1.84,1.84,0,0,1-.43-1.35v-13H68.79v13.25a3.77,3.77,0,0,0,.31,1.55,4.18,4.18,0,0,0,.87,1.26A3.83,3.83,0,0,0,71.22,166.22Z"/><path class="cls-1" d="M84.45,156.91a1.63,1.63,0,0,1,.31,1.06v8.42h2.45v-9.33a3.7,3.7,0,0,0-.22-1.38,2.53,2.53,0,0,0-.57-.93,2.09,2.09,0,0,0-.82-.51,2.65,2.65,0,0,0-.91-.16,2.37,2.37,0,0,0-1.38.37,3.66,3.66,0,0,0-.93,1h0v-1.18H79.89v12.17h2.45v-8.18A2.38,2.38,0,0,1,82.6,157a1,1,0,0,1,1-.43A1.09,1.09,0,0,1,84.45,156.91Z"/><rect class="cls-1" x="90.23" y="149.3" width="2.45" height="2.45"/><rect class="cls-1" x="90.23" y="154.22" width="2.45" height="12.17"/><polygon class="cls-1" points="103.58 154.22 100.99 154.22 99.36 162 99.31 162 97.68 154.22 95.09 154.22 98.26 166.39 100.42 166.39 103.58 154.22"/><path class="cls-1" d="M112.85,162.86H110.4a2,2,0,0,1-.28.82,1,1,0,0,1-.92.41,1.26,1.26,0,0,1-.88-.31,1.21,1.21,0,0,1-.32-.89v-1.66h4.85v-3.36a3.92,3.92,0,0,0-1-2.71,3.32,3.32,0,0,0-1.17-.79,3.89,3.89,0,0,0-1.52-.29,3.77,3.77,0,0,0-2,.48,3.33,3.33,0,0,0-1.23,1.27,3.15,3.15,0,0,0-.36,1.11,8.19,8.19,0,0,0-.1,1.36v4a8.32,8.32,0,0,0,.1,1.37,3.1,3.1,0,0,0,.36,1.1,3.36,3.36,0,0,0,1.23,1.28,3.77,3.77,0,0,0,2,.48,3.84,3.84,0,0,0,1.51-.29,3.47,3.47,0,0,0,1.15-.79A3.51,3.51,0,0,0,112.85,162.86ZM108,157.92a1.5,1.5,0,0,1,.32-1,1.28,1.28,0,0,1,1.76,0,1.5,1.5,0,0,1,.32,1v1.39H108Z"/><path class="cls-1" d="M118.14,159.17a2.9,2.9,0,0,1,.24-1.25,2.37,2.37,0,0,1,.62-.82,2.28,2.28,0,0,1,.81-.44,2.8,2.8,0,0,1,.83-.13,2.11,2.11,0,0,1,.74.14v-2.59a3.81,3.81,0,0,0-1.78.38,7.35,7.35,0,0,0-1.46,1.06v-1.3h-2.45v12.17h2.45Z"/><path class="cls-1" d="M129.76,165.46a3.78,3.78,0,0,0,.75-1.17,3.54,3.54,0,0,0,.28-1.43,3.92,3.92,0,0,0-.52-2,3.46,3.46,0,0,0-1.88-1.44l-1.44-.57a1.61,1.61,0,0,1-.86-.59,1.35,1.35,0,0,1-.17-.66,1.26,1.26,0,0,1,.31-.85,1.09,1.09,0,0,1,.89-.38,1.28,1.28,0,0,1,.85.32,1.21,1.21,0,0,1,.4.93h2.3a3.87,3.87,0,0,0-.26-1.4,3.69,3.69,0,0,0-.72-1.14,3.26,3.26,0,0,0-1.1-.75,3.65,3.65,0,0,0-1.38-.26,3.77,3.77,0,0,0-1.39.25,3.28,3.28,0,0,0-1.13.73,3.53,3.53,0,0,0-.79,1.14,3.58,3.58,0,0,0-.29,1.43,3.3,3.3,0,0,0,.66,2.08,4,4,0,0,0,1.82,1.28l1.17.43a2,2,0,0,1,1,.63,1.4,1.4,0,0,1,.27.86,1.18,1.18,0,0,1-.42,1,1.42,1.42,0,0,1-.95.35,1,1,0,0,1-1-.43,2.28,2.28,0,0,1-.35-.94h-2.31a4.14,4.14,0,0,0,.34,1.6,3.34,3.34,0,0,0,.82,1.14,3.54,3.54,0,0,0,2.49.94,3.74,3.74,0,0,0,1.47-.29A3.57,3.57,0,0,0,129.76,165.46Z"/><rect class="cls-1" x="133.48" y="154.22" width="2.45" height="12.17"/><rect class="cls-1" x="133.48" y="149.3" width="2.45" height="2.45"/><path class="cls-1" d="M141.92,150.53h-2.45v3.69h-1.22v1.92h1.22v7.4a3.52,3.52,0,0,0,.16,1,2.86,2.86,0,0,0,.49.93,2.72,2.72,0,0,0,.9.67,3.45,3.45,0,0,0,1.41.26h1v-2.3a6.39,6.39,0,0,1-.68,0,1,1,0,0,1-.47-.14.62.62,0,0,1-.27-.36,2,2,0,0,1-.09-.67v-6.75h1.51v-1.92h-1.51Z"/><path class="cls-1" d="M149.64,161.81h0l-1.68-7.59h-2.59l3.33,11.62c-.14.72-.27,1.28-.38,1.69a4,4,0,0,1-.36.95,1,1,0,0,1-.48.43,1.68,1.68,0,0,1-.62.1h-.55v2.3h.67a4.16,4.16,0,0,0,1.06-.13,2.77,2.77,0,0,0,1-.47,3.31,3.31,0,0,0,.8-.86,4.22,4.22,0,0,0,.54-1.35l3.5-14.28H151.3Z"/><path class="cls-1" d="M167.28,162.31a1.88,1.88,0,0,1-.43,1.35,1.5,1.5,0,0,1-1.08.43,1.47,1.47,0,0,1-1.08-.43,1.84,1.84,0,0,1-.44-1.35v-13h-2.44v13.25a3.77,3.77,0,0,0,.31,1.55,4.15,4.15,0,0,0,.86,1.26,4,4,0,0,0,1.26.86,3.71,3.71,0,0,0,1.53.32,4,4,0,0,0,2.8-1.18,4,4,0,0,0,.86-1.26,3.93,3.93,0,0,0,.3-1.55V149.3h-2.45Z"/><path class="cls-1" d="M184.23,154.75a2.16,2.16,0,0,0-.86-.51,2.84,2.84,0,0,0-.93-.16,2.81,2.81,0,0,0-1.54.36,5.48,5.48,0,0,0-1,.86,4,4,0,0,0-.86-.84,2.26,2.26,0,0,0-1.32-.38,2.37,2.37,0,0,0-1.38.37,3.66,3.66,0,0,0-.93,1h0v-1.18h-2.45v12.17h2.45v-8.18a2.38,2.38,0,0,1,.26-1.25,1,1,0,0,1,1-.43,1.11,1.11,0,0,1,.89.38,1.69,1.69,0,0,1,.31,1.06v8.42h2.45v-8.18a2.38,2.38,0,0,1,.26-1.25,1,1,0,0,1,1-.43,1.11,1.11,0,0,1,.89.38,1.63,1.63,0,0,1,.31,1.06v8.42h2.45v-9.33a3.48,3.48,0,0,0-.24-1.38A2.63,2.63,0,0,0,184.23,154.75Z"/><path class="cls-1" d="M193.11,154.37a3.89,3.89,0,0,0-1.52-.29,3.77,3.77,0,0,0-2,.48,3.33,3.33,0,0,0-1.23,1.27,3.15,3.15,0,0,0-.36,1.11,8.19,8.19,0,0,0-.1,1.36v4a8.32,8.32,0,0,0,.1,1.37,3.1,3.1,0,0,0,.36,1.1,3.36,3.36,0,0,0,1.23,1.28,3.77,3.77,0,0,0,2,.48,3.84,3.84,0,0,0,1.51-.29,3.37,3.37,0,0,0,1.15-.79,3.51,3.51,0,0,0,1-2.6h-2.45a2.14,2.14,0,0,1-.27.82,1,1,0,0,1-.93.41,1.26,1.26,0,0,1-.88-.31,1.21,1.21,0,0,1-.32-.89v-1.66h4.85v-3.36a3.92,3.92,0,0,0-1-2.71A3.32,3.32,0,0,0,193.11,154.37Zm-.32,4.94h-2.4v-1.39a1.5,1.5,0,0,1,.32-1,1.28,1.28,0,0,1,1.76,0,1.5,1.5,0,0,1,.32,1Z"/><path class="cls-1" d="M202.91,155.33h0a3,3,0,0,0-1-.93,2.59,2.59,0,0,0-1.28-.32,2.42,2.42,0,0,0-1.37.31,2.32,2.32,0,0,0-1.13,1.8,18.52,18.52,0,0,0-.07,1.95v4.63a11.4,11.4,0,0,0,.09,1.61,3.18,3.18,0,0,0,.32,1,2.19,2.19,0,0,0,2.13,1.16,3,3,0,0,0,.79-.1,2.05,2.05,0,0,0,.6-.26,2.68,2.68,0,0,0,.48-.4l.46-.49v1.1h2.45V149.3h-2.45Zm0,7.25a1.67,1.67,0,0,1-.34,1.09,1.07,1.07,0,0,1-.88.42,1,1,0,0,1-.91-.46,2.13,2.13,0,0,1-.29-1.2V158a1.94,1.94,0,0,1,.25-1,1,1,0,0,1,.95-.43,1.13,1.13,0,0,1,.87.37,1.34,1.34,0,0,1,.35.95Z"/><path class="cls-1" d="M214.5,155a3.32,3.32,0,0,0-1.18-.72,4.27,4.27,0,0,0-1.44-.24,3.83,3.83,0,0,0-1.51.28,3.37,3.37,0,0,0-1.15.75,4,4,0,0,0-1.11,2.64h2.38a1.46,1.46,0,0,1,.52-.91,1.35,1.35,0,0,1,.87-.31,1,1,0,0,1,1,.41,1.81,1.81,0,0,1,.27,1v1.27a2.3,2.3,0,0,0-.36,0,1.17,1.17,0,0,1-.29,0l-.27,0h-.26a6,6,0,0,0-1.9.25,2.62,2.62,0,0,0-1.17.76,2.88,2.88,0,0,0-.63,1.3,8.92,8.92,0,0,0-.16,1.82,4.45,4.45,0,0,0,.25,1.64,2.38,2.38,0,0,0,.66,1,2.11,2.11,0,0,0,.85.49,3,3,0,0,0,.88.14,2.31,2.31,0,0,0,1.38-.36,4.7,4.7,0,0,0,1-1h.05v1.25h2.44v-8.47a4.55,4.55,0,0,0-.28-1.68A3.65,3.65,0,0,0,214.5,155Zm-1.39,7.78a1.74,1.74,0,0,1-.35,1.15,1.22,1.22,0,0,1-1,.41,1.12,1.12,0,0,1-.94-.44,1.78,1.78,0,0,1-.34-1.12,1.5,1.5,0,0,1,.57-1.36,2.38,2.38,0,0,1,1.35-.37,3.9,3.9,0,0,1,.68.07Z"/><path class="cls-1" d="M231,150.29a3.73,3.73,0,0,0-2.81-1.13,4.25,4.25,0,0,0-1.62.3,3.79,3.79,0,0,0-1.26.83,3.65,3.65,0,0,0-.81,1.25,4,4,0,0,0-.29,1.56v9.4a4.39,4.39,0,0,0,.37,1.94,3.68,3.68,0,0,0,.95,1.23,3.19,3.19,0,0,0,1.29.67,5.46,5.46,0,0,0,1.42.2,3.63,3.63,0,0,0,1.53-.33,4,4,0,0,0,1.23-.87,4.24,4.24,0,0,0,.83-1.26,3.86,3.86,0,0,0,.3-1.5v-1.06h-2.45v.84a2.23,2.23,0,0,1-.14.84,1.65,1.65,0,0,1-.36.53,1.44,1.44,0,0,1-.52.27,1.67,1.67,0,0,1-.52.09,1.27,1.27,0,0,1-1.16-.51,2.28,2.28,0,0,1-.32-1.24V153.6a3,3,0,0,1,.3-1.43,1.25,1.25,0,0,1,1.21-.56,1.3,1.3,0,0,1,1.1.53,2,2,0,0,1,.41,1.24v.82h2.45v-1a4.39,4.39,0,0,0-.3-1.64A4,4,0,0,0,231,150.29Z"/><path class="cls-1" d="M241.3,155a3.28,3.28,0,0,0-1.17-.72,4.27,4.27,0,0,0-1.44-.24,3.8,3.8,0,0,0-1.51.28,3.41,3.41,0,0,0-1.16.75,3.89,3.89,0,0,0-1.1,2.64h2.37a1.5,1.5,0,0,1,.52-.91,1.37,1.37,0,0,1,.88-.31,1,1,0,0,1,1,.41,1.89,1.89,0,0,1,.26,1v1.27a2.3,2.3,0,0,0-.36,0,1.23,1.23,0,0,1-.29,0l-.26,0h-.27a5.92,5.92,0,0,0-1.89.25,2.6,2.6,0,0,0-1.18.76,2.87,2.87,0,0,0-.62,1.3,8.87,8.87,0,0,0-.17,1.82,4.45,4.45,0,0,0,.25,1.64,2.38,2.38,0,0,0,.66,1,2.18,2.18,0,0,0,.85.49,3,3,0,0,0,.88.14,2.31,2.31,0,0,0,1.38-.36,4.48,4.48,0,0,0,1-1h0v1.25h2.45v-8.47a4.54,4.54,0,0,0-.29-1.68A3.49,3.49,0,0,0,241.3,155Zm-1.39,7.78a1.74,1.74,0,0,1-.35,1.15,1.2,1.2,0,0,1-1,.41,1.14,1.14,0,0,1-.94-.44,1.78,1.78,0,0,1-.33-1.12,1.52,1.52,0,0,1,.56-1.36,2.41,2.41,0,0,1,1.36-.37,3.8,3.8,0,0,1,.67.07Z"/><path class="cls-1" d="M251.8,154.75a2.09,2.09,0,0,0-.82-.51,2.65,2.65,0,0,0-.91-.16,2.37,2.37,0,0,0-1.38.37,3.47,3.47,0,0,0-.92,1h-.05v-1.18h-2.45v12.17h2.45v-8.18A2.48,2.48,0,0,1,248,157a1,1,0,0,1,1-.43,1.09,1.09,0,0,1,.89.38,1.63,1.63,0,0,1,.31,1.06v8.42h2.45v-9.33a3.7,3.7,0,0,0-.22-1.38A2.53,2.53,0,0,0,251.8,154.75Z"/><polygon class="cls-1" points="259.05 162 259 162 257.37 154.22 254.77 154.22 257.94 166.39 260.1 166.39 263.27 154.22 260.68 154.22 259.05 162"/><path class="cls-1" d="M271.53,155a3.2,3.2,0,0,0-1.17-.72,4.27,4.27,0,0,0-1.44-.24,3.83,3.83,0,0,0-1.51.28,3.37,3.37,0,0,0-1.15.75,3.86,3.86,0,0,0-1.11,2.64h2.38a1.49,1.49,0,0,1,.51-.91,1.39,1.39,0,0,1,.88-.31,1,1,0,0,1,1,.41,1.89,1.89,0,0,1,.26,1v1.27a2.23,2.23,0,0,0-.36,0,1.14,1.14,0,0,1-.28,0l-.27,0H269a6,6,0,0,0-1.9.25,2.66,2.66,0,0,0-1.18.76,2.87,2.87,0,0,0-.62,1.3,8.87,8.87,0,0,0-.17,1.82,4.43,4.43,0,0,0,.26,1.64,2.2,2.2,0,0,0,.66,1,2.11,2.11,0,0,0,.85.49,2.93,2.93,0,0,0,.87.14,2.29,2.29,0,0,0,1.38-.36,4.5,4.5,0,0,0,1-1h0v1.25h2.45v-8.47a4.35,4.35,0,0,0-.29-1.68A3.35,3.35,0,0,0,271.53,155Zm-1.39,7.78a1.68,1.68,0,0,1-.35,1.15,1.2,1.2,0,0,1-1,.41,1.1,1.1,0,0,1-.93-.44,1.72,1.72,0,0,1-.34-1.12,1.52,1.52,0,0,1,.56-1.36,2.41,2.41,0,0,1,1.36-.37,3.71,3.71,0,0,1,.67.07Z"/><path class="cls-1" d="M280.08,159.43l-1.44-.57a1.6,1.6,0,0,1-.87-.59,1.46,1.46,0,0,1-.16-.66,1.26,1.26,0,0,1,.31-.85,1.07,1.07,0,0,1,.88-.38,1.31,1.31,0,0,1,.86.32,1.2,1.2,0,0,1,.39.93h2.31a3.67,3.67,0,0,0-.27-1.4,3.35,3.35,0,0,0-.72-1.14,3.22,3.22,0,0,0-1.09-.75,3.65,3.65,0,0,0-1.38-.26,3.73,3.73,0,0,0-1.39.25,3.28,3.28,0,0,0-1.13.73,3.38,3.38,0,0,0-.79,1.14,3.58,3.58,0,0,0-.29,1.43,3.3,3.3,0,0,0,.66,2.08,4,4,0,0,0,1.81,1.28l1.18.43a2.16,2.16,0,0,1,1,.63,1.46,1.46,0,0,1,.26.86,1.18,1.18,0,0,1-.42,1,1.4,1.4,0,0,1-.95.35,1.06,1.06,0,0,1-1-.43,2.43,2.43,0,0,1-.35-.94h-2.3a4.14,4.14,0,0,0,.34,1.6,3.32,3.32,0,0,0,.81,1.14,3.58,3.58,0,0,0,2.5.94,3.66,3.66,0,0,0,1.46-.29,3.62,3.62,0,0,0,1.16-.79,3.78,3.78,0,0,0,.75-1.17,3.72,3.72,0,0,0,.28-1.43,4,4,0,0,0-.52-2A3.46,3.46,0,0,0,280.08,159.43Z"/><polygon class="cls-1" points="14.11 177.3 11.66 177.3 8.09 185.1 8.04 185.1 8.04 177.3 5.59 177.3 5.59 194.39 8.04 194.39 8.04 189.28 9.36 186.81 12.14 194.39 14.73 194.39 10.78 184.14 14.11 177.3"/><path class="cls-1" d="M23.15,183a3.32,3.32,0,0,0-1.18-.72,4.27,4.27,0,0,0-1.44-.24,3.83,3.83,0,0,0-1.51.28,3.37,3.37,0,0,0-1.15.75,3.9,3.9,0,0,0-1.11,2.64h2.38a1.49,1.49,0,0,1,.51-.91,1.39,1.39,0,0,1,.88-.31,1,1,0,0,1,1,.41,1.81,1.81,0,0,1,.26,1v1.27a2.17,2.17,0,0,0-.36,0,1.14,1.14,0,0,1-.28,0l-.27,0h-.26a6,6,0,0,0-1.9.25,2.57,2.57,0,0,0-1.17.76,2.78,2.78,0,0,0-.63,1.3,8.87,8.87,0,0,0-.17,1.82,4.43,4.43,0,0,0,.26,1.64,2.2,2.2,0,0,0,.66,1,2.11,2.11,0,0,0,.85.49,3,3,0,0,0,.87.14,2.27,2.27,0,0,0,1.38-.36,4.5,4.5,0,0,0,1-1h0v1.25H24.2v-8.47a4.35,4.35,0,0,0-.29-1.68A3.47,3.47,0,0,0,23.15,183Zm-1.4,7.78a1.73,1.73,0,0,1-.34,1.15,1.24,1.24,0,0,1-1,.41,1.1,1.1,0,0,1-.93-.44,1.72,1.72,0,0,1-.34-1.12,1.5,1.5,0,0,1,.57-1.36,2.35,2.35,0,0,1,1.35-.37,3.71,3.71,0,0,1,.67.07Z"/><path class="cls-1" d="M33.64,182.75a2.06,2.06,0,0,0-.81-.51,2.7,2.7,0,0,0-.92-.16,2.37,2.37,0,0,0-1.38.37,3.47,3.47,0,0,0-.92,1h-.05v-1.18H27.11v12.17h2.45v-8.18a2.37,2.37,0,0,1,.27-1.25,1,1,0,0,1,1-.43,1.07,1.07,0,0,1,.88.38A1.63,1.63,0,0,1,32,186v8.42h2.44v-9.33a3.93,3.93,0,0,0-.21-1.38A2.68,2.68,0,0,0,33.64,182.75Z"/><path class="cls-1" d="M42.3,183.33h0a3.09,3.09,0,0,0-1-.93,2.56,2.56,0,0,0-1.28-.32,2.42,2.42,0,0,0-1.37.31,2.32,2.32,0,0,0-1.13,1.8c0,.42-.07,1.07-.07,1.95v4.63a9.88,9.88,0,0,0,.1,1.61,3.19,3.19,0,0,0,.31,1A2.19,2.19,0,0,0,40,194.54a3.12,3.12,0,0,0,.8-.1,2.32,2.32,0,0,0,.6-.26,3.64,3.64,0,0,0,.48-.4l.45-.49v1.1h2.45V177.3H42.3Zm0,7.25a1.73,1.73,0,0,1-.33,1.09,1.09,1.09,0,0,1-.89.42,1,1,0,0,1-.91-.46,2.13,2.13,0,0,1-.29-1.2V186a1.94,1.94,0,0,1,.25-1,1,1,0,0,1,.95-.43,1.16,1.16,0,0,1,.88.37,1.33,1.33,0,0,1,.34.95Z"/><path class="cls-1" d="M53.89,183a3.32,3.32,0,0,0-1.18-.72,4.18,4.18,0,0,0-1.44-.24,3.83,3.83,0,0,0-1.51.28,3.37,3.37,0,0,0-1.15.75,3.89,3.89,0,0,0-1.1,2.64h2.37a1.46,1.46,0,0,1,.52-.91,1.35,1.35,0,0,1,.87-.31,1,1,0,0,1,1,.41,1.81,1.81,0,0,1,.27,1v1.27a2.3,2.3,0,0,0-.36,0,1.23,1.23,0,0,1-.29,0l-.26,0h-.27a5.88,5.88,0,0,0-1.89.25,2.6,2.6,0,0,0-1.18.76,2.87,2.87,0,0,0-.62,1.3,8.22,8.22,0,0,0-.17,1.82,4.45,4.45,0,0,0,.25,1.64,2.38,2.38,0,0,0,.66,1,2.18,2.18,0,0,0,.85.49,3,3,0,0,0,.88.14,2.31,2.31,0,0,0,1.38-.36,4.48,4.48,0,0,0,1-1h0v1.25H55v-8.47a4.54,4.54,0,0,0-.29-1.68A3.49,3.49,0,0,0,53.89,183Zm-1.39,7.78a1.74,1.74,0,0,1-.35,1.15,1.22,1.22,0,0,1-1,.41,1.14,1.14,0,0,1-.94-.44,1.78,1.78,0,0,1-.33-1.12,1.5,1.5,0,0,1,.56-1.36,2.41,2.41,0,0,1,1.36-.37,3.8,3.8,0,0,1,.67.07Z"/><rect class="cls-1" x="57.85" y="182.22" width="2.45" height="12.17"/><polygon class="cls-1" points="74.87 186.35 74.82 186.35 71.68 177.3 69.33 177.3 69.33 194.39 71.78 194.39 71.78 184 71.82 184 74.22 191.34 75.45 191.34 77.87 184 77.92 184 77.92 194.39 80.37 194.39 80.37 177.3 77.99 177.3 74.87 186.35"/><path class="cls-1" d="M88.57,182.37a3.89,3.89,0,0,0-1.52-.29,3.77,3.77,0,0,0-2,.48,3.26,3.26,0,0,0-1.23,1.27,3.15,3.15,0,0,0-.36,1.11,8.19,8.19,0,0,0-.1,1.36v4a8.32,8.32,0,0,0,.1,1.37,3.1,3.1,0,0,0,.36,1.1,3.29,3.29,0,0,0,1.23,1.28,3.77,3.77,0,0,0,2,.48,3.84,3.84,0,0,0,1.51-.29,3.47,3.47,0,0,0,1.15-.79,3.51,3.51,0,0,0,1-2.6H88.25a2.16,2.16,0,0,1-.28.82,1,1,0,0,1-.92.41,1.26,1.26,0,0,1-.88-.31,1.21,1.21,0,0,1-.32-.89v-1.66H90.7v-3.36a3.92,3.92,0,0,0-1-2.71A3.32,3.32,0,0,0,88.57,182.37Zm-.32,4.94h-2.4v-1.39a1.5,1.5,0,0,1,.32-1,1.12,1.12,0,0,1,.88-.35,1.09,1.09,0,0,1,.87.35,1.46,1.46,0,0,1,.33,1Z"/><path class="cls-1" d="M107.29,184.89a6.38,6.38,0,0,0,.47-2.57c0-3.34-1.44-5-4.32-5H99.5v17.09H102V187.1h1.47l2.28,7.29h2.59l-2.64-7.8A3.63,3.63,0,0,0,107.29,184.89Zm-2.05-1.48a2.54,2.54,0,0,1-.26.83,1.52,1.52,0,0,1-.6.52,2.49,2.49,0,0,1-1,.18H102v-5.33h1.27a1.94,1.94,0,0,1,1.73.67,2.19,2.19,0,0,1,.29.85,9.32,9.32,0,0,1,0,2.28Z"/><rect class="cls-1" x="111.17" y="177.3" width="2.45" height="17.09"/><path class="cls-1" d="M122.69,177.5a4,4,0,0,0-1.67-.34,4.26,4.26,0,0,0-1.86.37,3.55,3.55,0,0,0-1.28,1,4,4,0,0,0-.8,1.49,6.35,6.35,0,0,0-.26,1.82,6,6,0,0,0,.54,2.68,3.88,3.88,0,0,0,2.12,1.71l1.76.72a7.13,7.13,0,0,1,.73.36,1.39,1.39,0,0,1,.44.43,1.82,1.82,0,0,1,.19.7,10.88,10.88,0,0,1,.05,1.1c0,.39,0,.74,0,1.05a1.92,1.92,0,0,1-.22.8,1.29,1.29,0,0,1-.54.52,2.18,2.18,0,0,1-1,.18,1.56,1.56,0,0,1-1.34-.54,2,2,0,0,1-.39-1.21v-.77H116.7v.91a4,4,0,0,0,.32,1.6,4.36,4.36,0,0,0,.88,1.28,3.82,3.82,0,0,0,1.32.86,4.31,4.31,0,0,0,1.66.32,4.62,4.62,0,0,0,2-.39,3.52,3.52,0,0,0,1.32-1.05,4.22,4.22,0,0,0,.69-1.58,8.4,8.4,0,0,0,.22-2,12,12,0,0,0-.1-1.67,4.35,4.35,0,0,0-.36-1.31,3.16,3.16,0,0,0-.79-1,4.81,4.81,0,0,0-1.32-.73l-1.87-.74a4.07,4.07,0,0,1-.76-.39,1.49,1.49,0,0,1-.42-.45,1.91,1.91,0,0,1-.18-.6q0-.34,0-.84a4.43,4.43,0,0,1,.07-.83,2,2,0,0,1,.26-.71,1.68,1.68,0,0,1,.51-.48,1.5,1.5,0,0,1,.81-.19,1.47,1.47,0,0,1,1.34.61,2.64,2.64,0,0,1,.39,1.45v.55h2.45V181a3.7,3.7,0,0,0-1.11-2.64A4.26,4.26,0,0,0,122.69,177.5Z"/><polygon class="cls-1" points="128.14 194.39 135.44 194.39 135.44 191.94 130.59 191.94 130.59 186.93 134.81 186.93 134.81 184.62 130.59 184.62 130.59 179.61 135.44 179.61 135.44 177.3 128.14 177.3 128.14 194.39"/><polygon class="cls-2" points="277.54 41.56 277.54 31.91 298.21 20.49 277.54 9.06 271.42 5.26 271.42 44.77 277.54 44.77 277.54 41.56"/><polygon class="cls-2" points="67.86 5.94 64.86 14.01 70.86 14.01 67.86 5.94"/><polygon class="cls-2" points="61.16 16.01 53.33 12.43 56.92 20.25 61.16 16.01"/><polygon class="cls-2" points="47.34 27.27 55.4 30.26 55.4 24.27 47.34 27.27"/><polygon class="cls-2" points="56.81 33.21 53.22 41.03 61.05 37.45 56.81 33.21"/><polygon class="cls-2" points="70.73 39.39 64.74 39.39 67.73 47.46 70.73 39.39"/><polygon class="cls-2" points="78.28 33.44 74.37 37.98 82.44 40.97 78.28 33.44"/><polygon class="cls-2" points="80.42 30.26 88.49 27.27 80.42 24.27 80.42 30.26"/><polygon class="cls-2" points="82.39 11.86 74.57 15.45 78.81 19.69 82.39 11.86"/><polygon class="cls-2" points="20.72 29.4 21.05 30.26 22.88 25.73 23.87 28.4 26.14 21.98 35.66 45.78 49.73 8.85 43.36 8.85 35.6 30.27 27.65 8.85 22.6 8.85 14.49 30.27 6.94 8.85 0 8.85 14.08 45.78 20.72 29.4"/><path class="cls-2" d="M97.6,31.09h2.81l6,9.52h0l2.48,4H116l-4.33-6.73a14.18,14.18,0,0,1,7.67-2.18c3.51.11,6,1.73,8.67,3.44s5.59,3.6,9.64,3.74h.49c3.75,0,7.56-1.49,11.33-4.42l-.61-.79c-3.75,2.91-7.52,4.35-11.18,4.2s-6.49-1.88-9.13-3.58-5.39-3.48-9.18-3.6A15.2,15.2,0,0,0,111.14,37l-1.79-2.78c3.41-2.6,6.76-3.89,10-3.79,3.51.11,6,1.73,8.67,3.45s5.59,3.6,9.64,3.74h.49c3.75,0,7.39-1.36,11.16-4.3l.13-.52a19.67,19.67,0,0,0,1-6.09c0-10.3-7.25-17.85-17.65-17.85H121.22V29.62a11.91,11.91,0,0,0-1.83-.21c-3.45-.1-7,1.24-10.58,3.95l-1.72-2.68c5.1-1.27,8-5.35,8-10.71,0-6.53-4.75-11.12-11.84-11.12H91.48V44.56H97.6Zm29.74-16.43h5.51c6.94,0,11.32,5.51,11.32,12a12.2,12.2,0,0,1-4.58,9.82,14.94,14.94,0,0,1-1.89.08c-3.77-.13-6.49-1.89-9.13-3.58-.4-.27-.82-.53-1.23-.79Zm-29.74,0h4.85c3.93,0,6.37,1.79,6.37,5.31s-2.44,5.3-6.37,5.3H97.6Z"/><path class="cls-2" d="M174.11,45.38a18,18,0,0,0,13.72-6.07l-4.08-4a12.71,12.71,0,0,1-9.64,4.39c-7,0-11.89-5.87-11.89-12.76s4.85-12.75,11.89-12.75a12.29,12.29,0,0,1,9.08,3.93l4.13-4a17.89,17.89,0,0,0-13.21-5.61C163.8,8.45,156,16.36,156,26.91S163.8,45.38,174.11,45.38Z"/><path class="cls-2" d="M237.07,20.79l11.17,17,9.25-14.06a11.75,11.75,0,0,0,1.92-.65v21.7h6.13V9.06h-5.67L253.1,19.52a11.38,11.38,0,0,1-1.76-.77,6.81,6.81,0,0,0-3.5-1,7.18,7.18,0,0,0-4.38,1.89L236.61,9.06H231V44.77h6.12Zm22.34,0V22c-.36.17-.71.32-1.06.45ZM248.24,27l-2.84-4.4a5.17,5.17,0,0,1,2.47-.69,5.69,5.69,0,0,1,3,.89l.06,0Zm-.37-8.28a5.61,5.61,0,0,1,3,.9,13.53,13.53,0,0,0,1.66.75l-1,1.62-.15-.07a6.81,6.81,0,0,0-3.5-1,6,6,0,0,0-3,.84L244,20.48A6.34,6.34,0,0,1,247.87,18.74Z"/><polygon class="cls-2" points="200.53 36.3 207.63 36.3 210.89 44.77 225.07 44.77 211.19 9.06 208.69 2.76 208.69 2.75 208.5 2.28 209.29 0.29 208.57 0 208.08 1.23 207.59 0 206.87 0.29 207.66 2.28 204.97 9.06 191.09 44.77 197.27 44.77 200.53 36.3"/><path class="cls-2" d="M20.37,87.06c10.09,0,17.5-7.66,17.5-17.9s-7.41-17.9-17.5-17.9-17.5,7.67-17.5,17.9S10.28,87.06,20.37,87.06Zm0-30.16c7,0,11.47,5.59,11.47,12.26s-4.5,12.27-11.47,12.27S8.9,75.84,8.9,69.16,13.4,56.9,20.37,56.9Z"/><path class="cls-2" d="M67.65,77.42c0-6.28-4.41-8.65-9.7-10.63-4.74-1.78-7.46-2.72-7.46-5.74,0-2.32,2.32-4.15,5.29-4.15,4.3,0,7.17,3.91,7.17,3.91l4.1-4.06a14.86,14.86,0,0,0-11.27-5.49c-7,0-11.33,4.9-11.33,9.79,0,6.43,5.74,9.2,10.83,11,4.11,1.44,6.33,2.47,6.33,5.39s-3.06,4-6,4c-5.24,0-8.21-5.2-8.21-5.2L42.92,80a15.14,15.14,0,0,0,12.66,7.07C62.11,87.06,67.65,83.7,67.65,77.42Z"/><path class="cls-2" d="M81.84,78.26H96.48l3.16,8.21h6L92.17,51.86h-6L72.69,86.47h6Zm7.32-18.94,5.19,13.5H84Z"/><polygon class="cls-2" points="112.06 51.86 112.06 86.47 118 86.47 118 70.84 131.6 86.47 139.46 86.47 124.23 68.87 137.78 51.86 130.36 51.86 118 67.38 118 51.86 112.06 51.86"/><path class="cls-2" d="M178.83,86.47,165.38,51.86h-6L145.9,86.47h6l3.17-8.21h14.63l3.17,8.21ZM157.17,72.82l5.19-13.5,5.2,13.5Z"/><path class="cls-2" d="M192.24,85.84H215V80.2H203.91l8-10.28a14.35,14.35,0,0,0,3-8.51c0-5.73-3.61-10.78-11.08-10.78-9.24,0-11.47,8.66-11.47,8.66l5.29,1.92s1.09-5,6.18-5A5.09,5.09,0,0,1,209,61.51c0,3.91-2.72,6.53-4,8.21Z"/><path class="cls-2" d="M233.14,50.63c-8.8,0-13.06,8.51-13.06,17.9s4.26,17.9,13.06,17.9,13-8.5,13-17.9S241.94,50.63,233.14,50.63Zm0,30.26c-4.8,0-7.12-5.58-7.12-12.36s2.32-12.36,7.12-12.36,7,5.59,7,12.36S237.93,80.89,233.14,80.89Z"/><polygon class="cls-2" points="259.24 85.84 265.17 85.84 265.17 51.23 260.28 51.23 249.75 59.63 253.16 63.98 259.24 59.14 259.24 85.84"/><path class="cls-2" d="M290.5,67.44a8.27,8.27,0,0,0,3.86-6.82c0-5.14-3.66-10-10.88-10s-10.88,4.85-10.88,10a8.27,8.27,0,0,0,3.86,6.82,8.61,8.61,0,0,0-4.85,8.21c0,5.79,4.35,10.78,11.87,10.78s11.87-5,11.87-10.78A8.61,8.61,0,0,0,290.5,67.44Zm-7-11.37c2.77,0,5,1.78,5,4.6s-2.23,4.6-5,4.6-5-1.78-5-4.6S280.71,56.07,283.48,56.07Zm0,24.92c-3.91,0-5.88-2.62-5.88-5.44s2-5.34,5.88-5.34,5.88,2.53,5.88,5.34S287.39,81,283.48,81Z"/><path class="cls-2" d="M14.49,115.38a5.09,5.09,0,0,0,.36-1.15A9.3,9.3,0,0,0,15,113q0-.63,0-1.56a9.67,9.67,0,0,0-.3-2.45,6.14,6.14,0,0,0-1-2.05,4.86,4.86,0,0,0-1.71-1.43A5.45,5.45,0,0,0,9.6,105a5.22,5.22,0,0,0-2.16.45,5.34,5.34,0,0,0-1.73,1.21,5.64,5.64,0,0,0-1.19,1.76,5.38,5.38,0,0,0-.43,2.16v2H7.76v-2.09a1.67,1.67,0,0,1,1.8-1.84,1.73,1.73,0,0,1,1,.27,1.75,1.75,0,0,1,.54.67,2.35,2.35,0,0,1,.19.92c0,.35,0,.68,0,1a16.92,16.92,0,0,1-.07,1.74,4.51,4.51,0,0,1-.58,1.64L4.09,127.4v3.46H15v-3.67H8.41l5.4-10.41C14.1,116.23,14.33,115.76,14.49,115.38Z"/><path class="cls-2" d="M28.61,129.6a5.5,5.5,0,0,0,1.21-1.73,5.59,5.59,0,0,0,.45-2.3v-15a5.59,5.59,0,0,0-.45-2.3,5.38,5.38,0,0,0-1.21-1.73,5.14,5.14,0,0,0-1.75-1.1,5.83,5.83,0,0,0-4.14,0,5.1,5.1,0,0,0-1.74,1.1,5.23,5.23,0,0,0-1.21,1.73,5.59,5.59,0,0,0-.45,2.3v15a5.59,5.59,0,0,0,.45,2.3A5.34,5.34,0,0,0,21,129.6a5.1,5.1,0,0,0,1.74,1.1,5.83,5.83,0,0,0,4.14,0A5.14,5.14,0,0,0,28.61,129.6Zm-2-4a1.79,1.79,0,0,1-.5,1.31,1.73,1.73,0,0,1-1.3.52,1.7,1.7,0,0,1-1.29-.52,1.79,1.79,0,0,1-.51-1.31v-15a1.78,1.78,0,0,1,.51-1.31,1.71,1.71,0,0,1,1.29-.53,1.73,1.73,0,0,1,1.3.53,1.77,1.77,0,0,1,.5,1.31Z"/><polygon class="cls-2" points="38.56 130.86 42.23 130.86 42.23 105.23 38.56 105.23 34.88 107.93 34.88 111.82 38.56 109.12 38.56 130.86"/><path class="cls-2" d="M58,116.37a3.27,3.27,0,0,0,.56-1.1,6.23,6.23,0,0,0,.22-1.4q0-.8,0-2c0-.69,0-1.29-.05-1.78a5.51,5.51,0,0,0-.24-1.28,5.07,5.07,0,0,0-.43-1,8.43,8.43,0,0,0-.61-.9,5,5,0,0,0-1.8-1.46,5.52,5.52,0,0,0-4.68,0,5,5,0,0,0-1.8,1.46,6,6,0,0,0-.59.9,5.78,5.78,0,0,0-.42,1,6,6,0,0,0-.25,1.28c0,.49-.07,1.09-.07,1.78s0,1.42,0,2a6.23,6.23,0,0,0,.22,1.4,3.27,3.27,0,0,0,.56,1.1,7,7,0,0,0,1,1,5.4,5.4,0,0,0-1,1,3.53,3.53,0,0,0-.56,1.19,8.27,8.27,0,0,0-.22,1.68q0,1,0,2.43c0,.79,0,1.44.05,2s.09,1,.16,1.35a4.1,4.1,0,0,0,.31,1,6.87,6.87,0,0,0,.49.83,5.12,5.12,0,0,0,1.72,1.6,5.94,5.94,0,0,0,5.48,0,5.22,5.22,0,0,0,1.72-1.6,6.87,6.87,0,0,0,.49-.83,4.1,4.1,0,0,0,.31-1c.07-.39.12-.84.16-1.35s.05-1.17.05-2q0-1.44,0-2.43a8.27,8.27,0,0,0-.22-1.68A3.53,3.53,0,0,0,58,118.4a5.4,5.4,0,0,0-1-1A7,7,0,0,0,58,116.37Zm-2.86,9.23a1.71,1.71,0,0,1-.54,1.28,1.79,1.79,0,0,1-2.52,0,1.71,1.71,0,0,1-.54-1.28v-5a1.69,1.69,0,0,1,.54-1.27,1.76,1.76,0,0,1,2.52,0,1.69,1.69,0,0,1,.54,1.27Zm0-11.37a1.72,1.72,0,0,1-.54,1.28,1.79,1.79,0,0,1-2.52,0,1.72,1.72,0,0,1-.54-1.28v-3.75a1.69,1.69,0,0,1,.54-1.27,1.76,1.76,0,0,1,2.52,0,1.69,1.69,0,0,1,.54,1.27Z"/><rect class="cls-2" x="63.19" y="127.19" width="3.67" height="3.67"/><path class="cls-2" d="M72.93,129.6a5.24,5.24,0,0,0,1.75,1.1,5.83,5.83,0,0,0,4.14,0,5.1,5.1,0,0,0,1.74-1.1,5.34,5.34,0,0,0,1.21-1.73,5.59,5.59,0,0,0,.45-2.3v-15a5.59,5.59,0,0,0-.45-2.3,5.23,5.23,0,0,0-1.21-1.73,5.1,5.1,0,0,0-1.74-1.1,5.83,5.83,0,0,0-4.14,0,5.24,5.24,0,0,0-1.75,1.1,5.36,5.36,0,0,0-1.2,1.73,5.43,5.43,0,0,0-.45,2.3v15a5.42,5.42,0,0,0,1.65,4Zm2-19.08a1.77,1.77,0,0,1,.5-1.31,1.73,1.73,0,0,1,1.3-.53,1.7,1.7,0,0,1,1.29.53,1.78,1.78,0,0,1,.51,1.31v15a1.79,1.79,0,0,1-.51,1.31,1.69,1.69,0,0,1-1.29.52,1.73,1.73,0,0,1-1.3-.52,1.79,1.79,0,0,1-.5-1.31Z"/><path class="cls-2" d="M96.62,128.59a6.48,6.48,0,0,0,.42-.83,6.2,6.2,0,0,0,.27-1c0-.36.08-.81.1-1.35s0-1.23,0-2.07c0-1,0-1.84,0-2.5s-.06-1.21-.1-1.64a6.25,6.25,0,0,0-.26-1,3.41,3.41,0,0,0-.39-.79,3.65,3.65,0,0,0-1.3-1.19,3.61,3.61,0,0,0-1.8-.47,4.39,4.39,0,0,0-1,.09,1.57,1.57,0,0,0-.56.23l-.07-.07,4.18-10.76H92l-4.82,12.89c-.12.33-.23.65-.32.95a5.55,5.55,0,0,0-.22,1c-.05.38-.08.83-.11,1.35s0,1.17,0,2,0,1.53,0,2.07a8.77,8.77,0,0,0,.15,1.35,3.37,3.37,0,0,0,.23,1,4.89,4.89,0,0,0,.45.83,5.21,5.21,0,0,0,1.91,1.82,5.46,5.46,0,0,0,2.7.67,5.69,5.69,0,0,0,2.72-.65A5,5,0,0,0,96.62,128.59Zm-2.84-3a1.74,1.74,0,0,1-.54,1.33,1.84,1.84,0,0,1-2.52,0,1.74,1.74,0,0,1-.54-1.33v-4.75a1.75,1.75,0,0,1,.54-1.34,1.84,1.84,0,0,1,2.52,0,1.75,1.75,0,0,1,.54,1.34Z"/><rect class="cls-2" x="101.8" y="127.19" width="3.67" height="3.67"/><path class="cls-2" d="M117.43,130.7a5.1,5.1,0,0,0,1.74-1.1,5.34,5.34,0,0,0,1.21-1.73,5.59,5.59,0,0,0,.45-2.3v-15a5.59,5.59,0,0,0-.45-2.3,5.23,5.23,0,0,0-1.21-1.73,5.1,5.1,0,0,0-1.74-1.1,5.83,5.83,0,0,0-4.14,0,5.14,5.14,0,0,0-1.75,1.1,5.38,5.38,0,0,0-1.21,1.73,5.59,5.59,0,0,0-.45,2.3v15a5.59,5.59,0,0,0,.45,2.3,5.5,5.5,0,0,0,1.21,1.73,5.14,5.14,0,0,0,1.75,1.1,5.83,5.83,0,0,0,4.14,0Zm-3.87-5.13v-15a1.77,1.77,0,0,1,.5-1.31,1.73,1.73,0,0,1,1.3-.53,1.71,1.71,0,0,1,1.29.53,1.78,1.78,0,0,1,.51,1.31v15a1.79,1.79,0,0,1-.51,1.31,1.7,1.7,0,0,1-1.29.52,1.73,1.73,0,0,1-1.3-.52A1.79,1.79,0,0,1,113.56,125.57Z"/><path class="cls-2" d="M135.52,115.38a5.09,5.09,0,0,0,.36-1.15A9.32,9.32,0,0,0,136,113c0-.42,0-.94,0-1.56a9.24,9.24,0,0,0-.31-2.45,6.12,6.12,0,0,0-.95-2.05,5,5,0,0,0-1.71-1.43,5.49,5.49,0,0,0-2.47-.52,5.32,5.32,0,0,0-3.88,1.66,5.47,5.47,0,0,0-1.19,1.76,5.38,5.38,0,0,0-.43,2.16v2h3.67v-2.09a1.83,1.83,0,0,1,.48-1.37,1.85,1.85,0,0,1,1.32-.47,1.72,1.72,0,0,1,1,.27,1.75,1.75,0,0,1,.54.67,2.35,2.35,0,0,1,.2.92c0,.35,0,.68,0,1,0,.69,0,1.28-.07,1.74a4.51,4.51,0,0,1-.58,1.64l-6.62,12.49v3.46h10.94v-3.67h-6.62l5.4-10.41C135.12,116.23,135.35,115.76,135.52,115.38Z"/><rect class="cls-2" x="139.73" y="119.05" width="10.84" height="3.67"/><path class="cls-2" d="M162.61,130.7a5.24,5.24,0,0,0,1.75-1.1,5.47,5.47,0,0,0,1.2-1.73,5.59,5.59,0,0,0,.45-2.3v-15a5.59,5.59,0,0,0-.45-2.3,5.36,5.36,0,0,0-1.2-1.73,5.24,5.24,0,0,0-1.75-1.1,5.83,5.83,0,0,0-4.14,0,5.24,5.24,0,0,0-1.75,1.1,5.36,5.36,0,0,0-1.2,1.73,5.59,5.59,0,0,0-.45,2.3v15a5.59,5.59,0,0,0,.45,2.3,5.47,5.47,0,0,0,1.2,1.73,5.24,5.24,0,0,0,1.75,1.1,5.83,5.83,0,0,0,4.14,0Zm-3.87-5.13v-15a1.81,1.81,0,0,1,.5-1.31,1.86,1.86,0,0,1,2.6,0,1.81,1.81,0,0,1,.5,1.31v15a1.83,1.83,0,0,1-.5,1.31,1.88,1.88,0,0,1-2.6,0A1.83,1.83,0,0,1,158.74,125.57Z"/><path class="cls-2" d="M173.07,130.41a5.46,5.46,0,0,0,2.7.67,5.69,5.69,0,0,0,2.72-.65,5,5,0,0,0,1.92-1.84,6.48,6.48,0,0,0,.42-.83,4.58,4.58,0,0,0,.27-1c.05-.36.08-.81.11-1.35s0-1.23,0-2.07c0-1,0-1.84,0-2.5s-.06-1.21-.11-1.64a6.37,6.37,0,0,0-.25-1,3.91,3.91,0,0,0-.4-.79,3.77,3.77,0,0,0-3.09-1.66,4.55,4.55,0,0,0-1,.09,1.51,1.51,0,0,0-.55.23l-.07-.07,4.17-10.76h-4.1L171,118.12c-.12.33-.23.65-.32.95a5.55,5.55,0,0,0-.22,1c-.05.38-.08.83-.11,1.35s0,1.17,0,2,0,1.53,0,2.07a10.23,10.23,0,0,0,.15,1.35,4.2,4.2,0,0,0,.23,1,4.89,4.89,0,0,0,.45.83A5.21,5.21,0,0,0,173.07,130.41Zm.9-9.59a1.75,1.75,0,0,1,.54-1.34,1.84,1.84,0,0,1,2.52,0,1.75,1.75,0,0,1,.54,1.34v4.75a1.74,1.74,0,0,1-.54,1.33,1.84,1.84,0,0,1-2.52,0,1.74,1.74,0,0,1-.54-1.33Z"/><rect class="cls-2" x="185.59" y="127.19" width="3.67" height="3.67"/><path class="cls-2" d="M203,106.49a5.1,5.1,0,0,0-1.74-1.1,5.83,5.83,0,0,0-4.14,0,5.24,5.24,0,0,0-1.75,1.1,5.36,5.36,0,0,0-1.2,1.73,5.59,5.59,0,0,0-.45,2.3v15a5.59,5.59,0,0,0,.45,2.3,5.47,5.47,0,0,0,1.2,1.73,5.24,5.24,0,0,0,1.75,1.1,5.83,5.83,0,0,0,4.14,0,5.1,5.1,0,0,0,1.74-1.1,5.34,5.34,0,0,0,1.21-1.73,5.59,5.59,0,0,0,.45-2.3v-15a5.59,5.59,0,0,0-.45-2.3A5.23,5.23,0,0,0,203,106.49Zm-2,19.08a1.79,1.79,0,0,1-.51,1.31,1.69,1.69,0,0,1-1.29.52,1.73,1.73,0,0,1-1.3-.52,1.83,1.83,0,0,1-.5-1.31v-15a1.81,1.81,0,0,1,.5-1.31,1.73,1.73,0,0,1,1.3-.53,1.7,1.7,0,0,1,1.29.53,1.78,1.78,0,0,1,.51,1.31Z"/><path class="cls-2" d="M219.53,115.78a4.81,4.81,0,0,0,.27-1.37c0-.55,0-1.27,0-2.16a14.71,14.71,0,0,0-.32-3.53,4,4,0,0,0-.45-1,7.92,7.92,0,0,0-.63-.87,5.7,5.7,0,0,0-1.5-1.2,4.75,4.75,0,0,0-2.5-.6,5.55,5.55,0,0,0-2.16.43,5.92,5.92,0,0,0-1.76,1.16,5.1,5.1,0,0,0-1.19,1.72,5.34,5.34,0,0,0-.43,2.13v2.12h3.67v-2.09a2.13,2.13,0,0,1,.41-1.18,1.56,1.56,0,0,1,1.39-.62,1.72,1.72,0,0,1,1.31.51,1.76,1.76,0,0,1,.49,1.29v3.32q0,1.44-.63,1.83a4.57,4.57,0,0,1-2.29.4v3.24a11.54,11.54,0,0,1,1.46.07,1.61,1.61,0,0,1,.88.36,2.5,2.5,0,0,1,.58,2v3.67a2.19,2.19,0,0,1-.49,1.5,1.84,1.84,0,0,1-2.62,0,2.09,2.09,0,0,1-.49-1.43v-1.9h-3.67v2.08a5.67,5.67,0,0,0,.52,2.56,5.13,5.13,0,0,0,1.31,1.69,5,5,0,0,0,1.77.94,6.5,6.5,0,0,0,1.83.29,5.21,5.21,0,0,0,2.79-.67,5.82,5.82,0,0,0,1.75-1.67,6.57,6.57,0,0,0,.47-.83,4.88,4.88,0,0,0,.29-1,12.12,12.12,0,0,0,.16-1.37c0-.55,0-1.25,0-2.09s0-1.66,0-2.25a5.54,5.54,0,0,0-.26-1.53,2.87,2.87,0,0,0-.66-1.08,7,7,0,0,0-1.32-1,7.85,7.85,0,0,0,1.24-.86A2.87,2.87,0,0,0,219.53,115.78Z"/><polygon class="cls-2" points="12.61 147.8 10.16 147.8 6.59 155.6 6.54 155.6 6.54 147.8 4.09 147.8 4.09 164.89 6.54 164.89 6.54 159.78 7.86 157.31 10.64 164.89 13.23 164.89 9.28 154.64 12.61 147.8"/><path class="cls-2" d="M21.65,153.54a3.32,3.32,0,0,0-1.18-.72,4.27,4.27,0,0,0-1.44-.24,3.83,3.83,0,0,0-1.51.28,3.37,3.37,0,0,0-1.15.75,3.9,3.9,0,0,0-1.11,2.64h2.38a1.49,1.49,0,0,1,.51-.91A1.39,1.39,0,0,1,19,155a1,1,0,0,1,1,.41,1.81,1.81,0,0,1,.26,1v1.27a2.17,2.17,0,0,0-.36,0,1.14,1.14,0,0,1-.28,0l-.27,0h-.26a6,6,0,0,0-1.9.25,2.57,2.57,0,0,0-1.17.76,2.78,2.78,0,0,0-.63,1.3,8.87,8.87,0,0,0-.17,1.82,4.43,4.43,0,0,0,.26,1.64,2.2,2.2,0,0,0,.66,1,2.11,2.11,0,0,0,.85.49,3,3,0,0,0,.87.14,2.27,2.27,0,0,0,1.38-.36,4.5,4.5,0,0,0,1-1h0v1.25H22.7v-8.47a4.35,4.35,0,0,0-.29-1.68A3.47,3.47,0,0,0,21.65,153.54Zm-1.4,7.78a1.73,1.73,0,0,1-.34,1.15,1.24,1.24,0,0,1-1,.41,1.1,1.1,0,0,1-.93-.44,1.72,1.72,0,0,1-.34-1.12,1.5,1.5,0,0,1,.57-1.36,2.35,2.35,0,0,1,1.35-.37,3.71,3.71,0,0,1,.67.07Z"/><path class="cls-2" d="M32.14,153.25a2.06,2.06,0,0,0-.81-.51,2.7,2.7,0,0,0-.92-.16A2.37,2.37,0,0,0,29,153a3.47,3.47,0,0,0-.92,1h-.05v-1.18H25.61v12.17h2.45v-8.18a2.37,2.37,0,0,1,.27-1.25,1,1,0,0,1,1-.43,1.07,1.07,0,0,1,.88.38,1.63,1.63,0,0,1,.32,1.06v8.42h2.44v-9.33a3.93,3.93,0,0,0-.21-1.38A2.68,2.68,0,0,0,32.14,153.25Z"/><path class="cls-2" d="M39.25,162.73a1.05,1.05,0,0,1-1-.43,2.43,2.43,0,0,1-.35-.94h-2.3A4.14,4.14,0,0,0,36,163a3.34,3.34,0,0,0,.82,1.14,3.54,3.54,0,0,0,2.5.94,3.73,3.73,0,0,0,1.46-.29,3.47,3.47,0,0,0,1.15-.79,4,4,0,0,0,.76-1.17,3.72,3.72,0,0,0,.27-1.43,4,4,0,0,0-.51-2,3.48,3.48,0,0,0-1.89-1.44l-1.44-.57a1.61,1.61,0,0,1-.86-.59,1.47,1.47,0,0,1-.17-.66,1.31,1.31,0,0,1,.31-.85,1.11,1.11,0,0,1,.89-.38,1.27,1.27,0,0,1,.85.32,1.21,1.21,0,0,1,.4.93h2.3a3.67,3.67,0,0,0-1-2.54,3.22,3.22,0,0,0-1.09-.75,3.89,3.89,0,0,0-2.77,0,3.19,3.19,0,0,0-1.13.73A3.38,3.38,0,0,0,36,154.7a3.42,3.42,0,0,0-.29,1.43,3.3,3.3,0,0,0,.66,2.08,4,4,0,0,0,1.81,1.28l1.18.43a2.16,2.16,0,0,1,1,.63,1.46,1.46,0,0,1,.26.86,1.18,1.18,0,0,1-.42,1A1.42,1.42,0,0,1,39.25,162.73Z"/><path class="cls-2" d="M47.18,164.9a3,3,0,0,0,.88.14,2.31,2.31,0,0,0,1.38-.36,4.48,4.48,0,0,0,1-1h.05v1.25h2.45v-8.47a4.54,4.54,0,0,0-.29-1.68,3.49,3.49,0,0,0-.77-1.2,3.28,3.28,0,0,0-1.17-.72,4.27,4.27,0,0,0-1.44-.24,3.88,3.88,0,0,0-1.52.28,3.47,3.47,0,0,0-1.15.75,3.89,3.89,0,0,0-1.1,2.64h2.37a1.5,1.5,0,0,1,.52-.91,1.37,1.37,0,0,1,.88-.31,1,1,0,0,1,1,.41,1.89,1.89,0,0,1,.26,1v1.27a2.3,2.3,0,0,0-.36,0,1.23,1.23,0,0,1-.29,0l-.26,0h-.27a5.92,5.92,0,0,0-1.89.25,2.6,2.6,0,0,0-1.18.76,2.87,2.87,0,0,0-.62,1.3,8.87,8.87,0,0,0-.17,1.82,4.45,4.45,0,0,0,.25,1.64,2.38,2.38,0,0,0,.66,1A2.18,2.18,0,0,0,47.18,164.9ZM48.43,160a2.41,2.41,0,0,1,1.36-.37,3.8,3.8,0,0,1,.67.07v1.66a1.74,1.74,0,0,1-.35,1.15,1.2,1.2,0,0,1-1,.41,1.14,1.14,0,0,1-.94-.44,1.78,1.78,0,0,1-.33-1.12A1.52,1.52,0,0,1,48.43,160Z"/><rect class="cls-2" x="55.82" y="147.8" width="2.45" height="2.45"/><rect class="cls-2" x="55.82" y="152.72" width="2.45" height="12.17"/><path class="cls-2" d="M69.72,164.72a3.82,3.82,0,0,0,3.06,0,4,4,0,0,0,1.28-.86,4.12,4.12,0,0,0,.85-1.26,3.93,3.93,0,0,0,.3-1.55V147.8H72.76v13a1.84,1.84,0,0,1-.43,1.35,1.57,1.57,0,0,1-2.16,0,1.84,1.84,0,0,1-.43-1.35v-13H67.29v13.25a3.77,3.77,0,0,0,.31,1.55,4.18,4.18,0,0,0,.87,1.26A3.83,3.83,0,0,0,69.72,164.72Z"/><path class="cls-2" d="M83,155.41a1.63,1.63,0,0,1,.31,1.06v8.42h2.45v-9.33a3.7,3.7,0,0,0-.22-1.38,2.53,2.53,0,0,0-.57-.93,2.09,2.09,0,0,0-.82-.51,2.65,2.65,0,0,0-.91-.16,2.37,2.37,0,0,0-1.38.37,3.66,3.66,0,0,0-.93,1h0v-1.18H78.39v12.17h2.45v-8.18a2.38,2.38,0,0,1,.26-1.25,1,1,0,0,1,1-.43A1.09,1.09,0,0,1,83,155.41Z"/><rect class="cls-2" x="88.73" y="147.8" width="2.45" height="2.45"/><rect class="cls-2" x="88.73" y="152.72" width="2.45" height="12.17"/><polygon class="cls-2" points="102.08 152.72 99.49 152.72 97.86 160.5 97.81 160.5 96.18 152.72 93.59 152.72 96.76 164.89 98.92 164.89 102.08 152.72"/><path class="cls-2" d="M111.35,161.36H108.9a2,2,0,0,1-.28.82,1,1,0,0,1-.92.41,1.26,1.26,0,0,1-.88-.31,1.21,1.21,0,0,1-.32-.89v-1.66h4.85v-3.36a3.92,3.92,0,0,0-1-2.71,3.32,3.32,0,0,0-1.17-.79,3.89,3.89,0,0,0-1.52-.29,3.77,3.77,0,0,0-2,.48,3.33,3.33,0,0,0-1.23,1.27,3.15,3.15,0,0,0-.36,1.11,8.19,8.19,0,0,0-.1,1.36v4a8.32,8.32,0,0,0,.1,1.37,3.1,3.1,0,0,0,.36,1.1,3.36,3.36,0,0,0,1.23,1.28,3.77,3.77,0,0,0,2,.48,3.84,3.84,0,0,0,1.51-.29,3.47,3.47,0,0,0,1.15-.79A3.51,3.51,0,0,0,111.35,161.36Zm-4.85-4.94a1.5,1.5,0,0,1,.32-1,1.28,1.28,0,0,1,1.76,0,1.5,1.5,0,0,1,.32,1v1.39h-2.4Z"/><path class="cls-2" d="M116.64,157.67a2.9,2.9,0,0,1,.24-1.25,2.37,2.37,0,0,1,.62-.82,2.28,2.28,0,0,1,.81-.44,2.8,2.8,0,0,1,.83-.13,2.11,2.11,0,0,1,.74.14v-2.59a3.81,3.81,0,0,0-1.78.38,7.35,7.35,0,0,0-1.46,1.06v-1.3h-2.45v12.17h2.45Z"/><path class="cls-2" d="M128.26,164a3.78,3.78,0,0,0,.75-1.17,3.54,3.54,0,0,0,.28-1.43,3.92,3.92,0,0,0-.52-2,3.46,3.46,0,0,0-1.88-1.44l-1.44-.57a1.61,1.61,0,0,1-.86-.59,1.35,1.35,0,0,1-.17-.66,1.26,1.26,0,0,1,.31-.85,1.09,1.09,0,0,1,.89-.38,1.28,1.28,0,0,1,.85.32,1.21,1.21,0,0,1,.4.93h2.3a3.87,3.87,0,0,0-.26-1.4,3.69,3.69,0,0,0-.72-1.14,3.26,3.26,0,0,0-1.1-.75,3.65,3.65,0,0,0-1.38-.26,3.77,3.77,0,0,0-1.39.25,3.28,3.28,0,0,0-1.13.73,3.53,3.53,0,0,0-.79,1.14,3.58,3.58,0,0,0-.29,1.43,3.3,3.3,0,0,0,.66,2.08,4,4,0,0,0,1.82,1.28l1.17.43a2,2,0,0,1,1,.63,1.4,1.4,0,0,1,.27.86,1.18,1.18,0,0,1-.42,1,1.42,1.42,0,0,1-.95.35,1,1,0,0,1-1-.43,2.28,2.28,0,0,1-.35-.94H122a4.14,4.14,0,0,0,.34,1.6,3.34,3.34,0,0,0,.82,1.14,3.54,3.54,0,0,0,2.49.94,3.74,3.74,0,0,0,1.47-.29A3.57,3.57,0,0,0,128.26,164Z"/><rect class="cls-2" x="131.98" y="152.72" width="2.45" height="12.17"/><rect class="cls-2" x="131.98" y="147.8" width="2.45" height="2.45"/><path class="cls-2" d="M140.42,149H138v3.69h-1.22v1.92H138V162a3.52,3.52,0,0,0,.16,1,2.86,2.86,0,0,0,.49.93,2.72,2.72,0,0,0,.9.67,3.45,3.45,0,0,0,1.41.26h1v-2.3a6.39,6.39,0,0,1-.68,0,1,1,0,0,1-.47-.14.62.62,0,0,1-.27-.36,2,2,0,0,1-.09-.67v-6.75h1.51v-1.92h-1.51Z"/><path class="cls-2" d="M148.14,160.31h0l-1.68-7.59h-2.59l3.33,11.62c-.14.72-.27,1.28-.38,1.69a4,4,0,0,1-.36.95,1,1,0,0,1-.48.43,1.68,1.68,0,0,1-.62.1h-.55v2.3h.67a4.16,4.16,0,0,0,1.06-.13,2.77,2.77,0,0,0,1-.47,3.31,3.31,0,0,0,.8-.86,4.22,4.22,0,0,0,.54-1.35l3.5-14.28H149.8Z"/><path class="cls-2" d="M165.78,160.81a1.88,1.88,0,0,1-.43,1.35,1.5,1.5,0,0,1-1.08.43,1.47,1.47,0,0,1-1.08-.43,1.84,1.84,0,0,1-.44-1.35v-13h-2.44v13.25a3.77,3.77,0,0,0,.31,1.55,4.15,4.15,0,0,0,.86,1.26,4,4,0,0,0,1.26.86,3.71,3.71,0,0,0,1.53.32,4,4,0,0,0,2.8-1.18,4,4,0,0,0,.86-1.26,3.93,3.93,0,0,0,.3-1.55V147.8h-2.45Z"/><path class="cls-2" d="M182.73,153.25a2.16,2.16,0,0,0-.86-.51,2.84,2.84,0,0,0-.93-.16,2.81,2.81,0,0,0-1.54.36,5.48,5.48,0,0,0-1,.86,4,4,0,0,0-.86-.84,2.26,2.26,0,0,0-1.32-.38,2.37,2.37,0,0,0-1.38.37,3.66,3.66,0,0,0-.93,1h0v-1.18h-2.45v12.17h2.45v-8.18a2.38,2.38,0,0,1,.26-1.25,1,1,0,0,1,1-.43,1.11,1.11,0,0,1,.89.38,1.69,1.69,0,0,1,.31,1.06v8.42h2.45v-8.18a2.38,2.38,0,0,1,.26-1.25,1,1,0,0,1,1-.43,1.11,1.11,0,0,1,.89.38,1.63,1.63,0,0,1,.31,1.06v8.42h2.45v-9.33a3.48,3.48,0,0,0-.24-1.38A2.63,2.63,0,0,0,182.73,153.25Z"/><path class="cls-2" d="M191.61,152.87a3.89,3.89,0,0,0-1.52-.29,3.77,3.77,0,0,0-2,.48,3.33,3.33,0,0,0-1.23,1.27,3.15,3.15,0,0,0-.36,1.11,8.19,8.19,0,0,0-.1,1.36v4a8.32,8.32,0,0,0,.1,1.37,3.1,3.1,0,0,0,.36,1.1,3.36,3.36,0,0,0,1.23,1.28,3.77,3.77,0,0,0,2,.48,3.84,3.84,0,0,0,1.51-.29,3.37,3.37,0,0,0,1.15-.79,3.51,3.51,0,0,0,1-2.6h-2.45a2.14,2.14,0,0,1-.27.82,1,1,0,0,1-.93.41,1.26,1.26,0,0,1-.88-.31,1.21,1.21,0,0,1-.32-.89v-1.66h4.85v-3.36a3.92,3.92,0,0,0-1-2.71A3.32,3.32,0,0,0,191.61,152.87Zm-.32,4.94h-2.4v-1.39a1.5,1.5,0,0,1,.32-1,1.28,1.28,0,0,1,1.76,0,1.5,1.5,0,0,1,.32,1Z"/><path class="cls-2" d="M201.41,153.83h0a3,3,0,0,0-1-.93,2.59,2.59,0,0,0-1.28-.32,2.42,2.42,0,0,0-1.37.31,2.32,2.32,0,0,0-1.13,1.8,18.52,18.52,0,0,0-.07,1.95v4.63a11.4,11.4,0,0,0,.09,1.61,3.18,3.18,0,0,0,.32,1,2.19,2.19,0,0,0,2.13,1.16,3,3,0,0,0,.79-.1,2.05,2.05,0,0,0,.6-.26,2.68,2.68,0,0,0,.48-.4l.46-.49v1.1h2.45V147.8h-2.45Zm0,7.25a1.67,1.67,0,0,1-.34,1.09,1.07,1.07,0,0,1-.88.42,1,1,0,0,1-.91-.46,2.13,2.13,0,0,1-.29-1.2v-4.46a1.94,1.94,0,0,1,.25-1,1,1,0,0,1,.95-.43,1.13,1.13,0,0,1,.87.37,1.34,1.34,0,0,1,.35.95Z"/><path class="cls-2" d="M213,153.54a3.32,3.32,0,0,0-1.18-.72,4.27,4.27,0,0,0-1.44-.24,3.83,3.83,0,0,0-1.51.28,3.37,3.37,0,0,0-1.15.75,4,4,0,0,0-1.11,2.64H209a1.46,1.46,0,0,1,.52-.91,1.35,1.35,0,0,1,.87-.31,1,1,0,0,1,1,.41,1.81,1.81,0,0,1,.27,1v1.27a2.3,2.3,0,0,0-.36,0,1.17,1.17,0,0,1-.29,0l-.27,0h-.26a6,6,0,0,0-1.9.25,2.62,2.62,0,0,0-1.17.76,2.88,2.88,0,0,0-.63,1.3,8.92,8.92,0,0,0-.16,1.82,4.45,4.45,0,0,0,.25,1.64,2.38,2.38,0,0,0,.66,1,2.11,2.11,0,0,0,.85.49,3,3,0,0,0,.88.14,2.31,2.31,0,0,0,1.38-.36,4.7,4.7,0,0,0,1-1h.05v1.25h2.44v-8.47a4.55,4.55,0,0,0-.28-1.68A3.65,3.65,0,0,0,213,153.54Zm-1.39,7.78a1.74,1.74,0,0,1-.35,1.15,1.22,1.22,0,0,1-1,.41,1.12,1.12,0,0,1-.94-.44,1.78,1.78,0,0,1-.34-1.12,1.5,1.5,0,0,1,.57-1.36,2.38,2.38,0,0,1,1.35-.37,3.9,3.9,0,0,1,.68.07Z"/><path class="cls-2" d="M229.51,148.79a3.73,3.73,0,0,0-2.81-1.13,4.25,4.25,0,0,0-1.62.3,3.79,3.79,0,0,0-1.26.83A3.65,3.65,0,0,0,223,150a4,4,0,0,0-.29,1.56V161a4.39,4.39,0,0,0,.37,1.94,3.68,3.68,0,0,0,.95,1.23,3.19,3.19,0,0,0,1.29.67,5.46,5.46,0,0,0,1.42.2,3.63,3.63,0,0,0,1.53-.33,4,4,0,0,0,1.23-.87,4.24,4.24,0,0,0,.83-1.26,3.86,3.86,0,0,0,.3-1.5V160h-2.45v.84a2.23,2.23,0,0,1-.14.84,1.65,1.65,0,0,1-.36.53,1.44,1.44,0,0,1-.52.27,1.67,1.67,0,0,1-.52.09,1.27,1.27,0,0,1-1.16-.51,2.28,2.28,0,0,1-.32-1.24V152.1a3,3,0,0,1,.3-1.43,1.25,1.25,0,0,1,1.21-.56,1.3,1.3,0,0,1,1.1.53,2,2,0,0,1,.41,1.24v.82h2.45v-1a4.39,4.39,0,0,0-.3-1.64A4,4,0,0,0,229.51,148.79Z"/><path class="cls-2" d="M239.8,153.54a3.28,3.28,0,0,0-1.17-.72,4.27,4.27,0,0,0-1.44-.24,3.8,3.8,0,0,0-1.51.28,3.41,3.41,0,0,0-1.16.75,3.89,3.89,0,0,0-1.1,2.64h2.37a1.5,1.5,0,0,1,.52-.91,1.37,1.37,0,0,1,.88-.31,1,1,0,0,1,1,.41,1.89,1.89,0,0,1,.26,1v1.27a2.3,2.3,0,0,0-.36,0,1.23,1.23,0,0,1-.29,0l-.26,0h-.27a5.92,5.92,0,0,0-1.89.25,2.6,2.6,0,0,0-1.18.76,2.87,2.87,0,0,0-.62,1.3,8.87,8.87,0,0,0-.17,1.82,4.45,4.45,0,0,0,.25,1.64,2.38,2.38,0,0,0,.66,1,2.18,2.18,0,0,0,.85.49,3,3,0,0,0,.88.14,2.31,2.31,0,0,0,1.38-.36,4.48,4.48,0,0,0,1-1h0v1.25h2.45v-8.47a4.54,4.54,0,0,0-.29-1.68A3.49,3.49,0,0,0,239.8,153.54Zm-1.39,7.78a1.74,1.74,0,0,1-.35,1.15,1.2,1.2,0,0,1-1,.41,1.14,1.14,0,0,1-.94-.44,1.78,1.78,0,0,1-.33-1.12,1.52,1.52,0,0,1,.56-1.36,2.41,2.41,0,0,1,1.36-.37,3.8,3.8,0,0,1,.67.07Z"/><path class="cls-2" d="M250.3,153.25a2.09,2.09,0,0,0-.82-.51,2.65,2.65,0,0,0-.91-.16,2.37,2.37,0,0,0-1.38.37,3.47,3.47,0,0,0-.92,1h-.05v-1.18h-2.45v12.17h2.45v-8.18a2.48,2.48,0,0,1,.26-1.25,1,1,0,0,1,1-.43,1.09,1.09,0,0,1,.89.38,1.63,1.63,0,0,1,.31,1.06v8.42h2.45v-9.33a3.7,3.7,0,0,0-.22-1.38A2.53,2.53,0,0,0,250.3,153.25Z"/><polygon class="cls-2" points="257.55 160.5 257.5 160.5 255.87 152.72 253.27 152.72 256.44 164.89 258.6 164.89 261.77 152.72 259.18 152.72 257.55 160.5"/><path class="cls-2" d="M270,153.54a3.2,3.2,0,0,0-1.17-.72,4.27,4.27,0,0,0-1.44-.24,3.83,3.83,0,0,0-1.51.28,3.37,3.37,0,0,0-1.15.75,3.86,3.86,0,0,0-1.11,2.64H266a1.49,1.49,0,0,1,.51-.91,1.39,1.39,0,0,1,.88-.31,1,1,0,0,1,1,.41,1.89,1.89,0,0,1,.26,1v1.27a2.23,2.23,0,0,0-.36,0,1.14,1.14,0,0,1-.28,0l-.27,0h-.26a6,6,0,0,0-1.9.25,2.66,2.66,0,0,0-1.18.76,2.87,2.87,0,0,0-.62,1.3,8.87,8.87,0,0,0-.17,1.82,4.43,4.43,0,0,0,.26,1.64,2.2,2.2,0,0,0,.66,1,2.11,2.11,0,0,0,.85.49,2.93,2.93,0,0,0,.87.14,2.29,2.29,0,0,0,1.38-.36,4.5,4.5,0,0,0,1-1h0v1.25h2.45v-8.47a4.35,4.35,0,0,0-.29-1.68A3.35,3.35,0,0,0,270,153.54Zm-1.39,7.78a1.68,1.68,0,0,1-.35,1.15,1.2,1.2,0,0,1-1,.41,1.1,1.1,0,0,1-.93-.44,1.72,1.72,0,0,1-.34-1.12,1.52,1.52,0,0,1,.56-1.36,2.41,2.41,0,0,1,1.36-.37,3.71,3.71,0,0,1,.67.07Z"/><path class="cls-2" d="M278.58,157.93l-1.44-.57a1.6,1.6,0,0,1-.87-.59,1.46,1.46,0,0,1-.16-.66,1.26,1.26,0,0,1,.31-.85,1.07,1.07,0,0,1,.88-.38,1.31,1.31,0,0,1,.86.32,1.2,1.2,0,0,1,.39.93h2.31a3.67,3.67,0,0,0-.27-1.4,3.35,3.35,0,0,0-.72-1.14,3.22,3.22,0,0,0-1.09-.75,3.65,3.65,0,0,0-1.38-.26,3.73,3.73,0,0,0-1.39.25,3.28,3.28,0,0,0-1.13.73,3.38,3.38,0,0,0-.79,1.14,3.58,3.58,0,0,0-.29,1.43,3.3,3.3,0,0,0,.66,2.08,4,4,0,0,0,1.81,1.28l1.18.43a2.16,2.16,0,0,1,1,.63,1.46,1.46,0,0,1,.26.86,1.18,1.18,0,0,1-.42,1,1.4,1.4,0,0,1-.95.35,1.06,1.06,0,0,1-1-.43,2.43,2.43,0,0,1-.35-.94h-2.3A4.14,4.14,0,0,0,274,163a3.32,3.32,0,0,0,.81,1.14,3.58,3.58,0,0,0,2.5.94,3.66,3.66,0,0,0,1.46-.29A3.62,3.62,0,0,0,280,164a3.78,3.78,0,0,0,.75-1.17,3.72,3.72,0,0,0,.28-1.43,4,4,0,0,0-.52-2A3.46,3.46,0,0,0,278.58,157.93Z"/><polygon class="cls-2" points="12.61 175.8 10.16 175.8 6.59 183.6 6.54 183.6 6.54 175.8 4.09 175.8 4.09 192.89 6.54 192.89 6.54 187.78 7.86 185.31 10.64 192.89 13.23 192.89 9.28 182.64 12.61 175.8"/><path class="cls-2" d="M21.65,181.54a3.32,3.32,0,0,0-1.18-.72,4.27,4.27,0,0,0-1.44-.24,3.83,3.83,0,0,0-1.51.28,3.37,3.37,0,0,0-1.15.75,3.9,3.9,0,0,0-1.11,2.64h2.38a1.49,1.49,0,0,1,.51-.91A1.39,1.39,0,0,1,19,183a1,1,0,0,1,1,.41,1.81,1.81,0,0,1,.26,1v1.27a2.17,2.17,0,0,0-.36,0,1.14,1.14,0,0,1-.28,0l-.27,0h-.26a6,6,0,0,0-1.9.25,2.57,2.57,0,0,0-1.17.76,2.78,2.78,0,0,0-.63,1.3,8.87,8.87,0,0,0-.17,1.82,4.43,4.43,0,0,0,.26,1.64,2.2,2.2,0,0,0,.66,1,2.11,2.11,0,0,0,.85.49,3,3,0,0,0,.87.14,2.27,2.27,0,0,0,1.38-.36,4.5,4.5,0,0,0,1-1h0v1.25H22.7v-8.47a4.35,4.35,0,0,0-.29-1.68A3.47,3.47,0,0,0,21.65,181.54Zm-1.4,7.78a1.73,1.73,0,0,1-.34,1.15,1.24,1.24,0,0,1-1,.41,1.1,1.1,0,0,1-.93-.44,1.72,1.72,0,0,1-.34-1.12,1.5,1.5,0,0,1,.57-1.36,2.35,2.35,0,0,1,1.35-.37,3.71,3.71,0,0,1,.67.07Z"/><path class="cls-2" d="M32.14,181.25a2.06,2.06,0,0,0-.81-.51,2.7,2.7,0,0,0-.92-.16A2.37,2.37,0,0,0,29,181a3.47,3.47,0,0,0-.92,1h-.05v-1.18H25.61v12.17h2.45v-8.18a2.37,2.37,0,0,1,.27-1.25,1,1,0,0,1,1-.43,1.07,1.07,0,0,1,.88.38,1.63,1.63,0,0,1,.32,1.06v8.42h2.44v-9.33a3.93,3.93,0,0,0-.21-1.38A2.68,2.68,0,0,0,32.14,181.25Z"/><path class="cls-2" d="M40.8,181.83h0a3.09,3.09,0,0,0-1-.93,2.56,2.56,0,0,0-1.28-.32,2.42,2.42,0,0,0-1.37.31,2.32,2.32,0,0,0-1.13,1.8c0,.42-.07,1.07-.07,1.95v4.63a9.88,9.88,0,0,0,.1,1.61,3.19,3.19,0,0,0,.31,1A2.19,2.19,0,0,0,38.47,193a3.12,3.12,0,0,0,.8-.1,2.32,2.32,0,0,0,.6-.26,3.64,3.64,0,0,0,.48-.4l.45-.49v1.1h2.45V175.8H40.8Zm0,7.25a1.73,1.73,0,0,1-.33,1.09,1.09,1.09,0,0,1-.89.42,1,1,0,0,1-.91-.46,2.13,2.13,0,0,1-.29-1.2v-4.46a1.94,1.94,0,0,1,.25-1,1,1,0,0,1,.95-.43,1.16,1.16,0,0,1,.88.37,1.33,1.33,0,0,1,.34.95Z"/><path class="cls-2" d="M52.39,181.54a3.32,3.32,0,0,0-1.18-.72,4.18,4.18,0,0,0-1.44-.24,3.83,3.83,0,0,0-1.51.28,3.37,3.37,0,0,0-1.15.75,3.89,3.89,0,0,0-1.1,2.64h2.37a1.46,1.46,0,0,1,.52-.91,1.35,1.35,0,0,1,.87-.31,1,1,0,0,1,1,.41,1.81,1.81,0,0,1,.27,1v1.27a2.3,2.3,0,0,0-.36,0,1.23,1.23,0,0,1-.29,0l-.26,0h-.27a5.88,5.88,0,0,0-1.89.25,2.6,2.6,0,0,0-1.18.76,2.87,2.87,0,0,0-.62,1.3A8.22,8.22,0,0,0,46,189.8a4.45,4.45,0,0,0,.25,1.64,2.38,2.38,0,0,0,.66,1,2.18,2.18,0,0,0,.85.49,3,3,0,0,0,.88.14,2.31,2.31,0,0,0,1.38-.36,4.48,4.48,0,0,0,1-1h0v1.25h2.45v-8.47a4.54,4.54,0,0,0-.29-1.68A3.49,3.49,0,0,0,52.39,181.54ZM51,189.32a1.74,1.74,0,0,1-.35,1.15,1.22,1.22,0,0,1-1,.41,1.14,1.14,0,0,1-.94-.44,1.78,1.78,0,0,1-.33-1.12A1.5,1.5,0,0,1,49,188a2.41,2.41,0,0,1,1.36-.37,3.8,3.8,0,0,1,.67.07Z"/><rect class="cls-2" x="56.35" y="180.72" width="2.45" height="12.17"/><polygon class="cls-2" points="73.37 184.85 73.32 184.85 70.18 175.8 67.83 175.8 67.83 192.89 70.28 192.89 70.28 182.5 70.32 182.5 72.72 189.84 73.95 189.84 76.37 182.5 76.42 182.5 76.42 192.89 78.87 192.89 78.87 175.8 76.49 175.8 73.37 184.85"/><path class="cls-2" d="M87.07,180.87a3.89,3.89,0,0,0-1.52-.29,3.77,3.77,0,0,0-2,.48,3.26,3.26,0,0,0-1.23,1.27,3.15,3.15,0,0,0-.36,1.11,8.19,8.19,0,0,0-.1,1.36v4a8.32,8.32,0,0,0,.1,1.37,3.1,3.1,0,0,0,.36,1.1,3.29,3.29,0,0,0,1.23,1.28,3.77,3.77,0,0,0,2,.48,3.84,3.84,0,0,0,1.51-.29,3.47,3.47,0,0,0,1.15-.79,3.51,3.51,0,0,0,1-2.6H86.75a2.16,2.16,0,0,1-.28.82,1,1,0,0,1-.92.41,1.26,1.26,0,0,1-.88-.31,1.21,1.21,0,0,1-.32-.89v-1.66H89.2v-3.36a3.92,3.92,0,0,0-1-2.71A3.32,3.32,0,0,0,87.07,180.87Zm-.32,4.94h-2.4v-1.39a1.5,1.5,0,0,1,.32-1,1.12,1.12,0,0,1,.88-.35,1.09,1.09,0,0,1,.87.35,1.46,1.46,0,0,1,.33,1Z"/><path class="cls-2" d="M105.79,183.39a6.38,6.38,0,0,0,.47-2.57c0-3.34-1.44-5-4.32-5H98v17.09h2.45V185.6h1.47l2.28,7.29h2.59l-2.64-7.8A3.63,3.63,0,0,0,105.79,183.39Zm-2.05-1.48a2.54,2.54,0,0,1-.26.83,1.52,1.52,0,0,1-.6.52,2.49,2.49,0,0,1-1,.18h-1.39v-5.33h1.27a1.94,1.94,0,0,1,1.73.67,2.19,2.19,0,0,1,.29.85,9.32,9.32,0,0,1,0,2.28Z"/><rect class="cls-2" x="109.67" y="175.8" width="2.45" height="17.09"/><path class="cls-2" d="M121.19,176a4,4,0,0,0-1.67-.34,4.26,4.26,0,0,0-1.86.37,3.55,3.55,0,0,0-1.28,1,4,4,0,0,0-.8,1.49,6.35,6.35,0,0,0-.26,1.82,6,6,0,0,0,.54,2.68,3.88,3.88,0,0,0,2.12,1.71l1.76.72a7.13,7.13,0,0,1,.73.36,1.39,1.39,0,0,1,.44.43,1.82,1.82,0,0,1,.19.7,10.88,10.88,0,0,1,.05,1.1c0,.39,0,.74,0,1.05a1.92,1.92,0,0,1-.22.8,1.29,1.29,0,0,1-.54.52,2.18,2.18,0,0,1-1,.18,1.56,1.56,0,0,1-1.34-.54,2,2,0,0,1-.39-1.21v-.77H115.2V189a4,4,0,0,0,.32,1.6,4.36,4.36,0,0,0,.88,1.28,3.82,3.82,0,0,0,1.32.86,4.31,4.31,0,0,0,1.66.32,4.62,4.62,0,0,0,2-.39,3.52,3.52,0,0,0,1.32-1.05,4.22,4.22,0,0,0,.69-1.58,8.4,8.4,0,0,0,.22-2,12,12,0,0,0-.1-1.67,4.35,4.35,0,0,0-.36-1.31,3.16,3.16,0,0,0-.79-1,4.81,4.81,0,0,0-1.32-.73l-1.87-.74a4.07,4.07,0,0,1-.76-.39,1.49,1.49,0,0,1-.42-.45,1.91,1.91,0,0,1-.18-.6q0-.34,0-.84a4.43,4.43,0,0,1,.07-.83,2,2,0,0,1,.26-.71,1.68,1.68,0,0,1,.51-.48,1.5,1.5,0,0,1,.81-.19,1.47,1.47,0,0,1,1.34.61,2.64,2.64,0,0,1,.39,1.45v.55h2.45v-1.2a3.7,3.7,0,0,0-1.11-2.64A4.26,4.26,0,0,0,121.19,176Z"/><polygon class="cls-2" points="126.64 192.89 133.94 192.89 133.94 190.44 129.09 190.44 129.09 185.43 133.31 185.43 133.31 183.12 129.09 183.12 129.09 178.11 133.94 178.11 133.94 175.8 126.64 175.8 126.64 192.89"/></g></g></svg>