<svg xmlns="http://www.w3.org/2000/svg" viewBox="0 0 299.21 189.99"><defs><style>.cls-1{fill:#fff;}.cls-2{fill:#191919;}</style></defs><title>logo-front</title><g id="レイヤー_2" data-name="レイヤー 2"><g id="レイヤー_1-2" data-name="レイヤー 1"><polygon class="cls-1" points="278.54 42.06 278.54 32.41 299.21 20.99 278.54 9.56 272.42 5.76 272.42 45.27 278.54 45.27 278.54 42.06"/><polygon class="cls-1" points="68.86 6.44 65.86 14.51 71.86 14.51 68.86 6.44"/><polygon class="cls-1" points="62.16 16.51 54.33 12.93 57.92 20.75 62.16 16.51"/><polygon class="cls-1" points="48.34 27.77 56.4 30.76 56.4 24.77 48.34 27.77"/><polygon class="cls-1" points="57.81 33.71 54.22 41.53 62.05 37.95 57.81 33.71"/><polygon class="cls-1" points="71.73 39.89 65.74 39.89 68.73 47.96 71.73 39.89"/><polygon class="cls-1" points="79.28 33.94 75.37 38.48 83.44 41.47 79.28 33.94"/><polygon class="cls-1" points="81.42 30.76 89.49 27.77 81.42 24.77 81.42 30.76"/><polygon class="cls-1" points="83.39 12.36 75.57 15.95 79.81 20.19 83.39 12.36"/><polygon class="cls-1" points="21.72 29.9 22.05 30.76 23.88 26.23 24.87 28.9 27.14 22.48 36.66 46.28 50.73 9.35 44.36 9.35 36.6 30.77 28.65 9.35 23.6 9.35 15.49 30.77 7.94 9.35 1 9.35 15.08 46.28 21.72 29.9"/><path class="cls-1" d="M98.6,31.59h2.81l6,9.52h0l2.48,4H117l-4.33-6.73a14.18,14.18,0,0,1,7.67-2.18c3.51.11,6,1.73,8.67,3.44s5.59,3.6,9.64,3.74h.49c3.75,0,7.56-1.49,11.33-4.42l-.61-.79c-3.75,2.91-7.52,4.35-11.18,4.2s-6.49-1.88-9.13-3.58-5.39-3.48-9.18-3.6a15.2,15.2,0,0,0-8.25,2.33l-1.79-2.78c3.41-2.6,6.76-3.89,10-3.79,3.51.11,6,1.73,8.67,3.45s5.59,3.6,9.64,3.74h.49c3.75,0,7.39-1.36,11.16-4.3l.13-.52a19.67,19.67,0,0,0,1-6.09c0-10.3-7.25-17.85-17.65-17.85H122.22V30.12a11.91,11.91,0,0,0-1.83-.21c-3.45-.1-7,1.24-10.58,3.95l-1.72-2.68c5.1-1.27,8-5.35,8-10.71,0-6.53-4.75-11.12-11.84-11.12H92.48V45.06H98.6Zm29.74-16.43h5.51c6.94,0,11.32,5.51,11.32,12A12.2,12.2,0,0,1,140.59,37a14.94,14.94,0,0,1-1.89.08c-3.77-.13-6.49-1.89-9.13-3.58-.4-.27-.82-.53-1.23-.79Zm-29.74,0h4.85c3.93,0,6.37,1.79,6.37,5.31s-2.44,5.3-6.37,5.3H98.6Z"/><path class="cls-1" d="M175.11,45.88a18,18,0,0,0,13.72-6.07l-4.08-4a12.71,12.71,0,0,1-9.64,4.39c-7,0-11.89-5.87-11.89-12.76s4.85-12.75,11.89-12.75a12.29,12.29,0,0,1,9.08,3.93l4.13-4A17.89,17.89,0,0,0,175.11,9C164.8,9,157,16.86,157,27.41S164.8,45.88,175.11,45.88Z"/><path class="cls-1" d="M238.07,21.29l11.17,17,9.25-14.06a11.75,11.75,0,0,0,1.92-.65v21.7h6.13V9.56h-5.67L254.1,20a11.38,11.38,0,0,1-1.76-.77,6.81,6.81,0,0,0-3.5-1,7.18,7.18,0,0,0-4.38,1.89L237.61,9.56H232V45.27h6.12Zm22.34,0v1.18c-.36.17-.71.32-1.06.45Zm-11.17,6.23-2.84-4.4a5.17,5.17,0,0,1,2.47-.69,5.69,5.69,0,0,1,3,.89l.06,0Zm-.37-8.28a5.61,5.61,0,0,1,3,.9,13.53,13.53,0,0,0,1.66.75l-1,1.62-.15-.07a6.81,6.81,0,0,0-3.5-1,6,6,0,0,0-3,.84L245,21A6.34,6.34,0,0,1,248.87,19.24Z"/><polygon class="cls-1" points="201.53 36.8 208.63 36.8 211.89 45.27 226.07 45.27 212.19 9.56 209.69 3.26 209.69 3.25 209.5 2.78 210.29 0.79 209.57 0.5 209.08 1.73 208.59 0.5 207.87 0.79 208.66 2.78 205.97 9.56 192.09 45.27 198.27 45.27 201.53 36.8"/><path class="cls-1" d="M21.37,87.56c10.09,0,17.5-7.66,17.5-17.9s-7.41-17.9-17.5-17.9-17.5,7.67-17.5,17.9S11.28,87.56,21.37,87.56Zm0-30.16c7,0,11.47,5.59,11.47,12.26s-4.5,12.27-11.47,12.27S9.9,76.34,9.9,69.66,14.4,57.4,21.37,57.4Z"/><path class="cls-1" d="M68.65,77.92c0-6.28-4.41-8.65-9.7-10.63-4.74-1.78-7.46-2.72-7.46-5.74,0-2.32,2.32-4.15,5.29-4.15,4.3,0,7.17,3.91,7.17,3.91l4.1-4.06a14.86,14.86,0,0,0-11.27-5.49c-7,0-11.33,4.9-11.33,9.79,0,6.43,5.74,9.2,10.83,11C60.39,74,62.61,75,62.61,77.92s-3.06,4-6,4c-5.24,0-8.21-5.2-8.21-5.2l-4.45,3.76a15.14,15.14,0,0,0,12.66,7.07C63.11,87.56,68.65,84.2,68.65,77.92Z"/><path class="cls-1" d="M82.84,78.76H97.48L100.64,87h6L93.17,52.36h-6L73.69,87h6Zm7.32-18.94,5.19,13.5H85Z"/><polygon class="cls-1" points="113.06 52.36 113.06 86.97 119 86.97 119 71.34 132.6 86.97 140.46 86.97 125.23 69.37 138.78 52.36 131.36 52.36 119 67.88 119 52.36 113.06 52.36"/><path class="cls-1" d="M179.83,87,166.38,52.36h-6L146.9,87h6l3.17-8.21h14.63L173.85,87ZM158.17,73.32l5.19-13.5,5.2,13.5Z"/><path class="cls-1" d="M193.24,86.34H216V80.7H204.91l8-10.28a14.35,14.35,0,0,0,3-8.51c0-5.73-3.61-10.78-11.08-10.78-9.24,0-11.47,8.66-11.47,8.66l5.29,1.92s1.09-5,6.18-5A5.09,5.09,0,0,1,210,62c0,3.91-2.72,6.53-4,8.21Z"/><path class="cls-1" d="M234.14,51.13c-8.8,0-13.06,8.51-13.06,17.9s4.26,17.9,13.06,17.9,13-8.5,13-17.9S242.94,51.13,234.14,51.13Zm0,30.26c-4.8,0-7.12-5.58-7.12-12.36s2.32-12.36,7.12-12.36,7,5.59,7,12.36S238.93,81.39,234.14,81.39Z"/><polygon class="cls-1" points="260.24 86.34 266.17 86.34 266.17 51.73 261.28 51.73 250.75 60.13 254.16 64.48 260.24 59.64 260.24 86.34"/><path class="cls-1" d="M291.5,67.94a8.27,8.27,0,0,0,3.86-6.82c0-5.14-3.66-10-10.88-10S273.6,56,273.6,61.12a8.27,8.27,0,0,0,3.86,6.82,8.61,8.61,0,0,0-4.85,8.21c0,5.79,4.35,10.78,11.87,10.78s11.87-5,11.87-10.78A8.61,8.61,0,0,0,291.5,67.94Zm-7-11.37c2.77,0,5,1.78,5,4.6s-2.23,4.6-5,4.6-5-1.78-5-4.6S281.71,56.57,284.48,56.57Zm0,24.92c-3.91,0-5.88-2.62-5.88-5.44s2-5.34,5.88-5.34,5.88,2.53,5.88,5.34S288.39,81.49,284.48,81.49Z"/><polygon class="cls-2" points="277.54 41.56 277.54 31.91 298.21 20.49 277.54 9.06 271.42 5.26 271.42 44.77 277.54 44.77 277.54 41.56"/><polygon class="cls-2" points="67.86 5.94 64.86 14.01 70.86 14.01 67.86 5.94"/><polygon class="cls-2" points="61.16 16.01 53.33 12.43 56.92 20.25 61.16 16.01"/><polygon class="cls-2" points="47.34 27.27 55.4 30.26 55.4 24.27 47.34 27.27"/><polygon class="cls-2" points="56.81 33.21 53.22 41.03 61.05 37.45 56.81 33.21"/><polygon class="cls-2" points="70.73 39.39 64.74 39.39 67.73 47.46 70.73 39.39"/><polygon class="cls-2" points="78.28 33.44 74.37 37.98 82.44 40.97 78.28 33.44"/><polygon class="cls-2" points="80.42 30.26 88.49 27.27 80.42 24.27 80.42 30.26"/><polygon class="cls-2" points="82.39 11.86 74.57 15.45 78.81 19.69 82.39 11.86"/><polygon class="cls-2" points="20.72 29.4 21.05 30.26 22.88 25.73 23.87 28.4 26.14 21.98 35.66 45.78 49.73 8.85 43.36 8.85 35.6 30.27 27.65 8.85 22.6 8.85 14.49 30.27 6.94 8.85 0 8.85 14.08 45.78 20.72 29.4"/><path class="cls-2" d="M97.6,31.09h2.81l6,9.52h0l2.48,4H116l-4.33-6.73a14.18,14.18,0,0,1,7.67-2.18c3.51.11,6,1.73,8.67,3.44s5.59,3.6,9.64,3.74h.49c3.75,0,7.56-1.49,11.33-4.42l-.61-.79c-3.75,2.91-7.52,4.35-11.18,4.2s-6.49-1.88-9.13-3.58-5.39-3.48-9.18-3.6A15.2,15.2,0,0,0,111.14,37l-1.79-2.78c3.41-2.6,6.76-3.89,10-3.79,3.51.11,6,1.73,8.67,3.45s5.59,3.6,9.64,3.74h.49c3.75,0,7.39-1.36,11.16-4.3l.13-.52a19.67,19.67,0,0,0,1-6.09c0-10.3-7.25-17.85-17.65-17.85H121.22V29.62a11.91,11.91,0,0,0-1.83-.21c-3.45-.1-7,1.24-10.58,3.95l-1.72-2.68c5.1-1.27,8-5.35,8-10.71,0-6.53-4.75-11.12-11.84-11.12H91.48V44.56H97.6Zm29.74-16.43h5.51c6.94,0,11.32,5.51,11.32,12a12.2,12.2,0,0,1-4.58,9.82,14.94,14.94,0,0,1-1.89.08c-3.77-.13-6.49-1.89-9.13-3.58-.4-.27-.82-.53-1.23-.79Zm-29.74,0h4.85c3.93,0,6.37,1.79,6.37,5.31s-2.44,5.3-6.37,5.3H97.6Z"/><path class="cls-2" d="M174.11,45.38a18,18,0,0,0,13.72-6.07l-4.08-4a12.71,12.71,0,0,1-9.64,4.39c-7,0-11.89-5.87-11.89-12.76s4.85-12.75,11.89-12.75a12.29,12.29,0,0,1,9.08,3.93l4.13-4a17.89,17.89,0,0,0-13.21-5.61C163.8,8.45,156,16.36,156,26.91S163.8,45.38,174.11,45.38Z"/><path class="cls-2" d="M237.07,20.79l11.17,17,9.25-14.06a11.75,11.75,0,0,0,1.92-.65v21.7h6.13V9.06h-5.67L253.1,19.52a11.38,11.38,0,0,1-1.76-.77,6.81,6.81,0,0,0-3.5-1,7.18,7.18,0,0,0-4.38,1.89L236.61,9.06H231V44.77h6.12Zm22.34,0V22c-.36.17-.71.32-1.06.45ZM248.24,27l-2.84-4.4a5.17,5.17,0,0,1,2.47-.69,5.69,5.69,0,0,1,3,.89l.06,0Zm-.37-8.28a5.61,5.61,0,0,1,3,.9,13.53,13.53,0,0,0,1.66.75l-1,1.62-.15-.07a6.81,6.81,0,0,0-3.5-1,6,6,0,0,0-3,.84L244,20.48A6.34,6.34,0,0,1,247.87,18.74Z"/><polygon class="cls-2" points="200.53 36.3 207.63 36.3 210.89 44.77 225.07 44.77 211.19 9.06 208.69 2.76 208.69 2.75 208.5 2.28 209.29 0.29 208.57 0 208.08 1.23 207.59 0 206.87 0.29 207.66 2.28 204.97 9.06 191.09 44.77 197.27 44.77 200.53 36.3"/><path class="cls-2" d="M20.37,87.06c10.09,0,17.5-7.66,17.5-17.9s-7.41-17.9-17.5-17.9-17.5,7.67-17.5,17.9S10.28,87.06,20.37,87.06Zm0-30.16c7,0,11.47,5.59,11.47,12.26s-4.5,12.27-11.47,12.27S8.9,75.84,8.9,69.16,13.4,56.9,20.37,56.9Z"/><path class="cls-2" d="M67.65,77.42c0-6.28-4.41-8.65-9.7-10.63-4.74-1.78-7.46-2.72-7.46-5.74,0-2.32,2.32-4.15,5.29-4.15,4.3,0,7.17,3.91,7.17,3.91l4.1-4.06a14.86,14.86,0,0,0-11.27-5.49c-7,0-11.33,4.9-11.33,9.79,0,6.43,5.74,9.2,10.83,11,4.11,1.44,6.33,2.47,6.33,5.39s-3.06,4-6,4c-5.24,0-8.21-5.2-8.21-5.2L42.92,80a15.14,15.14,0,0,0,12.66,7.07C62.11,87.06,67.65,83.7,67.65,77.42Z"/><path class="cls-2" d="M81.84,78.26H96.48l3.16,8.21h6L92.17,51.86h-6L72.69,86.47h6Zm7.32-18.94,5.19,13.5H84Z"/><polygon class="cls-2" points="112.06 51.86 112.06 86.47 118 86.47 118 70.84 131.6 86.47 139.46 86.47 124.23 68.87 137.78 51.86 130.36 51.86 118 67.38 118 51.86 112.06 51.86"/><path class="cls-2" d="M178.83,86.47,165.38,51.86h-6L145.9,86.47h6l3.17-8.21h14.63l3.17,8.21ZM157.17,72.82l5.19-13.5,5.2,13.5Z"/><path class="cls-2" d="M192.24,85.84H215V80.2H203.91l8-10.28a14.35,14.35,0,0,0,3-8.51c0-5.73-3.61-10.78-11.08-10.78-9.24,0-11.47,8.66-11.47,8.66l5.29,1.92s1.09-5,6.18-5A5.09,5.09,0,0,1,209,61.51c0,3.91-2.72,6.53-4,8.21Z"/><path class="cls-2" d="M233.14,50.63c-8.8,0-13.06,8.51-13.06,17.9s4.26,17.9,13.06,17.9,13-8.5,13-17.9S241.94,50.63,233.14,50.63Zm0,30.26c-4.8,0-7.12-5.58-7.12-12.36s2.32-12.36,7.12-12.36,7,5.59,7,12.36S237.93,80.89,233.14,80.89Z"/><polygon class="cls-2" points="259.24 85.84 265.17 85.84 265.17 51.23 260.28 51.23 249.75 59.63 253.16 63.98 259.24 59.14 259.24 85.84"/><path class="cls-2" d="M290.5,67.44a8.27,8.27,0,0,0,3.86-6.82c0-5.14-3.66-10-10.88-10s-10.88,4.85-10.88,10a8.27,8.27,0,0,0,3.86,6.82,8.61,8.61,0,0,0-4.85,8.21c0,5.79,4.35,10.78,11.87,10.78s11.87-5,11.87-10.78A8.61,8.61,0,0,0,290.5,67.44Zm-7-11.37c2.77,0,5,1.78,5,4.6s-2.23,4.6-5,4.6-5-1.78-5-4.6S280.71,56.07,283.48,56.07Zm0,24.92c-3.91,0-5.88-2.62-5.88-5.44s2-5.34,5.88-5.34,5.88,2.53,5.88,5.34S287.39,81,283.48,81Z"/><path class="cls-1" d="M15.49,115.88a5.09,5.09,0,0,0,.36-1.15,9.3,9.3,0,0,0,.15-1.21q0-.63,0-1.56a9.67,9.67,0,0,0-.3-2.45,6.14,6.14,0,0,0-1-2.05A4.86,4.86,0,0,0,13.06,106a5.45,5.45,0,0,0-2.46-.52,5.22,5.22,0,0,0-2.16.45,5.34,5.34,0,0,0-1.73,1.21,5.64,5.64,0,0,0-1.19,1.76,5.38,5.38,0,0,0-.43,2.16v2H8.76V111a1.67,1.67,0,0,1,1.8-1.84,1.73,1.73,0,0,1,1,.27,1.75,1.75,0,0,1,.54.67,2.35,2.35,0,0,1,.19.92c0,.35,0,.68,0,1a16.92,16.92,0,0,1-.07,1.74,4.51,4.51,0,0,1-.58,1.64L5.09,127.9v3.46H16v-3.67H9.41l5.4-10.41C15.1,116.73,15.33,116.26,15.49,115.88Z"/><path class="cls-1" d="M29.61,130.1a5.5,5.5,0,0,0,1.21-1.73,5.59,5.59,0,0,0,.45-2.3V111a5.59,5.59,0,0,0-.45-2.3A5.38,5.38,0,0,0,29.61,107a5.14,5.14,0,0,0-1.75-1.1,5.83,5.83,0,0,0-4.14,0A5.1,5.1,0,0,0,22,107a5.23,5.23,0,0,0-1.21,1.73,5.59,5.59,0,0,0-.45,2.3v15a5.59,5.59,0,0,0,.45,2.3A5.34,5.34,0,0,0,22,130.1a5.1,5.1,0,0,0,1.74,1.1,5.83,5.83,0,0,0,4.14,0A5.14,5.14,0,0,0,29.61,130.1Zm-2-4a1.79,1.79,0,0,1-.5,1.31,1.73,1.73,0,0,1-1.3.52,1.7,1.7,0,0,1-1.29-.52,1.79,1.79,0,0,1-.51-1.31V111a1.78,1.78,0,0,1,.51-1.31,1.71,1.71,0,0,1,1.29-.53,1.73,1.73,0,0,1,1.3.53,1.77,1.77,0,0,1,.5,1.31Z"/><polygon class="cls-1" points="39.56 131.36 43.23 131.36 43.23 105.73 39.56 105.73 35.88 108.43 35.88 112.32 39.56 109.62 39.56 131.36"/><path class="cls-1" d="M59,116.87a3.27,3.27,0,0,0,.56-1.1,6.23,6.23,0,0,0,.22-1.4q0-.8,0-2c0-.69,0-1.29-.05-1.78a5.51,5.51,0,0,0-.24-1.28,5.07,5.07,0,0,0-.43-1,8.43,8.43,0,0,0-.61-.9,5,5,0,0,0-1.8-1.46A5.52,5.52,0,0,0,52,106a5,5,0,0,0-1.8,1.46,6,6,0,0,0-.59.9,5.78,5.78,0,0,0-.42,1,6,6,0,0,0-.25,1.28c0,.49-.07,1.09-.07,1.78s0,1.42,0,2a6.23,6.23,0,0,0,.22,1.4,3.27,3.27,0,0,0,.56,1.1,7,7,0,0,0,1,1,5.4,5.4,0,0,0-1,1,3.53,3.53,0,0,0-.56,1.19,8.27,8.27,0,0,0-.22,1.68q0,1,0,2.43c0,.79,0,1.44.05,2s.09,1,.16,1.35a4.1,4.1,0,0,0,.31,1,6.87,6.87,0,0,0,.49.83,5.12,5.12,0,0,0,1.72,1.6,5.94,5.94,0,0,0,5.48,0,5.22,5.22,0,0,0,1.72-1.6,6.87,6.87,0,0,0,.49-.83,4.1,4.1,0,0,0,.31-1c.07-.39.12-.84.16-1.35s.05-1.17.05-2q0-1.44,0-2.43a8.27,8.27,0,0,0-.22-1.68A3.53,3.53,0,0,0,59,118.9a5.4,5.4,0,0,0-1-1A7,7,0,0,0,59,116.87Zm-2.86,9.23a1.71,1.71,0,0,1-.54,1.28,1.79,1.79,0,0,1-2.52,0,1.71,1.71,0,0,1-.54-1.28v-5a1.69,1.69,0,0,1,.54-1.27,1.76,1.76,0,0,1,2.52,0,1.69,1.69,0,0,1,.54,1.27Zm0-11.37a1.72,1.72,0,0,1-.54,1.28,1.79,1.79,0,0,1-2.52,0,1.72,1.72,0,0,1-.54-1.28V111a1.69,1.69,0,0,1,.54-1.27,1.76,1.76,0,0,1,2.52,0,1.69,1.69,0,0,1,.54,1.27Z"/><rect class="cls-1" x="64.19" y="127.69" width="3.67" height="3.67"/><path class="cls-1" d="M73.93,130.1a5.24,5.24,0,0,0,1.75,1.1,5.83,5.83,0,0,0,4.14,0,5.1,5.1,0,0,0,1.74-1.1,5.34,5.34,0,0,0,1.21-1.73,5.59,5.59,0,0,0,.45-2.3V111a5.59,5.59,0,0,0-.45-2.3A5.23,5.23,0,0,0,81.56,107a5.1,5.1,0,0,0-1.74-1.1,5.83,5.83,0,0,0-4.14,0,5.24,5.24,0,0,0-1.75,1.1,5.36,5.36,0,0,0-1.2,1.73,5.43,5.43,0,0,0-.45,2.3v15a5.42,5.42,0,0,0,1.65,4ZM76,111a1.77,1.77,0,0,1,.5-1.31,1.73,1.73,0,0,1,1.3-.53,1.7,1.7,0,0,1,1.29.53,1.78,1.78,0,0,1,.51,1.31v15a1.79,1.79,0,0,1-.51,1.31,1.69,1.69,0,0,1-1.29.52,1.73,1.73,0,0,1-1.3-.52,1.79,1.79,0,0,1-.5-1.31Z"/><path class="cls-1" d="M97.62,129.09a6.48,6.48,0,0,0,.42-.83,6.2,6.2,0,0,0,.27-1c0-.36.08-.81.1-1.35s0-1.23,0-2.07c0-1,0-1.84,0-2.5s-.06-1.21-.1-1.64a6.25,6.25,0,0,0-.26-1,3.41,3.41,0,0,0-.39-.79,3.65,3.65,0,0,0-1.3-1.19,3.61,3.61,0,0,0-1.8-.47,4.39,4.39,0,0,0-1,.09,1.57,1.57,0,0,0-.56.23l-.07-.07,4.18-10.76H93l-4.82,12.89c-.12.33-.23.65-.32.95a5.55,5.55,0,0,0-.22,1c-.05.38-.08.83-.11,1.35s0,1.17,0,2,0,1.53,0,2.07a8.77,8.77,0,0,0,.15,1.35,3.37,3.37,0,0,0,.23,1,4.89,4.89,0,0,0,.45.83,5.21,5.21,0,0,0,1.91,1.82,5.46,5.46,0,0,0,2.7.67,5.69,5.69,0,0,0,2.72-.65A5,5,0,0,0,97.62,129.09Zm-2.84-3a1.74,1.74,0,0,1-.54,1.33,1.84,1.84,0,0,1-2.52,0,1.74,1.74,0,0,1-.54-1.33v-4.75a1.75,1.75,0,0,1,.54-1.34,1.84,1.84,0,0,1,2.52,0,1.75,1.75,0,0,1,.54,1.34Z"/><rect class="cls-1" x="102.8" y="127.69" width="3.67" height="3.67"/><path class="cls-1" d="M118.43,131.2a5.1,5.1,0,0,0,1.74-1.1,5.34,5.34,0,0,0,1.21-1.73,5.59,5.59,0,0,0,.45-2.3V111a5.59,5.59,0,0,0-.45-2.3,5.23,5.23,0,0,0-1.21-1.73,5.1,5.1,0,0,0-1.74-1.1,5.83,5.83,0,0,0-4.14,0,5.14,5.14,0,0,0-1.75,1.1,5.38,5.38,0,0,0-1.21,1.73,5.59,5.59,0,0,0-.45,2.3v15a5.59,5.59,0,0,0,.45,2.3,5.5,5.5,0,0,0,1.21,1.73,5.14,5.14,0,0,0,1.75,1.1,5.83,5.83,0,0,0,4.14,0Zm-3.87-5.13V111a1.77,1.77,0,0,1,.5-1.31,1.73,1.73,0,0,1,1.3-.53,1.71,1.71,0,0,1,1.29.53,1.78,1.78,0,0,1,.51,1.31v15a1.79,1.79,0,0,1-.51,1.31,1.7,1.7,0,0,1-1.29.52,1.73,1.73,0,0,1-1.3-.52A1.79,1.79,0,0,1,114.56,126.07Z"/><path class="cls-1" d="M136.52,115.88a5.09,5.09,0,0,0,.36-1.15,9.32,9.32,0,0,0,.14-1.21c0-.42,0-.94,0-1.56a9.24,9.24,0,0,0-.31-2.45,6.12,6.12,0,0,0-.95-2.05,5,5,0,0,0-1.71-1.43,5.49,5.49,0,0,0-2.47-.52,5.32,5.32,0,0,0-3.88,1.66,5.47,5.47,0,0,0-1.19,1.76,5.38,5.38,0,0,0-.43,2.16v2h3.67V111a1.83,1.83,0,0,1,.48-1.37,1.85,1.85,0,0,1,1.32-.47,1.72,1.72,0,0,1,1,.27,1.75,1.75,0,0,1,.54.67,2.35,2.35,0,0,1,.2.92c0,.35,0,.68,0,1,0,.69,0,1.28-.07,1.74a4.51,4.51,0,0,1-.58,1.64l-6.62,12.49v3.46h10.94v-3.67h-6.62l5.4-10.41C136.12,116.73,136.35,116.26,136.52,115.88Z"/><rect class="cls-1" x="140.73" y="119.55" width="10.84" height="3.67"/><path class="cls-1" d="M163.61,131.2a5.24,5.24,0,0,0,1.75-1.1,5.47,5.47,0,0,0,1.2-1.73,5.59,5.59,0,0,0,.45-2.3V111a5.59,5.59,0,0,0-.45-2.3,5.36,5.36,0,0,0-1.2-1.73,5.24,5.24,0,0,0-1.75-1.1,5.83,5.83,0,0,0-4.14,0,5.24,5.24,0,0,0-1.75,1.1,5.36,5.36,0,0,0-1.2,1.73,5.59,5.59,0,0,0-.45,2.3v15a5.59,5.59,0,0,0,.45,2.3,5.47,5.47,0,0,0,1.2,1.73,5.24,5.24,0,0,0,1.75,1.1,5.83,5.83,0,0,0,4.14,0Zm-3.87-5.13V111a1.81,1.81,0,0,1,.5-1.31,1.86,1.86,0,0,1,2.6,0,1.81,1.81,0,0,1,.5,1.31v15a1.83,1.83,0,0,1-.5,1.31,1.88,1.88,0,0,1-2.6,0A1.83,1.83,0,0,1,159.74,126.07Z"/><path class="cls-1" d="M174.07,130.91a5.46,5.46,0,0,0,2.7.67,5.69,5.69,0,0,0,2.72-.65,5,5,0,0,0,1.92-1.84,6.48,6.48,0,0,0,.42-.83,4.58,4.58,0,0,0,.27-1c.05-.36.08-.81.11-1.35s0-1.23,0-2.07c0-1,0-1.84,0-2.5s-.06-1.21-.11-1.64a6.37,6.37,0,0,0-.25-1,3.91,3.91,0,0,0-.4-.79,3.77,3.77,0,0,0-3.09-1.66,4.55,4.55,0,0,0-1,.09,1.51,1.51,0,0,0-.55.23l-.07-.07,4.17-10.76h-4.1L172,118.62c-.12.33-.23.65-.32.95a5.55,5.55,0,0,0-.22,1c-.05.38-.08.83-.11,1.35s0,1.17,0,2,0,1.53,0,2.07a10.23,10.23,0,0,0,.15,1.35,4.2,4.2,0,0,0,.23,1,4.89,4.89,0,0,0,.45.83A5.21,5.21,0,0,0,174.07,130.91Zm.9-9.59a1.75,1.75,0,0,1,.54-1.34,1.84,1.84,0,0,1,2.52,0,1.75,1.75,0,0,1,.54,1.34v4.75a1.74,1.74,0,0,1-.54,1.33,1.84,1.84,0,0,1-2.52,0,1.74,1.74,0,0,1-.54-1.33Z"/><rect class="cls-1" x="186.59" y="127.69" width="3.67" height="3.67"/><path class="cls-1" d="M204,107a5.1,5.1,0,0,0-1.74-1.1,5.83,5.83,0,0,0-4.14,0,5.24,5.24,0,0,0-1.75,1.1,5.36,5.36,0,0,0-1.2,1.73,5.59,5.59,0,0,0-.45,2.3v15a5.59,5.59,0,0,0,.45,2.3,5.47,5.47,0,0,0,1.2,1.73,5.24,5.24,0,0,0,1.75,1.1,5.83,5.83,0,0,0,4.14,0,5.1,5.1,0,0,0,1.74-1.1,5.34,5.34,0,0,0,1.21-1.73,5.59,5.59,0,0,0,.45-2.3V111a5.59,5.59,0,0,0-.45-2.3A5.23,5.23,0,0,0,204,107Zm-2,19.08a1.79,1.79,0,0,1-.51,1.31,1.69,1.69,0,0,1-1.29.52,1.73,1.73,0,0,1-1.3-.52,1.83,1.83,0,0,1-.5-1.31V111a1.81,1.81,0,0,1,.5-1.31,1.73,1.73,0,0,1,1.3-.53,1.7,1.7,0,0,1,1.29.53A1.78,1.78,0,0,1,202,111Z"/><path class="cls-1" d="M220.53,116.28a4.81,4.81,0,0,0,.27-1.37c0-.55,0-1.27,0-2.16a14.71,14.71,0,0,0-.32-3.53,4,4,0,0,0-.45-1,7.92,7.92,0,0,0-.63-.87,5.7,5.7,0,0,0-1.5-1.2,4.75,4.75,0,0,0-2.5-.6,5.55,5.55,0,0,0-2.16.43,5.92,5.92,0,0,0-1.76,1.16,5.1,5.1,0,0,0-1.19,1.72,5.34,5.34,0,0,0-.43,2.13v2.12h3.67V111a2.13,2.13,0,0,1,.41-1.18,1.56,1.56,0,0,1,1.39-.62,1.72,1.72,0,0,1,1.31.51,1.76,1.76,0,0,1,.49,1.29v3.32q0,1.44-.63,1.83a4.57,4.57,0,0,1-2.29.4v3.24a11.54,11.54,0,0,1,1.46.07,1.61,1.61,0,0,1,.88.36,2.5,2.5,0,0,1,.58,2v3.67a2.19,2.19,0,0,1-.49,1.5,1.84,1.84,0,0,1-2.62,0,2.09,2.09,0,0,1-.49-1.43V124h-3.67v2.08a5.67,5.67,0,0,0,.52,2.56,5.13,5.13,0,0,0,1.31,1.69,5,5,0,0,0,1.77.94,6.5,6.5,0,0,0,1.83.29,5.21,5.21,0,0,0,2.79-.67,5.82,5.82,0,0,0,1.75-1.67,6.57,6.57,0,0,0,.47-.83,4.88,4.88,0,0,0,.29-1,12.12,12.12,0,0,0,.16-1.37c0-.55,0-1.25,0-2.09s0-1.66,0-2.25a5.54,5.54,0,0,0-.26-1.53,2.87,2.87,0,0,0-.66-1.08,7,7,0,0,0-1.32-1,7.85,7.85,0,0,0,1.24-.86A2.87,2.87,0,0,0,220.53,116.28Z"/><path class="cls-1" d="M5.09,161.85V144.76H7.54v7.8h0l3.57-7.8h2.45l-3.34,6.84,4,10.25H11.64l-2.78-7.58-1.32,2.47v5.11Z"/><path class="cls-1" d="M21.25,161.85V160.6h0a4.44,4.44,0,0,1-1,1,2.2,2.2,0,0,1-1.38.36,3,3,0,0,1-.87-.13,2.24,2.24,0,0,1-.85-.49,2.2,2.2,0,0,1-.66-1,4.47,4.47,0,0,1-.26-1.64,8.87,8.87,0,0,1,.17-1.82,2.87,2.87,0,0,1,.63-1.31,2.64,2.64,0,0,1,1.17-.75,6,6,0,0,1,1.9-.25h.26a1.14,1.14,0,0,1,.27,0,1.14,1.14,0,0,0,.28,0,2.17,2.17,0,0,1,.36,0v-1.27a1.87,1.87,0,0,0-.26-1,1.07,1.07,0,0,0-1-.4,1.39,1.39,0,0,0-.88.31,1.49,1.49,0,0,0-.51.91H16.26a3.9,3.9,0,0,1,1.11-2.64,3.55,3.55,0,0,1,1.15-.76,4,4,0,0,1,1.51-.27,4.27,4.27,0,0,1,1.44.24,3.32,3.32,0,0,1,1.18.72,3.47,3.47,0,0,1,.76,1.2,4.35,4.35,0,0,1,.29,1.68v8.47Zm0-5.23a3.71,3.71,0,0,0-.67-.07,2.35,2.35,0,0,0-1.35.37,1.49,1.49,0,0,0-.57,1.35A1.75,1.75,0,0,0,19,159.4a1.1,1.1,0,0,0,.93.44,1.24,1.24,0,0,0,1-.41,1.76,1.76,0,0,0,.34-1.16Z"/><path class="cls-1" d="M26.61,161.85V149.68h2.45v1.18h.05a3.34,3.34,0,0,1,.92-1,2.37,2.37,0,0,1,1.38-.37,2.85,2.85,0,0,1,.91.15,2.16,2.16,0,0,1,.82.52,2.73,2.73,0,0,1,.58.92,4,4,0,0,1,.21,1.38v9.34H31.49v-8.42a1.63,1.63,0,0,0-.32-1.06,1.08,1.08,0,0,0-.89-.38,1,1,0,0,0-1,.43,2.48,2.48,0,0,0-.26,1.25v8.18Z"/><path class="cls-1" d="M41.5,153.09a1.25,1.25,0,0,0-.4-.94,1.31,1.31,0,0,0-.85-.31,1.11,1.11,0,0,0-.89.38,1.31,1.31,0,0,0-.31.85,1.47,1.47,0,0,0,.17.66,1.55,1.55,0,0,0,.86.58l1.44.58a3.48,3.48,0,0,1,1.89,1.44,4,4,0,0,1,.51,2,3.72,3.72,0,0,1-.27,1.43,4,4,0,0,1-.76,1.17,3.62,3.62,0,0,1-1.15.79,3.72,3.72,0,0,1-1.46.28,3.54,3.54,0,0,1-2.5-.93,3.34,3.34,0,0,1-.82-1.14,4.14,4.14,0,0,1-.33-1.6h2.3a2.43,2.43,0,0,0,.35.94,1.05,1.05,0,0,0,1,.43,1.42,1.42,0,0,0,1-.35,1.18,1.18,0,0,0,.42-1,1.44,1.44,0,0,0-.26-.86,2.16,2.16,0,0,0-1-.63l-1.18-.43a4.06,4.06,0,0,1-1.81-1.28,3.3,3.3,0,0,1-.66-2.08,3.42,3.42,0,0,1,.29-1.43,3.38,3.38,0,0,1,.79-1.14,3.19,3.19,0,0,1,1.13-.73,3.89,3.89,0,0,1,2.77,0,3.22,3.22,0,0,1,1.09.75,3.69,3.69,0,0,1,.72,1.14,3.63,3.63,0,0,1,.26,1.4Z"/><path class="cls-1" d="M51.46,161.85V160.6h-.05a4.41,4.41,0,0,1-1,1,2.24,2.24,0,0,1-1.38.36,3,3,0,0,1-.88-.13,2.31,2.31,0,0,1-.85-.49,2.38,2.38,0,0,1-.66-1,4.49,4.49,0,0,1-.25-1.64,8.87,8.87,0,0,1,.17-1.82,3,3,0,0,1,.62-1.31,2.67,2.67,0,0,1,1.18-.75,5.92,5.92,0,0,1,1.89-.25h.27a1.1,1.1,0,0,1,.26,0,1.23,1.23,0,0,0,.29,0,2.3,2.3,0,0,1,.36,0v-1.27a2,2,0,0,0-.26-1,1.07,1.07,0,0,0-1-.4,1.35,1.35,0,0,0-.88.31,1.5,1.5,0,0,0-.52.91H46.47a3.89,3.89,0,0,1,1.1-2.64,3.66,3.66,0,0,1,1.15-.76,4,4,0,0,1,1.52-.27,4.27,4.27,0,0,1,1.44.24,3.28,3.28,0,0,1,1.17.72,3.49,3.49,0,0,1,.77,1.2,4.54,4.54,0,0,1,.29,1.68v8.47Zm0-5.23a3.8,3.8,0,0,0-.67-.07,2.41,2.41,0,0,0-1.36.37,1.51,1.51,0,0,0-.56,1.35,1.81,1.81,0,0,0,.33,1.13,1.14,1.14,0,0,0,.94.44,1.2,1.2,0,0,0,1-.41,1.76,1.76,0,0,0,.35-1.16Z"/><path class="cls-1" d="M56.82,147.21v-2.45h2.44v2.45Zm0,14.64V149.68h2.44v12.17Z"/><path class="cls-1" d="M76.21,144.76V158a3.93,3.93,0,0,1-.3,1.55,4,4,0,0,1-2.13,2.12,3.93,3.93,0,0,1-3.06,0,4.15,4.15,0,0,1-1.26-.86,4.34,4.34,0,0,1-.86-1.26,3.77,3.77,0,0,1-.31-1.55V144.76h2.45v13a1.8,1.8,0,0,0,.43,1.34,1.55,1.55,0,0,0,2.16,0,1.8,1.8,0,0,0,.43-1.34v-13Z"/><path class="cls-1" d="M79.39,161.85V149.68h2.45v1.18h0a3.51,3.51,0,0,1,.93-1,2.37,2.37,0,0,1,1.38-.37,2.89,2.89,0,0,1,.91.15,2.24,2.24,0,0,1,.82.52,2.57,2.57,0,0,1,.57.92,3.77,3.77,0,0,1,.22,1.38v9.34H84.26v-8.42a1.69,1.69,0,0,0-.31-1.06,1.11,1.11,0,0,0-.89-.38,1,1,0,0,0-1,.43,2.38,2.38,0,0,0-.26,1.25v8.18Z"/><path class="cls-1" d="M89.72,147.21v-2.45h2.45v2.45Zm0,14.64V149.68h2.45v12.17Z"/><path class="cls-1" d="M103.08,149.68l-3.17,12.17H97.75l-3.16-12.17h2.59l1.63,7.78h0l1.63-7.78Z"/><path class="cls-1" d="M112.35,156.69H107.5v1.66a1.17,1.17,0,0,0,.32.88,1.22,1.22,0,0,0,.88.32,1,1,0,0,0,.92-.41,2.22,2.22,0,0,0,.28-.82h2.45a3.52,3.52,0,0,1-1,2.6,3.62,3.62,0,0,1-1.15.79,3.83,3.83,0,0,1-1.51.28,3.68,3.68,0,0,1-2-.48,3.26,3.26,0,0,1-1.23-1.27,3.17,3.17,0,0,1-.36-1.1,8.32,8.32,0,0,1-.1-1.37v-4a8.4,8.4,0,0,1,.1-1.37,3.17,3.17,0,0,1,.36-1.1,3.26,3.26,0,0,1,1.23-1.27,3.77,3.77,0,0,1,2-.48,3.71,3.71,0,0,1,1.52.29,3.32,3.32,0,0,1,1.17.79,3.92,3.92,0,0,1,1,2.71Zm-4.85-1.92h2.4v-1.39a1.46,1.46,0,0,0-.33-1,1.09,1.09,0,0,0-.87-.35,1.12,1.12,0,0,0-.88.35,1.5,1.5,0,0,0-.32,1Z"/><path class="cls-1" d="M115.19,161.85V149.68h2.45V151a7.35,7.35,0,0,1,1.46-1.06,3.81,3.81,0,0,1,1.78-.38v2.59a1.92,1.92,0,0,0-.75-.14,2.79,2.79,0,0,0-.82.13,2.14,2.14,0,0,0-.81.44,2.37,2.37,0,0,0-.62.82,2.9,2.9,0,0,0-.24,1.25v7.22Z"/><path class="cls-1" d="M127.86,153.09a1.21,1.21,0,0,0-.39-.94,1.33,1.33,0,0,0-.85-.31,1.09,1.09,0,0,0-.89.38,1.26,1.26,0,0,0-.31.85,1.46,1.46,0,0,0,.16.66,1.59,1.59,0,0,0,.87.58l1.44.58a3.46,3.46,0,0,1,1.88,1.44,3.92,3.92,0,0,1,.52,2,3.54,3.54,0,0,1-.28,1.43,3.78,3.78,0,0,1-.75,1.17,3.52,3.52,0,0,1-2.62,1.07,3.57,3.57,0,0,1-2.5-.93,3.45,3.45,0,0,1-.81-1.14,4.14,4.14,0,0,1-.34-1.6h2.31a2.27,2.27,0,0,0,.34.94,1.07,1.07,0,0,0,1,.43,1.43,1.43,0,0,0,.95-.35,1.21,1.21,0,0,0,.42-1,1.38,1.38,0,0,0-.27-.86,2.16,2.16,0,0,0-1-.63l-1.18-.43a4.11,4.11,0,0,1-1.81-1.28,3.3,3.3,0,0,1-.66-2.08,3.58,3.58,0,0,1,.29-1.43,3.53,3.53,0,0,1,.79-1.14,3.28,3.28,0,0,1,1.13-.73,3.77,3.77,0,0,1,1.39-.25,3.65,3.65,0,0,1,1.38.26,3.12,3.12,0,0,1,1.09.75,3.35,3.35,0,0,1,.72,1.14,3.64,3.64,0,0,1,.27,1.4Z"/><path class="cls-1" d="M133,147.21v-2.45h2.45v2.45Zm0,14.64V149.68h2.45v12.17Z"/><path class="cls-1" d="M139,149.68V146h2.45v3.69h1.51v1.92h-1.51v6.75a2,2,0,0,0,.09.67.62.62,0,0,0,.27.36,1,1,0,0,0,.47.14,6.39,6.39,0,0,0,.68,0v2.3h-1a3.45,3.45,0,0,1-1.41-.26,2.72,2.72,0,0,1-.9-.67,2.68,2.68,0,0,1-.49-.93,3.59,3.59,0,0,1-.16-1V151.6h-1.22v-1.92Z"/><path class="cls-1" d="M144.82,149.68h2.59l1.68,7.59h0l1.65-7.59h2.52L149.81,164a4.32,4.32,0,0,1-.54,1.35,3.31,3.31,0,0,1-.8.86,3,3,0,0,1-1,.47,4.16,4.16,0,0,1-1.06.13h-.68v-2.3h.56a1.92,1.92,0,0,0,.62-.1,1,1,0,0,0,.48-.43,4.13,4.13,0,0,0,.36-.95c.11-.41.24-1,.38-1.69Z"/><path class="cls-1" d="M169.23,144.76V158a4,4,0,0,1-2.43,3.67,3.77,3.77,0,0,1-1.53.31,3.7,3.7,0,0,1-1.53-.31,4.15,4.15,0,0,1-1.26-.86,4,4,0,0,1-.86-1.26,3.77,3.77,0,0,1-.31-1.55V144.76h2.44v13a1.8,1.8,0,0,0,.44,1.34,1.44,1.44,0,0,0,1.08.44,1.47,1.47,0,0,0,1.08-.44,1.84,1.84,0,0,0,.43-1.34v-13Z"/><path class="cls-1" d="M172.4,161.85V149.68h2.45v1.18h.05a3.63,3.63,0,0,1,.92-1,2.41,2.41,0,0,1,1.38-.37,2.27,2.27,0,0,1,1.33.38,4.3,4.3,0,0,1,.86.84,5.17,5.17,0,0,1,1-.86,2.79,2.79,0,0,1,1.53-.36,3.13,3.13,0,0,1,.94.15,2.31,2.31,0,0,1,.86.52,2.68,2.68,0,0,1,.63.92,3.55,3.55,0,0,1,.24,1.38v9.34h-2.45v-8.42a1.69,1.69,0,0,0-.31-1.06A1.11,1.11,0,0,0,181,152a1,1,0,0,0-1,.43,2.38,2.38,0,0,0-.26,1.25v8.18h-2.45v-8.42a1.69,1.69,0,0,0-.31-1.06,1.11,1.11,0,0,0-.89-.38,1,1,0,0,0-1,.43,2.37,2.37,0,0,0-.27,1.25v8.18Z"/><path class="cls-1" d="M194.74,156.69h-4.85v1.66a1.17,1.17,0,0,0,.32.88,1.22,1.22,0,0,0,.88.32,1,1,0,0,0,.92-.41,2.22,2.22,0,0,0,.28-.82h2.45a3.52,3.52,0,0,1-1,2.6,3.62,3.62,0,0,1-1.15.79,3.83,3.83,0,0,1-1.51.28,3.68,3.68,0,0,1-2-.48,3.33,3.33,0,0,1-1.23-1.27,3.17,3.17,0,0,1-.36-1.1,8.32,8.32,0,0,1-.1-1.37v-4a8.4,8.4,0,0,1,.1-1.37,3.17,3.17,0,0,1,.36-1.1,3.33,3.33,0,0,1,1.23-1.27,3.77,3.77,0,0,1,2-.48,3.71,3.71,0,0,1,1.52.29,3.32,3.32,0,0,1,1.17.79,3.92,3.92,0,0,1,1,2.71Zm-4.85-1.92h2.4v-1.39a1.5,1.5,0,0,0-.32-1,1.28,1.28,0,0,0-1.76,0,1.5,1.5,0,0,0-.32,1Z"/><path class="cls-1" d="M202.41,161.85v-1.1l-.46.49a2.28,2.28,0,0,1-.48.39,1.83,1.83,0,0,1-.6.27,3.07,3.07,0,0,1-.79.09,2.18,2.18,0,0,1-2.13-1.15,3.27,3.27,0,0,1-.32-1,11.5,11.5,0,0,1-.09-1.61v-4.64a18.42,18.42,0,0,1,.07-1.94,2.3,2.3,0,0,1,1.13-1.8,2.42,2.42,0,0,1,1.37-.31,2.61,2.61,0,0,1,1.28.32,3.06,3.06,0,0,1,1,.93h0v-6h2.45v17.09Zm-2.42-4a2.22,2.22,0,0,0,.28,1.2,1,1,0,0,0,.92.46,1.07,1.07,0,0,0,.88-.42,1.68,1.68,0,0,0,.34-1.1v-4.72a1.34,1.34,0,0,0-.35-.95,1.13,1.13,0,0,0-.87-.37,1,1,0,0,0-.95.43,1.94,1.94,0,0,0-.25,1Z"/><path class="cls-1" d="M212.6,161.85V160.6h0a4.44,4.44,0,0,1-1,1,2.2,2.2,0,0,1-1.38.36,3,3,0,0,1-.87-.13,2.24,2.24,0,0,1-.85-.49,2.2,2.2,0,0,1-.66-1,4.47,4.47,0,0,1-.26-1.64,8.87,8.87,0,0,1,.17-1.82,2.87,2.87,0,0,1,.63-1.31,2.64,2.64,0,0,1,1.17-.75,6,6,0,0,1,1.9-.25h.26a1.14,1.14,0,0,1,.27,0,1.14,1.14,0,0,0,.28,0,2.17,2.17,0,0,1,.36,0v-1.27a1.87,1.87,0,0,0-.26-1,1.07,1.07,0,0,0-1-.4,1.39,1.39,0,0,0-.88.31,1.49,1.49,0,0,0-.51.91h-2.38a3.9,3.9,0,0,1,1.11-2.64,3.55,3.55,0,0,1,1.15-.76,4,4,0,0,1,1.51-.27,4.27,4.27,0,0,1,1.44.24,3.32,3.32,0,0,1,1.18.72,3.47,3.47,0,0,1,.76,1.2,4.35,4.35,0,0,1,.29,1.68v8.47Zm0-5.23a3.71,3.71,0,0,0-.67-.07,2.35,2.35,0,0,0-1.35.37,1.49,1.49,0,0,0-.57,1.35,1.75,1.75,0,0,0,.34,1.13,1.1,1.1,0,0,0,.93.44,1.24,1.24,0,0,0,1-.41,1.76,1.76,0,0,0,.34-1.16Z"/><path class="cls-1" d="M231.64,157V158a3.79,3.79,0,0,1-.3,1.5,4,4,0,0,1-2.07,2.14,3.54,3.54,0,0,1-1.52.32,5.39,5.39,0,0,1-1.42-.19,3.19,3.19,0,0,1-1.29-.67,3.63,3.63,0,0,1-.95-1.24,4.31,4.31,0,0,1-.37-1.93v-9.41A4.24,4.24,0,0,1,224,147a3.78,3.78,0,0,1,.82-1.24,3.64,3.64,0,0,1,1.26-.83,4.25,4.25,0,0,1,1.62-.3,3.73,3.73,0,0,1,2.81,1.13,4.07,4.07,0,0,1,.83,1.3,4.48,4.48,0,0,1,.3,1.65v1h-2.45v-.82a2,2,0,0,0-.41-1.25,1.32,1.32,0,0,0-1.1-.52,1.26,1.26,0,0,0-1.22.56,3,3,0,0,0-.3,1.43v8.74a2.2,2.2,0,0,0,.33,1.24,1.26,1.26,0,0,0,1.16.51,1.72,1.72,0,0,0,.52-.09,1.57,1.57,0,0,0,.51-.27,1.38,1.38,0,0,0,.36-.53,2.1,2.1,0,0,0,.15-.84V157Z"/><path class="cls-1" d="M239.41,161.85V160.6h0a4.41,4.41,0,0,1-1,1A2.24,2.24,0,0,1,237,162a3,3,0,0,1-.88-.13,2.31,2.31,0,0,1-.85-.49,2.38,2.38,0,0,1-.66-1,4.49,4.49,0,0,1-.25-1.64,8.87,8.87,0,0,1,.17-1.82,3,3,0,0,1,.62-1.31,2.67,2.67,0,0,1,1.18-.75,5.92,5.92,0,0,1,1.89-.25h.27a1.1,1.1,0,0,1,.26,0,1.23,1.23,0,0,0,.29,0,2.3,2.3,0,0,1,.36,0v-1.27a2,2,0,0,0-.26-1,1.07,1.07,0,0,0-1-.4,1.35,1.35,0,0,0-.88.31,1.5,1.5,0,0,0-.52.91h-2.37a3.89,3.89,0,0,1,1.1-2.64,3.66,3.66,0,0,1,1.15-.76,4,4,0,0,1,1.52-.27,4.27,4.27,0,0,1,1.44.24,3.28,3.28,0,0,1,1.17.72,3.49,3.49,0,0,1,.77,1.2,4.54,4.54,0,0,1,.29,1.68v8.47Zm0-5.23a3.8,3.8,0,0,0-.67-.07,2.41,2.41,0,0,0-1.36.37,1.51,1.51,0,0,0-.56,1.35,1.81,1.81,0,0,0,.33,1.13,1.14,1.14,0,0,0,.94.44,1.2,1.2,0,0,0,1-.41,1.76,1.76,0,0,0,.35-1.16Z"/><path class="cls-1" d="M244.77,161.85V149.68h2.45v1.18h0a3.51,3.51,0,0,1,.93-1,2.37,2.37,0,0,1,1.38-.37,2.22,2.22,0,0,1,1.32.38,4,4,0,0,1,.86.84,5.48,5.48,0,0,1,1-.86,2.81,2.81,0,0,1,1.54-.36,3.11,3.11,0,0,1,.93.15,2.43,2.43,0,0,1,.87.52,2.81,2.81,0,0,1,.62.92,3.55,3.55,0,0,1,.24,1.38v9.34h-2.45v-8.42a1.63,1.63,0,0,0-.31-1.06,1.09,1.09,0,0,0-.89-.38,1,1,0,0,0-1,.43,2.48,2.48,0,0,0-.26,1.25v8.18h-2.45v-8.42a1.63,1.63,0,0,0-.31-1.06,1.11,1.11,0,0,0-.89-.38,1,1,0,0,0-1,.43,2.38,2.38,0,0,0-.26,1.25v8.18Z"/><path class="cls-1" d="M260,166.77V149.68h2.45v1.11a6,6,0,0,1,.94-.89,2.28,2.28,0,0,1,1.39-.36,2.23,2.23,0,0,1,2.14,1.15,3.54,3.54,0,0,1,.31,1,11.3,11.3,0,0,1,.09,1.61v4.63a17.8,17.8,0,0,1-.07,1.94,2.31,2.31,0,0,1-1.1,1.8,2.56,2.56,0,0,1-1.39.31,2.52,2.52,0,0,1-1.29-.32,3,3,0,0,1-1-.92h-.05v6Zm4.88-13.13a2.27,2.27,0,0,0-.29-1.2,1,1,0,0,0-.91-.45,1.08,1.08,0,0,0-.89.42,1.65,1.65,0,0,0-.34,1.09v4.73a1.36,1.36,0,0,0,.35,1,1.17,1.17,0,0,0,.88.37,1,1,0,0,0,.94-.44,1.91,1.91,0,0,0,.26-1Z"/><path class="cls-1" d="M277.62,149.68v12.17h-2.45v-1.17h0a3.47,3.47,0,0,1-.93.94,2.37,2.37,0,0,1-1.38.37,2.89,2.89,0,0,1-.91-.15,2.24,2.24,0,0,1-.82-.52,2.57,2.57,0,0,1-.57-.92,3.77,3.77,0,0,1-.22-1.38v-9.34h2.45v8.43a1.6,1.6,0,0,0,.31,1,1.08,1.08,0,0,0,.89.39,1,1,0,0,0,1-.44,2.34,2.34,0,0,0,.26-1.24v-8.19Z"/><path class="cls-1" d="M285.19,153.09a1.25,1.25,0,0,0-.4-.94,1.33,1.33,0,0,0-.85-.31,1.11,1.11,0,0,0-.89.38,1.26,1.26,0,0,0-.31.85,1.47,1.47,0,0,0,.17.66,1.55,1.55,0,0,0,.86.58l1.44.58a3.52,3.52,0,0,1,1.89,1.44,4,4,0,0,1,.51,2,3.72,3.72,0,0,1-.27,1.43,4,4,0,0,1-.76,1.17,3.62,3.62,0,0,1-1.15.79A3.74,3.74,0,0,1,284,162a3.53,3.53,0,0,1-2.49-.93,3.34,3.34,0,0,1-.82-1.14,4.14,4.14,0,0,1-.33-1.6h2.3a2.28,2.28,0,0,0,.35.94,1.05,1.05,0,0,0,1,.43,1.42,1.42,0,0,0,.95-.35,1.18,1.18,0,0,0,.42-1,1.38,1.38,0,0,0-.27-.86,2,2,0,0,0-1-.63l-1.17-.43a4.06,4.06,0,0,1-1.81-1.28,3.3,3.3,0,0,1-.66-2.08,3.42,3.42,0,0,1,.29-1.43,3.38,3.38,0,0,1,.79-1.14,3.19,3.19,0,0,1,1.13-.73,3.89,3.89,0,0,1,2.77,0,3.32,3.32,0,0,1,1.09.75,3.69,3.69,0,0,1,.72,1.14,3.83,3.83,0,0,1,.26,1.4Z"/><path class="cls-1" d="M5.09,189.85V172.76H7.54v7.8h0l3.57-7.8h2.45l-3.34,6.84,4,10.25H11.64l-2.78-7.58-1.32,2.47v5.11Z"/><path class="cls-1" d="M21.25,189.85V188.6h0a4.44,4.44,0,0,1-1,1,2.2,2.2,0,0,1-1.38.36,3,3,0,0,1-.87-.13,2.24,2.24,0,0,1-.85-.49,2.2,2.2,0,0,1-.66-1,4.47,4.47,0,0,1-.26-1.64,8.87,8.87,0,0,1,.17-1.82,2.87,2.87,0,0,1,.63-1.31,2.64,2.64,0,0,1,1.17-.75,6,6,0,0,1,1.9-.25h.26a1.14,1.14,0,0,1,.27,0,1.14,1.14,0,0,0,.28,0,2.17,2.17,0,0,1,.36,0v-1.27a1.87,1.87,0,0,0-.26-1,1.07,1.07,0,0,0-1-.4,1.39,1.39,0,0,0-.88.31,1.49,1.49,0,0,0-.51.91H16.26a3.9,3.9,0,0,1,1.11-2.64,3.55,3.55,0,0,1,1.15-.76,4,4,0,0,1,1.51-.27,4.27,4.27,0,0,1,1.44.24,3.32,3.32,0,0,1,1.18.72,3.47,3.47,0,0,1,.76,1.2,4.35,4.35,0,0,1,.29,1.68v8.47Zm0-5.23a3.71,3.71,0,0,0-.67-.07,2.35,2.35,0,0,0-1.35.37,1.49,1.49,0,0,0-.57,1.35A1.75,1.75,0,0,0,19,187.4a1.1,1.1,0,0,0,.93.44,1.24,1.24,0,0,0,1-.41,1.76,1.76,0,0,0,.34-1.16Z"/><path class="cls-1" d="M26.61,189.85V177.68h2.45v1.18h.05a3.34,3.34,0,0,1,.92-1,2.37,2.37,0,0,1,1.38-.37,2.85,2.85,0,0,1,.91.15,2.16,2.16,0,0,1,.82.52,2.73,2.73,0,0,1,.58.92,4,4,0,0,1,.21,1.38v9.34H31.49v-8.42a1.63,1.63,0,0,0-.32-1.06,1.08,1.08,0,0,0-.89-.38,1,1,0,0,0-1,.43,2.48,2.48,0,0,0-.26,1.25v8.18Z"/><path class="cls-1" d="M41.8,189.85v-1.1l-.45.49a2.93,2.93,0,0,1-.48.39,2,2,0,0,1-.6.27,3.15,3.15,0,0,1-.8.09,2.19,2.19,0,0,1-2.13-1.15,3.27,3.27,0,0,1-.31-1,10,10,0,0,1-.1-1.61v-4.64a18.42,18.42,0,0,1,.07-1.94,2.32,2.32,0,0,1,1.13-1.8,2.42,2.42,0,0,1,1.37-.31,2.56,2.56,0,0,1,1.28.32,3,3,0,0,1,1,.93h0v-6h2.45v17.09Zm-2.42-4a2.13,2.13,0,0,0,.29,1.2,1,1,0,0,0,.91.46,1.09,1.09,0,0,0,.89-.42,1.74,1.74,0,0,0,.33-1.1v-4.72a1.3,1.3,0,0,0-.35-.95,1.13,1.13,0,0,0-.87-.37,1,1,0,0,0-.95.43,1.94,1.94,0,0,0-.25,1Z"/><path class="cls-1" d="M52,189.85V188.6h0a4.63,4.63,0,0,1-1,1,2.24,2.24,0,0,1-1.38.36,3,3,0,0,1-.88-.13,2.24,2.24,0,0,1-.85-.49,2.38,2.38,0,0,1-.66-1,4.49,4.49,0,0,1-.25-1.64,8.92,8.92,0,0,1,.16-1.82,3.08,3.08,0,0,1,.63-1.31,2.67,2.67,0,0,1,1.18-.75,5.88,5.88,0,0,1,1.89-.25h.26a1.14,1.14,0,0,1,.27,0,1.23,1.23,0,0,0,.29,0,2.3,2.3,0,0,1,.36,0v-1.27a1.87,1.87,0,0,0-.27-1,1,1,0,0,0-1-.4,1.35,1.35,0,0,0-.87.31,1.46,1.46,0,0,0-.52.91H47a3.89,3.89,0,0,1,1.1-2.64,3.55,3.55,0,0,1,1.15-.76,4,4,0,0,1,1.51-.27,4.23,4.23,0,0,1,1.44.24,3.32,3.32,0,0,1,1.18.72,3.49,3.49,0,0,1,.77,1.2,4.54,4.54,0,0,1,.29,1.68v8.47Zm0-5.23a3.81,3.81,0,0,0-.68-.07,2.38,2.38,0,0,0-1.35.37,1.49,1.49,0,0,0-.57,1.35,1.81,1.81,0,0,0,.34,1.13,1.12,1.12,0,0,0,.94.44,1.22,1.22,0,0,0,1-.41,1.76,1.76,0,0,0,.35-1.16Z"/><path class="cls-1" d="M57.35,175.21v-2.45H59.8v2.45Zm0,14.64V177.68H59.8v12.17Z"/><path class="cls-1" d="M68.83,189.85V172.76h2.35l3.14,9.05h.05l3.12-9.05h2.38v17.09H77.42V179.46h0L75,186.8H73.72l-2.4-7.34h0v10.39Z"/><path class="cls-1" d="M90.2,184.69H85.35v1.66a1.13,1.13,0,0,0,.32.88,1.22,1.22,0,0,0,.88.32,1,1,0,0,0,.92-.41,2.42,2.42,0,0,0,.28-.82H90.2a3.52,3.52,0,0,1-1,2.6,3.62,3.62,0,0,1-1.15.79,3.83,3.83,0,0,1-1.51.28,3.68,3.68,0,0,1-2-.48,3.19,3.19,0,0,1-1.23-1.27,3.4,3.4,0,0,1-.37-1.1,9.65,9.65,0,0,1-.09-1.37v-4a9.75,9.75,0,0,1,.09-1.37,3.4,3.4,0,0,1,.37-1.1A3.19,3.19,0,0,1,84.59,178a4.19,4.19,0,0,1,3.48-.19,3.41,3.41,0,0,1,1.17.79,4,4,0,0,1,1,2.71Zm-4.85-1.92h2.4v-1.39a1.46,1.46,0,0,0-.33-1,1.1,1.1,0,0,0-.87-.35,1.12,1.12,0,0,0-.88.35,1.46,1.46,0,0,0-.32,1Z"/><path class="cls-1" d="M99,189.85V172.76h3.94q4.32,0,4.32,5a6.38,6.38,0,0,1-.47,2.57,3.63,3.63,0,0,1-1.64,1.7l2.64,7.8H105.2l-2.28-7.3h-1.47v7.3Zm2.45-14.78v5.32h1.39a2.51,2.51,0,0,0,1-.17,1.6,1.6,0,0,0,.6-.52,2.62,2.62,0,0,0,.26-.83,9.32,9.32,0,0,0,0-2.28,2.19,2.19,0,0,0-.29-.85,1.94,1.94,0,0,0-1.73-.67Z"/><path class="cls-1" d="M110.67,189.85V172.76h2.45v17.09Z"/><path class="cls-1" d="M116,189.85v-2.16l4.61-12.62h-4.37v-2.31h7v2l-4.71,12.84h4.71v2.3Z"/><path class="cls-1" d="M126.2,189.85V172.76h7.3v2.31h-4.85v5h4.23v2.31h-4.23v5h4.85v2.45Z"/><path class="cls-2" d="M14.49,115.38a5.09,5.09,0,0,0,.36-1.15A9.3,9.3,0,0,0,15,113q0-.63,0-1.56a9.67,9.67,0,0,0-.3-2.45,6.14,6.14,0,0,0-1-2.05,4.86,4.86,0,0,0-1.71-1.43A5.45,5.45,0,0,0,9.6,105a5.22,5.22,0,0,0-2.16.45,5.34,5.34,0,0,0-1.73,1.21,5.64,5.64,0,0,0-1.19,1.76,5.38,5.38,0,0,0-.43,2.16v2H7.76v-2.09a1.67,1.67,0,0,1,1.8-1.84,1.73,1.73,0,0,1,1,.27,1.75,1.75,0,0,1,.54.67,2.35,2.35,0,0,1,.19.92c0,.35,0,.68,0,1a16.92,16.92,0,0,1-.07,1.74,4.51,4.51,0,0,1-.58,1.64L4.09,127.4v3.46H15v-3.67H8.41l5.4-10.41C14.1,116.23,14.33,115.76,14.49,115.38Z"/><path class="cls-2" d="M28.61,129.6a5.5,5.5,0,0,0,1.21-1.73,5.59,5.59,0,0,0,.45-2.3v-15a5.59,5.59,0,0,0-.45-2.3,5.38,5.38,0,0,0-1.21-1.73,5.14,5.14,0,0,0-1.75-1.1,5.83,5.83,0,0,0-4.14,0,5.1,5.1,0,0,0-1.74,1.1,5.23,5.23,0,0,0-1.21,1.73,5.59,5.59,0,0,0-.45,2.3v15a5.59,5.59,0,0,0,.45,2.3A5.34,5.34,0,0,0,21,129.6a5.1,5.1,0,0,0,1.74,1.1,5.83,5.83,0,0,0,4.14,0A5.14,5.14,0,0,0,28.61,129.6Zm-2-4a1.79,1.79,0,0,1-.5,1.31,1.73,1.73,0,0,1-1.3.52,1.7,1.7,0,0,1-1.29-.52,1.79,1.79,0,0,1-.51-1.31v-15a1.78,1.78,0,0,1,.51-1.31,1.71,1.71,0,0,1,1.29-.53,1.73,1.73,0,0,1,1.3.53,1.77,1.77,0,0,1,.5,1.31Z"/><polygon class="cls-2" points="38.56 130.86 42.23 130.86 42.23 105.23 38.56 105.23 34.88 107.93 34.88 111.82 38.56 109.12 38.56 130.86"/><path class="cls-2" d="M58,116.37a3.27,3.27,0,0,0,.56-1.1,6.23,6.23,0,0,0,.22-1.4q0-.8,0-2c0-.69,0-1.29-.05-1.78a5.51,5.51,0,0,0-.24-1.28,5.07,5.07,0,0,0-.43-1,8.43,8.43,0,0,0-.61-.9,5,5,0,0,0-1.8-1.46,5.52,5.52,0,0,0-4.68,0,5,5,0,0,0-1.8,1.46,6,6,0,0,0-.59.9,5.78,5.78,0,0,0-.42,1,6,6,0,0,0-.25,1.28c0,.49-.07,1.09-.07,1.78s0,1.42,0,2a6.23,6.23,0,0,0,.22,1.4,3.27,3.27,0,0,0,.56,1.1,7,7,0,0,0,1,1,5.4,5.4,0,0,0-1,1,3.53,3.53,0,0,0-.56,1.19,8.27,8.27,0,0,0-.22,1.68q0,1,0,2.43c0,.79,0,1.44.05,2s.09,1,.16,1.35a4.1,4.1,0,0,0,.31,1,6.87,6.87,0,0,0,.49.83,5.12,5.12,0,0,0,1.72,1.6,5.94,5.94,0,0,0,5.48,0,5.22,5.22,0,0,0,1.72-1.6,6.87,6.87,0,0,0,.49-.83,4.1,4.1,0,0,0,.31-1c.07-.39.12-.84.16-1.35s.05-1.17.05-2q0-1.44,0-2.43a8.27,8.27,0,0,0-.22-1.68A3.53,3.53,0,0,0,58,118.4a5.4,5.4,0,0,0-1-1A7,7,0,0,0,58,116.37Zm-2.86,9.23a1.71,1.71,0,0,1-.54,1.28,1.79,1.79,0,0,1-2.52,0,1.71,1.71,0,0,1-.54-1.28v-5a1.69,1.69,0,0,1,.54-1.27,1.76,1.76,0,0,1,2.52,0,1.69,1.69,0,0,1,.54,1.27Zm0-11.37a1.72,1.72,0,0,1-.54,1.28,1.79,1.79,0,0,1-2.52,0,1.72,1.72,0,0,1-.54-1.28v-3.75a1.69,1.69,0,0,1,.54-1.27,1.76,1.76,0,0,1,2.52,0,1.69,1.69,0,0,1,.54,1.27Z"/><rect class="cls-2" x="63.19" y="127.19" width="3.67" height="3.67"/><path class="cls-2" d="M72.93,129.6a5.24,5.24,0,0,0,1.75,1.1,5.83,5.83,0,0,0,4.14,0,5.1,5.1,0,0,0,1.74-1.1,5.34,5.34,0,0,0,1.21-1.73,5.59,5.59,0,0,0,.45-2.3v-15a5.59,5.59,0,0,0-.45-2.3,5.23,5.23,0,0,0-1.21-1.73,5.1,5.1,0,0,0-1.74-1.1,5.83,5.83,0,0,0-4.14,0,5.24,5.24,0,0,0-1.75,1.1,5.36,5.36,0,0,0-1.2,1.73,5.43,5.43,0,0,0-.45,2.3v15a5.42,5.42,0,0,0,1.65,4Zm2-19.08a1.77,1.77,0,0,1,.5-1.31,1.73,1.73,0,0,1,1.3-.53,1.7,1.7,0,0,1,1.29.53,1.78,1.78,0,0,1,.51,1.31v15a1.79,1.79,0,0,1-.51,1.31,1.69,1.69,0,0,1-1.29.52,1.73,1.73,0,0,1-1.3-.52,1.79,1.79,0,0,1-.5-1.31Z"/><path class="cls-2" d="M96.62,128.59a6.48,6.48,0,0,0,.42-.83,6.2,6.2,0,0,0,.27-1c0-.36.08-.81.1-1.35s0-1.23,0-2.07c0-1,0-1.84,0-2.5s-.06-1.21-.1-1.64a6.25,6.25,0,0,0-.26-1,3.41,3.41,0,0,0-.39-.79,3.65,3.65,0,0,0-1.3-1.19,3.61,3.61,0,0,0-1.8-.47,4.39,4.39,0,0,0-1,.09,1.57,1.57,0,0,0-.56.23l-.07-.07,4.18-10.76H92l-4.82,12.89c-.12.33-.23.65-.32.95a5.55,5.55,0,0,0-.22,1c-.05.38-.08.83-.11,1.35s0,1.17,0,2,0,1.53,0,2.07a8.77,8.77,0,0,0,.15,1.35,3.37,3.37,0,0,0,.23,1,4.89,4.89,0,0,0,.45.83,5.21,5.21,0,0,0,1.91,1.82,5.46,5.46,0,0,0,2.7.67,5.69,5.69,0,0,0,2.72-.65A5,5,0,0,0,96.62,128.59Zm-2.84-3a1.74,1.74,0,0,1-.54,1.33,1.84,1.84,0,0,1-2.52,0,1.74,1.74,0,0,1-.54-1.33v-4.75a1.75,1.75,0,0,1,.54-1.34,1.84,1.84,0,0,1,2.52,0,1.75,1.75,0,0,1,.54,1.34Z"/><rect class="cls-2" x="101.8" y="127.19" width="3.67" height="3.67"/><path class="cls-2" d="M117.43,130.7a5.1,5.1,0,0,0,1.74-1.1,5.34,5.34,0,0,0,1.21-1.73,5.59,5.59,0,0,0,.45-2.3v-15a5.59,5.59,0,0,0-.45-2.3,5.23,5.23,0,0,0-1.21-1.73,5.1,5.1,0,0,0-1.74-1.1,5.83,5.83,0,0,0-4.14,0,5.14,5.14,0,0,0-1.75,1.1,5.38,5.38,0,0,0-1.21,1.73,5.59,5.59,0,0,0-.45,2.3v15a5.59,5.59,0,0,0,.45,2.3,5.5,5.5,0,0,0,1.21,1.73,5.14,5.14,0,0,0,1.75,1.1,5.83,5.83,0,0,0,4.14,0Zm-3.87-5.13v-15a1.77,1.77,0,0,1,.5-1.31,1.73,1.73,0,0,1,1.3-.53,1.71,1.71,0,0,1,1.29.53,1.78,1.78,0,0,1,.51,1.31v15a1.79,1.79,0,0,1-.51,1.31,1.7,1.7,0,0,1-1.29.52,1.73,1.73,0,0,1-1.3-.52A1.79,1.79,0,0,1,113.56,125.57Z"/><path class="cls-2" d="M135.52,115.38a5.09,5.09,0,0,0,.36-1.15A9.32,9.32,0,0,0,136,113c0-.42,0-.94,0-1.56a9.24,9.24,0,0,0-.31-2.45,6.12,6.12,0,0,0-.95-2.05,5,5,0,0,0-1.71-1.43,5.49,5.49,0,0,0-2.47-.52,5.32,5.32,0,0,0-3.88,1.66,5.47,5.47,0,0,0-1.19,1.76,5.38,5.38,0,0,0-.43,2.16v2h3.67v-2.09a1.83,1.83,0,0,1,.48-1.37,1.85,1.85,0,0,1,1.32-.47,1.72,1.72,0,0,1,1,.27,1.75,1.75,0,0,1,.54.67,2.35,2.35,0,0,1,.2.92c0,.35,0,.68,0,1,0,.69,0,1.28-.07,1.74a4.51,4.51,0,0,1-.58,1.64l-6.62,12.49v3.46h10.94v-3.67h-6.62l5.4-10.41C135.12,116.23,135.35,115.76,135.52,115.38Z"/><rect class="cls-2" x="139.73" y="119.05" width="10.84" height="3.67"/><path class="cls-2" d="M162.61,130.7a5.24,5.24,0,0,0,1.75-1.1,5.47,5.47,0,0,0,1.2-1.73,5.59,5.59,0,0,0,.45-2.3v-15a5.59,5.59,0,0,0-.45-2.3,5.36,5.36,0,0,0-1.2-1.73,5.24,5.24,0,0,0-1.75-1.1,5.83,5.83,0,0,0-4.14,0,5.24,5.24,0,0,0-1.75,1.1,5.36,5.36,0,0,0-1.2,1.73,5.59,5.59,0,0,0-.45,2.3v15a5.59,5.59,0,0,0,.45,2.3,5.47,5.47,0,0,0,1.2,1.73,5.24,5.24,0,0,0,1.75,1.1,5.83,5.83,0,0,0,4.14,0Zm-3.87-5.13v-15a1.81,1.81,0,0,1,.5-1.31,1.86,1.86,0,0,1,2.6,0,1.81,1.81,0,0,1,.5,1.31v15a1.83,1.83,0,0,1-.5,1.31,1.88,1.88,0,0,1-2.6,0A1.83,1.83,0,0,1,158.74,125.57Z"/><path class="cls-2" d="M173.07,130.41a5.46,5.46,0,0,0,2.7.67,5.69,5.69,0,0,0,2.72-.65,5,5,0,0,0,1.92-1.84,6.48,6.48,0,0,0,.42-.83,4.58,4.58,0,0,0,.27-1c.05-.36.08-.81.11-1.35s0-1.23,0-2.07c0-1,0-1.84,0-2.5s-.06-1.21-.11-1.64a6.37,6.37,0,0,0-.25-1,3.91,3.91,0,0,0-.4-.79,3.77,3.77,0,0,0-3.09-1.66,4.55,4.55,0,0,0-1,.09,1.51,1.51,0,0,0-.55.23l-.07-.07,4.17-10.76h-4.1L171,118.12c-.12.33-.23.65-.32.95a5.55,5.55,0,0,0-.22,1c-.05.38-.08.83-.11,1.35s0,1.17,0,2,0,1.53,0,2.07a10.23,10.23,0,0,0,.15,1.35,4.2,4.2,0,0,0,.23,1,4.89,4.89,0,0,0,.45.83A5.21,5.21,0,0,0,173.07,130.41Zm.9-9.59a1.75,1.75,0,0,1,.54-1.34,1.84,1.84,0,0,1,2.52,0,1.75,1.75,0,0,1,.54,1.34v4.75a1.74,1.74,0,0,1-.54,1.33,1.84,1.84,0,0,1-2.52,0,1.74,1.74,0,0,1-.54-1.33Z"/><rect class="cls-2" x="185.59" y="127.19" width="3.67" height="3.67"/><path class="cls-2" d="M203,106.49a5.1,5.1,0,0,0-1.74-1.1,5.83,5.83,0,0,0-4.14,0,5.24,5.24,0,0,0-1.75,1.1,5.36,5.36,0,0,0-1.2,1.73,5.59,5.59,0,0,0-.45,2.3v15a5.59,5.59,0,0,0,.45,2.3,5.47,5.47,0,0,0,1.2,1.73,5.24,5.24,0,0,0,1.75,1.1,5.83,5.83,0,0,0,4.14,0,5.1,5.1,0,0,0,1.74-1.1,5.34,5.34,0,0,0,1.21-1.73,5.59,5.59,0,0,0,.45-2.3v-15a5.59,5.59,0,0,0-.45-2.3A5.23,5.23,0,0,0,203,106.49Zm-2,19.08a1.79,1.79,0,0,1-.51,1.31,1.69,1.69,0,0,1-1.29.52,1.73,1.73,0,0,1-1.3-.52,1.83,1.83,0,0,1-.5-1.31v-15a1.81,1.81,0,0,1,.5-1.31,1.73,1.73,0,0,1,1.3-.53,1.7,1.7,0,0,1,1.29.53,1.78,1.78,0,0,1,.51,1.31Z"/><path class="cls-2" d="M219.53,115.78a4.81,4.81,0,0,0,.27-1.37c0-.55,0-1.27,0-2.16a14.71,14.71,0,0,0-.32-3.53,4,4,0,0,0-.45-1,7.92,7.92,0,0,0-.63-.87,5.7,5.7,0,0,0-1.5-1.2,4.75,4.75,0,0,0-2.5-.6,5.55,5.55,0,0,0-2.16.43,5.92,5.92,0,0,0-1.76,1.16,5.1,5.1,0,0,0-1.19,1.72,5.34,5.34,0,0,0-.43,2.13v2.12h3.67v-2.09a2.13,2.13,0,0,1,.41-1.18,1.56,1.56,0,0,1,1.39-.62,1.72,1.72,0,0,1,1.31.51,1.76,1.76,0,0,1,.49,1.29v3.32q0,1.44-.63,1.83a4.57,4.57,0,0,1-2.29.4v3.24a11.54,11.54,0,0,1,1.46.07,1.61,1.61,0,0,1,.88.36,2.5,2.5,0,0,1,.58,2v3.67a2.19,2.19,0,0,1-.49,1.5,1.84,1.84,0,0,1-2.62,0,2.09,2.09,0,0,1-.49-1.43v-1.9h-3.67v2.08a5.67,5.67,0,0,0,.52,2.56,5.13,5.13,0,0,0,1.31,1.69,5,5,0,0,0,1.77.94,6.5,6.5,0,0,0,1.83.29,5.21,5.21,0,0,0,2.79-.67,5.82,5.82,0,0,0,1.75-1.67,6.57,6.57,0,0,0,.47-.83,4.88,4.88,0,0,0,.29-1,12.12,12.12,0,0,0,.16-1.37c0-.55,0-1.25,0-2.09s0-1.66,0-2.25a5.54,5.54,0,0,0-.26-1.53,2.87,2.87,0,0,0-.66-1.08,7,7,0,0,0-1.32-1,7.85,7.85,0,0,0,1.24-.86A2.87,2.87,0,0,0,219.53,115.78Z"/><path class="cls-2" d="M4.09,161.35V144.26H6.54v7.8h0l3.57-7.8h2.45L9.27,151.1l4,10.25H10.64l-2.78-7.58-1.32,2.47v5.11Z"/><path class="cls-2" d="M20.25,161.35V160.1h0a4.44,4.44,0,0,1-1,1,2.2,2.2,0,0,1-1.38.36,3,3,0,0,1-.87-.13,2.24,2.24,0,0,1-.85-.49,2.2,2.2,0,0,1-.66-1,4.47,4.47,0,0,1-.26-1.64,8.87,8.87,0,0,1,.17-1.82,2.87,2.87,0,0,1,.63-1.31,2.64,2.64,0,0,1,1.17-.75,6,6,0,0,1,1.9-.25h.26a1.14,1.14,0,0,1,.27,0,1.14,1.14,0,0,0,.28,0,2.17,2.17,0,0,1,.36,0v-1.27a1.87,1.87,0,0,0-.26-1,1.07,1.07,0,0,0-1-.4,1.39,1.39,0,0,0-.88.31,1.49,1.49,0,0,0-.51.91H15.26a3.9,3.9,0,0,1,1.11-2.64,3.55,3.55,0,0,1,1.15-.76A4,4,0,0,1,19,149a4.27,4.27,0,0,1,1.44.24,3.32,3.32,0,0,1,1.18.72,3.47,3.47,0,0,1,.76,1.2,4.35,4.35,0,0,1,.29,1.68v8.47Zm0-5.23a3.71,3.71,0,0,0-.67-.07,2.35,2.35,0,0,0-1.35.37,1.49,1.49,0,0,0-.57,1.35A1.75,1.75,0,0,0,18,158.9a1.1,1.1,0,0,0,.93.44,1.24,1.24,0,0,0,1-.41,1.76,1.76,0,0,0,.34-1.16Z"/><path class="cls-2" d="M25.61,161.35V149.18h2.45v1.18h.05a3.34,3.34,0,0,1,.92-1,2.37,2.37,0,0,1,1.38-.37,2.85,2.85,0,0,1,.91.15,2.16,2.16,0,0,1,.82.52,2.73,2.73,0,0,1,.58.92,4,4,0,0,1,.21,1.38v9.34H30.49v-8.42a1.63,1.63,0,0,0-.32-1.06,1.08,1.08,0,0,0-.89-.38,1,1,0,0,0-1,.43,2.48,2.48,0,0,0-.26,1.25v8.18Z"/><path class="cls-2" d="M40.5,152.59a1.25,1.25,0,0,0-.4-.94,1.31,1.31,0,0,0-.85-.31,1.11,1.11,0,0,0-.89.38,1.31,1.31,0,0,0-.31.85,1.47,1.47,0,0,0,.17.66,1.55,1.55,0,0,0,.86.58l1.44.58a3.48,3.48,0,0,1,1.89,1.44,4,4,0,0,1,.51,2,3.72,3.72,0,0,1-.27,1.43,4,4,0,0,1-.76,1.17,3.62,3.62,0,0,1-1.15.79,3.72,3.72,0,0,1-1.46.28,3.54,3.54,0,0,1-2.5-.93,3.34,3.34,0,0,1-.82-1.14,4.14,4.14,0,0,1-.33-1.6h2.3a2.43,2.43,0,0,0,.35.94,1.05,1.05,0,0,0,1,.43,1.42,1.42,0,0,0,1-.35,1.18,1.18,0,0,0,.42-1,1.44,1.44,0,0,0-.26-.86,2.16,2.16,0,0,0-1-.63L38.22,156a4.06,4.06,0,0,1-1.81-1.28,3.3,3.3,0,0,1-.66-2.08,3.42,3.42,0,0,1,.29-1.43,3.38,3.38,0,0,1,.79-1.14,3.19,3.19,0,0,1,1.13-.73,3.89,3.89,0,0,1,2.77,0,3.22,3.22,0,0,1,1.09.75,3.69,3.69,0,0,1,.72,1.14,3.63,3.63,0,0,1,.26,1.4Z"/><path class="cls-2" d="M50.46,161.35V160.1h-.05a4.41,4.41,0,0,1-1,1,2.24,2.24,0,0,1-1.38.36,3,3,0,0,1-.88-.13,2.31,2.31,0,0,1-.85-.49,2.38,2.38,0,0,1-.66-1,4.49,4.49,0,0,1-.25-1.64,8.87,8.87,0,0,1,.17-1.82,3,3,0,0,1,.62-1.31,2.67,2.67,0,0,1,1.18-.75,5.92,5.92,0,0,1,1.89-.25h.27a1.1,1.1,0,0,1,.26,0,1.23,1.23,0,0,0,.29,0,2.3,2.3,0,0,1,.36,0v-1.27a2,2,0,0,0-.26-1,1.07,1.07,0,0,0-1-.4,1.35,1.35,0,0,0-.88.31,1.5,1.5,0,0,0-.52.91H45.47a3.89,3.89,0,0,1,1.1-2.64,3.66,3.66,0,0,1,1.15-.76,4,4,0,0,1,1.52-.27,4.27,4.27,0,0,1,1.44.24,3.28,3.28,0,0,1,1.17.72,3.49,3.49,0,0,1,.77,1.2,4.54,4.54,0,0,1,.29,1.68v8.47Zm0-5.23a3.8,3.8,0,0,0-.67-.07,2.41,2.41,0,0,0-1.36.37,1.51,1.51,0,0,0-.56,1.35,1.81,1.81,0,0,0,.33,1.13,1.14,1.14,0,0,0,.94.44,1.2,1.2,0,0,0,1-.41,1.76,1.76,0,0,0,.35-1.16Z"/><path class="cls-2" d="M55.82,146.71v-2.45h2.44v2.45Zm0,14.64V149.18h2.44v12.17Z"/><path class="cls-2" d="M75.21,144.26v13.25a3.93,3.93,0,0,1-.3,1.55,4,4,0,0,1-2.13,2.12,3.93,3.93,0,0,1-3.06,0,4.15,4.15,0,0,1-1.26-.86,4.34,4.34,0,0,1-.86-1.26,3.77,3.77,0,0,1-.31-1.55V144.26h2.45v13a1.8,1.8,0,0,0,.43,1.34,1.55,1.55,0,0,0,2.16,0,1.8,1.8,0,0,0,.43-1.34v-13Z"/><path class="cls-2" d="M78.39,161.35V149.18h2.45v1.18h0a3.51,3.51,0,0,1,.93-1,2.37,2.37,0,0,1,1.38-.37,2.89,2.89,0,0,1,.91.15,2.24,2.24,0,0,1,.82.52,2.57,2.57,0,0,1,.57.92,3.77,3.77,0,0,1,.22,1.38v9.34H83.26v-8.42a1.69,1.69,0,0,0-.31-1.06,1.11,1.11,0,0,0-.89-.38,1,1,0,0,0-1,.43,2.38,2.38,0,0,0-.26,1.25v8.18Z"/><path class="cls-2" d="M88.72,146.71v-2.45h2.45v2.45Zm0,14.64V149.18h2.45v12.17Z"/><path class="cls-2" d="M102.08,149.18l-3.17,12.17H96.75l-3.16-12.17h2.59L97.81,157h0l1.63-7.78Z"/><path class="cls-2" d="M111.35,156.19H106.5v1.66a1.17,1.17,0,0,0,.32.88,1.22,1.22,0,0,0,.88.32,1,1,0,0,0,.92-.41,2.22,2.22,0,0,0,.28-.82h2.45a3.52,3.52,0,0,1-1,2.6,3.62,3.62,0,0,1-1.15.79,3.83,3.83,0,0,1-1.51.28,3.68,3.68,0,0,1-2-.48,3.26,3.26,0,0,1-1.23-1.27,3.17,3.17,0,0,1-.36-1.1,8.32,8.32,0,0,1-.1-1.37v-4a8.4,8.4,0,0,1,.1-1.37,3.17,3.17,0,0,1,.36-1.1,3.26,3.26,0,0,1,1.23-1.27,3.77,3.77,0,0,1,2-.48,3.71,3.71,0,0,1,1.52.29,3.32,3.32,0,0,1,1.17.79,3.92,3.92,0,0,1,1,2.71Zm-4.85-1.92h2.4v-1.39a1.46,1.46,0,0,0-.33-1,1.09,1.09,0,0,0-.87-.35,1.12,1.12,0,0,0-.88.35,1.5,1.5,0,0,0-.32,1Z"/><path class="cls-2" d="M114.19,161.35V149.18h2.45v1.3a7.35,7.35,0,0,1,1.46-1.06,3.81,3.81,0,0,1,1.78-.38v2.59a1.92,1.92,0,0,0-.75-.14,2.79,2.79,0,0,0-.82.13,2.14,2.14,0,0,0-.81.44,2.37,2.37,0,0,0-.62.82,2.9,2.9,0,0,0-.24,1.25v7.22Z"/><path class="cls-2" d="M126.86,152.59a1.21,1.21,0,0,0-.39-.94,1.33,1.33,0,0,0-.85-.31,1.09,1.09,0,0,0-.89.38,1.26,1.26,0,0,0-.31.85,1.46,1.46,0,0,0,.16.66,1.59,1.59,0,0,0,.87.58l1.44.58a3.46,3.46,0,0,1,1.88,1.44,3.92,3.92,0,0,1,.52,2,3.54,3.54,0,0,1-.28,1.43,3.78,3.78,0,0,1-.75,1.17,3.52,3.52,0,0,1-2.62,1.07,3.57,3.57,0,0,1-2.5-.93,3.45,3.45,0,0,1-.81-1.14,4.14,4.14,0,0,1-.34-1.6h2.31a2.27,2.27,0,0,0,.34.94,1.07,1.07,0,0,0,1,.43,1.43,1.43,0,0,0,.95-.35,1.21,1.21,0,0,0,.42-1,1.38,1.38,0,0,0-.27-.86,2.16,2.16,0,0,0-1-.63l-1.18-.43a4.11,4.11,0,0,1-1.81-1.28,3.3,3.3,0,0,1-.66-2.08,3.58,3.58,0,0,1,.29-1.43,3.53,3.53,0,0,1,.79-1.14,3.28,3.28,0,0,1,1.13-.73,3.77,3.77,0,0,1,1.39-.25,3.65,3.65,0,0,1,1.38.26,3.12,3.12,0,0,1,1.09.75,3.35,3.35,0,0,1,.72,1.14,3.64,3.64,0,0,1,.27,1.4Z"/><path class="cls-2" d="M132,146.71v-2.45h2.45v2.45Zm0,14.64V149.18h2.45v12.17Z"/><path class="cls-2" d="M138,149.18v-3.69h2.45v3.69h1.51v1.92h-1.51v6.75a2,2,0,0,0,.09.67.62.62,0,0,0,.27.36,1,1,0,0,0,.47.14,6.39,6.39,0,0,0,.68,0v2.3h-1a3.45,3.45,0,0,1-1.41-.26,2.72,2.72,0,0,1-.9-.67,2.68,2.68,0,0,1-.49-.93,3.59,3.59,0,0,1-.16-1V151.1h-1.22v-1.92Z"/><path class="cls-2" d="M143.82,149.18h2.59l1.68,7.59h0l1.65-7.59h2.52l-3.5,14.28a4.32,4.32,0,0,1-.54,1.35,3.31,3.31,0,0,1-.8.86,3,3,0,0,1-1,.47,4.16,4.16,0,0,1-1.06.13h-.68V164h.56a1.92,1.92,0,0,0,.62-.1,1,1,0,0,0,.48-.43,4.13,4.13,0,0,0,.36-.95c.11-.41.24-1,.38-1.69Z"/><path class="cls-2" d="M168.23,144.26v13.25a4,4,0,0,1-2.43,3.67,3.77,3.77,0,0,1-1.53.31,3.7,3.7,0,0,1-1.53-.31,4.15,4.15,0,0,1-1.26-.86,4,4,0,0,1-.86-1.26,3.77,3.77,0,0,1-.31-1.55V144.26h2.44v13a1.8,1.8,0,0,0,.44,1.34,1.44,1.44,0,0,0,1.08.44,1.47,1.47,0,0,0,1.08-.44,1.84,1.84,0,0,0,.43-1.34v-13Z"/><path class="cls-2" d="M171.4,161.35V149.18h2.45v1.18h.05a3.63,3.63,0,0,1,.92-1,2.41,2.41,0,0,1,1.38-.37,2.27,2.27,0,0,1,1.33.38,4.3,4.3,0,0,1,.86.84,5.17,5.17,0,0,1,1-.86,2.79,2.79,0,0,1,1.53-.36,3.13,3.13,0,0,1,.94.15,2.31,2.31,0,0,1,.86.52,2.68,2.68,0,0,1,.63.92,3.55,3.55,0,0,1,.24,1.38v9.34h-2.45v-8.42a1.69,1.69,0,0,0-.31-1.06,1.11,1.11,0,0,0-.89-.38,1,1,0,0,0-1,.43,2.38,2.38,0,0,0-.26,1.25v8.18h-2.45v-8.42a1.69,1.69,0,0,0-.31-1.06,1.11,1.11,0,0,0-.89-.38,1,1,0,0,0-1,.43,2.37,2.37,0,0,0-.27,1.25v8.18Z"/><path class="cls-2" d="M193.74,156.19h-4.85v1.66a1.17,1.17,0,0,0,.32.88,1.22,1.22,0,0,0,.88.32,1,1,0,0,0,.92-.41,2.22,2.22,0,0,0,.28-.82h2.45a3.52,3.52,0,0,1-1,2.6,3.62,3.62,0,0,1-1.15.79,3.83,3.83,0,0,1-1.51.28,3.68,3.68,0,0,1-2-.48,3.33,3.33,0,0,1-1.23-1.27,3.17,3.17,0,0,1-.36-1.1,8.32,8.32,0,0,1-.1-1.37v-4a8.4,8.4,0,0,1,.1-1.37,3.17,3.17,0,0,1,.36-1.1,3.33,3.33,0,0,1,1.23-1.27,3.77,3.77,0,0,1,2-.48,3.71,3.71,0,0,1,1.52.29,3.32,3.32,0,0,1,1.17.79,3.92,3.92,0,0,1,1,2.71Zm-4.85-1.92h2.4v-1.39a1.5,1.5,0,0,0-.32-1,1.28,1.28,0,0,0-1.76,0,1.5,1.5,0,0,0-.32,1Z"/><path class="cls-2" d="M201.41,161.35v-1.1l-.46.49a2.28,2.28,0,0,1-.48.39,1.83,1.83,0,0,1-.6.27,3.07,3.07,0,0,1-.79.09,2.18,2.18,0,0,1-2.13-1.15,3.27,3.27,0,0,1-.32-1,11.5,11.5,0,0,1-.09-1.61v-4.64a18.42,18.42,0,0,1,.07-1.94,2.3,2.3,0,0,1,1.13-1.8,2.42,2.42,0,0,1,1.37-.31,2.61,2.61,0,0,1,1.28.32,3.06,3.06,0,0,1,1,.93h0v-6h2.45v17.09Zm-2.42-4a2.22,2.22,0,0,0,.28,1.2,1,1,0,0,0,.92.46,1.07,1.07,0,0,0,.88-.42,1.68,1.68,0,0,0,.34-1.1v-4.72a1.34,1.34,0,0,0-.35-.95,1.13,1.13,0,0,0-.87-.37,1,1,0,0,0-.95.43,1.94,1.94,0,0,0-.25,1Z"/><path class="cls-2" d="M211.6,161.35V160.1h0a4.44,4.44,0,0,1-1,1,2.2,2.2,0,0,1-1.38.36,3,3,0,0,1-.87-.13,2.24,2.24,0,0,1-.85-.49,2.2,2.2,0,0,1-.66-1,4.47,4.47,0,0,1-.26-1.64,8.87,8.87,0,0,1,.17-1.82,2.87,2.87,0,0,1,.63-1.31,2.64,2.64,0,0,1,1.17-.75,6,6,0,0,1,1.9-.25h.26a1.14,1.14,0,0,1,.27,0,1.14,1.14,0,0,0,.28,0,2.17,2.17,0,0,1,.36,0v-1.27a1.87,1.87,0,0,0-.26-1,1.07,1.07,0,0,0-1-.4,1.39,1.39,0,0,0-.88.31,1.49,1.49,0,0,0-.51.91h-2.38a3.9,3.9,0,0,1,1.11-2.64,3.55,3.55,0,0,1,1.15-.76,4,4,0,0,1,1.51-.27,4.27,4.27,0,0,1,1.44.24A3.32,3.32,0,0,1,213,150a3.47,3.47,0,0,1,.76,1.2,4.35,4.35,0,0,1,.29,1.68v8.47Zm0-5.23a3.71,3.71,0,0,0-.67-.07,2.35,2.35,0,0,0-1.35.37,1.49,1.49,0,0,0-.57,1.35,1.75,1.75,0,0,0,.34,1.13,1.1,1.1,0,0,0,.93.44,1.24,1.24,0,0,0,1-.41,1.76,1.76,0,0,0,.34-1.16Z"/><path class="cls-2" d="M230.64,156.48v1.05a3.79,3.79,0,0,1-.3,1.5,4,4,0,0,1-2.07,2.14,3.54,3.54,0,0,1-1.52.32,5.39,5.39,0,0,1-1.42-.19,3.19,3.19,0,0,1-1.29-.67,3.63,3.63,0,0,1-.95-1.24,4.31,4.31,0,0,1-.37-1.93v-9.41a4.24,4.24,0,0,1,.28-1.56,3.78,3.78,0,0,1,.82-1.24,3.64,3.64,0,0,1,1.26-.83,4.25,4.25,0,0,1,1.62-.3,3.73,3.73,0,0,1,2.81,1.13,4.07,4.07,0,0,1,.83,1.3,4.48,4.48,0,0,1,.3,1.65v1h-2.45v-.82a2,2,0,0,0-.41-1.25,1.32,1.32,0,0,0-1.1-.52,1.26,1.26,0,0,0-1.22.56,3,3,0,0,0-.3,1.43v8.74a2.2,2.2,0,0,0,.33,1.24,1.26,1.26,0,0,0,1.16.51,1.72,1.72,0,0,0,.52-.09,1.57,1.57,0,0,0,.51-.27,1.38,1.38,0,0,0,.36-.53,2.1,2.1,0,0,0,.15-.84v-.84Z"/><path class="cls-2" d="M238.41,161.35V160.1h0a4.41,4.41,0,0,1-1,1,2.24,2.24,0,0,1-1.38.36,3,3,0,0,1-.88-.13,2.31,2.31,0,0,1-.85-.49,2.38,2.38,0,0,1-.66-1,4.49,4.49,0,0,1-.25-1.64,8.87,8.87,0,0,1,.17-1.82,3,3,0,0,1,.62-1.31,2.67,2.67,0,0,1,1.18-.75,5.92,5.92,0,0,1,1.89-.25h.27a1.1,1.1,0,0,1,.26,0,1.23,1.23,0,0,0,.29,0,2.3,2.3,0,0,1,.36,0v-1.27a2,2,0,0,0-.26-1,1.07,1.07,0,0,0-1-.4,1.35,1.35,0,0,0-.88.31,1.5,1.5,0,0,0-.52.91h-2.37a3.89,3.89,0,0,1,1.1-2.64,3.66,3.66,0,0,1,1.15-.76,4,4,0,0,1,1.52-.27,4.27,4.27,0,0,1,1.44.24,3.28,3.28,0,0,1,1.17.72,3.49,3.49,0,0,1,.77,1.2,4.54,4.54,0,0,1,.29,1.68v8.47Zm0-5.23a3.8,3.8,0,0,0-.67-.07,2.41,2.41,0,0,0-1.36.37,1.51,1.51,0,0,0-.56,1.35,1.81,1.81,0,0,0,.33,1.13,1.14,1.14,0,0,0,.94.44,1.2,1.2,0,0,0,1-.41,1.76,1.76,0,0,0,.35-1.16Z"/><path class="cls-2" d="M243.77,161.35V149.18h2.45v1.18h0a3.51,3.51,0,0,1,.93-1,2.37,2.37,0,0,1,1.38-.37,2.22,2.22,0,0,1,1.32.38,4,4,0,0,1,.86.84,5.48,5.48,0,0,1,1-.86,2.81,2.81,0,0,1,1.54-.36,3.11,3.11,0,0,1,.93.15,2.43,2.43,0,0,1,.87.52,2.81,2.81,0,0,1,.62.92A3.55,3.55,0,0,1,256,152v9.34h-2.45v-8.42a1.63,1.63,0,0,0-.31-1.06,1.09,1.09,0,0,0-.89-.38,1,1,0,0,0-1,.43,2.48,2.48,0,0,0-.26,1.25v8.18h-2.45v-8.42a1.63,1.63,0,0,0-.31-1.06,1.11,1.11,0,0,0-.89-.38,1,1,0,0,0-1,.43,2.38,2.38,0,0,0-.26,1.25v8.18Z"/><path class="cls-2" d="M259,166.27V149.18h2.45v1.11a6,6,0,0,1,.94-.89,2.28,2.28,0,0,1,1.39-.36,2.23,2.23,0,0,1,2.14,1.15,3.54,3.54,0,0,1,.31,1,11.3,11.3,0,0,1,.09,1.61v4.63a17.8,17.8,0,0,1-.07,1.94,2.31,2.31,0,0,1-1.1,1.8,2.56,2.56,0,0,1-1.39.31,2.52,2.52,0,0,1-1.29-.32,3,3,0,0,1-1-.92h-.05v6Zm4.88-13.13a2.27,2.27,0,0,0-.29-1.2,1,1,0,0,0-.91-.45,1.08,1.08,0,0,0-.89.42,1.65,1.65,0,0,0-.34,1.09v4.73a1.36,1.36,0,0,0,.35,1,1.17,1.17,0,0,0,.88.37,1,1,0,0,0,.94-.44,1.91,1.91,0,0,0,.26-1Z"/><path class="cls-2" d="M276.62,149.18v12.17h-2.45v-1.17h0a3.47,3.47,0,0,1-.93.94,2.37,2.37,0,0,1-1.38.37,2.89,2.89,0,0,1-.91-.15,2.24,2.24,0,0,1-.82-.52,2.57,2.57,0,0,1-.57-.92,3.77,3.77,0,0,1-.22-1.38v-9.34h2.45v8.43a1.6,1.6,0,0,0,.31,1,1.08,1.08,0,0,0,.89.39,1,1,0,0,0,1-.44,2.34,2.34,0,0,0,.26-1.24v-8.19Z"/><path class="cls-2" d="M284.19,152.59a1.25,1.25,0,0,0-.4-.94,1.33,1.33,0,0,0-.85-.31,1.11,1.11,0,0,0-.89.38,1.26,1.26,0,0,0-.31.85,1.47,1.47,0,0,0,.17.66,1.55,1.55,0,0,0,.86.58l1.44.58a3.52,3.52,0,0,1,1.89,1.44,4,4,0,0,1,.51,2,3.72,3.72,0,0,1-.27,1.43,4,4,0,0,1-.76,1.17,3.62,3.62,0,0,1-1.15.79,3.74,3.74,0,0,1-1.47.28,3.53,3.53,0,0,1-2.49-.93,3.34,3.34,0,0,1-.82-1.14,4.14,4.14,0,0,1-.33-1.6h2.3a2.28,2.28,0,0,0,.35.94,1.05,1.05,0,0,0,1,.43,1.42,1.42,0,0,0,.95-.35,1.18,1.18,0,0,0,.42-1A1.38,1.38,0,0,0,284,157a2,2,0,0,0-1-.63l-1.17-.43a4.06,4.06,0,0,1-1.81-1.28,3.3,3.3,0,0,1-.66-2.08,3.42,3.42,0,0,1,.29-1.43,3.38,3.38,0,0,1,.79-1.14,3.19,3.19,0,0,1,1.13-.73,3.89,3.89,0,0,1,2.77,0,3.32,3.32,0,0,1,1.09.75,3.69,3.69,0,0,1,.72,1.14,3.83,3.83,0,0,1,.26,1.4Z"/><path class="cls-2" d="M4.09,189.35V172.26H6.54v7.8h0l3.57-7.8h2.45L9.27,179.1l4,10.25H10.64l-2.78-7.58-1.32,2.47v5.11Z"/><path class="cls-2" d="M20.25,189.35V188.1h0a4.44,4.44,0,0,1-1,1,2.2,2.2,0,0,1-1.38.36,3,3,0,0,1-.87-.13,2.24,2.24,0,0,1-.85-.49,2.2,2.2,0,0,1-.66-1,4.47,4.47,0,0,1-.26-1.64,8.87,8.87,0,0,1,.17-1.82,2.87,2.87,0,0,1,.63-1.31,2.64,2.64,0,0,1,1.17-.75,6,6,0,0,1,1.9-.25h.26a1.14,1.14,0,0,1,.27,0,1.14,1.14,0,0,0,.28,0,2.17,2.17,0,0,1,.36,0v-1.27a1.87,1.87,0,0,0-.26-1,1.07,1.07,0,0,0-1-.4,1.39,1.39,0,0,0-.88.31,1.49,1.49,0,0,0-.51.91H15.26a3.9,3.9,0,0,1,1.11-2.64,3.55,3.55,0,0,1,1.15-.76A4,4,0,0,1,19,177a4.27,4.27,0,0,1,1.44.24,3.32,3.32,0,0,1,1.18.72,3.47,3.47,0,0,1,.76,1.2,4.35,4.35,0,0,1,.29,1.68v8.47Zm0-5.23a3.71,3.71,0,0,0-.67-.07,2.35,2.35,0,0,0-1.35.37,1.49,1.49,0,0,0-.57,1.35A1.75,1.75,0,0,0,18,186.9a1.1,1.1,0,0,0,.93.44,1.24,1.24,0,0,0,1-.41,1.76,1.76,0,0,0,.34-1.16Z"/><path class="cls-2" d="M25.61,189.35V177.18h2.45v1.18h.05a3.34,3.34,0,0,1,.92-1,2.37,2.37,0,0,1,1.38-.37,2.85,2.85,0,0,1,.91.15,2.16,2.16,0,0,1,.82.52,2.73,2.73,0,0,1,.58.92,4,4,0,0,1,.21,1.38v9.34H30.49v-8.42a1.63,1.63,0,0,0-.32-1.06,1.08,1.08,0,0,0-.89-.38,1,1,0,0,0-1,.43,2.48,2.48,0,0,0-.26,1.25v8.18Z"/><path class="cls-2" d="M40.8,189.35v-1.1l-.45.49a2.93,2.93,0,0,1-.48.39,2,2,0,0,1-.6.27,3.15,3.15,0,0,1-.8.09,2.19,2.19,0,0,1-2.13-1.15,3.27,3.27,0,0,1-.31-1,10,10,0,0,1-.1-1.61v-4.64a18.42,18.42,0,0,1,.07-1.94,2.32,2.32,0,0,1,1.13-1.8A2.42,2.42,0,0,1,38.5,177a2.56,2.56,0,0,1,1.28.32,3,3,0,0,1,1,.93h0v-6h2.45v17.09Zm-2.42-4a2.13,2.13,0,0,0,.29,1.2,1,1,0,0,0,.91.46,1.09,1.09,0,0,0,.89-.42,1.74,1.74,0,0,0,.33-1.1v-4.72a1.3,1.3,0,0,0-.35-.95,1.13,1.13,0,0,0-.87-.37,1,1,0,0,0-.95.43,1.94,1.94,0,0,0-.25,1Z"/><path class="cls-2" d="M51,189.35V188.1h0a4.63,4.63,0,0,1-1,1,2.24,2.24,0,0,1-1.38.36,3,3,0,0,1-.88-.13,2.24,2.24,0,0,1-.85-.49,2.38,2.38,0,0,1-.66-1,4.49,4.49,0,0,1-.25-1.64,8.92,8.92,0,0,1,.16-1.82,3.08,3.08,0,0,1,.63-1.31,2.67,2.67,0,0,1,1.18-.75,5.88,5.88,0,0,1,1.89-.25h.26a1.14,1.14,0,0,1,.27,0,1.23,1.23,0,0,0,.29,0,2.3,2.3,0,0,1,.36,0v-1.27a1.87,1.87,0,0,0-.27-1,1,1,0,0,0-1-.4,1.35,1.35,0,0,0-.87.31,1.46,1.46,0,0,0-.52.91H46a3.89,3.89,0,0,1,1.1-2.64,3.55,3.55,0,0,1,1.15-.76,4,4,0,0,1,1.51-.27,4.23,4.23,0,0,1,1.44.24,3.32,3.32,0,0,1,1.18.72,3.49,3.49,0,0,1,.77,1.2,4.54,4.54,0,0,1,.29,1.68v8.47Zm0-5.23a3.81,3.81,0,0,0-.68-.07,2.38,2.38,0,0,0-1.35.37,1.49,1.49,0,0,0-.57,1.35,1.81,1.81,0,0,0,.34,1.13,1.12,1.12,0,0,0,.94.44,1.22,1.22,0,0,0,1-.41,1.76,1.76,0,0,0,.35-1.16Z"/><path class="cls-2" d="M56.35,174.71v-2.45H58.8v2.45Zm0,14.64V177.18H58.8v12.17Z"/><path class="cls-2" d="M67.83,189.35V172.26h2.35l3.14,9.05h.05l3.12-9.05h2.38v17.09H76.42V179h0L74,186.3H72.72L70.32,179h0v10.39Z"/><path class="cls-2" d="M89.2,184.19H84.35v1.66a1.13,1.13,0,0,0,.32.88,1.22,1.22,0,0,0,.88.32,1,1,0,0,0,.92-.41,2.42,2.42,0,0,0,.28-.82H89.2a3.52,3.52,0,0,1-1,2.6,3.62,3.62,0,0,1-1.15.79,3.83,3.83,0,0,1-1.51.28,3.68,3.68,0,0,1-2-.48,3.19,3.19,0,0,1-1.23-1.27,3.4,3.4,0,0,1-.37-1.1,9.65,9.65,0,0,1-.09-1.37v-4a9.75,9.75,0,0,1,.09-1.37,3.4,3.4,0,0,1,.37-1.1,3.19,3.19,0,0,1,1.23-1.27,4.19,4.19,0,0,1,3.48-.19,3.41,3.41,0,0,1,1.17.79,4,4,0,0,1,1,2.71Zm-4.85-1.92h2.4v-1.39a1.46,1.46,0,0,0-.33-1,1.1,1.1,0,0,0-.87-.35,1.12,1.12,0,0,0-.88.35,1.46,1.46,0,0,0-.32,1Z"/><path class="cls-2" d="M98,189.35V172.26h3.94q4.32,0,4.32,5a6.38,6.38,0,0,1-.47,2.57,3.63,3.63,0,0,1-1.64,1.7l2.64,7.8H104.2l-2.28-7.3h-1.47v7.3Zm2.45-14.78v5.32h1.39a2.51,2.51,0,0,0,1-.17,1.6,1.6,0,0,0,.6-.52,2.62,2.62,0,0,0,.26-.83,9.32,9.32,0,0,0,0-2.28,2.19,2.19,0,0,0-.29-.85,1.94,1.94,0,0,0-1.73-.67Z"/><path class="cls-2" d="M109.67,189.35V172.26h2.45v17.09Z"/><path class="cls-2" d="M115,189.35v-2.16l4.61-12.62h-4.37v-2.31h7v2l-4.71,12.84h4.71v2.3Z"/><path class="cls-2" d="M125.2,189.35V172.26h7.3v2.31h-4.85v5h4.23v2.31h-4.23v5h4.85v2.45Z"/></g></g></svg>