<svg xmlns="http://www.w3.org/2000/svg" viewBox="0 0 283.52 80.98"><defs><style>.cls-1{fill:#fff;}.cls-2{fill:#191919;}</style></defs><title>logo-sub</title><g id="レイヤー_2" data-name="レイヤー 2"><g id="レイヤー_1-2" data-name="レイヤー 1"><path class="cls-1" d="M11.4,10.87a5.25,5.25,0,0,0,.36-1.15,9.3,9.3,0,0,0,.15-1.21c0-.42,0-.94,0-1.57a9.6,9.6,0,0,0-.3-2.44,6.19,6.19,0,0,0-1-2.06A4.83,4.83,0,0,0,9,1,5.32,5.32,0,0,0,6.51.5,5.22,5.22,0,0,0,4.35,1,5.34,5.34,0,0,0,2.62,2.16,5.64,5.64,0,0,0,1.43,3.92,5.38,5.38,0,0,0,1,6.08v2H4.67V6a1.79,1.79,0,0,1,.49-1.37,1.81,1.81,0,0,1,1.31-.47,1.73,1.73,0,0,1,1,.27,1.67,1.67,0,0,1,.54.67A2.35,2.35,0,0,1,8.25,6c0,.34,0,.67,0,1A17.05,17.05,0,0,1,8.2,8.76a4.51,4.51,0,0,1-.58,1.64L1,22.89v3.46H11.94V22.68H5.32l5.4-10.41C11,11.72,11.24,11.25,11.4,10.87Z"/><path class="cls-1" d="M25.52,25.09a5.66,5.66,0,0,0,1.21-1.73,5.75,5.75,0,0,0,.45-2.3V6a5.8,5.8,0,0,0-.45-2.31A5.62,5.62,0,0,0,25.52,2,5.14,5.14,0,0,0,23.77.88a5.83,5.83,0,0,0-4.14,0A5.1,5.1,0,0,0,17.89,2,5.3,5.3,0,0,0,16.68,3.7,5.63,5.63,0,0,0,16.23,6V21.06a5.59,5.59,0,0,0,.45,2.3,5.34,5.34,0,0,0,1.21,1.73,5.25,5.25,0,0,0,1.74,1.1,6,6,0,0,0,4.14,0A5.3,5.3,0,0,0,25.52,25.09Zm-2-4a1.84,1.84,0,0,1-.5,1.31,1.73,1.73,0,0,1-1.3.52,1.7,1.7,0,0,1-1.29-.52,1.81,1.81,0,0,1-.51-1.31V6a1.82,1.82,0,0,1,.51-1.32,1.74,1.74,0,0,1,1.29-.52,1.76,1.76,0,0,1,1.3.52A1.85,1.85,0,0,1,23.5,6Z"/><polygon class="cls-1" points="35.47 26.35 39.14 26.35 39.14 0.72 35.47 0.72 31.79 3.42 31.79 7.3 35.47 4.6 35.47 26.35"/><path class="cls-1" d="M54.94,11.86a3.37,3.37,0,0,0,.56-1.1,5.81,5.81,0,0,0,.21-1.4c0-.53,0-1.18,0-1.95s0-1.29,0-1.78a5.51,5.51,0,0,0-.24-1.28,5.07,5.07,0,0,0-.43-1,8.43,8.43,0,0,0-.61-.9A5,5,0,0,0,52.62,1a5.52,5.52,0,0,0-4.68,0,5,5,0,0,0-1.8,1.46,7,7,0,0,0-.6.9,6.74,6.74,0,0,0-.41,1,6,6,0,0,0-.25,1.28c-.05.49-.07,1.09-.07,1.78s0,1.42,0,1.95a6.32,6.32,0,0,0,.22,1.4,3.37,3.37,0,0,0,.56,1.1,7,7,0,0,0,1,1,5.74,5.74,0,0,0-1,1,3.45,3.45,0,0,0-.56,1.19,8.16,8.16,0,0,0-.22,1.67q0,1,0,2.43c0,.8,0,1.45,0,2s.09,1,.16,1.35a4.26,4.26,0,0,0,.31,1,8.29,8.29,0,0,0,.48.83,5.42,5.42,0,0,0,8.93,0,6.87,6.87,0,0,0,.49-.83,4.26,4.26,0,0,0,.31-1c.07-.39.12-.84.16-1.35s0-1.17,0-2c0-1,0-1.77,0-2.43a7.58,7.58,0,0,0-.21-1.67,3.45,3.45,0,0,0-.56-1.19,5.74,5.74,0,0,0-1-1A7,7,0,0,0,54.94,11.86Zm-2.86,9.23a1.71,1.71,0,0,1-.54,1.28,1.79,1.79,0,0,1-2.52,0,1.71,1.71,0,0,1-.54-1.28v-5A1.72,1.72,0,0,1,49,14.77a1.79,1.79,0,0,1,2.52,0,1.72,1.72,0,0,1,.54,1.28Zm0-11.37A1.69,1.69,0,0,1,51.54,11,1.76,1.76,0,0,1,49,11a1.69,1.69,0,0,1-.54-1.27V6A1.72,1.72,0,0,1,49,4.69a1.79,1.79,0,0,1,2.52,0A1.72,1.72,0,0,1,52.08,6Z"/><rect class="cls-1" x="60.1" y="22.68" width="3.67" height="3.67"/><path class="cls-1" d="M69.84,25.09a5.3,5.3,0,0,0,1.75,1.1,6,6,0,0,0,4.14,0,5.25,5.25,0,0,0,1.74-1.1,5.34,5.34,0,0,0,1.21-1.73,5.59,5.59,0,0,0,.45-2.3V6a5.63,5.63,0,0,0-.45-2.31A5.3,5.3,0,0,0,77.47,2,5.1,5.1,0,0,0,75.73.88a5.83,5.83,0,0,0-4.14,0A5.14,5.14,0,0,0,69.84,2,5.45,5.45,0,0,0,68.63,3.7,5.63,5.63,0,0,0,68.19,6V21.06a5.59,5.59,0,0,0,.44,2.3A5.5,5.5,0,0,0,69.84,25.09ZM71.86,6a1.81,1.81,0,0,1,.5-1.32,1.76,1.76,0,0,1,1.3-.52A1.74,1.74,0,0,1,75,4.69,1.82,1.82,0,0,1,75.46,6V21.06A1.81,1.81,0,0,1,75,22.37a1.7,1.7,0,0,1-1.29.52,1.73,1.73,0,0,1-1.3-.52,1.8,1.8,0,0,1-.5-1.31Z"/><path class="cls-1" d="M93.53,24.08a6.48,6.48,0,0,0,.42-.83,6.53,6.53,0,0,0,.27-1c0-.36.08-.81.1-1.35s0-1.23,0-2.07c0-1,0-1.84,0-2.5s-.06-1.21-.1-1.64a6.25,6.25,0,0,0-.26-1,3.68,3.68,0,0,0-.39-.8,3.63,3.63,0,0,0-1.3-1.18,3.51,3.51,0,0,0-1.8-.47,4.39,4.39,0,0,0-1,.09,1.57,1.57,0,0,0-.56.23l-.07-.07L93,.72H88.92L84.1,13.6c-.12.34-.23.66-.32,1a5.55,5.55,0,0,0-.22,1c0,.38-.08.83-.11,1.35s0,1.17,0,2,0,1.53,0,2.07a8.77,8.77,0,0,0,.15,1.35,3.46,3.46,0,0,0,.23,1,4.89,4.89,0,0,0,.45.83,5.29,5.29,0,0,0,1.91,1.82,5.45,5.45,0,0,0,2.7.66,5.69,5.69,0,0,0,2.72-.64A5.06,5.06,0,0,0,93.53,24.08Zm-2.84-3a1.74,1.74,0,0,1-.54,1.33,1.84,1.84,0,0,1-2.52,0,1.74,1.74,0,0,1-.54-1.33V16.3A1.74,1.74,0,0,1,87.63,15a1.84,1.84,0,0,1,2.52,0,1.74,1.74,0,0,1,.54,1.33Z"/><rect class="cls-1" x="98.71" y="22.68" width="3.67" height="3.67"/><path class="cls-1" d="M114.34,26.19a5.25,5.25,0,0,0,1.74-1.1,5.34,5.34,0,0,0,1.21-1.73,5.59,5.59,0,0,0,.45-2.3V6a5.63,5.63,0,0,0-.45-2.31A5.3,5.3,0,0,0,116.08,2a5.1,5.1,0,0,0-1.74-1.1,5.83,5.83,0,0,0-4.14,0A5.14,5.14,0,0,0,108.45,2a5.45,5.45,0,0,0-1.21,1.72A5.63,5.63,0,0,0,106.79,6V21.06a5.59,5.59,0,0,0,.45,2.3,5.5,5.5,0,0,0,1.21,1.73,5.3,5.3,0,0,0,1.75,1.1,6,6,0,0,0,4.14,0Zm-3.87-5.13V6a1.81,1.81,0,0,1,.5-1.32,1.76,1.76,0,0,1,1.3-.52,1.74,1.74,0,0,1,1.29.52A1.82,1.82,0,0,1,114.07,6V21.06a1.81,1.81,0,0,1-.51,1.31,1.7,1.7,0,0,1-1.29.52,1.73,1.73,0,0,1-1.3-.52A1.8,1.8,0,0,1,110.47,21.06Z"/><path class="cls-1" d="M132.43,10.87a5.25,5.25,0,0,0,.36-1.15,9.32,9.32,0,0,0,.14-1.21c0-.42,0-.94,0-1.57a9.16,9.16,0,0,0-.31-2.44,6.18,6.18,0,0,0-.95-2.06A5,5,0,0,0,130,1,5.36,5.36,0,0,0,127.53.5a5.26,5.26,0,0,0-2.16.45,5.19,5.19,0,0,0-1.72,1.21,5.47,5.47,0,0,0-1.19,1.76A5.38,5.38,0,0,0,122,6.08v2h3.67V6a1.83,1.83,0,0,1,.48-1.37,1.84,1.84,0,0,1,1.32-.47,1.72,1.72,0,0,1,1,.27,1.67,1.67,0,0,1,.54.67,2.35,2.35,0,0,1,.2.92c0,.34,0,.67,0,1,0,.69,0,1.27-.07,1.74a4.71,4.71,0,0,1-.58,1.64L122,22.89v3.46H133V22.68h-6.62l5.4-10.41C132,11.72,132.26,11.25,132.43,10.87Z"/><rect class="cls-1" x="136.64" y="14.54" width="10.84" height="3.67"/><path class="cls-1" d="M159.52,26.19a5.25,5.25,0,0,0,1.74-1.1,5.34,5.34,0,0,0,1.21-1.73,5.59,5.59,0,0,0,.45-2.3V6a5.63,5.63,0,0,0-.45-2.31A5.3,5.3,0,0,0,161.26,2a5.1,5.1,0,0,0-1.74-1.1,5.83,5.83,0,0,0-4.14,0A5.24,5.24,0,0,0,153.63,2a5.43,5.43,0,0,0-1.2,1.72A5.63,5.63,0,0,0,152,6V21.06a5.59,5.59,0,0,0,.45,2.3,5.47,5.47,0,0,0,1.2,1.73,5.4,5.4,0,0,0,1.75,1.1,6,6,0,0,0,4.14,0Zm-3.87-5.13V6a1.85,1.85,0,0,1,.5-1.32,1.89,1.89,0,0,1,2.6,0,1.85,1.85,0,0,1,.5,1.32V21.06a1.84,1.84,0,0,1-.5,1.31,1.88,1.88,0,0,1-2.6,0A1.84,1.84,0,0,1,155.65,21.06Z"/><path class="cls-1" d="M170,25.9a5.45,5.45,0,0,0,2.7.66,5.69,5.69,0,0,0,2.72-.64,5.06,5.06,0,0,0,1.92-1.84,6.48,6.48,0,0,0,.42-.83,4.76,4.76,0,0,0,.27-1c.05-.36.08-.81.11-1.35s0-1.23,0-2.07c0-1,0-1.84,0-2.5s-.06-1.21-.11-1.64a6.37,6.37,0,0,0-.25-1,4.27,4.27,0,0,0-.4-.8,3.55,3.55,0,0,0-1.3-1.18,3.51,3.51,0,0,0-1.8-.47,4.52,4.52,0,0,0-1,.09,1.51,1.51,0,0,0-.55.23l-.08-.07L176.82.72h-4.1L167.89,13.6c-.12.34-.23.66-.32,1a5.55,5.55,0,0,0-.22,1c0,.38-.08.83-.11,1.35s0,1.17,0,2,0,1.53,0,2.07a10.23,10.23,0,0,0,.15,1.35,3.84,3.84,0,0,0,.23,1,4.89,4.89,0,0,0,.45.83A5.29,5.29,0,0,0,170,25.9Zm.9-9.6a1.74,1.74,0,0,1,.54-1.33,1.84,1.84,0,0,1,2.52,0,1.74,1.74,0,0,1,.54,1.33v4.76a1.74,1.74,0,0,1-.54,1.33,1.84,1.84,0,0,1-2.52,0,1.74,1.74,0,0,1-.54-1.33Z"/><rect class="cls-1" x="182.5" y="22.68" width="3.67" height="3.67"/><path class="cls-1" d="M199.87,2a5.1,5.1,0,0,0-1.74-1.1,5.83,5.83,0,0,0-4.14,0,5.23,5.23,0,0,0-3,2.82A5.63,5.63,0,0,0,190.58,6V21.06a5.59,5.59,0,0,0,.46,2.3,5.31,5.31,0,0,0,1.2,1.73,5.4,5.4,0,0,0,1.75,1.1,6,6,0,0,0,4.14,0,5.25,5.25,0,0,0,1.74-1.1,5.34,5.34,0,0,0,1.21-1.73,5.59,5.59,0,0,0,.45-2.3V6a5.63,5.63,0,0,0-.45-2.31A5.3,5.3,0,0,0,199.87,2Zm-2,19.08a1.81,1.81,0,0,1-.51,1.31,1.7,1.7,0,0,1-1.29.52,1.73,1.73,0,0,1-1.3-.52,1.8,1.8,0,0,1-.5-1.31V6a1.81,1.81,0,0,1,.5-1.32,1.76,1.76,0,0,1,1.3-.52,1.74,1.74,0,0,1,1.29.52A1.82,1.82,0,0,1,197.86,6Z"/><path class="cls-1" d="M216.44,11.26a4.73,4.73,0,0,0,.27-1.36c0-.56,0-1.28,0-2.16a14.71,14.71,0,0,0-.32-3.53,4.25,4.25,0,0,0-.45-1,8.91,8.91,0,0,0-.63-.86,5.92,5.92,0,0,0-1.5-1.21,4.84,4.84,0,0,0-2.5-.59,5.38,5.38,0,0,0-2.16.43,5.89,5.89,0,0,0-1.76,1.15,5.14,5.14,0,0,0-1.19,1.73,5.3,5.3,0,0,0-.43,2.13V8.06h3.67V6a2.19,2.19,0,0,1,.41-1.19,1.58,1.58,0,0,1,1.39-.61,1.72,1.72,0,0,1,1.31.51A1.74,1.74,0,0,1,213.09,6V9.28c0,1-.21,1.58-.63,1.84a4.68,4.68,0,0,1-2.29.4v3.24a11.54,11.54,0,0,1,1.46.07,1.61,1.61,0,0,1,.88.36,2.5,2.5,0,0,1,.58,2v3.67a2.16,2.16,0,0,1-.49,1.49,1.62,1.62,0,0,1-1.31.56,1.65,1.65,0,0,1-1.32-.56,2.09,2.09,0,0,1-.48-1.42V19h-3.67v2.09a5.67,5.67,0,0,0,.52,2.56,5.11,5.11,0,0,0,1.31,1.69,5.21,5.21,0,0,0,1.77.94,6.47,6.47,0,0,0,1.83.28A5.24,5.24,0,0,0,214,25.9a5.94,5.94,0,0,0,2.22-2.5,4.26,4.26,0,0,0,.28-1,9.81,9.81,0,0,0,.17-1.36c0-.56,0-1.25,0-2.09s0-1.66,0-2.25a5.21,5.21,0,0,0-.25-1.53,2.87,2.87,0,0,0-.66-1.08,7,7,0,0,0-1.32-1,8.35,8.35,0,0,0,1.24-.86A2.81,2.81,0,0,0,216.44,11.26Z"/><path class="cls-1" d="M1,52.84V35.75H3.45v7.8h0l3.57-7.8H9.52L6.18,42.59l4,10.25H7.55L4.77,45.25,3.45,47.73v5.11Z"/><path class="cls-1" d="M17.16,52.84V51.59h0a4.65,4.65,0,0,1-1,1,2.27,2.27,0,0,1-1.38.36,3,3,0,0,1-.87-.13,2.41,2.41,0,0,1-1.51-1.46,4.53,4.53,0,0,1-.26-1.65,8.77,8.77,0,0,1,.17-1.81,2.82,2.82,0,0,1,.63-1.31,2.55,2.55,0,0,1,1.17-.75,6,6,0,0,1,1.9-.26h.26a1.12,1.12,0,0,1,.27,0l.28,0,.36,0V44.41a1.83,1.83,0,0,0-.26-1,1.07,1.07,0,0,0-1-.41,1.4,1.4,0,0,0-.88.32,1.47,1.47,0,0,0-.51.91H12.17a3.9,3.9,0,0,1,1.11-2.64,3.55,3.55,0,0,1,1.15-.76,4,4,0,0,1,1.51-.27,4.27,4.27,0,0,1,1.44.24,3.32,3.32,0,0,1,1.18.72,3.47,3.47,0,0,1,.76,1.2,4.35,4.35,0,0,1,.29,1.68v8.47Zm0-5.23a3.86,3.86,0,0,0-.67-.08,2.36,2.36,0,0,0-1.35.38,1.48,1.48,0,0,0-.57,1.35,1.75,1.75,0,0,0,.34,1.13,1.1,1.1,0,0,0,.93.43,1.21,1.21,0,0,0,1-.41,1.72,1.72,0,0,0,.34-1.15Z"/><path class="cls-1" d="M22.52,52.84V40.67H25v1.18H25a3.34,3.34,0,0,1,.92-1,2.37,2.37,0,0,1,1.38-.37,2.85,2.85,0,0,1,.91.15,2.16,2.16,0,0,1,.82.52,2.73,2.73,0,0,1,.58.92,4,4,0,0,1,.21,1.38v9.34H27.39V44.41a1.6,1.6,0,0,0-.31-1,1.06,1.06,0,0,0-.89-.39,1,1,0,0,0-1,.44A2.44,2.44,0,0,0,25,44.65v8.19Z"/><path class="cls-1" d="M37.41,44.08a1.23,1.23,0,0,0-.4-.94,1.31,1.31,0,0,0-.85-.31,1.1,1.1,0,0,0-.89.37,1.33,1.33,0,0,0-.31.85,1.41,1.41,0,0,0,.17.66,1.51,1.51,0,0,0,.86.59l1.44.58a3.48,3.48,0,0,1,1.89,1.44,4,4,0,0,1,.51,2,3.75,3.75,0,0,1-.27,1.43,3.82,3.82,0,0,1-.76,1.16,3.33,3.33,0,0,1-1.15.79,3.6,3.6,0,0,1-4.78-1.78,4.14,4.14,0,0,1-.33-1.6h2.3a2.43,2.43,0,0,0,.35.94,1.08,1.08,0,0,0,1,.43,1.47,1.47,0,0,0,1-.35,1.19,1.19,0,0,0,.42-1,1.47,1.47,0,0,0-.26-.87,2.15,2.15,0,0,0-1-.62l-1.18-.43a4,4,0,0,1-1.81-1.29,3.27,3.27,0,0,1-.66-2.07A3.42,3.42,0,0,1,33,42.65a3.38,3.38,0,0,1,.79-1.14,3.19,3.19,0,0,1,1.13-.73,3.73,3.73,0,0,1,1.39-.25,3.53,3.53,0,0,1,1.38.26,3.19,3.19,0,0,1,1.09.74,3.81,3.81,0,0,1,.72,1.14,3.68,3.68,0,0,1,.26,1.41Z"/><path class="cls-1" d="M47.37,52.84V51.59h0a4.41,4.41,0,0,1-1,1A2.31,2.31,0,0,1,45,53a3,3,0,0,1-.88-.13,2.31,2.31,0,0,1-.85-.49,2.45,2.45,0,0,1-.66-1,4.55,4.55,0,0,1-.25-1.65,8.13,8.13,0,0,1,.17-1.81,2.91,2.91,0,0,1,.62-1.31,2.59,2.59,0,0,1,1.18-.75,5.85,5.85,0,0,1,1.89-.26h.27a1.09,1.09,0,0,1,.26,0l.29,0,.36,0V44.41a1.84,1.84,0,0,0-.27-1,1,1,0,0,0-1-.41,1.36,1.36,0,0,0-.87.32,1.43,1.43,0,0,0-.52.91H42.38a3.89,3.89,0,0,1,1.1-2.64,3.55,3.55,0,0,1,1.15-.76,4,4,0,0,1,1.51-.27,4.18,4.18,0,0,1,1.44.24,3.32,3.32,0,0,1,1.18.72,3.49,3.49,0,0,1,.77,1.2,4.54,4.54,0,0,1,.29,1.68v8.47Zm0-5.23a4,4,0,0,0-.67-.08,2.41,2.41,0,0,0-1.36.38,1.48,1.48,0,0,0-.56,1.35,1.81,1.81,0,0,0,.33,1.13,1.13,1.13,0,0,0,.94.43,1.19,1.19,0,0,0,1-.41,1.72,1.72,0,0,0,.35-1.15Z"/><path class="cls-1" d="M52.73,38.2V35.75h2.44V38.2Zm0,14.64V40.67h2.44V52.84Z"/><path class="cls-1" d="M72.12,35.75V49A3.83,3.83,0,0,1,71,51.81a4.13,4.13,0,0,1-1.27.86,3.77,3.77,0,0,1-1.53.31,3.7,3.7,0,0,1-1.53-.31,4.34,4.34,0,0,1-1.26-.86,4.15,4.15,0,0,1-.86-1.26A3.8,3.8,0,0,1,64.2,49V35.75h2.44v13a1.82,1.82,0,0,0,.44,1.34,1.45,1.45,0,0,0,1.08.43,1.46,1.46,0,0,0,1.08-.43,1.81,1.81,0,0,0,.43-1.34v-13Z"/><path class="cls-1" d="M75.3,52.84V40.67h2.45v1.18h0a3.51,3.51,0,0,1,.93-1,2.37,2.37,0,0,1,1.38-.37,2.89,2.89,0,0,1,.91.15,2.33,2.33,0,0,1,.82.52,2.57,2.57,0,0,1,.57.92,4,4,0,0,1,.22,1.38v9.34H80.17V44.41a1.66,1.66,0,0,0-.31-1A1.08,1.08,0,0,0,79,43a1,1,0,0,0-1,.44,2.34,2.34,0,0,0-.26,1.24v8.19Z"/><path class="cls-1" d="M85.63,38.2V35.75h2.45V38.2Zm0,14.64V40.67h2.45V52.84Z"/><path class="cls-1" d="M99,40.67,95.82,52.84H93.66L90.5,40.67h2.59l1.63,7.78h0l1.63-7.78Z"/><path class="cls-1" d="M108.26,47.68h-4.85v1.65a1.2,1.2,0,0,0,.32.89,1.21,1.21,0,0,0,.88.31,1,1,0,0,0,.92-.4,2.22,2.22,0,0,0,.28-.82h2.45a3.48,3.48,0,0,1-1,2.59,3.33,3.33,0,0,1-1.15.79,3.67,3.67,0,0,1-1.51.29,3.77,3.77,0,0,1-2-.48,3.26,3.26,0,0,1-1.23-1.27,3.17,3.17,0,0,1-.36-1.1,8.4,8.4,0,0,1-.1-1.37v-4a8.32,8.32,0,0,1,.1-1.37,3.17,3.17,0,0,1,.36-1.1A3.26,3.26,0,0,1,102.65,41a3.77,3.77,0,0,1,2-.48,3.88,3.88,0,0,1,1.52.28,3.48,3.48,0,0,1,1.17.8,3.92,3.92,0,0,1,1,2.71Zm-4.85-1.92h2.4V44.37a1.47,1.47,0,0,0-.33-1,1.12,1.12,0,0,0-.87-.35,1.16,1.16,0,0,0-.88.35,1.52,1.52,0,0,0-.32,1Z"/><path class="cls-1" d="M111.1,52.84V40.67h2.45V42A7.35,7.35,0,0,1,115,40.91a3.69,3.69,0,0,1,1.78-.38v2.59A1.93,1.93,0,0,0,116,43a2.82,2.82,0,0,0-.82.14,2,2,0,0,0-.81.44,2.37,2.37,0,0,0-.62.82,2.86,2.86,0,0,0-.24,1.24v7.23Z"/><path class="cls-1" d="M123.77,44.08a1.19,1.19,0,0,0-.39-.94,1.33,1.33,0,0,0-.85-.31,1.09,1.09,0,0,0-.89.37,1.27,1.27,0,0,0-.31.85,1.4,1.4,0,0,0,.16.66,1.54,1.54,0,0,0,.87.59l1.44.58a3.46,3.46,0,0,1,1.88,1.44,3.92,3.92,0,0,1,.52,2,3.58,3.58,0,0,1-.28,1.43,3.62,3.62,0,0,1-.75,1.16,3.37,3.37,0,0,1-1.16.79,3.49,3.49,0,0,1-1.46.29,3.57,3.57,0,0,1-2.5-.93,3.68,3.68,0,0,1-.81-1.14,4.14,4.14,0,0,1-.34-1.6h2.31a2.27,2.27,0,0,0,.34.94,1.09,1.09,0,0,0,1,.43,1.44,1.44,0,0,0,.94-.35,1.19,1.19,0,0,0,.42-1,1.4,1.4,0,0,0-.26-.87,2.15,2.15,0,0,0-1-.62l-1.18-.43a4.05,4.05,0,0,1-1.81-1.29,3.27,3.27,0,0,1-.66-2.07,3.58,3.58,0,0,1,.29-1.43,3.53,3.53,0,0,1,.79-1.14,3.28,3.28,0,0,1,1.13-.73,3.77,3.77,0,0,1,1.39-.25,3.46,3.46,0,0,1,1.38.26,3.1,3.1,0,0,1,1.09.74,3.45,3.45,0,0,1,.72,1.14,3.69,3.69,0,0,1,.27,1.41Z"/><path class="cls-1" d="M128.89,38.2V35.75h2.45V38.2Zm0,14.64V40.67h2.45V52.84Z"/><path class="cls-1" d="M134.88,40.67V37h2.45v3.7h1.51v1.92h-1.51v6.74a2,2,0,0,0,.09.68.62.62,0,0,0,.27.36,1.13,1.13,0,0,0,.47.14,6.75,6.75,0,0,0,.68,0v2.31h-1a3.28,3.28,0,0,1-1.41-.27,2.59,2.59,0,0,1-.9-.67A2.63,2.63,0,0,1,135,51a3.65,3.65,0,0,1-.16-1V42.59h-1.22V40.67Z"/><path class="cls-1" d="M140.73,40.67h2.59L145,48.25h.05l1.65-7.58h2.52L145.72,55a4.26,4.26,0,0,1-.54,1.34,3.36,3.36,0,0,1-.8.87,3,3,0,0,1-1,.47,4.68,4.68,0,0,1-1.07.13h-.67V55.45h.55a2,2,0,0,0,.63-.09,1.12,1.12,0,0,0,.48-.43,4.13,4.13,0,0,0,.36-1c.11-.41.24-1,.38-1.69Z"/><path class="cls-1" d="M165.13,35.75V49A3.88,3.88,0,0,1,164,51.81a4.25,4.25,0,0,1-1.27.86,3.78,3.78,0,0,1-1.54.31,3.69,3.69,0,0,1-1.52-.31,4.34,4.34,0,0,1-1.26-.86,4,4,0,0,1-.86-1.26,3.8,3.8,0,0,1-.32-1.55V35.75h2.45v13a1.86,1.86,0,0,0,.43,1.34,1.46,1.46,0,0,0,1.08.43,1.43,1.43,0,0,0,1.08-.43,1.82,1.82,0,0,0,.44-1.34v-13Z"/><path class="cls-1" d="M168.31,52.84V40.67h2.45v1.18h.05a3.63,3.63,0,0,1,.92-1,2.37,2.37,0,0,1,1.38-.37,2.15,2.15,0,0,1,1.32.38,4.11,4.11,0,0,1,.87.84,4.85,4.85,0,0,1,1-.86,2.77,2.77,0,0,1,1.53-.36,3.13,3.13,0,0,1,.94.15,2.31,2.31,0,0,1,.86.52,2.68,2.68,0,0,1,.63.92,3.55,3.55,0,0,1,.24,1.38v9.34h-2.45V44.41a1.66,1.66,0,0,0-.31-1,1.08,1.08,0,0,0-.89-.39,1,1,0,0,0-1,.44,2.33,2.33,0,0,0-.27,1.24v8.19h-2.44V44.41a1.66,1.66,0,0,0-.31-1A1.08,1.08,0,0,0,172,43a1,1,0,0,0-1,.44,2.33,2.33,0,0,0-.27,1.24v8.19Z"/><path class="cls-1" d="M190.65,47.68H185.8v1.65a1.2,1.2,0,0,0,.32.89,1.21,1.21,0,0,0,.88.31,1,1,0,0,0,.92-.4,2.22,2.22,0,0,0,.28-.82h2.45a3.48,3.48,0,0,1-1,2.59,3.33,3.33,0,0,1-1.15.79A3.67,3.67,0,0,1,187,53a3.77,3.77,0,0,1-2-.48,3.26,3.26,0,0,1-1.23-1.27,3.17,3.17,0,0,1-.36-1.1,8.4,8.4,0,0,1-.1-1.37v-4a8.32,8.32,0,0,1,.1-1.37,3.17,3.17,0,0,1,.36-1.1A3.26,3.26,0,0,1,185,41a3.77,3.77,0,0,1,2-.48,3.88,3.88,0,0,1,1.52.28,3.48,3.48,0,0,1,1.17.8,3.92,3.92,0,0,1,1,2.71Zm-4.85-1.92h2.4V44.37a1.52,1.52,0,0,0-.32-1,1.28,1.28,0,0,0-1.76,0,1.52,1.52,0,0,0-.32,1Z"/><path class="cls-1" d="M198.32,52.84V51.73l-.46.5a2.28,2.28,0,0,1-.48.39,2.37,2.37,0,0,1-.6.27A3.07,3.07,0,0,1,196,53a2.2,2.2,0,0,1-2.14-1.15,3.54,3.54,0,0,1-.31-1,11.3,11.3,0,0,1-.09-1.61V44.58a18.17,18.17,0,0,1,.07-1.94,2.3,2.3,0,0,1,1.13-1.8,2.4,2.4,0,0,1,1.36-.31,2.52,2.52,0,0,1,1.29.32,3,3,0,0,1,1,.92h0v-6h2.45V52.84Zm-2.43-4a2.27,2.27,0,0,0,.29,1.2,1,1,0,0,0,.91.45,1.08,1.08,0,0,0,.89-.42,1.65,1.65,0,0,0,.34-1.09V44.29a1.32,1.32,0,0,0-.35-.94,1.14,1.14,0,0,0-.88-.38,1,1,0,0,0-.94.44,1.91,1.91,0,0,0-.26,1Z"/><path class="cls-1" d="M208.51,52.84V51.59h0a4.44,4.44,0,0,1-1,1,2.27,2.27,0,0,1-1.38.36,3,3,0,0,1-.87-.13,2.41,2.41,0,0,1-1.51-1.46,4.53,4.53,0,0,1-.26-1.65,8.77,8.77,0,0,1,.17-1.81,2.82,2.82,0,0,1,.63-1.31,2.55,2.55,0,0,1,1.17-.75,6,6,0,0,1,1.9-.26h.26a1.12,1.12,0,0,1,.27,0l.28,0,.36,0V44.41a1.83,1.83,0,0,0-.26-1,1.07,1.07,0,0,0-1-.41,1.4,1.4,0,0,0-.88.32,1.47,1.47,0,0,0-.51.91h-2.38a3.9,3.9,0,0,1,1.11-2.64,3.55,3.55,0,0,1,1.15-.76,4,4,0,0,1,1.51-.27,4.27,4.27,0,0,1,1.44.24,3.32,3.32,0,0,1,1.18.72,3.47,3.47,0,0,1,.76,1.2,4.35,4.35,0,0,1,.29,1.68v8.47Zm0-5.23a3.86,3.86,0,0,0-.67-.08,2.36,2.36,0,0,0-1.35.38,1.48,1.48,0,0,0-.57,1.35,1.75,1.75,0,0,0,.34,1.13,1.1,1.1,0,0,0,.93.43,1.21,1.21,0,0,0,1-.41,1.72,1.72,0,0,0,.34-1.15Z"/><path class="cls-1" d="M227.55,48V49a3.79,3.79,0,0,1-.3,1.5,4.24,4.24,0,0,1-.83,1.26,4.05,4.05,0,0,1-1.24.88,3.7,3.7,0,0,1-1.52.32,5.39,5.39,0,0,1-1.42-.19,3.32,3.32,0,0,1-1.29-.67,3.63,3.63,0,0,1-.95-1.24,4.34,4.34,0,0,1-.37-1.93V39.54a4.2,4.2,0,0,1,.28-1.56,3.93,3.93,0,0,1,.82-1.25,3.76,3.76,0,0,1,1.26-.82,4.25,4.25,0,0,1,1.62-.3,3.72,3.72,0,0,1,2.81,1.12,4.12,4.12,0,0,1,.83,1.31,4.44,4.44,0,0,1,.3,1.65v1H225.1v-.82a2,2,0,0,0-.41-1.25,1.32,1.32,0,0,0-1.1-.53,1.25,1.25,0,0,0-1.22.57,3,3,0,0,0-.3,1.43v8.73A2.24,2.24,0,0,0,222.4,50a1.25,1.25,0,0,0,1.16.5,1.69,1.69,0,0,0,.52-.08,1.6,1.6,0,0,0,.51-.28,1.27,1.27,0,0,0,.36-.52,2.1,2.1,0,0,0,.15-.84V48Z"/><path class="cls-1" d="M235.32,52.84V51.59h0a4.41,4.41,0,0,1-1,1,2.31,2.31,0,0,1-1.38.36,3,3,0,0,1-.88-.13,2.31,2.31,0,0,1-.85-.49,2.45,2.45,0,0,1-.66-1,4.55,4.55,0,0,1-.25-1.65,8.13,8.13,0,0,1,.17-1.81,2.91,2.91,0,0,1,.62-1.31,2.59,2.59,0,0,1,1.18-.75,5.9,5.9,0,0,1,1.89-.26h.27a1.09,1.09,0,0,1,.26,0l.29,0,.36,0V44.41a1.84,1.84,0,0,0-.27-1,1,1,0,0,0-1-.41,1.36,1.36,0,0,0-.87.32,1.48,1.48,0,0,0-.52.91h-2.37a3.89,3.89,0,0,1,1.1-2.64,3.55,3.55,0,0,1,1.15-.76,4,4,0,0,1,1.51-.27,4.28,4.28,0,0,1,1.45.24,3.28,3.28,0,0,1,1.17.72,3.49,3.49,0,0,1,.77,1.2,4.54,4.54,0,0,1,.29,1.68v8.47Zm0-5.23a4,4,0,0,0-.67-.08,2.41,2.41,0,0,0-1.36.38,1.5,1.5,0,0,0-.56,1.35,1.81,1.81,0,0,0,.33,1.13,1.13,1.13,0,0,0,.94.43,1.17,1.17,0,0,0,1-.41,1.72,1.72,0,0,0,.35-1.15Z"/><path class="cls-1" d="M240.68,52.84V40.67h2.45v1.18h0a3.51,3.51,0,0,1,.93-1,2.37,2.37,0,0,1,1.38-.37,2.15,2.15,0,0,1,1.32.38,4,4,0,0,1,.86.84,5.12,5.12,0,0,1,1-.86,2.81,2.81,0,0,1,1.54-.36,3.11,3.11,0,0,1,.93.15,2.43,2.43,0,0,1,.87.52,2.81,2.81,0,0,1,.62.92,3.55,3.55,0,0,1,.24,1.38v9.34h-2.45V44.41a1.6,1.6,0,0,0-.31-1,1.07,1.07,0,0,0-.89-.39,1,1,0,0,0-1,.44,2.44,2.44,0,0,0-.26,1.24v8.19h-2.45V44.41a1.6,1.6,0,0,0-.31-1,1.08,1.08,0,0,0-.89-.39,1,1,0,0,0-1,.44,2.34,2.34,0,0,0-.26,1.24v8.19Z"/><path class="cls-1" d="M255.89,57.76V40.67h2.45v1.1a6.35,6.35,0,0,1,.94-.88,2.28,2.28,0,0,1,1.39-.36,2.23,2.23,0,0,1,2.14,1.15,3.54,3.54,0,0,1,.31,1,11.24,11.24,0,0,1,.09,1.6v4.64a17.93,17.93,0,0,1-.07,1.94,2.31,2.31,0,0,1-1.1,1.8,2.56,2.56,0,0,1-1.39.31,2.62,2.62,0,0,1-1.29-.32,3.06,3.06,0,0,1-1-.93h-.05v6Zm4.88-13.13a2.22,2.22,0,0,0-.29-1.2,1,1,0,0,0-.91-.46,1.08,1.08,0,0,0-.89.42,1.68,1.68,0,0,0-.34,1.1v4.72a1.34,1.34,0,0,0,.35.95,1.13,1.13,0,0,0,.88.37,1,1,0,0,0,.94-.43,2,2,0,0,0,.26-1Z"/><path class="cls-1" d="M273.53,40.67V52.84h-2.45V51.66h0a3.51,3.51,0,0,1-.93,1,2.37,2.37,0,0,1-1.38.37,2.89,2.89,0,0,1-.91-.15,2.16,2.16,0,0,1-.82-.52,2.57,2.57,0,0,1-.57-.92,3.77,3.77,0,0,1-.22-1.38V40.67h2.45v8.42a1.61,1.61,0,0,0,.31,1.06,1.08,1.08,0,0,0,.89.38,1,1,0,0,0,1-.43,2.38,2.38,0,0,0,.26-1.25V40.67Z"/><path class="cls-1" d="M281.1,44.08a1.23,1.23,0,0,0-.4-.94,1.33,1.33,0,0,0-.85-.31,1.1,1.1,0,0,0-.89.37,1.27,1.27,0,0,0-.31.85,1.41,1.41,0,0,0,.17.66,1.51,1.51,0,0,0,.86.59l1.44.58A3.52,3.52,0,0,1,283,47.32a4,4,0,0,1,.51,2,3.75,3.75,0,0,1-.27,1.43,3.82,3.82,0,0,1-.76,1.16,3.33,3.33,0,0,1-1.15.79,3.57,3.57,0,0,1-1.47.29,3.51,3.51,0,0,1-3.31-2.07,4,4,0,0,1-.33-1.6h2.3a2.28,2.28,0,0,0,.35.94,1.08,1.08,0,0,0,1,.43,1.47,1.47,0,0,0,.95-.35,1.19,1.19,0,0,0,.42-1,1.41,1.41,0,0,0-.27-.87,2,2,0,0,0-1-.62l-1.17-.43A4,4,0,0,1,277,46.15a3.27,3.27,0,0,1-.66-2.07,3.43,3.43,0,0,1,1.08-2.57,3.24,3.24,0,0,1,1.12-.73,3.82,3.82,0,0,1,1.4-.25,3.53,3.53,0,0,1,1.38.26,3.29,3.29,0,0,1,1.09.74,3.81,3.81,0,0,1,.72,1.14,3.88,3.88,0,0,1,.26,1.41Z"/><path class="cls-1" d="M1,80.84V63.75H3.45v7.8h0l3.57-7.8H9.52L6.18,70.59l4,10.25H7.55L4.77,73.25,3.45,75.73v5.11Z"/><path class="cls-1" d="M17.16,80.84V79.59h0a4.65,4.65,0,0,1-1,1,2.27,2.27,0,0,1-1.38.36,3,3,0,0,1-.87-.13,2.41,2.41,0,0,1-1.51-1.46,4.53,4.53,0,0,1-.26-1.65,8.77,8.77,0,0,1,.17-1.81,2.82,2.82,0,0,1,.63-1.31,2.55,2.55,0,0,1,1.17-.75,6,6,0,0,1,1.9-.26h.26a1.12,1.12,0,0,1,.27,0l.28,0a2.19,2.19,0,0,1,.36,0V72.41a1.83,1.83,0,0,0-.26-1,1.07,1.07,0,0,0-1-.41,1.4,1.4,0,0,0-.88.32,1.47,1.47,0,0,0-.51.91H12.17a3.9,3.9,0,0,1,1.11-2.64,3.55,3.55,0,0,1,1.15-.76,4,4,0,0,1,1.51-.27,4.27,4.27,0,0,1,1.44.24,3.32,3.32,0,0,1,1.18.72,3.47,3.47,0,0,1,.76,1.2,4.35,4.35,0,0,1,.29,1.68v8.47Zm0-5.23a3.86,3.86,0,0,0-.67-.08,2.36,2.36,0,0,0-1.35.38,1.48,1.48,0,0,0-.57,1.35,1.75,1.75,0,0,0,.34,1.13,1.1,1.1,0,0,0,.93.43,1.21,1.21,0,0,0,1-.41,1.72,1.72,0,0,0,.34-1.15Z"/><path class="cls-1" d="M22.52,80.84V68.67H25v1.18H25a3.34,3.34,0,0,1,.92-.95,2.37,2.37,0,0,1,1.38-.37,2.85,2.85,0,0,1,.91.15,2.16,2.16,0,0,1,.82.52,2.73,2.73,0,0,1,.58.92,4,4,0,0,1,.21,1.38v9.34H27.39V72.41a1.6,1.6,0,0,0-.31-1,1.06,1.06,0,0,0-.89-.39,1,1,0,0,0-1,.44A2.44,2.44,0,0,0,25,72.65v8.19Z"/><path class="cls-1" d="M37.71,80.84V79.73l-.45.5a2.93,2.93,0,0,1-.48.39,2.74,2.74,0,0,1-.6.27,3.15,3.15,0,0,1-.8.09,2.19,2.19,0,0,1-2.13-1.15,3,3,0,0,1-.31-1,9.8,9.8,0,0,1-.1-1.61V72.58a18.17,18.17,0,0,1,.07-1.94A2.32,2.32,0,0,1,34,68.84a2.42,2.42,0,0,1,1.37-.31,2.46,2.46,0,0,1,1.28.32,2.92,2.92,0,0,1,1,.92h.05v-6h2.45V80.84Zm-2.42-4a2.18,2.18,0,0,0,.29,1.2,1,1,0,0,0,.91.45,1.09,1.09,0,0,0,.89-.42A1.71,1.71,0,0,0,37.71,77V72.29a1.27,1.27,0,0,0-.35-.94,1.14,1.14,0,0,0-.87-.38,1,1,0,0,0-1,.44,1.9,1.9,0,0,0-.25,1Z"/><path class="cls-1" d="M47.91,80.84V79.59h0a4.63,4.63,0,0,1-1,1,2.31,2.31,0,0,1-1.38.36,3,3,0,0,1-.88-.13,2.24,2.24,0,0,1-.85-.49,2.45,2.45,0,0,1-.66-1,4.55,4.55,0,0,1-.25-1.65A8.82,8.82,0,0,1,43,75.93a2.92,2.92,0,0,1,.63-1.31,2.61,2.61,0,0,1,1.17-.75,6,6,0,0,1,1.9-.26H47a1.12,1.12,0,0,1,.27,0l.29,0,.36,0V72.41a1.84,1.84,0,0,0-.27-1,1,1,0,0,0-1-.41,1.36,1.36,0,0,0-.87.32,1.43,1.43,0,0,0-.52.91H42.92A3.89,3.89,0,0,1,44,69.56a3.55,3.55,0,0,1,1.15-.76,4,4,0,0,1,1.51-.27,4.27,4.27,0,0,1,1.44.24,3.32,3.32,0,0,1,1.18.72,3.49,3.49,0,0,1,.77,1.2,4.55,4.55,0,0,1,.28,1.68v8.47Zm0-5.23a4.07,4.07,0,0,0-.68-.08,2.38,2.38,0,0,0-1.35.38,1.48,1.48,0,0,0-.57,1.35,1.81,1.81,0,0,0,.34,1.13,1.11,1.11,0,0,0,.94.43,1.19,1.19,0,0,0,1-.41,1.72,1.72,0,0,0,.35-1.15Z"/><path class="cls-1" d="M53.26,66.2V63.75h2.45V66.2Zm0,14.64V68.67h2.45V80.84Z"/><path class="cls-1" d="M64.74,80.84V63.75h2.35l3.14,9h0l3.12-9h2.38V80.84H73.33V70.45h0l-2.42,7.34H69.63l-2.4-7.34h0V80.84Z"/><path class="cls-1" d="M86.1,75.68H81.26v1.65a1.16,1.16,0,0,0,.32.89,1.21,1.21,0,0,0,.88.31,1,1,0,0,0,.92-.4,2.42,2.42,0,0,0,.28-.82H86.1a3.48,3.48,0,0,1-1,2.59,3.33,3.33,0,0,1-1.15.79,3.67,3.67,0,0,1-1.51.29,3.77,3.77,0,0,1-2-.48,3.29,3.29,0,0,1-1.24-1.27,3.65,3.65,0,0,1-.36-1.1,9.75,9.75,0,0,1-.09-1.37v-4a9.65,9.65,0,0,1,.09-1.37,3.65,3.65,0,0,1,.36-1.1A3.29,3.29,0,0,1,80.5,69a3.77,3.77,0,0,1,2-.48,3.92,3.92,0,0,1,1.52.28,3.43,3.43,0,0,1,1.16.8,3.92,3.92,0,0,1,1,2.71Zm-4.84-1.92h2.4V72.37a1.47,1.47,0,0,0-.33-1.05,1.14,1.14,0,0,0-.87-.35,1.16,1.16,0,0,0-.88.35,1.47,1.47,0,0,0-.32,1.05Z"/><path class="cls-1" d="M94.91,80.84V63.75h3.94q4.32,0,4.32,5a6.33,6.33,0,0,1-.47,2.56A3.61,3.61,0,0,1,101.06,73l2.64,7.8h-2.6l-2.27-7.3H97.36v7.3Zm2.45-14.79v5.33h1.39a2.52,2.52,0,0,0,1-.18,1.4,1.4,0,0,0,.59-.51,2.38,2.38,0,0,0,.27-.83,9.32,9.32,0,0,0,0-2.28,2.37,2.37,0,0,0-.29-.85,1.94,1.94,0,0,0-1.73-.68Z"/><path class="cls-1" d="M106.58,80.84V63.75H109V80.84Z"/><path class="cls-1" d="M120.51,68.67h-2.45v-.55a2.54,2.54,0,0,0-.4-1.45,1.45,1.45,0,0,0-1.33-.62,1.49,1.49,0,0,0-.81.2,1.47,1.47,0,0,0-.51.48,2,2,0,0,0-.26.7,4.5,4.5,0,0,0-.07.83q0,.51,0,.84a1.76,1.76,0,0,0,.18.6,1.41,1.41,0,0,0,.42.46,4.11,4.11,0,0,0,.76.38l1.87.75a4.56,4.56,0,0,1,1.32.73,3,3,0,0,1,.79,1,4.27,4.27,0,0,1,.36,1.31,11.89,11.89,0,0,1,.1,1.67,8.4,8.4,0,0,1-.22,2,4.1,4.1,0,0,1-.69,1.57,3.54,3.54,0,0,1-1.32,1.06,4.79,4.79,0,0,1-2,.38,4.29,4.29,0,0,1-1.65-.31,4.13,4.13,0,0,1-1.32-.86,4.28,4.28,0,0,1-.88-1.29,4,4,0,0,1-.32-1.59V76h2.45v.77A2,2,0,0,0,115,78a1.55,1.55,0,0,0,1.33.54,2.2,2.2,0,0,0,1-.18,1.33,1.33,0,0,0,.54-.51A2,2,0,0,0,118,77c0-.31,0-.66,0-1a10.59,10.59,0,0,0,0-1.1,1.82,1.82,0,0,0-.19-.7,1.29,1.29,0,0,0-.44-.43,6.47,6.47,0,0,0-.74-.36l-1.75-.72A3.9,3.9,0,0,1,112.77,71a5.88,5.88,0,0,1-.54-2.67,6.48,6.48,0,0,1,.26-1.83,4.34,4.34,0,0,1,.79-1.49,3.77,3.77,0,0,1,1.29-1,4.26,4.26,0,0,1,1.86-.37,4.15,4.15,0,0,1,1.67.33,4.29,4.29,0,0,1,1.3.89,3.7,3.7,0,0,1,1.11,2.64Z"/><path class="cls-1" d="M123.55,80.84V63.75h7.29v2.3H126v5h4.22v2.3H126v5h4.84v2.45Z"/><path class="cls-2" d="M10.4,10.37a5.25,5.25,0,0,0,.36-1.15A9.3,9.3,0,0,0,10.91,8c0-.42,0-.94,0-1.57A9.6,9.6,0,0,0,10.64,4a6.19,6.19,0,0,0-1-2.06A4.83,4.83,0,0,0,8,.52,5.32,5.32,0,0,0,5.51,0,5.22,5.22,0,0,0,3.35.45,5.34,5.34,0,0,0,1.62,1.66,5.64,5.64,0,0,0,.43,3.42,5.38,5.38,0,0,0,0,5.58v2H3.67V5.51a1.79,1.79,0,0,1,.49-1.37,1.81,1.81,0,0,1,1.31-.47,1.73,1.73,0,0,1,1,.27,1.67,1.67,0,0,1,.54.67,2.35,2.35,0,0,1,.19.92c0,.34,0,.67,0,1A17.05,17.05,0,0,1,7.2,8.26,4.51,4.51,0,0,1,6.62,9.9L0,22.39v3.46H10.94V22.18H4.32l5.4-10.41C10,11.22,10.24,10.75,10.4,10.37Z"/><path class="cls-2" d="M24.52,24.59a5.66,5.66,0,0,0,1.21-1.73,5.75,5.75,0,0,0,.45-2.3v-15a5.8,5.8,0,0,0-.45-2.31,5.62,5.62,0,0,0-1.21-1.72A5.14,5.14,0,0,0,22.77.38a5.83,5.83,0,0,0-4.14,0,5.1,5.1,0,0,0-1.74,1.1A5.3,5.3,0,0,0,15.68,3.2a5.63,5.63,0,0,0-.45,2.31V20.56a5.59,5.59,0,0,0,.45,2.3,5.34,5.34,0,0,0,1.21,1.73,5.25,5.25,0,0,0,1.74,1.1,6,6,0,0,0,4.14,0A5.3,5.3,0,0,0,24.52,24.59Zm-2-4a1.84,1.84,0,0,1-.5,1.31,1.73,1.73,0,0,1-1.3.52,1.7,1.7,0,0,1-1.29-.52,1.81,1.81,0,0,1-.51-1.31v-15a1.82,1.82,0,0,1,.51-1.32,1.74,1.74,0,0,1,1.29-.52,1.76,1.76,0,0,1,1.3.52,1.85,1.85,0,0,1,.5,1.32Z"/><polygon class="cls-2" points="34.47 25.85 38.14 25.85 38.14 0.22 34.47 0.22 30.79 2.92 30.79 6.8 34.47 4.1 34.47 25.85"/><path class="cls-2" d="M53.94,11.36a3.37,3.37,0,0,0,.56-1.1,5.81,5.81,0,0,0,.21-1.4c0-.53,0-1.18,0-1.95s0-1.29,0-1.78a5.51,5.51,0,0,0-.24-1.28,5.07,5.07,0,0,0-.43-1,8.43,8.43,0,0,0-.61-.9A5,5,0,0,0,51.62.52a5.52,5.52,0,0,0-4.68,0A5,5,0,0,0,45.14,2a7,7,0,0,0-.6.9,6.74,6.74,0,0,0-.41,1,6,6,0,0,0-.25,1.28c-.05.49-.07,1.09-.07,1.78s0,1.42,0,1.95a6.32,6.32,0,0,0,.22,1.4,3.37,3.37,0,0,0,.56,1.1,7,7,0,0,0,1,1,5.74,5.74,0,0,0-1,1,3.45,3.45,0,0,0-.56,1.19,8.16,8.16,0,0,0-.22,1.67q0,1,0,2.43c0,.8,0,1.45,0,2S44,21.61,44,22a4.26,4.26,0,0,0,.31,1,8.29,8.29,0,0,0,.48.83,5.42,5.42,0,0,0,8.93,0,6.87,6.87,0,0,0,.49-.83,4.26,4.26,0,0,0,.31-1c.07-.39.12-.84.16-1.35s0-1.17,0-2c0-1,0-1.77,0-2.43a7.58,7.58,0,0,0-.21-1.67,3.45,3.45,0,0,0-.56-1.19,5.74,5.74,0,0,0-1-1A7,7,0,0,0,53.94,11.36Zm-2.86,9.23a1.71,1.71,0,0,1-.54,1.28,1.79,1.79,0,0,1-2.52,0,1.71,1.71,0,0,1-.54-1.28v-5A1.72,1.72,0,0,1,48,14.27a1.79,1.79,0,0,1,2.52,0,1.72,1.72,0,0,1,.54,1.28Zm0-11.37a1.69,1.69,0,0,1-.54,1.27,1.76,1.76,0,0,1-2.52,0,1.69,1.69,0,0,1-.54-1.27V5.47A1.72,1.72,0,0,1,48,4.19a1.79,1.79,0,0,1,2.52,0,1.72,1.72,0,0,1,.54,1.28Z"/><rect class="cls-2" x="59.1" y="22.18" width="3.67" height="3.67"/><path class="cls-2" d="M68.84,24.59a5.3,5.3,0,0,0,1.75,1.1,6,6,0,0,0,4.14,0,5.25,5.25,0,0,0,1.74-1.1,5.34,5.34,0,0,0,1.21-1.73,5.59,5.59,0,0,0,.45-2.3v-15a5.63,5.63,0,0,0-.45-2.31,5.3,5.3,0,0,0-1.21-1.72A5.1,5.1,0,0,0,74.73.38a5.83,5.83,0,0,0-4.14,0,5.14,5.14,0,0,0-1.75,1.1A5.45,5.45,0,0,0,67.63,3.2a5.63,5.63,0,0,0-.44,2.31V20.56a5.59,5.59,0,0,0,.44,2.3A5.5,5.5,0,0,0,68.84,24.59Zm2-19.08a1.81,1.81,0,0,1,.5-1.32,1.76,1.76,0,0,1,1.3-.52A1.74,1.74,0,0,1,74,4.19a1.82,1.82,0,0,1,.51,1.32V20.56A1.81,1.81,0,0,1,74,21.87a1.7,1.7,0,0,1-1.29.52,1.73,1.73,0,0,1-1.3-.52,1.8,1.8,0,0,1-.5-1.31Z"/><path class="cls-2" d="M92.53,23.58a6.48,6.48,0,0,0,.42-.83,6.53,6.53,0,0,0,.27-1c0-.36.08-.81.1-1.35s0-1.23,0-2.07c0-1,0-1.84,0-2.5s-.06-1.21-.1-1.64a6.25,6.25,0,0,0-.26-1,3.68,3.68,0,0,0-.39-.8,3.63,3.63,0,0,0-1.3-1.18,3.51,3.51,0,0,0-1.8-.47,4.39,4.39,0,0,0-1,.09,1.57,1.57,0,0,0-.56.23L87.85,11,92,.22H87.92L83.1,13.1c-.12.34-.23.66-.32,1a5.55,5.55,0,0,0-.22,1c0,.38-.08.83-.11,1.35s0,1.17,0,2,0,1.53,0,2.07a8.77,8.77,0,0,0,.15,1.35,3.46,3.46,0,0,0,.23,1,4.89,4.89,0,0,0,.45.83,5.29,5.29,0,0,0,1.91,1.82,5.45,5.45,0,0,0,2.7.66,5.69,5.69,0,0,0,2.72-.64A5.06,5.06,0,0,0,92.53,23.58Zm-2.84-3a1.74,1.74,0,0,1-.54,1.33,1.84,1.84,0,0,1-2.52,0,1.74,1.74,0,0,1-.54-1.33V15.8a1.74,1.74,0,0,1,.54-1.33,1.84,1.84,0,0,1,2.52,0,1.74,1.74,0,0,1,.54,1.33Z"/><rect class="cls-2" x="97.71" y="22.18" width="3.67" height="3.67"/><path class="cls-2" d="M113.34,25.69a5.25,5.25,0,0,0,1.74-1.1,5.34,5.34,0,0,0,1.21-1.73,5.59,5.59,0,0,0,.45-2.3v-15a5.63,5.63,0,0,0-.45-2.31,5.3,5.3,0,0,0-1.21-1.72,5.1,5.1,0,0,0-1.74-1.1,5.83,5.83,0,0,0-4.14,0,5.14,5.14,0,0,0-1.75,1.1,5.45,5.45,0,0,0-1.21,1.72,5.63,5.63,0,0,0-.45,2.31V20.56a5.59,5.59,0,0,0,.45,2.3,5.5,5.5,0,0,0,1.21,1.73,5.3,5.3,0,0,0,1.75,1.1,6,6,0,0,0,4.14,0Zm-3.87-5.13v-15a1.81,1.81,0,0,1,.5-1.32,1.76,1.76,0,0,1,1.3-.52,1.74,1.74,0,0,1,1.29.52,1.82,1.82,0,0,1,.51,1.32V20.56a1.81,1.81,0,0,1-.51,1.31,1.7,1.7,0,0,1-1.29.52,1.73,1.73,0,0,1-1.3-.52A1.8,1.8,0,0,1,109.47,20.56Z"/><path class="cls-2" d="M131.43,10.37a5.25,5.25,0,0,0,.36-1.15A9.32,9.32,0,0,0,131.93,8c0-.42,0-.94,0-1.57A9.16,9.16,0,0,0,131.66,4a6.18,6.18,0,0,0-.95-2.06A5,5,0,0,0,129,.52,5.36,5.36,0,0,0,126.53,0a5.26,5.26,0,0,0-2.16.45,5.19,5.19,0,0,0-1.72,1.21,5.47,5.47,0,0,0-1.19,1.76A5.38,5.38,0,0,0,121,5.58v2h3.67V5.51a1.83,1.83,0,0,1,.48-1.37,1.84,1.84,0,0,1,1.32-.47,1.72,1.72,0,0,1,1,.27,1.67,1.67,0,0,1,.54.67,2.35,2.35,0,0,1,.2.92c0,.34,0,.67,0,1,0,.69,0,1.27-.07,1.74a4.71,4.71,0,0,1-.58,1.64L121,22.39v3.46H132V22.18h-6.62l5.4-10.41C131,11.22,131.26,10.75,131.43,10.37Z"/><rect class="cls-2" x="135.64" y="14.04" width="10.84" height="3.67"/><path class="cls-2" d="M158.52,25.69a5.25,5.25,0,0,0,1.74-1.1,5.34,5.34,0,0,0,1.21-1.73,5.59,5.59,0,0,0,.45-2.3v-15a5.63,5.63,0,0,0-.45-2.31,5.3,5.3,0,0,0-1.21-1.72,5.1,5.1,0,0,0-1.74-1.1,5.83,5.83,0,0,0-4.14,0,5.24,5.24,0,0,0-1.75,1.1,5.43,5.43,0,0,0-1.2,1.72A5.63,5.63,0,0,0,151,5.51V20.56a5.59,5.59,0,0,0,.45,2.3,5.47,5.47,0,0,0,1.2,1.73,5.4,5.4,0,0,0,1.75,1.1,6,6,0,0,0,4.14,0Zm-3.87-5.13v-15a1.85,1.85,0,0,1,.5-1.32,1.89,1.89,0,0,1,2.6,0,1.85,1.85,0,0,1,.5,1.32V20.56a1.84,1.84,0,0,1-.5,1.31,1.88,1.88,0,0,1-2.6,0A1.84,1.84,0,0,1,154.65,20.56Z"/><path class="cls-2" d="M169,25.4a5.45,5.45,0,0,0,2.7.66,5.69,5.69,0,0,0,2.72-.64,5.06,5.06,0,0,0,1.92-1.84,6.48,6.48,0,0,0,.42-.83,4.76,4.76,0,0,0,.27-1c.05-.36.08-.81.11-1.35s0-1.23,0-2.07c0-1,0-1.84,0-2.5s-.06-1.21-.11-1.64a6.37,6.37,0,0,0-.25-1,4.27,4.27,0,0,0-.4-.8,3.55,3.55,0,0,0-1.3-1.18,3.51,3.51,0,0,0-1.8-.47,4.52,4.52,0,0,0-1,.09,1.51,1.51,0,0,0-.55.23l-.08-.07L175.82.22h-4.1L166.89,13.1c-.12.34-.23.66-.32,1a5.55,5.55,0,0,0-.22,1c0,.38-.08.83-.11,1.35s0,1.17,0,2,0,1.53,0,2.07a10.23,10.23,0,0,0,.15,1.35,3.84,3.84,0,0,0,.23,1,4.89,4.89,0,0,0,.45.83A5.29,5.29,0,0,0,169,25.4Zm.9-9.6a1.74,1.74,0,0,1,.54-1.33,1.84,1.84,0,0,1,2.52,0,1.74,1.74,0,0,1,.54,1.33v4.76a1.74,1.74,0,0,1-.54,1.33,1.84,1.84,0,0,1-2.52,0,1.74,1.74,0,0,1-.54-1.33Z"/><rect class="cls-2" x="181.5" y="22.18" width="3.67" height="3.67"/><path class="cls-2" d="M198.87,1.48a5.1,5.1,0,0,0-1.74-1.1,5.83,5.83,0,0,0-4.14,0,5.23,5.23,0,0,0-3,2.82,5.63,5.63,0,0,0-.46,2.31V20.56a5.59,5.59,0,0,0,.46,2.3,5.31,5.31,0,0,0,1.2,1.73,5.4,5.4,0,0,0,1.75,1.1,6,6,0,0,0,4.14,0,5.25,5.25,0,0,0,1.74-1.1,5.34,5.34,0,0,0,1.21-1.73,5.59,5.59,0,0,0,.45-2.3v-15a5.63,5.63,0,0,0-.45-2.31A5.3,5.3,0,0,0,198.87,1.48Zm-2,19.08a1.81,1.81,0,0,1-.51,1.31,1.7,1.7,0,0,1-1.29.52,1.73,1.73,0,0,1-1.3-.52,1.8,1.8,0,0,1-.5-1.31v-15a1.81,1.81,0,0,1,.5-1.32,1.76,1.76,0,0,1,1.3-.52,1.74,1.74,0,0,1,1.29.52,1.82,1.82,0,0,1,.51,1.32Z"/><path class="cls-2" d="M215.44,10.76a4.73,4.73,0,0,0,.27-1.36c0-.56,0-1.28,0-2.16a14.71,14.71,0,0,0-.32-3.53,4.25,4.25,0,0,0-.45-1,8.91,8.91,0,0,0-.63-.86,5.92,5.92,0,0,0-1.5-1.21,4.84,4.84,0,0,0-2.5-.59,5.38,5.38,0,0,0-2.16.43,5.89,5.89,0,0,0-1.76,1.15,5.14,5.14,0,0,0-1.19,1.73,5.3,5.3,0,0,0-.43,2.13V7.56h3.67V5.47a2.19,2.19,0,0,1,.41-1.19,1.58,1.58,0,0,1,1.39-.61,1.72,1.72,0,0,1,1.31.51,1.74,1.74,0,0,1,.49,1.29V8.78c0,1-.21,1.58-.63,1.84a4.68,4.68,0,0,1-2.29.4v3.24a11.54,11.54,0,0,1,1.46.07,1.61,1.61,0,0,1,.88.36,2.5,2.5,0,0,1,.58,2v3.67a2.16,2.16,0,0,1-.49,1.49,1.62,1.62,0,0,1-1.31.56,1.65,1.65,0,0,1-1.32-.56,2.09,2.09,0,0,1-.48-1.42V18.5h-3.67v2.09a5.67,5.67,0,0,0,.52,2.56,5.11,5.11,0,0,0,1.31,1.69,5.21,5.21,0,0,0,1.77.94,6.47,6.47,0,0,0,1.83.28A5.24,5.24,0,0,0,213,25.4a5.94,5.94,0,0,0,2.22-2.5,4.26,4.26,0,0,0,.28-1,9.81,9.81,0,0,0,.17-1.36c0-.56,0-1.25,0-2.09s0-1.66,0-2.25a5.21,5.21,0,0,0-.25-1.53,2.87,2.87,0,0,0-.66-1.08,7,7,0,0,0-1.32-1,8.35,8.35,0,0,0,1.24-.86A2.81,2.81,0,0,0,215.44,10.76Z"/><path class="cls-2" d="M0,52.34V35.25H2.45v7.8h0l3.57-7.8H8.52L5.18,42.09l4,10.25H6.55L3.77,44.75,2.45,47.23v5.11Z"/><path class="cls-2" d="M16.16,52.34V51.09h0a4.65,4.65,0,0,1-1,1,2.27,2.27,0,0,1-1.38.36,3,3,0,0,1-.87-.13,2.41,2.41,0,0,1-1.51-1.46,4.53,4.53,0,0,1-.26-1.65,8.77,8.77,0,0,1,.17-1.81,2.82,2.82,0,0,1,.63-1.31,2.55,2.55,0,0,1,1.17-.75,6,6,0,0,1,1.9-.26h.26a1.12,1.12,0,0,1,.27,0l.28,0,.36,0V43.91a1.83,1.83,0,0,0-.26-1,1.07,1.07,0,0,0-1-.41,1.4,1.4,0,0,0-.88.32,1.47,1.47,0,0,0-.51.91H11.17a3.9,3.9,0,0,1,1.11-2.64,3.55,3.55,0,0,1,1.15-.76A4,4,0,0,1,14.94,40a4.27,4.27,0,0,1,1.44.24,3.32,3.32,0,0,1,1.18.72,3.47,3.47,0,0,1,.76,1.2,4.35,4.35,0,0,1,.29,1.68v8.47Zm0-5.23a3.86,3.86,0,0,0-.67-.08,2.36,2.36,0,0,0-1.35.38,1.48,1.48,0,0,0-.57,1.35,1.75,1.75,0,0,0,.34,1.13,1.1,1.1,0,0,0,.93.43,1.21,1.21,0,0,0,1-.41,1.72,1.72,0,0,0,.34-1.15Z"/><path class="cls-2" d="M21.52,52.34V40.17H24v1.18H24a3.34,3.34,0,0,1,.92-1A2.37,2.37,0,0,1,26.32,40a2.85,2.85,0,0,1,.91.15,2.16,2.16,0,0,1,.82.52,2.73,2.73,0,0,1,.58.92A4,4,0,0,1,28.84,43v9.34H26.39V43.91a1.6,1.6,0,0,0-.31-1,1.06,1.06,0,0,0-.89-.39,1,1,0,0,0-1,.44A2.44,2.44,0,0,0,24,44.15v8.19Z"/><path class="cls-2" d="M36.41,43.58a1.23,1.23,0,0,0-.4-.94,1.31,1.31,0,0,0-.85-.31,1.1,1.1,0,0,0-.89.37,1.33,1.33,0,0,0-.31.85,1.41,1.41,0,0,0,.17.66,1.51,1.51,0,0,0,.86.59l1.44.58a3.48,3.48,0,0,1,1.89,1.44,4,4,0,0,1,.51,2,3.75,3.75,0,0,1-.27,1.43,3.82,3.82,0,0,1-.76,1.16,3.33,3.33,0,0,1-1.15.79,3.6,3.6,0,0,1-4.78-1.78,4.14,4.14,0,0,1-.33-1.6h2.3a2.43,2.43,0,0,0,.35.94,1.08,1.08,0,0,0,1,.43,1.47,1.47,0,0,0,1-.35,1.19,1.19,0,0,0,.42-1,1.47,1.47,0,0,0-.26-.87,2.15,2.15,0,0,0-1-.62l-1.18-.43a4,4,0,0,1-1.81-1.29,3.27,3.27,0,0,1-.66-2.07A3.42,3.42,0,0,1,32,42.15,3.38,3.38,0,0,1,32.74,41a3.19,3.19,0,0,1,1.13-.73A3.73,3.73,0,0,1,35.26,40a3.53,3.53,0,0,1,1.38.26,3.19,3.19,0,0,1,1.09.74,3.81,3.81,0,0,1,.72,1.14,3.68,3.68,0,0,1,.26,1.41Z"/><path class="cls-2" d="M46.37,52.34V51.09h0a4.41,4.41,0,0,1-1,1,2.31,2.31,0,0,1-1.38.36,3,3,0,0,1-.88-.13,2.31,2.31,0,0,1-.85-.49,2.45,2.45,0,0,1-.66-1,4.55,4.55,0,0,1-.25-1.65,8.13,8.13,0,0,1,.17-1.81,2.91,2.91,0,0,1,.62-1.31,2.59,2.59,0,0,1,1.18-.75,5.85,5.85,0,0,1,1.89-.26h.27a1.09,1.09,0,0,1,.26,0l.29,0,.36,0V43.91a1.84,1.84,0,0,0-.27-1,1,1,0,0,0-1-.41,1.36,1.36,0,0,0-.87.32,1.43,1.43,0,0,0-.52.91H41.38a3.89,3.89,0,0,1,1.1-2.64,3.55,3.55,0,0,1,1.15-.76A4,4,0,0,1,45.14,40a4.18,4.18,0,0,1,1.44.24,3.32,3.32,0,0,1,1.18.72,3.49,3.49,0,0,1,.77,1.2,4.54,4.54,0,0,1,.29,1.68v8.47Zm0-5.23A4,4,0,0,0,45.7,47a2.41,2.41,0,0,0-1.36.38,1.48,1.48,0,0,0-.56,1.35,1.81,1.81,0,0,0,.33,1.13,1.13,1.13,0,0,0,.94.43,1.19,1.19,0,0,0,1-.41,1.72,1.72,0,0,0,.35-1.15Z"/><path class="cls-2" d="M51.73,37.7V35.25h2.44V37.7Zm0,14.64V40.17h2.44V52.34Z"/><path class="cls-2" d="M71.12,35.25V48.5A3.83,3.83,0,0,1,70,51.31a4.13,4.13,0,0,1-1.27.86,3.77,3.77,0,0,1-1.53.31,3.7,3.7,0,0,1-1.53-.31,4.34,4.34,0,0,1-1.26-.86,4.15,4.15,0,0,1-.86-1.26,3.8,3.8,0,0,1-.31-1.55V35.25h2.44v13a1.82,1.82,0,0,0,.44,1.34,1.45,1.45,0,0,0,1.08.43,1.46,1.46,0,0,0,1.08-.43,1.81,1.81,0,0,0,.43-1.34v-13Z"/><path class="cls-2" d="M74.3,52.34V40.17h2.45v1.18h0a3.51,3.51,0,0,1,.93-1A2.37,2.37,0,0,1,79.1,40a2.89,2.89,0,0,1,.91.15,2.33,2.33,0,0,1,.82.52,2.57,2.57,0,0,1,.57.92A4,4,0,0,1,81.62,43v9.34H79.17V43.91a1.66,1.66,0,0,0-.31-1,1.08,1.08,0,0,0-.89-.39,1,1,0,0,0-1,.44,2.34,2.34,0,0,0-.26,1.24v8.19Z"/><path class="cls-2" d="M84.63,37.7V35.25h2.45V37.7Zm0,14.64V40.17h2.45V52.34Z"/><path class="cls-2" d="M98,40.17,94.82,52.34H92.66L89.5,40.17h2.59L93.72,48h0l1.63-7.78Z"/><path class="cls-2" d="M107.26,47.18h-4.85v1.65a1.2,1.2,0,0,0,.32.89,1.21,1.21,0,0,0,.88.31,1,1,0,0,0,.92-.4,2.22,2.22,0,0,0,.28-.82h2.45a3.48,3.48,0,0,1-1,2.59,3.33,3.33,0,0,1-1.15.79,3.67,3.67,0,0,1-1.51.29,3.77,3.77,0,0,1-2-.48,3.26,3.26,0,0,1-1.23-1.27,3.17,3.17,0,0,1-.36-1.1,8.4,8.4,0,0,1-.1-1.37v-4a8.32,8.32,0,0,1,.1-1.37,3.17,3.17,0,0,1,.36-1.1,3.26,3.26,0,0,1,1.23-1.27,3.77,3.77,0,0,1,2-.48,3.88,3.88,0,0,1,1.52.28,3.48,3.48,0,0,1,1.17.8,3.92,3.92,0,0,1,1,2.71Zm-4.85-1.92h2.4V43.87a1.47,1.47,0,0,0-.33-1,1.12,1.12,0,0,0-.87-.35,1.16,1.16,0,0,0-.88.35,1.52,1.52,0,0,0-.32,1Z"/><path class="cls-2" d="M110.1,52.34V40.17h2.45v1.3A7.35,7.35,0,0,1,114,40.41a3.69,3.69,0,0,1,1.78-.38v2.59a1.93,1.93,0,0,0-.75-.15,2.82,2.82,0,0,0-.82.14,2,2,0,0,0-.81.44,2.37,2.37,0,0,0-.62.82,2.86,2.86,0,0,0-.24,1.24v7.23Z"/><path class="cls-2" d="M122.77,43.58a1.19,1.19,0,0,0-.39-.94,1.33,1.33,0,0,0-.85-.31,1.09,1.09,0,0,0-.89.37,1.27,1.27,0,0,0-.31.85,1.4,1.4,0,0,0,.16.66,1.54,1.54,0,0,0,.87.59l1.44.58a3.46,3.46,0,0,1,1.88,1.44,3.92,3.92,0,0,1,.52,2,3.58,3.58,0,0,1-.28,1.43,3.62,3.62,0,0,1-.75,1.16,3.37,3.37,0,0,1-1.16.79,3.49,3.49,0,0,1-1.46.29,3.57,3.57,0,0,1-2.5-.93,3.68,3.68,0,0,1-.81-1.14,4.14,4.14,0,0,1-.34-1.6h2.31a2.27,2.27,0,0,0,.34.94,1.09,1.09,0,0,0,1,.43,1.44,1.44,0,0,0,.94-.35,1.19,1.19,0,0,0,.42-1,1.4,1.4,0,0,0-.26-.87,2.15,2.15,0,0,0-1-.62l-1.18-.43a4.05,4.05,0,0,1-1.81-1.29,3.27,3.27,0,0,1-.66-2.07,3.58,3.58,0,0,1,.29-1.43A3.53,3.53,0,0,1,119.1,41a3.28,3.28,0,0,1,1.13-.73,3.77,3.77,0,0,1,1.39-.25,3.46,3.46,0,0,1,1.38.26,3.1,3.1,0,0,1,1.09.74,3.45,3.45,0,0,1,.72,1.14,3.69,3.69,0,0,1,.27,1.41Z"/><path class="cls-2" d="M127.89,37.7V35.25h2.45V37.7Zm0,14.64V40.17h2.45V52.34Z"/><path class="cls-2" d="M133.88,40.17v-3.7h2.45v3.7h1.51v1.92h-1.51v6.74a2,2,0,0,0,.09.68.62.62,0,0,0,.27.36,1.13,1.13,0,0,0,.47.14,6.75,6.75,0,0,0,.68,0v2.31h-1a3.28,3.28,0,0,1-1.41-.27,2.59,2.59,0,0,1-.9-.67,2.63,2.63,0,0,1-.49-.92,3.65,3.65,0,0,1-.16-1V42.09h-1.22V40.17Z"/><path class="cls-2" d="M139.73,40.17h2.59L144,47.75h.05l1.65-7.58h2.52l-3.5,14.28a4.26,4.26,0,0,1-.54,1.34,3.36,3.36,0,0,1-.8.87,3,3,0,0,1-1,.47,4.68,4.68,0,0,1-1.07.13h-.67V55h.55a2,2,0,0,0,.63-.09,1.12,1.12,0,0,0,.48-.43,4.13,4.13,0,0,0,.36-1c.11-.41.24-1,.38-1.69Z"/><path class="cls-2" d="M164.13,35.25V48.5A3.88,3.88,0,0,1,163,51.31a4.25,4.25,0,0,1-1.27.86,3.78,3.78,0,0,1-1.54.31,3.69,3.69,0,0,1-1.52-.31,4.34,4.34,0,0,1-1.26-.86,4,4,0,0,1-.86-1.26,3.8,3.8,0,0,1-.32-1.55V35.25h2.45v13a1.86,1.86,0,0,0,.43,1.34,1.46,1.46,0,0,0,1.08.43,1.43,1.43,0,0,0,1.08-.43,1.82,1.82,0,0,0,.44-1.34v-13Z"/><path class="cls-2" d="M167.31,52.34V40.17h2.45v1.18h.05a3.63,3.63,0,0,1,.92-1,2.37,2.37,0,0,1,1.38-.37,2.15,2.15,0,0,1,1.32.38,4.11,4.11,0,0,1,.87.84,4.85,4.85,0,0,1,1-.86,2.77,2.77,0,0,1,1.53-.36,3.13,3.13,0,0,1,.94.15,2.31,2.31,0,0,1,.86.52,2.68,2.68,0,0,1,.63.92,3.55,3.55,0,0,1,.24,1.38v9.34h-2.45V43.91a1.66,1.66,0,0,0-.31-1,1.08,1.08,0,0,0-.89-.39,1,1,0,0,0-1,.44,2.33,2.33,0,0,0-.27,1.24v8.19h-2.44V43.91a1.66,1.66,0,0,0-.31-1,1.08,1.08,0,0,0-.89-.39,1,1,0,0,0-1,.44,2.33,2.33,0,0,0-.27,1.24v8.19Z"/><path class="cls-2" d="M189.65,47.18H184.8v1.65a1.2,1.2,0,0,0,.32.89A1.21,1.21,0,0,0,186,50a1,1,0,0,0,.92-.4,2.22,2.22,0,0,0,.28-.82h2.45a3.48,3.48,0,0,1-1,2.59,3.33,3.33,0,0,1-1.15.79,3.67,3.67,0,0,1-1.51.29,3.77,3.77,0,0,1-2-.48,3.26,3.26,0,0,1-1.23-1.27,3.17,3.17,0,0,1-.36-1.1,8.4,8.4,0,0,1-.1-1.37v-4a8.32,8.32,0,0,1,.1-1.37,3.17,3.17,0,0,1,.36-1.1A3.26,3.26,0,0,1,184,40.51a3.77,3.77,0,0,1,2-.48,3.88,3.88,0,0,1,1.52.28,3.48,3.48,0,0,1,1.17.8,3.92,3.92,0,0,1,1,2.71Zm-4.85-1.92h2.4V43.87a1.52,1.52,0,0,0-.32-1,1.28,1.28,0,0,0-1.76,0,1.52,1.52,0,0,0-.32,1Z"/><path class="cls-2" d="M197.32,52.34V51.23l-.46.5a2.28,2.28,0,0,1-.48.39,2.37,2.37,0,0,1-.6.27,3.07,3.07,0,0,1-.79.09,2.2,2.2,0,0,1-2.14-1.15,3.54,3.54,0,0,1-.31-1,11.3,11.3,0,0,1-.09-1.61V44.08a18.17,18.17,0,0,1,.07-1.94,2.3,2.3,0,0,1,1.13-1.8A2.4,2.4,0,0,1,195,40a2.52,2.52,0,0,1,1.29.32,3,3,0,0,1,1,.92h0v-6h2.45V52.34Zm-2.43-4a2.27,2.27,0,0,0,.29,1.2,1,1,0,0,0,.91.45,1.08,1.08,0,0,0,.89-.42,1.65,1.65,0,0,0,.34-1.09V43.79a1.32,1.32,0,0,0-.35-.94,1.14,1.14,0,0,0-.88-.38,1,1,0,0,0-.94.44,1.91,1.91,0,0,0-.26,1Z"/><path class="cls-2" d="M207.51,52.34V51.09h0a4.44,4.44,0,0,1-1,1,2.27,2.27,0,0,1-1.38.36,3,3,0,0,1-.87-.13,2.41,2.41,0,0,1-1.51-1.46,4.53,4.53,0,0,1-.26-1.65,8.77,8.77,0,0,1,.17-1.81,2.82,2.82,0,0,1,.63-1.31,2.55,2.55,0,0,1,1.17-.75,6,6,0,0,1,1.9-.26h.26a1.12,1.12,0,0,1,.27,0l.28,0,.36,0V43.91a1.83,1.83,0,0,0-.26-1,1.07,1.07,0,0,0-1-.41,1.4,1.4,0,0,0-.88.32,1.47,1.47,0,0,0-.51.91h-2.38a3.9,3.9,0,0,1,1.11-2.64,3.55,3.55,0,0,1,1.15-.76,4,4,0,0,1,1.51-.27,4.27,4.27,0,0,1,1.44.24,3.32,3.32,0,0,1,1.18.72,3.47,3.47,0,0,1,.76,1.2,4.35,4.35,0,0,1,.29,1.68v8.47Zm0-5.23a3.86,3.86,0,0,0-.67-.08,2.36,2.36,0,0,0-1.35.38,1.48,1.48,0,0,0-.57,1.35,1.75,1.75,0,0,0,.34,1.13,1.1,1.1,0,0,0,.93.43,1.21,1.21,0,0,0,1-.41,1.72,1.72,0,0,0,.34-1.15Z"/><path class="cls-2" d="M226.55,47.47v1.05a3.79,3.79,0,0,1-.3,1.5,4.24,4.24,0,0,1-.83,1.26,4.05,4.05,0,0,1-1.24.88,3.7,3.7,0,0,1-1.52.32,5.39,5.39,0,0,1-1.42-.19,3.32,3.32,0,0,1-1.29-.67,3.63,3.63,0,0,1-.95-1.24,4.34,4.34,0,0,1-.37-1.93V39a4.2,4.2,0,0,1,.28-1.56,3.93,3.93,0,0,1,.82-1.25,3.76,3.76,0,0,1,1.26-.82,4.25,4.25,0,0,1,1.62-.3,3.72,3.72,0,0,1,2.81,1.12,4.12,4.12,0,0,1,.83,1.31,4.44,4.44,0,0,1,.3,1.65v1H224.1v-.82a2,2,0,0,0-.41-1.25,1.32,1.32,0,0,0-1.1-.53,1.25,1.25,0,0,0-1.22.57,3,3,0,0,0-.3,1.43v8.73a2.24,2.24,0,0,0,.33,1.25,1.25,1.25,0,0,0,1.16.5,1.69,1.69,0,0,0,.52-.08,1.6,1.6,0,0,0,.51-.28,1.27,1.27,0,0,0,.36-.52,2.1,2.1,0,0,0,.15-.84v-.84Z"/><path class="cls-2" d="M234.32,52.34V51.09h0a4.41,4.41,0,0,1-1,1,2.31,2.31,0,0,1-1.38.36,3,3,0,0,1-.88-.13,2.31,2.31,0,0,1-.85-.49,2.45,2.45,0,0,1-.66-1,4.55,4.55,0,0,1-.25-1.65,8.13,8.13,0,0,1,.17-1.81,2.91,2.91,0,0,1,.62-1.31,2.59,2.59,0,0,1,1.18-.75,5.9,5.9,0,0,1,1.89-.26h.27a1.09,1.09,0,0,1,.26,0l.29,0,.36,0V43.91a1.84,1.84,0,0,0-.27-1,1,1,0,0,0-1-.41,1.36,1.36,0,0,0-.87.32,1.48,1.48,0,0,0-.52.91h-2.37a3.89,3.89,0,0,1,1.1-2.64,3.55,3.55,0,0,1,1.15-.76,4,4,0,0,1,1.51-.27,4.28,4.28,0,0,1,1.45.24,3.28,3.28,0,0,1,1.17.72,3.49,3.49,0,0,1,.77,1.2,4.54,4.54,0,0,1,.29,1.68v8.47Zm0-5.23a4,4,0,0,0-.67-.08,2.41,2.41,0,0,0-1.36.38,1.5,1.5,0,0,0-.56,1.35,1.81,1.81,0,0,0,.33,1.13,1.13,1.13,0,0,0,.94.43,1.17,1.17,0,0,0,1-.41,1.72,1.72,0,0,0,.35-1.15Z"/><path class="cls-2" d="M239.68,52.34V40.17h2.45v1.18h0a3.51,3.51,0,0,1,.93-1,2.37,2.37,0,0,1,1.38-.37,2.15,2.15,0,0,1,1.32.38,4,4,0,0,1,.86.84,5.12,5.12,0,0,1,1-.86,2.81,2.81,0,0,1,1.54-.36,3.11,3.11,0,0,1,.93.15,2.43,2.43,0,0,1,.87.52,2.81,2.81,0,0,1,.62.92,3.55,3.55,0,0,1,.24,1.38v9.34h-2.45V43.91a1.6,1.6,0,0,0-.31-1,1.07,1.07,0,0,0-.89-.39,1,1,0,0,0-1,.44,2.44,2.44,0,0,0-.26,1.24v8.19h-2.45V43.91a1.6,1.6,0,0,0-.31-1,1.08,1.08,0,0,0-.89-.39,1,1,0,0,0-1,.44,2.34,2.34,0,0,0-.26,1.24v8.19Z"/><path class="cls-2" d="M254.89,57.26V40.17h2.45v1.1a6.35,6.35,0,0,1,.94-.88,2.28,2.28,0,0,1,1.39-.36,2.23,2.23,0,0,1,2.14,1.15,3.54,3.54,0,0,1,.31,1,11.24,11.24,0,0,1,.09,1.6v4.64a17.93,17.93,0,0,1-.07,1.94,2.31,2.31,0,0,1-1.1,1.8,2.56,2.56,0,0,1-1.39.31,2.62,2.62,0,0,1-1.29-.32,3.06,3.06,0,0,1-1-.93h-.05v6Zm4.88-13.13a2.22,2.22,0,0,0-.29-1.2,1,1,0,0,0-.91-.46,1.08,1.08,0,0,0-.89.42,1.68,1.68,0,0,0-.34,1.1v4.72a1.34,1.34,0,0,0,.35.95,1.13,1.13,0,0,0,.88.37,1,1,0,0,0,.94-.43,2,2,0,0,0,.26-1Z"/><path class="cls-2" d="M272.53,40.17V52.34h-2.45V51.16h0a3.51,3.51,0,0,1-.93,1,2.37,2.37,0,0,1-1.38.37,2.89,2.89,0,0,1-.91-.15,2.16,2.16,0,0,1-.82-.52,2.57,2.57,0,0,1-.57-.92,3.77,3.77,0,0,1-.22-1.38V40.17h2.45v8.42a1.61,1.61,0,0,0,.31,1.06,1.08,1.08,0,0,0,.89.38,1,1,0,0,0,1-.43,2.38,2.38,0,0,0,.26-1.25V40.17Z"/><path class="cls-2" d="M280.1,43.58a1.23,1.23,0,0,0-.4-.94,1.33,1.33,0,0,0-.85-.31,1.1,1.1,0,0,0-.89.37,1.27,1.27,0,0,0-.31.85,1.41,1.41,0,0,0,.17.66,1.51,1.51,0,0,0,.86.59l1.44.58A3.52,3.52,0,0,1,282,46.82a4,4,0,0,1,.51,2,3.75,3.75,0,0,1-.27,1.43,3.82,3.82,0,0,1-.76,1.16,3.33,3.33,0,0,1-1.15.79,3.57,3.57,0,0,1-1.47.29,3.51,3.51,0,0,1-3.31-2.07,4,4,0,0,1-.33-1.6h2.3a2.28,2.28,0,0,0,.35.94,1.08,1.08,0,0,0,1,.43,1.47,1.47,0,0,0,.95-.35,1.19,1.19,0,0,0,.42-1A1.41,1.41,0,0,0,280,48a2,2,0,0,0-1-.62l-1.17-.43A4,4,0,0,1,276,45.65a3.27,3.27,0,0,1-.66-2.07A3.43,3.43,0,0,1,276.43,41a3.24,3.24,0,0,1,1.12-.73A3.82,3.82,0,0,1,279,40a3.53,3.53,0,0,1,1.38.26,3.29,3.29,0,0,1,1.09.74,3.81,3.81,0,0,1,.72,1.14,3.88,3.88,0,0,1,.26,1.41Z"/><path class="cls-2" d="M0,80.34V63.25H2.45v7.8h0l3.57-7.8H8.52L5.18,70.09l4,10.25H6.55L3.77,72.75,2.45,75.23v5.11Z"/><path class="cls-2" d="M16.16,80.34V79.09h0a4.65,4.65,0,0,1-1,1,2.27,2.27,0,0,1-1.38.36,3,3,0,0,1-.87-.13,2.41,2.41,0,0,1-1.51-1.46,4.53,4.53,0,0,1-.26-1.65,8.77,8.77,0,0,1,.17-1.81,2.82,2.82,0,0,1,.63-1.31,2.55,2.55,0,0,1,1.17-.75,6,6,0,0,1,1.9-.26h.26a1.12,1.12,0,0,1,.27,0l.28,0a2.19,2.19,0,0,1,.36,0V71.91a1.83,1.83,0,0,0-.26-1,1.07,1.07,0,0,0-1-.41,1.4,1.4,0,0,0-.88.32,1.47,1.47,0,0,0-.51.91H11.17a3.9,3.9,0,0,1,1.11-2.64,3.55,3.55,0,0,1,1.15-.76A4,4,0,0,1,14.94,68a4.27,4.27,0,0,1,1.44.24,3.32,3.32,0,0,1,1.18.72,3.47,3.47,0,0,1,.76,1.2,4.35,4.35,0,0,1,.29,1.68v8.47Zm0-5.23a3.86,3.86,0,0,0-.67-.08,2.36,2.36,0,0,0-1.35.38,1.48,1.48,0,0,0-.57,1.35,1.75,1.75,0,0,0,.34,1.13,1.1,1.1,0,0,0,.93.43,1.21,1.21,0,0,0,1-.41,1.72,1.72,0,0,0,.34-1.15Z"/><path class="cls-2" d="M21.52,80.34V68.17H24v1.18H24a3.34,3.34,0,0,1,.92-.95A2.37,2.37,0,0,1,26.32,68a2.85,2.85,0,0,1,.91.15,2.16,2.16,0,0,1,.82.52,2.73,2.73,0,0,1,.58.92A4,4,0,0,1,28.84,71v9.34H26.39V71.91a1.6,1.6,0,0,0-.31-1,1.06,1.06,0,0,0-.89-.39,1,1,0,0,0-1,.44A2.44,2.44,0,0,0,24,72.15v8.19Z"/><path class="cls-2" d="M36.71,80.34V79.23l-.45.5a2.93,2.93,0,0,1-.48.39,2.74,2.74,0,0,1-.6.27,3.15,3.15,0,0,1-.8.09,2.19,2.19,0,0,1-2.13-1.15,3,3,0,0,1-.31-1,9.8,9.8,0,0,1-.1-1.61V72.08a18.17,18.17,0,0,1,.07-1.94A2.32,2.32,0,0,1,33,68.34,2.42,2.42,0,0,1,34.41,68a2.46,2.46,0,0,1,1.28.32,2.92,2.92,0,0,1,1,.92h.05v-6h2.45V80.34Zm-2.42-4a2.18,2.18,0,0,0,.29,1.2,1,1,0,0,0,.91.45,1.09,1.09,0,0,0,.89-.42,1.71,1.71,0,0,0,.33-1.09V71.79a1.27,1.27,0,0,0-.35-.94,1.14,1.14,0,0,0-.87-.38,1,1,0,0,0-1,.44,1.9,1.9,0,0,0-.25,1Z"/><path class="cls-2" d="M46.91,80.34V79.09h0a4.63,4.63,0,0,1-1,1,2.31,2.31,0,0,1-1.38.36,3,3,0,0,1-.88-.13,2.24,2.24,0,0,1-.85-.49,2.45,2.45,0,0,1-.66-1,4.55,4.55,0,0,1-.25-1.65A8.82,8.82,0,0,1,42,75.43a2.92,2.92,0,0,1,.63-1.31,2.61,2.61,0,0,1,1.17-.75,6,6,0,0,1,1.9-.26H46a1.12,1.12,0,0,1,.27,0l.29,0,.36,0V71.91a1.84,1.84,0,0,0-.27-1,1,1,0,0,0-1-.41,1.36,1.36,0,0,0-.87.32,1.43,1.43,0,0,0-.52.91H41.92A3.89,3.89,0,0,1,43,69.06a3.55,3.55,0,0,1,1.15-.76A4,4,0,0,1,45.68,68a4.27,4.27,0,0,1,1.44.24A3.32,3.32,0,0,1,48.3,69a3.49,3.49,0,0,1,.77,1.2,4.55,4.55,0,0,1,.28,1.68v8.47Zm0-5.23a4.07,4.07,0,0,0-.68-.08,2.38,2.38,0,0,0-1.35.38,1.48,1.48,0,0,0-.57,1.35,1.81,1.81,0,0,0,.34,1.13,1.11,1.11,0,0,0,.94.43,1.19,1.19,0,0,0,1-.41,1.72,1.72,0,0,0,.35-1.15Z"/><path class="cls-2" d="M52.26,65.7V63.25h2.45V65.7Zm0,14.64V68.17h2.45V80.34Z"/><path class="cls-2" d="M63.74,80.34V63.25h2.35l3.14,9h0l3.12-9h2.38V80.34H72.33V70h0l-2.42,7.34H68.63L66.23,70h0V80.34Z"/><path class="cls-2" d="M85.1,75.18H80.26v1.65a1.16,1.16,0,0,0,.32.89,1.21,1.21,0,0,0,.88.31,1,1,0,0,0,.92-.4,2.42,2.42,0,0,0,.28-.82H85.1a3.48,3.48,0,0,1-1,2.59,3.33,3.33,0,0,1-1.15.79,3.67,3.67,0,0,1-1.51.29,3.77,3.77,0,0,1-2-.48,3.29,3.29,0,0,1-1.24-1.27,3.65,3.65,0,0,1-.36-1.1,9.75,9.75,0,0,1-.09-1.37v-4a9.65,9.65,0,0,1,.09-1.37,3.65,3.65,0,0,1,.36-1.1,3.29,3.29,0,0,1,1.24-1.27,3.77,3.77,0,0,1,2-.48,3.92,3.92,0,0,1,1.52.28,3.43,3.43,0,0,1,1.16.8,3.92,3.92,0,0,1,1,2.71Zm-4.84-1.92h2.4V71.87a1.47,1.47,0,0,0-.33-1.05,1.14,1.14,0,0,0-.87-.35,1.16,1.16,0,0,0-.88.35,1.47,1.47,0,0,0-.32,1.05Z"/><path class="cls-2" d="M93.91,80.34V63.25h3.94q4.32,0,4.32,5a6.33,6.33,0,0,1-.47,2.56,3.61,3.61,0,0,1-1.64,1.71l2.64,7.8h-2.6L97.83,73H96.36v7.3Zm2.45-14.79v5.33h1.39a2.52,2.52,0,0,0,1-.18,1.4,1.4,0,0,0,.59-.51,2.38,2.38,0,0,0,.27-.83,9.32,9.32,0,0,0,0-2.28,2.37,2.37,0,0,0-.29-.85,1.94,1.94,0,0,0-1.73-.68Z"/><path class="cls-2" d="M105.58,80.34V63.25H108V80.34Z"/><path class="cls-2" d="M119.51,68.17h-2.45v-.55a2.54,2.54,0,0,0-.4-1.45,1.45,1.45,0,0,0-1.33-.62,1.49,1.49,0,0,0-.81.2,1.47,1.47,0,0,0-.51.48,2,2,0,0,0-.26.7,4.5,4.5,0,0,0-.07.83q0,.51,0,.84a1.76,1.76,0,0,0,.18.6,1.41,1.41,0,0,0,.42.46,4.11,4.11,0,0,0,.76.38l1.87.75a4.56,4.56,0,0,1,1.32.73,3,3,0,0,1,.79,1,4.27,4.27,0,0,1,.36,1.31,11.89,11.89,0,0,1,.1,1.67,8.4,8.4,0,0,1-.22,2A4.1,4.1,0,0,1,118.6,79a3.54,3.54,0,0,1-1.32,1.06,4.79,4.79,0,0,1-2,.38,4.29,4.29,0,0,1-1.65-.31,4.13,4.13,0,0,1-1.32-.86,4.28,4.28,0,0,1-.88-1.29,4,4,0,0,1-.32-1.59v-.92h2.45v.77a2,2,0,0,0,.39,1.21,1.55,1.55,0,0,0,1.33.54,2.2,2.2,0,0,0,1-.18,1.33,1.33,0,0,0,.54-.51,2,2,0,0,0,.22-.81c0-.31,0-.66,0-1a10.59,10.59,0,0,0,0-1.1,1.82,1.82,0,0,0-.19-.7,1.29,1.29,0,0,0-.44-.43,6.47,6.47,0,0,0-.74-.36l-1.75-.72a3.9,3.9,0,0,1-2.12-1.72,5.88,5.88,0,0,1-.54-2.67,6.48,6.48,0,0,1,.26-1.83,4.34,4.34,0,0,1,.79-1.49,3.77,3.77,0,0,1,1.29-1,4.26,4.26,0,0,1,1.86-.37,4.15,4.15,0,0,1,1.67.33,4.29,4.29,0,0,1,1.3.89A3.7,3.7,0,0,1,119.51,67Z"/><path class="cls-2" d="M122.55,80.34V63.25h7.29v2.3H125v5h4.22v2.3H125v5h4.84v2.45Z"/></g></g></svg>