<svg xmlns="http://www.w3.org/2000/svg" xmlns:xlink="http://www.w3.org/1999/xlink" viewBox="0 0 278.89 90.02"><defs><style>.cls-1{fill:#fff;}.cls-2{fill:url(#名称未設定グラデーション_27);}.cls-3{fill:url(#名称未設定グラデーション_27-2);}.cls-4{fill:url(#名称未設定グラデーション_27-3);}.cls-5{fill:url(#名称未設定グラデーション_27-4);}.cls-6{fill:url(#名称未設定グラデーション_27-5);}.cls-7{fill:url(#名称未設定グラデーション_27-6);}.cls-8{fill:url(#名称未設定グラデーション_27-7);}.cls-9{fill:url(#名称未設定グラデーション_27-8);}.cls-10{fill:url(#名称未設定グラデーション_27-9);}.cls-11{fill:url(#名称未設定グラデーション_27-10);}.cls-12{fill:url(#名称未設定グラデーション_27-11);}.cls-13{fill:url(#名称未設定グラデーション_27-12);}.cls-14{fill:url(#名称未設定グラデーション_27-13);}.cls-15{fill:url(#名称未設定グラデーション_27-14);}.cls-16{fill:url(#名称未設定グラデーション_27-15);}.cls-17{fill:url(#名称未設定グラデーション_27-16);}.cls-18{fill:url(#名称未設定グラデーション_27-17);}.cls-19{fill:url(#名称未設定グラデーション_27-18);}.cls-20{fill:url(#名称未設定グラデーション_27-19);}.cls-21{fill:url(#名称未設定グラデーション_27-20);}.cls-22{fill:url(#名称未設定グラデーション_27-21);}.cls-23{fill:url(#名称未設定グラデーション_27-22);}.cls-24{fill:url(#名称未設定グラデーション_27-23);}.cls-25{fill:url(#名称未設定グラデーション_27-24);}.cls-26{fill:url(#名称未設定グラデーション_27-25);}.cls-27{fill:url(#名称未設定グラデーション_27-26);}.cls-28{fill:url(#名称未設定グラデーション_27-27);}.cls-29{fill:url(#名称未設定グラデーション_27-28);}.cls-30{fill:url(#名称未設定グラデーション_27-29);}.cls-31{fill:url(#名称未設定グラデーション_27-30);}.cls-32{fill:url(#名称未設定グラデーション_27-31);}.cls-33{fill:url(#名称未設定グラデーション_27-32);}.cls-34{fill:url(#名称未設定グラデーション_27-33);}.cls-35{fill:url(#名称未設定グラデーション_27-34);}.cls-36{fill:url(#名称未設定グラデーション_27-35);}.cls-37{fill:url(#名称未設定グラデーション_27-36);}.cls-38{fill:url(#名称未設定グラデーション_27-37);}.cls-39{fill:url(#名称未設定グラデーション_27-38);}.cls-40{fill:url(#名称未設定グラデーション_27-39);}.cls-41{fill:url(#名称未設定グラデーション_27-40);}.cls-42{fill:url(#名称未設定グラデーション_27-41);}.cls-43{fill:url(#名称未設定グラデーション_27-42);}.cls-44{fill:url(#名称未設定グラデーション_27-43);}.cls-45{fill:url(#名称未設定グラデーション_27-44);}.cls-46{fill:url(#名称未設定グラデーション_27-45);}.cls-47{fill:url(#名称未設定グラデーション_27-46);}.cls-48{fill:url(#名称未設定グラデーション_27-47);}.cls-49{fill:url(#名称未設定グラデーション_27-48);}.cls-50{fill:url(#名称未設定グラデーション_27-49);}.cls-51{fill:url(#名称未設定グラデーション_27-50);}.cls-52{fill:url(#名称未設定グラデーション_27-51);}.cls-53{fill:url(#名称未設定グラデーション_27-52);}.cls-54{fill:url(#名称未設定グラデーション_27-53);}.cls-55{fill:url(#名称未設定グラデーション_27-54);}.cls-56{fill:url(#名称未設定グラデーション_27-55);}.cls-57{fill:url(#名称未設定グラデーション_27-56);}.cls-58{fill:url(#名称未設定グラデーション_27-57);}.cls-59{fill:url(#名称未設定グラデーション_27-58);}.cls-60{fill:url(#名称未設定グラデーション_27-59);}.cls-61{fill:#191919;}</style><linearGradient id="名称未設定グラデーション_27" x1="-0.91" y1="24.94" x2="15.92" y2="8.11" gradientUnits="userSpaceOnUse"><stop offset="0" stop-color="#34afa5" stop-opacity="0.15"/><stop offset="0.5" stop-color="#b3d6a5" stop-opacity="0.15"/><stop offset="1" stop-color="#b484b8" stop-opacity="0.15"/></linearGradient><linearGradient id="名称未設定グラデーション_27-2" x1="15.02" y1="22.72" x2="30.39" y2="7.34" xlink:href="#名称未設定グラデーション_27"/><linearGradient id="名称未設定グラデーション_27-3" x1="30.73" y1="22.11" x2="45.38" y2="7.46" xlink:href="#名称未設定グラデーション_27"/><linearGradient id="名称未設定グラデーション_27-4" x1="43.62" y1="22.74" x2="58.93" y2="7.43" xlink:href="#名称未設定グラデーション_27"/><linearGradient id="名称未設定グラデーション_27-5" x1="61.1" y1="27.85" x2="64.78" y2="24.18" xlink:href="#名称未設定グラデーション_27"/><linearGradient id="名称未設定グラデーション_27-6" x1="66.97" y1="22.72" x2="82.34" y2="7.34" xlink:href="#名称未設定グラデーション_27"/><linearGradient id="名称未設定グラデーション_27-7" x1="82.87" y1="23.36" x2="99.02" y2="7.21" xlink:href="#名称未設定グラデーション_27"/><linearGradient id="名称未設定グラデーション_27-8" x1="99.71" y1="27.85" x2="103.38" y2="24.18" xlink:href="#名称未設定グラデーション_27"/><linearGradient id="名称未設定グラデーション_27-9" x1="105.58" y1="22.72" x2="120.95" y2="7.34" xlink:href="#名称未設定グラデーション_27"/><linearGradient id="名称未設定グラデーション_27-10" x1="120.12" y1="24.94" x2="136.94" y2="8.11" xlink:href="#名称未設定グラデーション_27"/><linearGradient id="名称未設定グラデーション_27-11" x1="139.44" y1="21.5" x2="146.69" y2="14.25" xlink:href="#名称未設定グラデーション_27"/><linearGradient id="名称未設定グラデーション_27-12" x1="150.76" y1="22.72" x2="166.14" y2="7.34" xlink:href="#名称未設定グラデーション_27"/><linearGradient id="名称未設定グラデーション_27-13" x1="166.66" y1="23.36" x2="182.81" y2="7.21" xlink:href="#名称未設定グラデーション_27"/><linearGradient id="名称未設定グラデーション_27-14" x1="183.5" y1="27.85" x2="187.18" y2="24.18" xlink:href="#名称未設定グラデーション_27"/><linearGradient id="名称未設定グラデーション_27-15" x1="189.37" y1="22.72" x2="204.74" y2="7.34" xlink:href="#名称未設定グラデーション_27"/><linearGradient id="名称未設定グラデーション_27-16" x1="204.56" y1="22.78" x2="219.96" y2="7.38" xlink:href="#名称未設定グラデーション_27"/><linearGradient id="名称未設定グラデーション_27-17" x1="0.01" y1="59.89" x2="12.82" y2="47.09" xlink:href="#名称未設定グラデーション_27"/><linearGradient id="名称未設定グラデーション_27-18" x1="13.15" y1="60.53" x2="21.36" y2="52.33" xlink:href="#名称未設定グラデーション_27"/><linearGradient id="名称未設定グラデーション_27-19" x1="22.31" y1="60.67" x2="31.39" y2="51.58" xlink:href="#名称未設定グラデーション_27"/><linearGradient id="名称未設定グラデーション_27-20" x1="33.31" y1="59.71" x2="41.09" y2="51.93" xlink:href="#名称未設定グラデーション_27"/><linearGradient id="名称未設定グラデーション_27-21" x1="43.36" y1="60.53" x2="51.56" y2="52.33" xlink:href="#名称未設定グラデーション_27"/><linearGradient id="名称未設定グラデーション_27-22" x1="53.73" y1="47.24" x2="56.17" y2="44.79" xlink:href="#名称未設定グラデーション_27"/><linearGradient id="名称未設定グラデーション_27-23" x1="51.3" y1="59.45" x2="58.6" y2="52.14" xlink:href="#名称未設定グラデーション_27"/><linearGradient id="名称未設定グラデーション_27-24" x1="63.46" y1="57.94" x2="74.86" y2="46.54" xlink:href="#名称未設定グラデーション_27"/><linearGradient id="名称未設定グラデーション_27-25" x1="75.09" y1="60.67" x2="84.17" y2="51.58" xlink:href="#名称未設定グラデーション_27"/><linearGradient id="名称未設定グラデーション_27-26" x1="86.63" y1="47.24" x2="89.08" y2="44.79" xlink:href="#名称未設定グラデーション_27"/><linearGradient id="名称未設定グラデーション_27-27" x1="84.2" y1="59.45" x2="91.51" y2="52.14" xlink:href="#名称未設定グラデーション_27"/><linearGradient id="名称未設定グラデーション_27-28" x1="91.37" y1="58.59" x2="100.12" y2="49.84" xlink:href="#名称未設定グラデーション_27"/><linearGradient id="名称未設定グラデーション_27-29" x1="101.67" y1="59.71" x2="109.52" y2="51.87" xlink:href="#名称未設定グラデーション_27"/><linearGradient id="名称未設定グラデーション_27-30" x1="109.67" y1="59.45" x2="118.67" y2="50.45" xlink:href="#名称未設定グラデーション_27"/><linearGradient id="名称未設定グラデーション_27-31" x1="119.67" y1="59.71" x2="127.45" y2="51.93" xlink:href="#名称未設定グラデーション_27"/><linearGradient id="名称未設定グラデーション_27-32" x1="127.46" y1="59.45" x2="134.77" y2="52.14" xlink:href="#名称未設定グラデーション_27"/><linearGradient id="名称未設定グラデーション_27-33" x1="129.89" y1="47.24" x2="132.34" y2="44.79" xlink:href="#名称未設定グラデーション_27"/><linearGradient id="名称未設定グラデーション_27-34" x1="133.69" y1="58.12" x2="142.06" y2="49.75" xlink:href="#名称未設定グラデーション_27"/><linearGradient id="名称未設定グラデーション_27-35" x1="138.7" y1="62.83" x2="151.02" y2="50.51" xlink:href="#名称未設定グラデーション_27"/><linearGradient id="名称未設定グラデーション_27-36" x1="156.48" y1="57.94" x2="167.88" y2="46.54" xlink:href="#名称未設定グラデーション_27"/><linearGradient id="名称未設定グラデーション_27-37" x1="169.32" y1="61.89" x2="180.81" y2="50.4" xlink:href="#名称未設定グラデーション_27"/><linearGradient id="名称未設定グラデーション_27-38" x1="184.06" y1="59.71" x2="191.91" y2="51.87" xlink:href="#名称未設定グラデーション_27"/><linearGradient id="名称未設定グラデーション_27-39" x1="193.86" y1="60.02" x2="205.43" y2="48.45" xlink:href="#名称未設定グラデーション_27"/><linearGradient id="名称未設定グラデーション_27-40" x1="204.51" y1="60.53" x2="212.71" y2="52.33" xlink:href="#名称未設定グラデーション_27"/><linearGradient id="名称未設定グラデーション_27-41" x1="219.32" y1="58.55" x2="229.76" y2="48.12" xlink:href="#名称未設定グラデーション_27"/><linearGradient id="名称未設定グラデーション_27-42" x1="231.31" y1="60.53" x2="239.51" y2="52.33" xlink:href="#名称未設定グラデーション_27"/><linearGradient id="名称未設定グラデーション_27-43" x1="240.47" y1="60.67" x2="249.55" y2="51.58" xlink:href="#名称未設定グラデーション_27"/><linearGradient id="名称未設定グラデーション_27-44" x1="251.06" y1="58.59" x2="259.8" y2="49.84" xlink:href="#名称未設定グラデーション_27"/><linearGradient id="名称未設定グラデーション_27-45" x1="261.54" y1="60.53" x2="269.74" y2="52.33" xlink:href="#名称未設定グラデーション_27"/><linearGradient id="名称未設定グラデーション_27-46" x1="271.36" y1="59.71" x2="279.14" y2="51.93" xlink:href="#名称未設定グラデーション_27"/><linearGradient id="名称未設定グラデーション_27-47" x1="0.01" y1="87.89" x2="12.82" y2="75.09" xlink:href="#名称未設定グラデーション_27"/><linearGradient id="名称未設定グラデーション_27-48" x1="13.15" y1="88.53" x2="21.36" y2="80.33" xlink:href="#名称未設定グラデーション_27"/><linearGradient id="名称未設定グラデーション_27-49" x1="22.31" y1="88.67" x2="31.39" y2="79.58" xlink:href="#名称未設定グラデーション_27"/><linearGradient id="名称未設定グラデーション_27-50" x1="33.25" y1="88.02" x2="44.82" y2="76.45" xlink:href="#名称未設定グラデーション_27"/><linearGradient id="名称未設定グラデーション_27-51" x1="43.9" y1="88.53" x2="52.1" y2="80.33" xlink:href="#名称未設定グラデーション_27"/><linearGradient id="名称未設定グラデーション_27-52" x1="54.26" y1="75.24" x2="56.71" y2="72.79" xlink:href="#名称未設定グラデーション_27"/><linearGradient id="名称未設定グラデーション_27-53" x1="51.83" y1="87.45" x2="59.14" y2="80.14" xlink:href="#名称未設定グラデーション_27"/><linearGradient id="名称未設定グラデーション_27-54" x1="64.22" y1="88.37" x2="78.29" y2="74.3" xlink:href="#名称未設定グラデーション_27"/><linearGradient id="名称未設定グラデーション_27-55" x1="79.52" y1="87.71" x2="87.37" y2="79.87" xlink:href="#名称未設定グラデーション_27"/><linearGradient id="名称未設定グラデーション_27-56" x1="93.84" y1="87.8" x2="105.35" y2="76.29" xlink:href="#名称未設定グラデーション_27"/><linearGradient id="名称未設定グラデーション_27-57" x1="103.92" y1="86.22" x2="113.69" y2="76.45" xlink:href="#名称未設定グラデーション_27"/><linearGradient id="名称未設定グラデーション_27-58" x1="112.11" y1="86.64" x2="122.64" y2="76.11" xlink:href="#名称未設定グラデーション_27"/><linearGradient id="名称未設定グラデーション_27-59" x1="122.1" y1="87.43" x2="134.29" y2="75.24" xlink:href="#名称未設定グラデーション_27"/></defs><title>アセット 2</title><g id="レイヤー_2" data-name="レイヤー 2"><g id="レイヤー_1-2" data-name="レイヤー 1"><path class="cls-1" d="M12.4,12.37a5.25,5.25,0,0,0,.36-1.15A9.3,9.3,0,0,0,12.91,10c0-.42,0-.94,0-1.57A9.6,9.6,0,0,0,12.64,6a6.19,6.19,0,0,0-1-2.06A4.83,4.83,0,0,0,10,2.52,5.32,5.32,0,0,0,7.51,2a5.22,5.22,0,0,0-2.16.45A5.34,5.34,0,0,0,3.62,3.66,5.64,5.64,0,0,0,2.43,5.42,5.38,5.38,0,0,0,2,7.58v2H5.67V7.51a1.79,1.79,0,0,1,.49-1.37,1.81,1.81,0,0,1,1.31-.47,1.73,1.73,0,0,1,1,.27,1.67,1.67,0,0,1,.54.67,2.35,2.35,0,0,1,.19.92c0,.34,0,.67,0,1a17.05,17.05,0,0,1-.07,1.74,4.51,4.51,0,0,1-.58,1.64L2,24.39v3.46H12.94V24.18H6.32l5.4-10.41C12,13.22,12.24,12.75,12.4,12.37Z"/><path class="cls-1" d="M26.52,26.59a5.66,5.66,0,0,0,1.21-1.73,5.75,5.75,0,0,0,.45-2.3v-15a5.8,5.8,0,0,0-.45-2.31,5.62,5.62,0,0,0-1.21-1.72,5.14,5.14,0,0,0-1.75-1.1,5.83,5.83,0,0,0-4.14,0,5.1,5.1,0,0,0-1.74,1.1A5.3,5.3,0,0,0,17.68,5.2a5.63,5.63,0,0,0-.45,2.31V22.56a5.59,5.59,0,0,0,.45,2.3,5.34,5.34,0,0,0,1.21,1.73,5.25,5.25,0,0,0,1.74,1.1,6,6,0,0,0,4.14,0A5.3,5.3,0,0,0,26.52,26.59Zm-2-4a1.84,1.84,0,0,1-.5,1.31,1.73,1.73,0,0,1-1.3.52,1.7,1.7,0,0,1-1.29-.52,1.81,1.81,0,0,1-.51-1.31v-15a1.82,1.82,0,0,1,.51-1.32,1.74,1.74,0,0,1,1.29-.52,1.76,1.76,0,0,1,1.3.52,1.85,1.85,0,0,1,.5,1.32Z"/><polygon class="cls-1" points="36.47 27.85 40.14 27.85 40.14 2.22 36.47 2.22 32.79 4.92 32.79 8.8 36.47 6.1 36.47 27.85"/><path class="cls-1" d="M55.94,13.36a3.37,3.37,0,0,0,.56-1.1,5.81,5.81,0,0,0,.21-1.4c0-.53,0-1.18,0-1.95s0-1.29,0-1.78a5.51,5.51,0,0,0-.24-1.28,5.07,5.07,0,0,0-.43-1,8.43,8.43,0,0,0-.61-.9,5,5,0,0,0-1.8-1.46,5.52,5.52,0,0,0-4.68,0A5,5,0,0,0,47.14,4a7,7,0,0,0-.6.9,6.74,6.74,0,0,0-.41,1,6,6,0,0,0-.25,1.28c-.05.49-.07,1.09-.07,1.78s0,1.42,0,1.95a6.32,6.32,0,0,0,.22,1.4,3.37,3.37,0,0,0,.56,1.1,7,7,0,0,0,1,1,5.74,5.74,0,0,0-1,1,3.45,3.45,0,0,0-.56,1.19,8.16,8.16,0,0,0-.22,1.67q0,1,0,2.43c0,.8,0,1.45,0,2S46,23.61,46,24a4.26,4.26,0,0,0,.31,1,8.29,8.29,0,0,0,.48.83,5.42,5.42,0,0,0,8.93,0,6.87,6.87,0,0,0,.49-.83,4.26,4.26,0,0,0,.31-1c.07-.39.12-.84.16-1.35s0-1.17,0-2c0-1,0-1.77,0-2.43a7.58,7.58,0,0,0-.21-1.67,3.45,3.45,0,0,0-.56-1.19,5.74,5.74,0,0,0-1-1A7,7,0,0,0,55.94,13.36Zm-2.86,9.23a1.71,1.71,0,0,1-.54,1.28,1.79,1.79,0,0,1-2.52,0,1.71,1.71,0,0,1-.54-1.28v-5A1.72,1.72,0,0,1,50,16.27a1.79,1.79,0,0,1,2.52,0,1.72,1.72,0,0,1,.54,1.28Zm0-11.37a1.69,1.69,0,0,1-.54,1.27,1.76,1.76,0,0,1-2.52,0,1.69,1.69,0,0,1-.54-1.27V7.47A1.72,1.72,0,0,1,50,6.19a1.79,1.79,0,0,1,2.52,0,1.72,1.72,0,0,1,.54,1.28Z"/><rect class="cls-1" x="61.1" y="24.18" width="3.67" height="3.67"/><path class="cls-1" d="M70.84,26.59a5.3,5.3,0,0,0,1.75,1.1,6,6,0,0,0,4.14,0,5.25,5.25,0,0,0,1.74-1.1,5.34,5.34,0,0,0,1.21-1.73,5.59,5.59,0,0,0,.45-2.3v-15a5.63,5.63,0,0,0-.45-2.31,5.3,5.3,0,0,0-1.21-1.72,5.1,5.1,0,0,0-1.74-1.1,5.83,5.83,0,0,0-4.14,0,5.14,5.14,0,0,0-1.75,1.1A5.45,5.45,0,0,0,69.63,5.2a5.63,5.63,0,0,0-.44,2.31V22.56a5.59,5.59,0,0,0,.44,2.3A5.5,5.5,0,0,0,70.84,26.59Zm2-19.08a1.81,1.81,0,0,1,.5-1.32,1.76,1.76,0,0,1,1.3-.52A1.74,1.74,0,0,1,76,6.19a1.82,1.82,0,0,1,.51,1.32V22.56A1.81,1.81,0,0,1,76,23.87a1.7,1.7,0,0,1-1.29.52,1.73,1.73,0,0,1-1.3-.52,1.8,1.8,0,0,1-.5-1.31Z"/><path class="cls-1" d="M94.53,25.58a6.48,6.48,0,0,0,.42-.83,6.53,6.53,0,0,0,.27-1c0-.36.08-.81.1-1.35s0-1.23,0-2.07c0-1,0-1.84,0-2.5s-.06-1.21-.1-1.64a6.25,6.25,0,0,0-.26-1,3.68,3.68,0,0,0-.39-.8,3.63,3.63,0,0,0-1.3-1.18,3.51,3.51,0,0,0-1.8-.47,4.39,4.39,0,0,0-1,.09,1.57,1.57,0,0,0-.56.23L89.85,13,94,2.22H89.92L85.1,15.1c-.12.34-.23.66-.32,1a5.55,5.55,0,0,0-.22,1c0,.38-.08.83-.11,1.35s0,1.17,0,2,0,1.53,0,2.07a8.77,8.77,0,0,0,.15,1.35,3.46,3.46,0,0,0,.23,1,4.89,4.89,0,0,0,.45.83,5.29,5.29,0,0,0,1.91,1.82,5.45,5.45,0,0,0,2.7.66,5.69,5.69,0,0,0,2.72-.64A5.06,5.06,0,0,0,94.53,25.58Zm-2.84-3a1.74,1.74,0,0,1-.54,1.33,1.84,1.84,0,0,1-2.52,0,1.74,1.74,0,0,1-.54-1.33V17.8a1.74,1.74,0,0,1,.54-1.33,1.84,1.84,0,0,1,2.52,0,1.74,1.74,0,0,1,.54,1.33Z"/><rect class="cls-1" x="99.71" y="24.18" width="3.67" height="3.67"/><path class="cls-1" d="M115.34,27.69a5.25,5.25,0,0,0,1.74-1.1,5.34,5.34,0,0,0,1.21-1.73,5.59,5.59,0,0,0,.45-2.3v-15a5.63,5.63,0,0,0-.45-2.31,5.3,5.3,0,0,0-1.21-1.72,5.1,5.1,0,0,0-1.74-1.1,5.83,5.83,0,0,0-4.14,0,5.14,5.14,0,0,0-1.75,1.1,5.45,5.45,0,0,0-1.21,1.72,5.63,5.63,0,0,0-.45,2.31V22.56a5.59,5.59,0,0,0,.45,2.3,5.5,5.5,0,0,0,1.21,1.73,5.3,5.3,0,0,0,1.75,1.1,6,6,0,0,0,4.14,0Zm-3.87-5.13v-15a1.81,1.81,0,0,1,.5-1.32,1.76,1.76,0,0,1,1.3-.52,1.74,1.74,0,0,1,1.29.52,1.82,1.82,0,0,1,.51,1.32V22.56a1.81,1.81,0,0,1-.51,1.31,1.7,1.7,0,0,1-1.29.52,1.73,1.73,0,0,1-1.3-.52A1.8,1.8,0,0,1,111.47,22.56Z"/><path class="cls-1" d="M133.43,12.37a5.25,5.25,0,0,0,.36-1.15,9.32,9.32,0,0,0,.14-1.21c0-.42,0-.94,0-1.57A9.16,9.16,0,0,0,133.66,6a6.18,6.18,0,0,0-.95-2.06A5,5,0,0,0,131,2.52,5.36,5.36,0,0,0,128.53,2a5.26,5.26,0,0,0-2.16.45,5.19,5.19,0,0,0-1.72,1.21,5.47,5.47,0,0,0-1.19,1.76A5.38,5.38,0,0,0,123,7.58v2h3.67V7.51a1.83,1.83,0,0,1,.48-1.37,1.84,1.84,0,0,1,1.32-.47,1.72,1.72,0,0,1,1,.27,1.67,1.67,0,0,1,.54.67,2.35,2.35,0,0,1,.2.92c0,.34,0,.67,0,1,0,.69,0,1.27-.07,1.74a4.71,4.71,0,0,1-.58,1.64L123,24.39v3.46H134V24.18h-6.62l5.4-10.41C133,13.22,133.26,12.75,133.43,12.37Z"/><rect class="cls-1" x="137.64" y="16.04" width="10.84" height="3.67"/><path class="cls-1" d="M160.52,27.69a5.25,5.25,0,0,0,1.74-1.1,5.34,5.34,0,0,0,1.21-1.73,5.59,5.59,0,0,0,.45-2.3v-15a5.63,5.63,0,0,0-.45-2.31,5.3,5.3,0,0,0-1.21-1.72,5.1,5.1,0,0,0-1.74-1.1,5.83,5.83,0,0,0-4.14,0,5.24,5.24,0,0,0-1.75,1.1,5.43,5.43,0,0,0-1.2,1.72A5.63,5.63,0,0,0,153,7.51V22.56a5.59,5.59,0,0,0,.45,2.3,5.47,5.47,0,0,0,1.2,1.73,5.4,5.4,0,0,0,1.75,1.1,6,6,0,0,0,4.14,0Zm-3.87-5.13v-15a1.85,1.85,0,0,1,.5-1.32,1.89,1.89,0,0,1,2.6,0,1.85,1.85,0,0,1,.5,1.32V22.56a1.84,1.84,0,0,1-.5,1.31,1.88,1.88,0,0,1-2.6,0A1.84,1.84,0,0,1,156.65,22.56Z"/><path class="cls-1" d="M171,27.4a5.45,5.45,0,0,0,2.7.66,5.69,5.69,0,0,0,2.72-.64,5.06,5.06,0,0,0,1.92-1.84,6.48,6.48,0,0,0,.42-.83,4.76,4.76,0,0,0,.27-1c.05-.36.08-.81.11-1.35s0-1.23,0-2.07c0-1,0-1.84,0-2.5s-.06-1.21-.11-1.64a6.37,6.37,0,0,0-.25-1,4.27,4.27,0,0,0-.4-.8,3.55,3.55,0,0,0-1.3-1.18,3.51,3.51,0,0,0-1.8-.47,4.52,4.52,0,0,0-1,.09,1.51,1.51,0,0,0-.55.23l-.08-.07,4.18-10.76h-4.1L168.89,15.1c-.12.34-.23.66-.32,1a5.55,5.55,0,0,0-.22,1c0,.38-.08.83-.11,1.35s0,1.17,0,2,0,1.53,0,2.07a10.23,10.23,0,0,0,.15,1.35,3.84,3.84,0,0,0,.23,1,4.89,4.89,0,0,0,.45.83A5.29,5.29,0,0,0,171,27.4Zm.9-9.6a1.74,1.74,0,0,1,.54-1.33,1.84,1.84,0,0,1,2.52,0,1.74,1.74,0,0,1,.54,1.33v4.76a1.74,1.74,0,0,1-.54,1.33,1.84,1.84,0,0,1-2.52,0,1.74,1.74,0,0,1-.54-1.33Z"/><rect class="cls-1" x="183.5" y="24.18" width="3.67" height="3.67"/><path class="cls-1" d="M200.87,3.48a5.1,5.1,0,0,0-1.74-1.1,5.83,5.83,0,0,0-4.14,0,5.23,5.23,0,0,0-3,2.82,5.63,5.63,0,0,0-.46,2.31V22.56a5.59,5.59,0,0,0,.46,2.3,5.31,5.31,0,0,0,1.2,1.73,5.4,5.4,0,0,0,1.75,1.1,6,6,0,0,0,4.14,0,5.25,5.25,0,0,0,1.74-1.1,5.34,5.34,0,0,0,1.21-1.73,5.59,5.59,0,0,0,.45-2.3v-15a5.63,5.63,0,0,0-.45-2.31A5.3,5.3,0,0,0,200.87,3.48Zm-2,19.08a1.81,1.81,0,0,1-.51,1.31,1.7,1.7,0,0,1-1.29.52,1.73,1.73,0,0,1-1.3-.52,1.8,1.8,0,0,1-.5-1.31v-15a1.81,1.81,0,0,1,.5-1.32,1.76,1.76,0,0,1,1.3-.52,1.74,1.74,0,0,1,1.29.52,1.82,1.82,0,0,1,.51,1.32Z"/><path class="cls-1" d="M217.44,12.76a4.73,4.73,0,0,0,.27-1.36c0-.56,0-1.28,0-2.16a14.71,14.71,0,0,0-.32-3.53,4.25,4.25,0,0,0-.45-1,8.91,8.91,0,0,0-.63-.86,5.92,5.92,0,0,0-1.5-1.21,4.84,4.84,0,0,0-2.5-.59,5.38,5.38,0,0,0-2.16.43,5.89,5.89,0,0,0-1.76,1.15,5.14,5.14,0,0,0-1.19,1.73,5.3,5.3,0,0,0-.43,2.13V9.56h3.67V7.47a2.19,2.19,0,0,1,.41-1.19,1.58,1.58,0,0,1,1.39-.61,1.72,1.72,0,0,1,1.31.51,1.74,1.74,0,0,1,.49,1.29v3.31c0,1-.21,1.58-.63,1.84a4.68,4.68,0,0,1-2.29.4v3.24a11.54,11.54,0,0,1,1.46.07,1.61,1.61,0,0,1,.88.36,2.5,2.5,0,0,1,.58,2v3.67a2.16,2.16,0,0,1-.49,1.49,1.62,1.62,0,0,1-1.31.56,1.65,1.65,0,0,1-1.32-.56,2.09,2.09,0,0,1-.48-1.42V20.5h-3.67v2.09a5.67,5.67,0,0,0,.52,2.56,5.11,5.11,0,0,0,1.31,1.69,5.21,5.21,0,0,0,1.77.94,6.47,6.47,0,0,0,1.83.28A5.24,5.24,0,0,0,215,27.4a5.94,5.94,0,0,0,2.22-2.5,4.26,4.26,0,0,0,.28-1,9.81,9.81,0,0,0,.17-1.36c0-.56,0-1.25,0-2.09s0-1.66,0-2.25a5.21,5.21,0,0,0-.25-1.53,2.87,2.87,0,0,0-.66-1.08,7,7,0,0,0-1.32-1,8.35,8.35,0,0,0,1.24-.86A2.81,2.81,0,0,0,217.44,12.76Z"/><polygon class="cls-1" points="10.52 44.79 8.07 44.79 4.5 52.59 4.45 52.59 4.45 44.79 2 44.79 2 61.88 4.45 61.88 4.45 56.77 5.77 54.3 8.55 61.88 11.14 61.88 7.18 51.63 10.52 44.79"/><path class="cls-1" d="M19.56,50.53a3.32,3.32,0,0,0-1.18-.72,4.27,4.27,0,0,0-1.44-.24,4,4,0,0,0-1.51.27,3.55,3.55,0,0,0-1.15.76,3.9,3.9,0,0,0-1.11,2.64h2.38a1.49,1.49,0,0,1,.51-.91,1.39,1.39,0,0,1,.88-.31,1.07,1.07,0,0,1,1,.4,1.87,1.87,0,0,1,.26,1v1.27l-.36,0a1.19,1.19,0,0,1-.28,0,1.14,1.14,0,0,0-.27,0H17a6,6,0,0,0-1.9.25,2.64,2.64,0,0,0-1.17.75A2.87,2.87,0,0,0,13.29,57a8.84,8.84,0,0,0-.17,1.81,4.49,4.49,0,0,0,.26,1.65,2.2,2.2,0,0,0,.66,1,2.24,2.24,0,0,0,.85.49,3,3,0,0,0,.87.13,2.27,2.27,0,0,0,1.38-.36,4.44,4.44,0,0,0,1-1h0v1.25h2.45V53.41a4.35,4.35,0,0,0-.29-1.68A3.47,3.47,0,0,0,19.56,50.53Zm-1.4,7.77a1.76,1.76,0,0,1-.34,1.16,1.23,1.23,0,0,1-1,.4,1.1,1.1,0,0,1-.93-.43,1.75,1.75,0,0,1-.34-1.13A1.49,1.49,0,0,1,16.14,57a2.35,2.35,0,0,1,1.35-.37,3.71,3.71,0,0,1,.67.07Z"/><path class="cls-1" d="M30.05,50.24a2.16,2.16,0,0,0-.82-.52,2.85,2.85,0,0,0-.91-.15,2.37,2.37,0,0,0-1.38.37,3.34,3.34,0,0,0-.92,1H26V49.71H23.52V61.88H26V53.7a2.48,2.48,0,0,1,.26-1.25,1,1,0,0,1,1-.43,1.06,1.06,0,0,1,.89.38,1.63,1.63,0,0,1,.31,1.06v8.42h2.45V52.54a4,4,0,0,0-.21-1.38A2.73,2.73,0,0,0,30.05,50.24Z"/><path class="cls-1" d="M37.16,59.72a1.05,1.05,0,0,1-1-.43,2.43,2.43,0,0,1-.35-.94h-2.3a4.14,4.14,0,0,0,.33,1.6A3.51,3.51,0,0,0,37.19,62a3.72,3.72,0,0,0,1.46-.28,3.49,3.49,0,0,0,1.15-.8,3.82,3.82,0,0,0,.76-1.16,3.75,3.75,0,0,0,.27-1.43,4,4,0,0,0-.51-2,3.48,3.48,0,0,0-1.89-1.44L37,54.34a1.55,1.55,0,0,1-.86-.58A1.47,1.47,0,0,1,36,53.1a1.35,1.35,0,0,1,.31-.86,1.13,1.13,0,0,1,.89-.37,1.31,1.31,0,0,1,.85.31,1.23,1.23,0,0,1,.4.94h2.3a3.63,3.63,0,0,0-.26-1.4,3.69,3.69,0,0,0-.72-1.14,3.22,3.22,0,0,0-1.09-.75,3.89,3.89,0,0,0-2.77,0,3.19,3.19,0,0,0-1.13.73A3.38,3.38,0,0,0,34,51.69a3.42,3.42,0,0,0-.29,1.43,3.3,3.3,0,0,0,.66,2.08,4.06,4.06,0,0,0,1.81,1.28l1.18.43a2.16,2.16,0,0,1,1,.63,1.44,1.44,0,0,1,.26.86,1.18,1.18,0,0,1-.42,1A1.47,1.47,0,0,1,37.16,59.72Z"/><path class="cls-1" d="M45.09,61.89A3,3,0,0,0,46,62a2.31,2.31,0,0,0,1.38-.36,4.41,4.41,0,0,0,1-1h0v1.25h2.45V53.41a4.54,4.54,0,0,0-.29-1.68,3.49,3.49,0,0,0-.77-1.2,3.28,3.28,0,0,0-1.17-.72,4.27,4.27,0,0,0-1.44-.24,4.07,4.07,0,0,0-1.52.27,3.66,3.66,0,0,0-1.15.76,3.89,3.89,0,0,0-1.1,2.64h2.37a1.5,1.5,0,0,1,.52-.91,1.37,1.37,0,0,1,.88-.31,1.07,1.07,0,0,1,1,.4,2,2,0,0,1,.26,1v1.27l-.36,0a1.28,1.28,0,0,1-.29,0,1.1,1.1,0,0,0-.26,0h-.27a5.92,5.92,0,0,0-1.89.25,2.67,2.67,0,0,0-1.18.75A3,3,0,0,0,43.5,57a8.84,8.84,0,0,0-.17,1.81,4.51,4.51,0,0,0,.25,1.65,2.38,2.38,0,0,0,.66,1A2.31,2.31,0,0,0,45.09,61.89ZM46.34,57a2.41,2.41,0,0,1,1.36-.37,3.8,3.8,0,0,1,.67.07V58.3A1.76,1.76,0,0,1,48,59.46a1.2,1.2,0,0,1-1,.4,1.13,1.13,0,0,1-.94-.43,1.81,1.81,0,0,1-.33-1.13A1.51,1.51,0,0,1,46.34,57Z"/><rect class="cls-1" x="53.73" y="44.79" width="2.45" height="2.45"/><rect class="cls-1" x="53.73" y="49.71" width="2.45" height="12.17"/><path class="cls-1" d="M67.63,61.71a3.93,3.93,0,0,0,3.06,0,4,4,0,0,0,2.13-2.12,3.93,3.93,0,0,0,.3-1.55V44.79H70.67v13a1.8,1.8,0,0,1-.43,1.34,1.55,1.55,0,0,1-2.16,0,1.8,1.8,0,0,1-.43-1.34v-13H65.2V58a3.77,3.77,0,0,0,.31,1.55,4.34,4.34,0,0,0,.86,1.26A4.15,4.15,0,0,0,67.63,61.71Z"/><path class="cls-1" d="M80.86,52.4a1.63,1.63,0,0,1,.31,1.06v8.42h2.45V52.54a3.77,3.77,0,0,0-.22-1.38,2.57,2.57,0,0,0-.57-.92,2.24,2.24,0,0,0-.82-.52,2.89,2.89,0,0,0-.91-.15,2.37,2.37,0,0,0-1.38.37,3.51,3.51,0,0,0-.93,1h0V49.71H76.3V61.88h2.45V53.7A2.38,2.38,0,0,1,79,52.45,1,1,0,0,1,80,52,1.08,1.08,0,0,1,80.86,52.4Z"/><rect class="cls-1" x="86.63" y="44.79" width="2.45" height="2.45"/><rect class="cls-1" x="86.63" y="49.71" width="2.45" height="12.17"/><polygon class="cls-1" points="99.99 49.71 97.4 49.71 95.77 57.49 95.72 57.49 94.09 49.71 91.5 49.71 94.67 61.88 96.83 61.88 99.99 49.71"/><path class="cls-1" d="M109.26,58.35h-2.45a2.05,2.05,0,0,1-.28.82,1,1,0,0,1-.92.41,1.22,1.22,0,0,1-.88-.32,1.17,1.17,0,0,1-.32-.88V56.72h4.85V53.36a3.92,3.92,0,0,0-1-2.71,3.32,3.32,0,0,0-1.17-.79,3.71,3.71,0,0,0-1.52-.29,3.77,3.77,0,0,0-2,.48,3.33,3.33,0,0,0-1.23,1.27,3.17,3.17,0,0,0-.36,1.1,8.4,8.4,0,0,0-.1,1.37v4a8.32,8.32,0,0,0,.1,1.37,3.17,3.17,0,0,0,.36,1.1,3.33,3.33,0,0,0,1.23,1.27,3.77,3.77,0,0,0,2,.48,3.83,3.83,0,0,0,1.51-.28,3.56,3.56,0,0,0,2.14-3.39Zm-4.85-4.94a1.53,1.53,0,0,1,.32-1,1.15,1.15,0,0,1,.88-.34,1.12,1.12,0,0,1,.87.34,1.49,1.49,0,0,1,.33,1V54.8h-2.4Z"/><path class="cls-1" d="M114.55,54.66a2.87,2.87,0,0,1,.24-1.25,2.37,2.37,0,0,1,.62-.82,2.14,2.14,0,0,1,.81-.44A2.79,2.79,0,0,1,117,52a1.92,1.92,0,0,1,.75.14V49.57A3.81,3.81,0,0,0,116,50,7.35,7.35,0,0,0,114.55,51v-1.3H112.1V61.88h2.45Z"/><path class="cls-1" d="M126.17,60.94a3.62,3.62,0,0,0,.75-1.16,3.58,3.58,0,0,0,.28-1.43,3.92,3.92,0,0,0-.52-2,3.46,3.46,0,0,0-1.88-1.44l-1.44-.58a1.55,1.55,0,0,1-.86-.58,1.35,1.35,0,0,1-.17-.66,1.3,1.3,0,0,1,.31-.86,1.12,1.12,0,0,1,.89-.37,1.33,1.33,0,0,1,.85.31,1.23,1.23,0,0,1,.4.94h2.3a3.64,3.64,0,0,0-.27-1.4,3.49,3.49,0,0,0-.71-1.14,3.26,3.26,0,0,0-1.1-.75,3.65,3.65,0,0,0-1.38-.26,3.77,3.77,0,0,0-1.39.25,3.28,3.28,0,0,0-1.13.73,3.53,3.53,0,0,0-.79,1.14,3.58,3.58,0,0,0-.29,1.43,3.3,3.3,0,0,0,.66,2.08,4.09,4.09,0,0,0,1.82,1.28l1.17.43a2,2,0,0,1,1,.63,1.38,1.38,0,0,1,.27.86,1.21,1.21,0,0,1-.42,1,1.49,1.49,0,0,1-1,.35,1,1,0,0,1-1-.43,2.28,2.28,0,0,1-.35-.94H119.9a4.14,4.14,0,0,0,.34,1.6A3.51,3.51,0,0,0,123.55,62a3.74,3.74,0,0,0,1.47-.28A3.6,3.6,0,0,0,126.17,60.94Z"/><rect class="cls-1" x="129.89" y="49.71" width="2.45" height="12.17"/><rect class="cls-1" x="129.89" y="44.79" width="2.45" height="2.45"/><path class="cls-1" d="M138.33,46h-2.45v3.69h-1.22v1.92h1.22V59a3.59,3.59,0,0,0,.16,1,2.52,2.52,0,0,0,1.39,1.6,3.45,3.45,0,0,0,1.41.26h1v-2.3a6.39,6.39,0,0,1-.68,0,1,1,0,0,1-.47-.14.62.62,0,0,1-.27-.36,2,2,0,0,1-.09-.67V51.63h1.51V49.71h-1.51Z"/><path class="cls-1" d="M146.05,57.3H146l-1.68-7.59h-2.59l3.33,11.62c-.14.72-.27,1.28-.38,1.69a4.13,4.13,0,0,1-.36.95,1,1,0,0,1-.48.43,1.92,1.92,0,0,1-.62.1h-.56v2.3h.68a4.16,4.16,0,0,0,1.06-.13,3,3,0,0,0,1-.47,3.31,3.31,0,0,0,.8-.86,4.42,4.42,0,0,0,.54-1.35l3.5-14.28H147.7Z"/><path class="cls-1" d="M163.69,57.8a1.84,1.84,0,0,1-.43,1.34,1.47,1.47,0,0,1-1.08.44,1.44,1.44,0,0,1-1.08-.44,1.8,1.8,0,0,1-.44-1.34v-13h-2.44V58a3.77,3.77,0,0,0,.31,1.55,4.11,4.11,0,0,0,2.12,2.12,3.7,3.7,0,0,0,1.53.31,3.77,3.77,0,0,0,1.53-.31A3.92,3.92,0,0,0,166.14,58V44.79h-2.45Z"/><path class="cls-1" d="M180.64,50.24a2.31,2.31,0,0,0-.86-.52,3.13,3.13,0,0,0-.94-.15,2.79,2.79,0,0,0-1.53.36,5.17,5.17,0,0,0-1,.86,4,4,0,0,0-.86-.84,2.26,2.26,0,0,0-1.32-.38,2.37,2.37,0,0,0-1.38.37,3.51,3.51,0,0,0-.93,1h-.05V49.71h-2.44V61.88h2.44V53.7a2.37,2.37,0,0,1,.27-1.25,1,1,0,0,1,1-.43,1.08,1.08,0,0,1,.89.38,1.69,1.69,0,0,1,.31,1.06v8.42h2.45V53.7a2.38,2.38,0,0,1,.26-1.25,1,1,0,0,1,1-.43,1.08,1.08,0,0,1,.89.38,1.63,1.63,0,0,1,.31,1.06v8.42h2.45V52.54a3.55,3.55,0,0,0-.24-1.38A2.68,2.68,0,0,0,180.64,50.24Z"/><path class="cls-1" d="M189.52,49.86a3.71,3.71,0,0,0-1.52-.29,3.77,3.77,0,0,0-2,.48,3.33,3.33,0,0,0-1.23,1.27,3.17,3.17,0,0,0-.36,1.1,8.4,8.4,0,0,0-.1,1.37v4a8.32,8.32,0,0,0,.1,1.37,3.17,3.17,0,0,0,.36,1.1A3.33,3.33,0,0,0,186,61.54a3.77,3.77,0,0,0,2,.48,3.83,3.83,0,0,0,1.51-.28,3.56,3.56,0,0,0,2.14-3.39H189.2a2.05,2.05,0,0,1-.28.82,1,1,0,0,1-.92.41,1.22,1.22,0,0,1-.88-.32,1.17,1.17,0,0,1-.32-.88V56.72h4.85V53.36a3.92,3.92,0,0,0-1-2.71A3.32,3.32,0,0,0,189.52,49.86Zm-.32,4.94h-2.4V53.41a1.53,1.53,0,0,1,.32-1,1.31,1.31,0,0,1,1.76,0,1.53,1.53,0,0,1,.32,1Z"/><path class="cls-1" d="M199.32,50.82h0a3.06,3.06,0,0,0-1-.93,2.59,2.59,0,0,0-1.28-.32,2.42,2.42,0,0,0-1.37.31,2.32,2.32,0,0,0-1.13,1.8,18.3,18.3,0,0,0-.07,1.94v4.64a11.24,11.24,0,0,0,.09,1.6,3.24,3.24,0,0,0,.32,1A2.18,2.18,0,0,0,197,62a3,3,0,0,0,.79-.09,2.07,2.07,0,0,0,.6-.27,2.28,2.28,0,0,0,.48-.39l.46-.49v1.1h2.45V44.79h-2.45Zm0,7.24a1.68,1.68,0,0,1-.34,1.1,1.07,1.07,0,0,1-.88.42,1,1,0,0,1-.92-.46,2.22,2.22,0,0,1-.28-1.2V53.46a1.94,1.94,0,0,1,.25-1,1,1,0,0,1,.95-.43,1.13,1.13,0,0,1,.87.37,1.34,1.34,0,0,1,.35,1Z"/><path class="cls-1" d="M210.91,50.53a3.32,3.32,0,0,0-1.18-.72,4.27,4.27,0,0,0-1.44-.24,4,4,0,0,0-1.51.27,3.55,3.55,0,0,0-1.15.76,4,4,0,0,0-1.11,2.64h2.38a1.46,1.46,0,0,1,.52-.91,1.35,1.35,0,0,1,.87-.31,1.05,1.05,0,0,1,1,.4,1.87,1.87,0,0,1,.26,1v1.27l-.35,0a1.23,1.23,0,0,1-.29,0,1.14,1.14,0,0,0-.27,0h-.26a6,6,0,0,0-1.9.25,2.69,2.69,0,0,0-1.17.75,2.87,2.87,0,0,0-.63,1.31,8.89,8.89,0,0,0-.16,1.81,4.51,4.51,0,0,0,.25,1.65,2.38,2.38,0,0,0,.66,1,2.24,2.24,0,0,0,.85.49,3,3,0,0,0,.88.13,2.31,2.31,0,0,0,1.38-.36,4.63,4.63,0,0,0,1-1h0v1.25H212V53.41a4.35,4.35,0,0,0-.29-1.68A3.47,3.47,0,0,0,210.91,50.53Zm-1.4,7.77a1.76,1.76,0,0,1-.34,1.16,1.22,1.22,0,0,1-1,.4,1.11,1.11,0,0,1-.94-.43,1.81,1.81,0,0,1-.34-1.13,1.49,1.49,0,0,1,.57-1.35,2.38,2.38,0,0,1,1.35-.37,3.71,3.71,0,0,1,.67.07Z"/><path class="cls-1" d="M227.42,45.78a3.69,3.69,0,0,0-2.81-1.13A4.25,4.25,0,0,0,223,45a3.64,3.64,0,0,0-1.26.83,3.6,3.6,0,0,0-.81,1.24,4,4,0,0,0-.29,1.56V58a4.31,4.31,0,0,0,.37,1.93,3.63,3.63,0,0,0,.95,1.24,3.32,3.32,0,0,0,1.29.67,5.44,5.44,0,0,0,1.42.19,3.54,3.54,0,0,0,1.52-.32,3.94,3.94,0,0,0,1.24-.88,4,4,0,0,0,.83-1.26,3.79,3.79,0,0,0,.3-1.5V57H226.1v.84a2.3,2.3,0,0,1-.14.84,1.52,1.52,0,0,1-.37.53,1.57,1.57,0,0,1-.51.27,1.67,1.67,0,0,1-.52.09,1.27,1.27,0,0,1-1.16-.51,2.21,2.21,0,0,1-.32-1.25V49.09a2.91,2.91,0,0,1,.3-1.43,1.23,1.23,0,0,1,1.21-.56,1.32,1.32,0,0,1,1.1.52,2,2,0,0,1,.41,1.25v.82h2.45v-1a4.48,4.48,0,0,0-.3-1.65A4,4,0,0,0,227.42,45.78Z"/><path class="cls-1" d="M237.71,50.53a3.28,3.28,0,0,0-1.17-.72,4.27,4.27,0,0,0-1.44-.24,4.07,4.07,0,0,0-1.52.27,3.66,3.66,0,0,0-1.15.76,3.89,3.89,0,0,0-1.1,2.64h2.37a1.5,1.5,0,0,1,.52-.91,1.37,1.37,0,0,1,.88-.31,1.07,1.07,0,0,1,1,.4,2,2,0,0,1,.26,1v1.27l-.36,0a1.28,1.28,0,0,1-.29,0,1.1,1.1,0,0,0-.26,0h-.27a5.92,5.92,0,0,0-1.89.25,2.67,2.67,0,0,0-1.18.75,3,3,0,0,0-.62,1.31,8.84,8.84,0,0,0-.17,1.81,4.51,4.51,0,0,0,.25,1.65,2.38,2.38,0,0,0,.66,1,2.31,2.31,0,0,0,.85.49,3,3,0,0,0,.88.13,2.31,2.31,0,0,0,1.38-.36,4.41,4.41,0,0,0,1-1h0v1.25h2.45V53.41a4.54,4.54,0,0,0-.29-1.68A3.49,3.49,0,0,0,237.71,50.53Zm-1.39,7.77a1.76,1.76,0,0,1-.35,1.16,1.2,1.2,0,0,1-1,.4,1.13,1.13,0,0,1-.94-.43,1.81,1.81,0,0,1-.33-1.13,1.51,1.51,0,0,1,.56-1.35,2.41,2.41,0,0,1,1.36-.37,3.8,3.8,0,0,1,.67.07Z"/><path class="cls-1" d="M248.21,50.24a2.24,2.24,0,0,0-.82-.52,2.89,2.89,0,0,0-.91-.15,2.37,2.37,0,0,0-1.38.37,3.51,3.51,0,0,0-.93,1h0V49.71h-2.45V61.88h2.45V53.7a2.48,2.48,0,0,1,.26-1.25,1,1,0,0,1,1-.43,1.06,1.06,0,0,1,.89.38,1.63,1.63,0,0,1,.31,1.06v8.42H249V52.54a3.77,3.77,0,0,0-.22-1.38A2.57,2.57,0,0,0,248.21,50.24Z"/><polygon class="cls-1" points="255.46 57.49 255.41 57.49 253.78 49.71 251.18 49.71 254.35 61.88 256.51 61.88 259.68 49.71 257.09 49.71 255.46 57.49"/><path class="cls-1" d="M267.94,50.53a3.2,3.2,0,0,0-1.17-.72,4.27,4.27,0,0,0-1.44-.24,4,4,0,0,0-1.51.27,3.55,3.55,0,0,0-1.15.76,3.86,3.86,0,0,0-1.11,2.64h2.38a1.49,1.49,0,0,1,.51-.91,1.39,1.39,0,0,1,.88-.31,1.07,1.07,0,0,1,1,.4,2,2,0,0,1,.26,1v1.27l-.36,0a1.19,1.19,0,0,1-.28,0,1.14,1.14,0,0,0-.27,0h-.26a6,6,0,0,0-1.9.25,2.73,2.73,0,0,0-1.18.75,3,3,0,0,0-.62,1.31,8.84,8.84,0,0,0-.17,1.81,4.73,4.73,0,0,0,.25,1.65,2.38,2.38,0,0,0,.66,1,2.35,2.35,0,0,0,.86.49,2.91,2.91,0,0,0,.87.13,2.29,2.29,0,0,0,1.38-.36,4.41,4.41,0,0,0,1-1h.05v1.25H269V53.41a4.35,4.35,0,0,0-.29-1.68A3.49,3.49,0,0,0,267.94,50.53Zm-1.39,7.77a1.71,1.71,0,0,1-.35,1.16,1.2,1.2,0,0,1-1,.4,1.1,1.1,0,0,1-.93-.43A1.75,1.75,0,0,1,264,58.3a1.51,1.51,0,0,1,.56-1.35,2.41,2.41,0,0,1,1.36-.37,3.71,3.71,0,0,1,.67.07Z"/><path class="cls-1" d="M276.49,54.92l-1.44-.58a1.55,1.55,0,0,1-.87-.58,1.47,1.47,0,0,1-.17-.66,1.31,1.31,0,0,1,.32-.86,1.1,1.1,0,0,1,.88-.37,1.35,1.35,0,0,1,.86.31,1.23,1.23,0,0,1,.39.94h2.31a3.64,3.64,0,0,0-.27-1.4,3.51,3.51,0,0,0-.72-1.14,3.22,3.22,0,0,0-1.09-.75,3.65,3.65,0,0,0-1.38-.26,3.73,3.73,0,0,0-1.39.25,3.28,3.28,0,0,0-1.13.73,3.38,3.38,0,0,0-.79,1.14,3.58,3.58,0,0,0-.29,1.43,3.3,3.3,0,0,0,.66,2.08,4.11,4.11,0,0,0,1.81,1.28l1.18.43a2.16,2.16,0,0,1,1,.63,1.44,1.44,0,0,1,.26.86,1.18,1.18,0,0,1-.42,1,1.45,1.45,0,0,1-1,.35,1.06,1.06,0,0,1-1-.43,2.43,2.43,0,0,1-.35-.94h-2.3a4.14,4.14,0,0,0,.34,1.6,3.52,3.52,0,0,0,.81,1.14,3.57,3.57,0,0,0,2.5.93,3.69,3.69,0,0,0,1.46-.28,3.49,3.49,0,0,0,1.15-.8,3.65,3.65,0,0,0,.76-1.16,3.76,3.76,0,0,0,.28-1.43,4,4,0,0,0-.52-2A3.46,3.46,0,0,0,276.49,54.92Z"/><polygon class="cls-1" points="10.52 72.79 8.07 72.79 4.5 80.59 4.45 80.59 4.45 72.79 2 72.79 2 89.88 4.45 89.88 4.45 84.77 5.77 82.3 8.55 89.88 11.14 89.88 7.18 79.63 10.52 72.79"/><path class="cls-1" d="M19.56,78.53a3.32,3.32,0,0,0-1.18-.72,4.27,4.27,0,0,0-1.44-.24,4,4,0,0,0-1.51.27,3.55,3.55,0,0,0-1.15.76,3.9,3.9,0,0,0-1.11,2.64h2.38a1.49,1.49,0,0,1,.51-.91,1.39,1.39,0,0,1,.88-.31,1.07,1.07,0,0,1,1,.4,1.87,1.87,0,0,1,.26,1v1.27a2.19,2.19,0,0,0-.36,0,1.19,1.19,0,0,1-.28,0,1.14,1.14,0,0,0-.27,0H17a6,6,0,0,0-1.9.25,2.64,2.64,0,0,0-1.17.75A2.87,2.87,0,0,0,13.29,85a8.84,8.84,0,0,0-.17,1.81,4.49,4.49,0,0,0,.26,1.65,2.2,2.2,0,0,0,.66,1,2.24,2.24,0,0,0,.85.49,3,3,0,0,0,.87.13,2.27,2.27,0,0,0,1.38-.36,4.44,4.44,0,0,0,1-1h0v1.25h2.45V81.41a4.35,4.35,0,0,0-.29-1.68A3.47,3.47,0,0,0,19.56,78.53Zm-1.4,7.77a1.76,1.76,0,0,1-.34,1.16,1.23,1.23,0,0,1-1,.4,1.1,1.1,0,0,1-.93-.43,1.75,1.75,0,0,1-.34-1.13A1.49,1.49,0,0,1,16.14,85a2.35,2.35,0,0,1,1.35-.37,3.71,3.71,0,0,1,.67.07Z"/><path class="cls-1" d="M30.05,78.24a2.16,2.16,0,0,0-.82-.52,2.85,2.85,0,0,0-.91-.15,2.37,2.37,0,0,0-1.38.37,3.34,3.34,0,0,0-.92,1H26V77.71H23.52V89.88H26V81.7a2.48,2.48,0,0,1,.26-1.25,1,1,0,0,1,1-.43,1.06,1.06,0,0,1,.89.38,1.63,1.63,0,0,1,.31,1.06v8.42h2.45V80.54a4,4,0,0,0-.21-1.38A2.73,2.73,0,0,0,30.05,78.24Z"/><path class="cls-1" d="M38.71,78.82h-.05a3,3,0,0,0-1-.93,2.56,2.56,0,0,0-1.28-.32,2.42,2.42,0,0,0-1.37.31,2.32,2.32,0,0,0-1.13,1.8,18.3,18.3,0,0,0-.07,1.94v4.64a9.74,9.74,0,0,0,.1,1.6,3,3,0,0,0,.31,1A2.19,2.19,0,0,0,36.38,90a3.15,3.15,0,0,0,.8-.09,2.34,2.34,0,0,0,.6-.27,2.93,2.93,0,0,0,.48-.39l.45-.49v1.1h2.45V72.79H38.71Zm0,7.24a1.74,1.74,0,0,1-.33,1.1,1.09,1.09,0,0,1-.89.42,1,1,0,0,1-.91-.46,2.13,2.13,0,0,1-.29-1.2V81.46a1.94,1.94,0,0,1,.25-1,1,1,0,0,1,1-.43,1.13,1.13,0,0,1,.87.37,1.3,1.3,0,0,1,.35,1Z"/><path class="cls-1" d="M50.3,78.53a3.32,3.32,0,0,0-1.18-.72,4.18,4.18,0,0,0-1.44-.24,4,4,0,0,0-1.51.27A3.55,3.55,0,0,0,45,78.6a3.89,3.89,0,0,0-1.1,2.64h2.37a1.46,1.46,0,0,1,.52-.91,1.35,1.35,0,0,1,.87-.31,1,1,0,0,1,1,.4,1.87,1.87,0,0,1,.27,1v1.27l-.36,0a1.28,1.28,0,0,1-.29,0,1.1,1.1,0,0,0-.26,0h-.27a5.88,5.88,0,0,0-1.89.25,2.67,2.67,0,0,0-1.18.75A3,3,0,0,0,44,85a8.19,8.19,0,0,0-.17,1.81,4.51,4.51,0,0,0,.25,1.65,2.38,2.38,0,0,0,.66,1,2.31,2.31,0,0,0,.85.49,3,3,0,0,0,.88.13,2.31,2.31,0,0,0,1.38-.36,4.41,4.41,0,0,0,1-1h0v1.25h2.45V81.41a4.54,4.54,0,0,0-.29-1.68A3.49,3.49,0,0,0,50.3,78.53ZM48.91,86.3a1.76,1.76,0,0,1-.35,1.16,1.21,1.21,0,0,1-1,.4,1.13,1.13,0,0,1-.94-.43,1.81,1.81,0,0,1-.33-1.13A1.49,1.49,0,0,1,46.88,85a2.41,2.41,0,0,1,1.36-.37,3.8,3.8,0,0,1,.67.07Z"/><rect class="cls-1" x="54.26" y="72.79" width="2.45" height="2.45"/><rect class="cls-1" x="54.26" y="77.71" width="2.45" height="12.17"/><polygon class="cls-1" points="71.28 81.84 71.23 81.84 68.09 72.79 65.74 72.79 65.74 89.88 68.18 89.88 68.18 79.49 68.23 79.49 70.63 86.83 71.86 86.83 74.28 79.49 74.33 79.49 74.33 89.88 76.78 89.88 76.78 72.79 74.4 72.79 71.28 81.84"/><path class="cls-1" d="M85,77.86a4.19,4.19,0,0,0-3.48.19,3.26,3.26,0,0,0-1.59,2.37,8.4,8.4,0,0,0-.1,1.37v4a8.32,8.32,0,0,0,.1,1.37,3.26,3.26,0,0,0,1.59,2.37,3.77,3.77,0,0,0,2,.48A3.83,3.83,0,0,0,85,89.74a3.54,3.54,0,0,0,2.13-3.39H84.66a2.42,2.42,0,0,1-.28.82,1,1,0,0,1-.92.41,1.22,1.22,0,0,1-.88-.32,1.17,1.17,0,0,1-.32-.88V84.72H87.1V81.36a4,4,0,0,0-.95-2.71A3.41,3.41,0,0,0,85,77.86Zm-.32,4.94h-2.4V81.41a1.53,1.53,0,0,1,.32-1,1.15,1.15,0,0,1,.88-.34,1.12,1.12,0,0,1,.87.34,1.49,1.49,0,0,1,.33,1Z"/><path class="cls-1" d="M103.7,80.38a6.38,6.38,0,0,0,.47-2.57q0-5-4.32-5H95.91V89.88h2.45v-7.3h1.47l2.28,7.3h2.59l-2.64-7.8A3.63,3.63,0,0,0,103.7,80.38Zm-2-1.48a2.62,2.62,0,0,1-.26.83,1.49,1.49,0,0,1-.6.51,2.49,2.49,0,0,1-1,.18H98.36V75.1h1.27a1.94,1.94,0,0,1,1.73.67,2.19,2.19,0,0,1,.29.85,9.32,9.32,0,0,1,0,2.28Z"/><rect class="cls-1" x="107.58" y="72.79" width="2.45" height="17.09"/><path class="cls-1" d="M119.1,73a4.15,4.15,0,0,0-1.67-.33,4.26,4.26,0,0,0-1.86.37,3.67,3.67,0,0,0-1.29,1,4.2,4.2,0,0,0-.79,1.48,6.48,6.48,0,0,0-.26,1.83,5.88,5.88,0,0,0,.54,2.67,3.86,3.86,0,0,0,2.12,1.72l1.75.72a6.47,6.47,0,0,1,.74.36,1.39,1.39,0,0,1,.44.43,1.82,1.82,0,0,1,.19.7,10.74,10.74,0,0,1,0,1.1c0,.39,0,.73,0,1a1.92,1.92,0,0,1-.22.8,1.35,1.35,0,0,1-.54.52,2.2,2.2,0,0,1-1,.18A1.55,1.55,0,0,1,116,87a2,2,0,0,1-.39-1.22v-.76h-2.45V86a4,4,0,0,0,.32,1.59,4.28,4.28,0,0,0,.88,1.29,4,4,0,0,0,1.32.86,4.29,4.29,0,0,0,1.65.31,4.64,4.64,0,0,0,2-.38,3.54,3.54,0,0,0,1.32-1.06,4.1,4.1,0,0,0,.69-1.57,8.4,8.4,0,0,0,.22-2,11.89,11.89,0,0,0-.1-1.67,4.35,4.35,0,0,0-.36-1.31,3,3,0,0,0-.79-1,4.81,4.81,0,0,0-1.32-.73l-1.87-.75a3.57,3.57,0,0,1-.76-.38,1.41,1.41,0,0,1-.42-.46,1.76,1.76,0,0,1-.18-.6q0-.33,0-.84a4.39,4.39,0,0,1,.07-.82,2,2,0,0,1,.26-.71,1.68,1.68,0,0,1,.51-.48,1.5,1.5,0,0,1,.81-.19,1.44,1.44,0,0,1,1.33.61,2.57,2.57,0,0,1,.4,1.45v.55h2.45v-1.2a3.7,3.7,0,0,0-1.11-2.64A4.29,4.29,0,0,0,119.1,73Z"/><polygon class="cls-1" points="124.55 89.88 131.84 89.88 131.84 87.43 127 87.43 127 82.42 131.22 82.42 131.22 80.11 127 80.11 127 75.09 131.84 75.09 131.84 72.79 124.55 72.79 124.55 89.88"/><path class="cls-2" d="M12.4,12.37a5.25,5.25,0,0,0,.36-1.15A9.3,9.3,0,0,0,12.91,10c0-.42,0-.94,0-1.57A9.6,9.6,0,0,0,12.64,6a6.19,6.19,0,0,0-1-2.06A4.83,4.83,0,0,0,10,2.52,5.32,5.32,0,0,0,7.51,2a5.22,5.22,0,0,0-2.16.45A5.34,5.34,0,0,0,3.62,3.66,5.64,5.64,0,0,0,2.43,5.42,5.38,5.38,0,0,0,2,7.58v2H5.67V7.51a1.79,1.79,0,0,1,.49-1.37,1.81,1.81,0,0,1,1.31-.47,1.73,1.73,0,0,1,1,.27,1.67,1.67,0,0,1,.54.67,2.35,2.35,0,0,1,.19.92c0,.34,0,.67,0,1a17.05,17.05,0,0,1-.07,1.74,4.51,4.51,0,0,1-.58,1.64L2,24.39v3.46H12.94V24.18H6.32l5.4-10.41C12,13.22,12.24,12.75,12.4,12.37Z"/><path class="cls-3" d="M26.52,26.59a5.66,5.66,0,0,0,1.21-1.73,5.75,5.75,0,0,0,.45-2.3v-15a5.8,5.8,0,0,0-.45-2.31,5.62,5.62,0,0,0-1.21-1.72,5.14,5.14,0,0,0-1.75-1.1,5.83,5.83,0,0,0-4.14,0,5.1,5.1,0,0,0-1.74,1.1A5.3,5.3,0,0,0,17.68,5.2a5.63,5.63,0,0,0-.45,2.31V22.56a5.59,5.59,0,0,0,.45,2.3,5.34,5.34,0,0,0,1.21,1.73,5.25,5.25,0,0,0,1.74,1.1,6,6,0,0,0,4.14,0A5.3,5.3,0,0,0,26.52,26.59Zm-2-4a1.84,1.84,0,0,1-.5,1.31,1.73,1.73,0,0,1-1.3.52,1.7,1.7,0,0,1-1.29-.52,1.81,1.81,0,0,1-.51-1.31v-15a1.82,1.82,0,0,1,.51-1.32,1.74,1.74,0,0,1,1.29-.52,1.76,1.76,0,0,1,1.3.52,1.85,1.85,0,0,1,.5,1.32Z"/><polygon class="cls-4" points="36.47 27.85 40.14 27.85 40.14 2.22 36.47 2.22 32.79 4.92 32.79 8.8 36.47 6.1 36.47 27.85"/><path class="cls-5" d="M55.94,13.36a3.37,3.37,0,0,0,.56-1.1,5.81,5.81,0,0,0,.21-1.4c0-.53,0-1.18,0-1.95s0-1.29,0-1.78a5.51,5.51,0,0,0-.24-1.28,5.07,5.07,0,0,0-.43-1,8.43,8.43,0,0,0-.61-.9,5,5,0,0,0-1.8-1.46,5.52,5.52,0,0,0-4.68,0A5,5,0,0,0,47.14,4a7,7,0,0,0-.6.9,6.74,6.74,0,0,0-.41,1,6,6,0,0,0-.25,1.28c-.05.49-.07,1.09-.07,1.78s0,1.42,0,1.95a6.32,6.32,0,0,0,.22,1.4,3.37,3.37,0,0,0,.56,1.1,7,7,0,0,0,1,1,5.74,5.74,0,0,0-1,1,3.45,3.45,0,0,0-.56,1.19,8.16,8.16,0,0,0-.22,1.67q0,1,0,2.43c0,.8,0,1.45,0,2S46,23.61,46,24a4.26,4.26,0,0,0,.31,1,8.29,8.29,0,0,0,.48.83,5.42,5.42,0,0,0,8.93,0,6.87,6.87,0,0,0,.49-.83,4.26,4.26,0,0,0,.31-1c.07-.39.12-.84.16-1.35s0-1.17,0-2c0-1,0-1.77,0-2.43a7.58,7.58,0,0,0-.21-1.67,3.45,3.45,0,0,0-.56-1.19,5.74,5.74,0,0,0-1-1A7,7,0,0,0,55.94,13.36Zm-2.86,9.23a1.71,1.71,0,0,1-.54,1.28,1.79,1.79,0,0,1-2.52,0,1.71,1.71,0,0,1-.54-1.28v-5A1.72,1.72,0,0,1,50,16.27a1.79,1.79,0,0,1,2.52,0,1.72,1.72,0,0,1,.54,1.28Zm0-11.37a1.69,1.69,0,0,1-.54,1.27,1.76,1.76,0,0,1-2.52,0,1.69,1.69,0,0,1-.54-1.27V7.47A1.72,1.72,0,0,1,50,6.19a1.79,1.79,0,0,1,2.52,0,1.72,1.72,0,0,1,.54,1.28Z"/><rect class="cls-6" x="61.1" y="24.18" width="3.67" height="3.67"/><path class="cls-7" d="M70.84,26.59a5.3,5.3,0,0,0,1.75,1.1,6,6,0,0,0,4.14,0,5.25,5.25,0,0,0,1.74-1.1,5.34,5.34,0,0,0,1.21-1.73,5.59,5.59,0,0,0,.45-2.3v-15a5.63,5.63,0,0,0-.45-2.31,5.3,5.3,0,0,0-1.21-1.72,5.1,5.1,0,0,0-1.74-1.1,5.83,5.83,0,0,0-4.14,0,5.14,5.14,0,0,0-1.75,1.1A5.45,5.45,0,0,0,69.63,5.2a5.63,5.63,0,0,0-.44,2.31V22.56a5.59,5.59,0,0,0,.44,2.3A5.5,5.5,0,0,0,70.84,26.59Zm2-19.08a1.81,1.81,0,0,1,.5-1.32,1.76,1.76,0,0,1,1.3-.52A1.74,1.74,0,0,1,76,6.19a1.82,1.82,0,0,1,.51,1.32V22.56A1.81,1.81,0,0,1,76,23.87a1.7,1.7,0,0,1-1.29.52,1.73,1.73,0,0,1-1.3-.52,1.8,1.8,0,0,1-.5-1.31Z"/><path class="cls-8" d="M94.53,25.58a6.48,6.48,0,0,0,.42-.83,6.53,6.53,0,0,0,.27-1c0-.36.08-.81.1-1.35s0-1.23,0-2.07c0-1,0-1.84,0-2.5s-.06-1.21-.1-1.64a6.25,6.25,0,0,0-.26-1,3.68,3.68,0,0,0-.39-.8,3.63,3.63,0,0,0-1.3-1.18,3.51,3.51,0,0,0-1.8-.47,4.39,4.39,0,0,0-1,.09,1.57,1.57,0,0,0-.56.23L89.85,13,94,2.22H89.92L85.1,15.1c-.12.34-.23.66-.32,1a5.55,5.55,0,0,0-.22,1c0,.38-.08.83-.11,1.35s0,1.17,0,2,0,1.53,0,2.07a8.77,8.77,0,0,0,.15,1.35,3.46,3.46,0,0,0,.23,1,4.89,4.89,0,0,0,.45.83,5.29,5.29,0,0,0,1.91,1.82,5.45,5.45,0,0,0,2.7.66,5.69,5.69,0,0,0,2.72-.64A5.06,5.06,0,0,0,94.53,25.58Zm-2.84-3a1.74,1.74,0,0,1-.54,1.33,1.84,1.84,0,0,1-2.52,0,1.74,1.74,0,0,1-.54-1.33V17.8a1.74,1.74,0,0,1,.54-1.33,1.84,1.84,0,0,1,2.52,0,1.74,1.74,0,0,1,.54,1.33Z"/><rect class="cls-9" x="99.71" y="24.18" width="3.67" height="3.67"/><path class="cls-10" d="M115.34,27.69a5.25,5.25,0,0,0,1.74-1.1,5.34,5.34,0,0,0,1.21-1.73,5.59,5.59,0,0,0,.45-2.3v-15a5.63,5.63,0,0,0-.45-2.31,5.3,5.3,0,0,0-1.21-1.72,5.1,5.1,0,0,0-1.74-1.1,5.83,5.83,0,0,0-4.14,0,5.14,5.14,0,0,0-1.75,1.1,5.45,5.45,0,0,0-1.21,1.72,5.63,5.63,0,0,0-.45,2.31V22.56a5.59,5.59,0,0,0,.45,2.3,5.5,5.5,0,0,0,1.21,1.73,5.3,5.3,0,0,0,1.75,1.1,6,6,0,0,0,4.14,0Zm-3.87-5.13v-15a1.81,1.81,0,0,1,.5-1.32,1.76,1.76,0,0,1,1.3-.52,1.74,1.74,0,0,1,1.29.52,1.82,1.82,0,0,1,.51,1.32V22.56a1.81,1.81,0,0,1-.51,1.31,1.7,1.7,0,0,1-1.29.52,1.73,1.73,0,0,1-1.3-.52A1.8,1.8,0,0,1,111.47,22.56Z"/><path class="cls-11" d="M133.43,12.37a5.25,5.25,0,0,0,.36-1.15,9.32,9.32,0,0,0,.14-1.21c0-.42,0-.94,0-1.57A9.16,9.16,0,0,0,133.66,6a6.18,6.18,0,0,0-.95-2.06A5,5,0,0,0,131,2.52,5.36,5.36,0,0,0,128.53,2a5.26,5.26,0,0,0-2.16.45,5.19,5.19,0,0,0-1.72,1.21,5.47,5.47,0,0,0-1.19,1.76A5.38,5.38,0,0,0,123,7.58v2h3.67V7.51a1.83,1.83,0,0,1,.48-1.37,1.84,1.84,0,0,1,1.32-.47,1.72,1.72,0,0,1,1,.27,1.67,1.67,0,0,1,.54.67,2.35,2.35,0,0,1,.2.92c0,.34,0,.67,0,1,0,.69,0,1.27-.07,1.74a4.71,4.71,0,0,1-.58,1.64L123,24.39v3.46H134V24.18h-6.62l5.4-10.41C133,13.22,133.26,12.75,133.43,12.37Z"/><rect class="cls-12" x="137.64" y="16.04" width="10.84" height="3.67"/><path class="cls-13" d="M160.52,27.69a5.25,5.25,0,0,0,1.74-1.1,5.34,5.34,0,0,0,1.21-1.73,5.59,5.59,0,0,0,.45-2.3v-15a5.63,5.63,0,0,0-.45-2.31,5.3,5.3,0,0,0-1.21-1.72,5.1,5.1,0,0,0-1.74-1.1,5.83,5.83,0,0,0-4.14,0,5.24,5.24,0,0,0-1.75,1.1,5.43,5.43,0,0,0-1.2,1.72A5.63,5.63,0,0,0,153,7.51V22.56a5.59,5.59,0,0,0,.45,2.3,5.47,5.47,0,0,0,1.2,1.73,5.4,5.4,0,0,0,1.75,1.1,6,6,0,0,0,4.14,0Zm-3.87-5.13v-15a1.85,1.85,0,0,1,.5-1.32,1.89,1.89,0,0,1,2.6,0,1.85,1.85,0,0,1,.5,1.32V22.56a1.84,1.84,0,0,1-.5,1.31,1.88,1.88,0,0,1-2.6,0A1.84,1.84,0,0,1,156.65,22.56Z"/><path class="cls-14" d="M171,27.4a5.45,5.45,0,0,0,2.7.66,5.69,5.69,0,0,0,2.72-.64,5.06,5.06,0,0,0,1.92-1.84,6.48,6.48,0,0,0,.42-.83,4.76,4.76,0,0,0,.27-1c.05-.36.08-.81.11-1.35s0-1.23,0-2.07c0-1,0-1.84,0-2.5s-.06-1.21-.11-1.64a6.37,6.37,0,0,0-.25-1,4.27,4.27,0,0,0-.4-.8,3.55,3.55,0,0,0-1.3-1.18,3.51,3.51,0,0,0-1.8-.47,4.52,4.52,0,0,0-1,.09,1.51,1.51,0,0,0-.55.23l-.08-.07,4.18-10.76h-4.1L168.89,15.1c-.12.34-.23.66-.32,1a5.55,5.55,0,0,0-.22,1c0,.38-.08.83-.11,1.35s0,1.17,0,2,0,1.53,0,2.07a10.23,10.23,0,0,0,.15,1.35,3.84,3.84,0,0,0,.23,1,4.89,4.89,0,0,0,.45.83A5.29,5.29,0,0,0,171,27.4Zm.9-9.6a1.74,1.74,0,0,1,.54-1.33,1.84,1.84,0,0,1,2.52,0,1.74,1.74,0,0,1,.54,1.33v4.76a1.74,1.74,0,0,1-.54,1.33,1.84,1.84,0,0,1-2.52,0,1.74,1.74,0,0,1-.54-1.33Z"/><rect class="cls-15" x="183.5" y="24.18" width="3.67" height="3.67"/><path class="cls-16" d="M200.87,3.48a5.1,5.1,0,0,0-1.74-1.1,5.83,5.83,0,0,0-4.14,0,5.23,5.23,0,0,0-3,2.82,5.63,5.63,0,0,0-.46,2.31V22.56a5.59,5.59,0,0,0,.46,2.3,5.31,5.31,0,0,0,1.2,1.73,5.4,5.4,0,0,0,1.75,1.1,6,6,0,0,0,4.14,0,5.25,5.25,0,0,0,1.74-1.1,5.34,5.34,0,0,0,1.21-1.73,5.59,5.59,0,0,0,.45-2.3v-15a5.63,5.63,0,0,0-.45-2.31A5.3,5.3,0,0,0,200.87,3.48Zm-2,19.08a1.81,1.81,0,0,1-.51,1.31,1.7,1.7,0,0,1-1.29.52,1.73,1.73,0,0,1-1.3-.52,1.8,1.8,0,0,1-.5-1.31v-15a1.81,1.81,0,0,1,.5-1.32,1.76,1.76,0,0,1,1.3-.52,1.74,1.74,0,0,1,1.29.52,1.82,1.82,0,0,1,.51,1.32Z"/><path class="cls-17" d="M217.44,12.76a4.73,4.73,0,0,0,.27-1.36c0-.56,0-1.28,0-2.16a14.71,14.71,0,0,0-.32-3.53,4.25,4.25,0,0,0-.45-1,8.91,8.91,0,0,0-.63-.86,5.92,5.92,0,0,0-1.5-1.21,4.84,4.84,0,0,0-2.5-.59,5.38,5.38,0,0,0-2.16.43,5.89,5.89,0,0,0-1.76,1.15,5.14,5.14,0,0,0-1.19,1.73,5.3,5.3,0,0,0-.43,2.13V9.56h3.67V7.47a2.19,2.19,0,0,1,.41-1.19,1.58,1.58,0,0,1,1.39-.61,1.72,1.72,0,0,1,1.31.51,1.74,1.74,0,0,1,.49,1.29v3.31c0,1-.21,1.58-.63,1.84a4.68,4.68,0,0,1-2.29.4v3.24a11.54,11.54,0,0,1,1.46.07,1.61,1.61,0,0,1,.88.36,2.5,2.5,0,0,1,.58,2v3.67a2.16,2.16,0,0,1-.49,1.49,1.62,1.62,0,0,1-1.31.56,1.65,1.65,0,0,1-1.32-.56,2.09,2.09,0,0,1-.48-1.42V20.5h-3.67v2.09a5.67,5.67,0,0,0,.52,2.56,5.11,5.11,0,0,0,1.31,1.69,5.21,5.21,0,0,0,1.77.94,6.47,6.47,0,0,0,1.83.28A5.24,5.24,0,0,0,215,27.4a5.94,5.94,0,0,0,2.22-2.5,4.26,4.26,0,0,0,.28-1,9.81,9.81,0,0,0,.17-1.36c0-.56,0-1.25,0-2.09s0-1.66,0-2.25a5.21,5.21,0,0,0-.25-1.53,2.87,2.87,0,0,0-.66-1.08,7,7,0,0,0-1.32-1,8.35,8.35,0,0,0,1.24-.86A2.81,2.81,0,0,0,217.44,12.76Z"/><polygon class="cls-18" points="10.52 44.79 8.07 44.79 4.5 52.59 4.45 52.59 4.45 44.79 2 44.79 2 61.88 4.45 61.88 4.45 56.77 5.77 54.3 8.55 61.88 11.14 61.88 7.18 51.63 10.52 44.79"/><path class="cls-19" d="M19.56,50.53a3.32,3.32,0,0,0-1.18-.72,4.27,4.27,0,0,0-1.44-.24,4,4,0,0,0-1.51.27,3.55,3.55,0,0,0-1.15.76,3.9,3.9,0,0,0-1.11,2.64h2.38a1.49,1.49,0,0,1,.51-.91,1.39,1.39,0,0,1,.88-.31,1.07,1.07,0,0,1,1,.4,1.87,1.87,0,0,1,.26,1v1.27l-.36,0a1.19,1.19,0,0,1-.28,0,1.14,1.14,0,0,0-.27,0H17a6,6,0,0,0-1.9.25,2.64,2.64,0,0,0-1.17.75A2.87,2.87,0,0,0,13.29,57a8.84,8.84,0,0,0-.17,1.81,4.49,4.49,0,0,0,.26,1.65,2.2,2.2,0,0,0,.66,1,2.24,2.24,0,0,0,.85.49,3,3,0,0,0,.87.13,2.27,2.27,0,0,0,1.38-.36,4.44,4.44,0,0,0,1-1h0v1.25h2.45V53.41a4.35,4.35,0,0,0-.29-1.68A3.47,3.47,0,0,0,19.56,50.53Zm-1.4,7.77a1.76,1.76,0,0,1-.34,1.16,1.23,1.23,0,0,1-1,.4,1.1,1.1,0,0,1-.93-.43,1.75,1.75,0,0,1-.34-1.13A1.49,1.49,0,0,1,16.14,57a2.35,2.35,0,0,1,1.35-.37,3.71,3.71,0,0,1,.67.07Z"/><path class="cls-20" d="M30.05,50.24a2.16,2.16,0,0,0-.82-.52,2.85,2.85,0,0,0-.91-.15,2.37,2.37,0,0,0-1.38.37,3.34,3.34,0,0,0-.92,1H26V49.71H23.52V61.88H26V53.7a2.48,2.48,0,0,1,.26-1.25,1,1,0,0,1,1-.43,1.06,1.06,0,0,1,.89.38,1.63,1.63,0,0,1,.31,1.06v8.42h2.45V52.54a4,4,0,0,0-.21-1.38A2.73,2.73,0,0,0,30.05,50.24Z"/><path class="cls-21" d="M37.16,59.72a1.05,1.05,0,0,1-1-.43,2.43,2.43,0,0,1-.35-.94h-2.3a4.14,4.14,0,0,0,.33,1.6A3.51,3.51,0,0,0,37.19,62a3.72,3.72,0,0,0,1.46-.28,3.49,3.49,0,0,0,1.15-.8,3.82,3.82,0,0,0,.76-1.16,3.75,3.75,0,0,0,.27-1.43,4,4,0,0,0-.51-2,3.48,3.48,0,0,0-1.89-1.44L37,54.34a1.55,1.55,0,0,1-.86-.58A1.47,1.47,0,0,1,36,53.1a1.35,1.35,0,0,1,.31-.86,1.13,1.13,0,0,1,.89-.37,1.31,1.31,0,0,1,.85.31,1.23,1.23,0,0,1,.4.94h2.3a3.63,3.63,0,0,0-.26-1.4,3.69,3.69,0,0,0-.72-1.14,3.22,3.22,0,0,0-1.09-.75,3.89,3.89,0,0,0-2.77,0,3.19,3.19,0,0,0-1.13.73A3.38,3.38,0,0,0,34,51.69a3.42,3.42,0,0,0-.29,1.43,3.3,3.3,0,0,0,.66,2.08,4.06,4.06,0,0,0,1.81,1.28l1.18.43a2.16,2.16,0,0,1,1,.63,1.44,1.44,0,0,1,.26.86,1.18,1.18,0,0,1-.42,1A1.47,1.47,0,0,1,37.16,59.72Z"/><path class="cls-22" d="M45.09,61.89A3,3,0,0,0,46,62a2.31,2.31,0,0,0,1.38-.36,4.41,4.41,0,0,0,1-1h0v1.25h2.45V53.41a4.54,4.54,0,0,0-.29-1.68,3.49,3.49,0,0,0-.77-1.2,3.28,3.28,0,0,0-1.17-.72,4.27,4.27,0,0,0-1.44-.24,4.07,4.07,0,0,0-1.52.27,3.66,3.66,0,0,0-1.15.76,3.89,3.89,0,0,0-1.1,2.64h2.37a1.5,1.5,0,0,1,.52-.91,1.37,1.37,0,0,1,.88-.31,1.07,1.07,0,0,1,1,.4,2,2,0,0,1,.26,1v1.27l-.36,0a1.28,1.28,0,0,1-.29,0,1.1,1.1,0,0,0-.26,0h-.27a5.92,5.92,0,0,0-1.89.25,2.67,2.67,0,0,0-1.18.75A3,3,0,0,0,43.5,57a8.84,8.84,0,0,0-.17,1.81,4.51,4.51,0,0,0,.25,1.65,2.38,2.38,0,0,0,.66,1A2.31,2.31,0,0,0,45.09,61.89ZM46.34,57a2.41,2.41,0,0,1,1.36-.37,3.8,3.8,0,0,1,.67.07V58.3A1.76,1.76,0,0,1,48,59.46a1.2,1.2,0,0,1-1,.4,1.13,1.13,0,0,1-.94-.43,1.81,1.81,0,0,1-.33-1.13A1.51,1.51,0,0,1,46.34,57Z"/><rect class="cls-23" x="53.73" y="44.79" width="2.45" height="2.45"/><rect class="cls-24" x="53.73" y="49.71" width="2.45" height="12.17"/><path class="cls-25" d="M67.63,61.71a3.93,3.93,0,0,0,3.06,0,4,4,0,0,0,2.13-2.12,3.93,3.93,0,0,0,.3-1.55V44.79H70.67v13a1.8,1.8,0,0,1-.43,1.34,1.55,1.55,0,0,1-2.16,0,1.8,1.8,0,0,1-.43-1.34v-13H65.2V58a3.77,3.77,0,0,0,.31,1.55,4.34,4.34,0,0,0,.86,1.26A4.15,4.15,0,0,0,67.63,61.71Z"/><path class="cls-26" d="M80.86,52.4a1.63,1.63,0,0,1,.31,1.06v8.42h2.45V52.54a3.77,3.77,0,0,0-.22-1.38,2.57,2.57,0,0,0-.57-.92,2.24,2.24,0,0,0-.82-.52,2.89,2.89,0,0,0-.91-.15,2.37,2.37,0,0,0-1.38.37,3.51,3.51,0,0,0-.93,1h0V49.71H76.3V61.88h2.45V53.7A2.38,2.38,0,0,1,79,52.45,1,1,0,0,1,80,52,1.08,1.08,0,0,1,80.86,52.4Z"/><rect class="cls-27" x="86.63" y="44.79" width="2.45" height="2.45"/><rect class="cls-28" x="86.63" y="49.71" width="2.45" height="12.17"/><polygon class="cls-29" points="99.99 49.71 97.4 49.71 95.77 57.49 95.72 57.49 94.09 49.71 91.5 49.71 94.67 61.88 96.83 61.88 99.99 49.71"/><path class="cls-30" d="M109.26,58.35h-2.45a2.05,2.05,0,0,1-.28.82,1,1,0,0,1-.92.41,1.22,1.22,0,0,1-.88-.32,1.17,1.17,0,0,1-.32-.88V56.72h4.85V53.36a3.92,3.92,0,0,0-1-2.71,3.32,3.32,0,0,0-1.17-.79,3.71,3.71,0,0,0-1.52-.29,3.77,3.77,0,0,0-2,.48,3.33,3.33,0,0,0-1.23,1.27,3.17,3.17,0,0,0-.36,1.1,8.4,8.4,0,0,0-.1,1.37v4a8.32,8.32,0,0,0,.1,1.37,3.17,3.17,0,0,0,.36,1.1,3.33,3.33,0,0,0,1.23,1.27,3.77,3.77,0,0,0,2,.48,3.83,3.83,0,0,0,1.51-.28,3.56,3.56,0,0,0,2.14-3.39Zm-4.85-4.94a1.53,1.53,0,0,1,.32-1,1.15,1.15,0,0,1,.88-.34,1.12,1.12,0,0,1,.87.34,1.49,1.49,0,0,1,.33,1V54.8h-2.4Z"/><path class="cls-31" d="M114.55,54.66a2.87,2.87,0,0,1,.24-1.25,2.37,2.37,0,0,1,.62-.82,2.14,2.14,0,0,1,.81-.44A2.79,2.79,0,0,1,117,52a1.92,1.92,0,0,1,.75.14V49.57A3.81,3.81,0,0,0,116,50,7.35,7.35,0,0,0,114.55,51v-1.3H112.1V61.88h2.45Z"/><path class="cls-32" d="M126.17,60.94a3.62,3.62,0,0,0,.75-1.16,3.58,3.58,0,0,0,.28-1.43,3.92,3.92,0,0,0-.52-2,3.46,3.46,0,0,0-1.88-1.44l-1.44-.58a1.55,1.55,0,0,1-.86-.58,1.35,1.35,0,0,1-.17-.66,1.3,1.3,0,0,1,.31-.86,1.12,1.12,0,0,1,.89-.37,1.33,1.33,0,0,1,.85.31,1.23,1.23,0,0,1,.4.94h2.3a3.64,3.64,0,0,0-.27-1.4,3.49,3.49,0,0,0-.71-1.14,3.26,3.26,0,0,0-1.1-.75,3.65,3.65,0,0,0-1.38-.26,3.77,3.77,0,0,0-1.39.25,3.28,3.28,0,0,0-1.13.73,3.53,3.53,0,0,0-.79,1.14,3.58,3.58,0,0,0-.29,1.43,3.3,3.3,0,0,0,.66,2.08,4.09,4.09,0,0,0,1.82,1.28l1.17.43a2,2,0,0,1,1,.63,1.38,1.38,0,0,1,.27.86,1.21,1.21,0,0,1-.42,1,1.49,1.49,0,0,1-1,.35,1,1,0,0,1-1-.43,2.28,2.28,0,0,1-.35-.94H119.9a4.14,4.14,0,0,0,.34,1.6A3.51,3.51,0,0,0,123.55,62a3.74,3.74,0,0,0,1.47-.28A3.6,3.6,0,0,0,126.17,60.94Z"/><rect class="cls-33" x="129.89" y="49.71" width="2.45" height="12.17"/><rect class="cls-34" x="129.89" y="44.79" width="2.45" height="2.45"/><path class="cls-35" d="M138.33,46h-2.45v3.69h-1.22v1.92h1.22V59a3.59,3.59,0,0,0,.16,1,2.52,2.52,0,0,0,1.39,1.6,3.45,3.45,0,0,0,1.41.26h1v-2.3a6.39,6.39,0,0,1-.68,0,1,1,0,0,1-.47-.14.62.62,0,0,1-.27-.36,2,2,0,0,1-.09-.67V51.63h1.51V49.71h-1.51Z"/><path class="cls-36" d="M146.05,57.3H146l-1.68-7.59h-2.59l3.33,11.62c-.14.72-.27,1.28-.38,1.69a4.13,4.13,0,0,1-.36.95,1,1,0,0,1-.48.43,1.92,1.92,0,0,1-.62.1h-.56v2.3h.68a4.16,4.16,0,0,0,1.06-.13,3,3,0,0,0,1-.47,3.31,3.31,0,0,0,.8-.86,4.42,4.42,0,0,0,.54-1.35l3.5-14.28H147.7Z"/><path class="cls-37" d="M163.69,57.8a1.84,1.84,0,0,1-.43,1.34,1.47,1.47,0,0,1-1.08.44,1.44,1.44,0,0,1-1.08-.44,1.8,1.8,0,0,1-.44-1.34v-13h-2.44V58a3.77,3.77,0,0,0,.31,1.55,4.11,4.11,0,0,0,2.12,2.12,3.7,3.7,0,0,0,1.53.31,3.77,3.77,0,0,0,1.53-.31A3.92,3.92,0,0,0,166.14,58V44.79h-2.45Z"/><path class="cls-38" d="M180.64,50.24a2.31,2.31,0,0,0-.86-.52,3.13,3.13,0,0,0-.94-.15,2.79,2.79,0,0,0-1.53.36,5.17,5.17,0,0,0-1,.86,4,4,0,0,0-.86-.84,2.26,2.26,0,0,0-1.32-.38,2.37,2.37,0,0,0-1.38.37,3.51,3.51,0,0,0-.93,1h-.05V49.71h-2.44V61.88h2.44V53.7a2.37,2.37,0,0,1,.27-1.25,1,1,0,0,1,1-.43,1.08,1.08,0,0,1,.89.38,1.69,1.69,0,0,1,.31,1.06v8.42h2.45V53.7a2.38,2.38,0,0,1,.26-1.25,1,1,0,0,1,1-.43,1.08,1.08,0,0,1,.89.38,1.63,1.63,0,0,1,.31,1.06v8.42h2.45V52.54a3.55,3.55,0,0,0-.24-1.38A2.68,2.68,0,0,0,180.64,50.24Z"/><path class="cls-39" d="M189.52,49.86a3.71,3.71,0,0,0-1.52-.29,3.77,3.77,0,0,0-2,.48,3.33,3.33,0,0,0-1.23,1.27,3.17,3.17,0,0,0-.36,1.1,8.4,8.4,0,0,0-.1,1.37v4a8.32,8.32,0,0,0,.1,1.37,3.17,3.17,0,0,0,.36,1.1A3.33,3.33,0,0,0,186,61.54a3.77,3.77,0,0,0,2,.48,3.83,3.83,0,0,0,1.51-.28,3.56,3.56,0,0,0,2.14-3.39H189.2a2.05,2.05,0,0,1-.28.82,1,1,0,0,1-.92.41,1.22,1.22,0,0,1-.88-.32,1.17,1.17,0,0,1-.32-.88V56.72h4.85V53.36a3.92,3.92,0,0,0-1-2.71A3.32,3.32,0,0,0,189.52,49.86Zm-.32,4.94h-2.4V53.41a1.53,1.53,0,0,1,.32-1,1.31,1.31,0,0,1,1.76,0,1.53,1.53,0,0,1,.32,1Z"/><path class="cls-40" d="M199.32,50.82h0a3.06,3.06,0,0,0-1-.93,2.59,2.59,0,0,0-1.28-.32,2.42,2.42,0,0,0-1.37.31,2.32,2.32,0,0,0-1.13,1.8,18.3,18.3,0,0,0-.07,1.94v4.64a11.24,11.24,0,0,0,.09,1.6,3.24,3.24,0,0,0,.32,1A2.18,2.18,0,0,0,197,62a3,3,0,0,0,.79-.09,2.07,2.07,0,0,0,.6-.27,2.28,2.28,0,0,0,.48-.39l.46-.49v1.1h2.45V44.79h-2.45Zm0,7.24a1.68,1.68,0,0,1-.34,1.1,1.07,1.07,0,0,1-.88.42,1,1,0,0,1-.92-.46,2.22,2.22,0,0,1-.28-1.2V53.46a1.94,1.94,0,0,1,.25-1,1,1,0,0,1,.95-.43,1.13,1.13,0,0,1,.87.37,1.34,1.34,0,0,1,.35,1Z"/><path class="cls-41" d="M210.91,50.53a3.32,3.32,0,0,0-1.18-.72,4.27,4.27,0,0,0-1.44-.24,4,4,0,0,0-1.51.27,3.55,3.55,0,0,0-1.15.76,4,4,0,0,0-1.11,2.64h2.38a1.46,1.46,0,0,1,.52-.91,1.35,1.35,0,0,1,.87-.31,1.05,1.05,0,0,1,1,.4,1.87,1.87,0,0,1,.26,1v1.27l-.35,0a1.23,1.23,0,0,1-.29,0,1.14,1.14,0,0,0-.27,0h-.26a6,6,0,0,0-1.9.25,2.69,2.69,0,0,0-1.17.75,2.87,2.87,0,0,0-.63,1.31,8.89,8.89,0,0,0-.16,1.81,4.51,4.51,0,0,0,.25,1.65,2.38,2.38,0,0,0,.66,1,2.24,2.24,0,0,0,.85.49,3,3,0,0,0,.88.13,2.31,2.31,0,0,0,1.38-.36,4.63,4.63,0,0,0,1-1h0v1.25H212V53.41a4.35,4.35,0,0,0-.29-1.68A3.47,3.47,0,0,0,210.91,50.53Zm-1.4,7.77a1.76,1.76,0,0,1-.34,1.16,1.22,1.22,0,0,1-1,.4,1.11,1.11,0,0,1-.94-.43,1.81,1.81,0,0,1-.34-1.13,1.49,1.49,0,0,1,.57-1.35,2.38,2.38,0,0,1,1.35-.37,3.71,3.71,0,0,1,.67.07Z"/><path class="cls-42" d="M227.42,45.78a3.69,3.69,0,0,0-2.81-1.13A4.25,4.25,0,0,0,223,45a3.64,3.64,0,0,0-1.26.83,3.6,3.6,0,0,0-.81,1.24,4,4,0,0,0-.29,1.56V58a4.31,4.31,0,0,0,.37,1.93,3.63,3.63,0,0,0,.95,1.24,3.32,3.32,0,0,0,1.29.67,5.44,5.44,0,0,0,1.42.19,3.54,3.54,0,0,0,1.52-.32,3.94,3.94,0,0,0,1.24-.88,4,4,0,0,0,.83-1.26,3.79,3.79,0,0,0,.3-1.5V57H226.1v.84a2.3,2.3,0,0,1-.14.84,1.52,1.52,0,0,1-.37.53,1.57,1.57,0,0,1-.51.27,1.67,1.67,0,0,1-.52.09,1.27,1.27,0,0,1-1.16-.51,2.21,2.21,0,0,1-.32-1.25V49.09a2.91,2.91,0,0,1,.3-1.43,1.23,1.23,0,0,1,1.21-.56,1.32,1.32,0,0,1,1.1.52,2,2,0,0,1,.41,1.25v.82h2.45v-1a4.48,4.48,0,0,0-.3-1.65A4,4,0,0,0,227.42,45.78Z"/><path class="cls-43" d="M237.71,50.53a3.28,3.28,0,0,0-1.17-.72,4.27,4.27,0,0,0-1.44-.24,4.07,4.07,0,0,0-1.52.27,3.66,3.66,0,0,0-1.15.76,3.89,3.89,0,0,0-1.1,2.64h2.37a1.5,1.5,0,0,1,.52-.91,1.37,1.37,0,0,1,.88-.31,1.07,1.07,0,0,1,1,.4,2,2,0,0,1,.26,1v1.27l-.36,0a1.28,1.28,0,0,1-.29,0,1.1,1.1,0,0,0-.26,0h-.27a5.92,5.92,0,0,0-1.89.25,2.67,2.67,0,0,0-1.18.75,3,3,0,0,0-.62,1.31,8.84,8.84,0,0,0-.17,1.81,4.51,4.51,0,0,0,.25,1.65,2.38,2.38,0,0,0,.66,1,2.31,2.31,0,0,0,.85.49,3,3,0,0,0,.88.13,2.31,2.31,0,0,0,1.38-.36,4.41,4.41,0,0,0,1-1h0v1.25h2.45V53.41a4.54,4.54,0,0,0-.29-1.68A3.49,3.49,0,0,0,237.71,50.53Zm-1.39,7.77a1.76,1.76,0,0,1-.35,1.16,1.2,1.2,0,0,1-1,.4,1.13,1.13,0,0,1-.94-.43,1.81,1.81,0,0,1-.33-1.13,1.51,1.51,0,0,1,.56-1.35,2.41,2.41,0,0,1,1.36-.37,3.8,3.8,0,0,1,.67.07Z"/><path class="cls-44" d="M248.21,50.24a2.24,2.24,0,0,0-.82-.52,2.89,2.89,0,0,0-.91-.15,2.37,2.37,0,0,0-1.38.37,3.51,3.51,0,0,0-.93,1h0V49.71h-2.45V61.88h2.45V53.7a2.48,2.48,0,0,1,.26-1.25,1,1,0,0,1,1-.43,1.06,1.06,0,0,1,.89.38,1.63,1.63,0,0,1,.31,1.06v8.42H249V52.54a3.77,3.77,0,0,0-.22-1.38A2.57,2.57,0,0,0,248.21,50.24Z"/><polygon class="cls-45" points="255.46 57.49 255.41 57.49 253.78 49.71 251.18 49.71 254.35 61.88 256.51 61.88 259.68 49.71 257.09 49.71 255.46 57.49"/><path class="cls-46" d="M267.94,50.53a3.2,3.2,0,0,0-1.17-.72,4.27,4.27,0,0,0-1.44-.24,4,4,0,0,0-1.51.27,3.55,3.55,0,0,0-1.15.76,3.86,3.86,0,0,0-1.11,2.64h2.38a1.49,1.49,0,0,1,.51-.91,1.39,1.39,0,0,1,.88-.31,1.07,1.07,0,0,1,1,.4,2,2,0,0,1,.26,1v1.27l-.36,0a1.19,1.19,0,0,1-.28,0,1.14,1.14,0,0,0-.27,0h-.26a6,6,0,0,0-1.9.25,2.73,2.73,0,0,0-1.18.75,3,3,0,0,0-.62,1.31,8.84,8.84,0,0,0-.17,1.81,4.73,4.73,0,0,0,.25,1.65,2.38,2.38,0,0,0,.66,1,2.35,2.35,0,0,0,.86.49,2.91,2.91,0,0,0,.87.13,2.29,2.29,0,0,0,1.38-.36,4.41,4.41,0,0,0,1-1h.05v1.25H269V53.41a4.35,4.35,0,0,0-.29-1.68A3.49,3.49,0,0,0,267.94,50.53Zm-1.39,7.77a1.71,1.71,0,0,1-.35,1.16,1.2,1.2,0,0,1-1,.4,1.1,1.1,0,0,1-.93-.43A1.75,1.75,0,0,1,264,58.3a1.51,1.51,0,0,1,.56-1.35,2.41,2.41,0,0,1,1.36-.37,3.71,3.71,0,0,1,.67.07Z"/><path class="cls-47" d="M276.49,54.92l-1.44-.58a1.55,1.55,0,0,1-.87-.58,1.47,1.47,0,0,1-.17-.66,1.31,1.31,0,0,1,.32-.86,1.1,1.1,0,0,1,.88-.37,1.35,1.35,0,0,1,.86.31,1.23,1.23,0,0,1,.39.94h2.31a3.64,3.64,0,0,0-.27-1.4,3.51,3.51,0,0,0-.72-1.14,3.22,3.22,0,0,0-1.09-.75,3.65,3.65,0,0,0-1.38-.26,3.73,3.73,0,0,0-1.39.25,3.28,3.28,0,0,0-1.13.73,3.38,3.38,0,0,0-.79,1.14,3.58,3.58,0,0,0-.29,1.43,3.3,3.3,0,0,0,.66,2.08,4.11,4.11,0,0,0,1.81,1.28l1.18.43a2.16,2.16,0,0,1,1,.63,1.44,1.44,0,0,1,.26.86,1.18,1.18,0,0,1-.42,1,1.45,1.45,0,0,1-1,.35,1.06,1.06,0,0,1-1-.43,2.43,2.43,0,0,1-.35-.94h-2.3a4.14,4.14,0,0,0,.34,1.6,3.52,3.52,0,0,0,.81,1.14,3.57,3.57,0,0,0,2.5.93,3.69,3.69,0,0,0,1.46-.28,3.49,3.49,0,0,0,1.15-.8,3.65,3.65,0,0,0,.76-1.16,3.76,3.76,0,0,0,.28-1.43,4,4,0,0,0-.52-2A3.46,3.46,0,0,0,276.49,54.92Z"/><polygon class="cls-48" points="10.52 72.79 8.07 72.79 4.5 80.59 4.45 80.59 4.45 72.79 2 72.79 2 89.88 4.45 89.88 4.45 84.77 5.77 82.3 8.55 89.88 11.14 89.88 7.18 79.63 10.52 72.79"/><path class="cls-49" d="M19.56,78.53a3.32,3.32,0,0,0-1.18-.72,4.27,4.27,0,0,0-1.44-.24,4,4,0,0,0-1.51.27,3.55,3.55,0,0,0-1.15.76,3.9,3.9,0,0,0-1.11,2.64h2.38a1.49,1.49,0,0,1,.51-.91,1.39,1.39,0,0,1,.88-.31,1.07,1.07,0,0,1,1,.4,1.87,1.87,0,0,1,.26,1v1.27a2.19,2.19,0,0,0-.36,0,1.19,1.19,0,0,1-.28,0,1.14,1.14,0,0,0-.27,0H17a6,6,0,0,0-1.9.25,2.64,2.64,0,0,0-1.17.75A2.87,2.87,0,0,0,13.29,85a8.84,8.84,0,0,0-.17,1.81,4.49,4.49,0,0,0,.26,1.65,2.2,2.2,0,0,0,.66,1,2.24,2.24,0,0,0,.85.49,3,3,0,0,0,.87.13,2.27,2.27,0,0,0,1.38-.36,4.44,4.44,0,0,0,1-1h0v1.25h2.45V81.41a4.35,4.35,0,0,0-.29-1.68A3.47,3.47,0,0,0,19.56,78.53Zm-1.4,7.77a1.76,1.76,0,0,1-.34,1.16,1.23,1.23,0,0,1-1,.4,1.1,1.1,0,0,1-.93-.43,1.75,1.75,0,0,1-.34-1.13A1.49,1.49,0,0,1,16.14,85a2.35,2.35,0,0,1,1.35-.37,3.71,3.71,0,0,1,.67.07Z"/><path class="cls-50" d="M30.05,78.24a2.16,2.16,0,0,0-.82-.52,2.85,2.85,0,0,0-.91-.15,2.37,2.37,0,0,0-1.38.37,3.34,3.34,0,0,0-.92,1H26V77.71H23.52V89.88H26V81.7a2.48,2.48,0,0,1,.26-1.25,1,1,0,0,1,1-.43,1.06,1.06,0,0,1,.89.38,1.63,1.63,0,0,1,.31,1.06v8.42h2.45V80.54a4,4,0,0,0-.21-1.38A2.73,2.73,0,0,0,30.05,78.24Z"/><path class="cls-51" d="M38.71,78.82h-.05a3,3,0,0,0-1-.93,2.56,2.56,0,0,0-1.28-.32,2.42,2.42,0,0,0-1.37.31,2.32,2.32,0,0,0-1.13,1.8,18.3,18.3,0,0,0-.07,1.94v4.64a9.74,9.74,0,0,0,.1,1.6,3,3,0,0,0,.31,1A2.19,2.19,0,0,0,36.38,90a3.15,3.15,0,0,0,.8-.09,2.34,2.34,0,0,0,.6-.27,2.93,2.93,0,0,0,.48-.39l.45-.49v1.1h2.45V72.79H38.71Zm0,7.24a1.74,1.74,0,0,1-.33,1.1,1.09,1.09,0,0,1-.89.42,1,1,0,0,1-.91-.46,2.13,2.13,0,0,1-.29-1.2V81.46a1.94,1.94,0,0,1,.25-1,1,1,0,0,1,1-.43,1.13,1.13,0,0,1,.87.37,1.3,1.3,0,0,1,.35,1Z"/><path class="cls-52" d="M50.3,78.53a3.32,3.32,0,0,0-1.18-.72,4.18,4.18,0,0,0-1.44-.24,4,4,0,0,0-1.51.27A3.55,3.55,0,0,0,45,78.6a3.89,3.89,0,0,0-1.1,2.64h2.37a1.46,1.46,0,0,1,.52-.91,1.35,1.35,0,0,1,.87-.31,1,1,0,0,1,1,.4,1.87,1.87,0,0,1,.27,1v1.27l-.36,0a1.28,1.28,0,0,1-.29,0,1.1,1.1,0,0,0-.26,0h-.27a5.88,5.88,0,0,0-1.89.25,2.67,2.67,0,0,0-1.18.75A3,3,0,0,0,44,85a8.19,8.19,0,0,0-.17,1.81,4.51,4.51,0,0,0,.25,1.65,2.38,2.38,0,0,0,.66,1,2.31,2.31,0,0,0,.85.49,3,3,0,0,0,.88.13,2.31,2.31,0,0,0,1.38-.36,4.41,4.41,0,0,0,1-1h0v1.25h2.45V81.41a4.54,4.54,0,0,0-.29-1.68A3.49,3.49,0,0,0,50.3,78.53ZM48.91,86.3a1.76,1.76,0,0,1-.35,1.16,1.21,1.21,0,0,1-1,.4,1.13,1.13,0,0,1-.94-.43,1.81,1.81,0,0,1-.33-1.13A1.49,1.49,0,0,1,46.88,85a2.41,2.41,0,0,1,1.36-.37,3.8,3.8,0,0,1,.67.07Z"/><rect class="cls-53" x="54.26" y="72.79" width="2.45" height="2.45"/><rect class="cls-54" x="54.26" y="77.71" width="2.45" height="12.17"/><polygon class="cls-55" points="71.28 81.84 71.23 81.84 68.09 72.79 65.74 72.79 65.74 89.88 68.18 89.88 68.18 79.49 68.23 79.49 70.63 86.83 71.86 86.83 74.28 79.49 74.33 79.49 74.33 89.88 76.78 89.88 76.78 72.79 74.4 72.79 71.28 81.84"/><path class="cls-56" d="M85,77.86a4.19,4.19,0,0,0-3.48.19,3.26,3.26,0,0,0-1.59,2.37,8.4,8.4,0,0,0-.1,1.37v4a8.32,8.32,0,0,0,.1,1.37,3.26,3.26,0,0,0,1.59,2.37,3.77,3.77,0,0,0,2,.48A3.83,3.83,0,0,0,85,89.74a3.54,3.54,0,0,0,2.13-3.39H84.66a2.42,2.42,0,0,1-.28.82,1,1,0,0,1-.92.41,1.22,1.22,0,0,1-.88-.32,1.17,1.17,0,0,1-.32-.88V84.72H87.1V81.36a4,4,0,0,0-.95-2.71A3.41,3.41,0,0,0,85,77.86Zm-.32,4.94h-2.4V81.41a1.53,1.53,0,0,1,.32-1,1.15,1.15,0,0,1,.88-.34,1.12,1.12,0,0,1,.87.34,1.49,1.49,0,0,1,.33,1Z"/><path class="cls-57" d="M103.7,80.38a6.38,6.38,0,0,0,.47-2.57q0-5-4.32-5H95.91V89.88h2.45v-7.3h1.47l2.28,7.3h2.59l-2.64-7.8A3.63,3.63,0,0,0,103.7,80.38Zm-2-1.48a2.62,2.62,0,0,1-.26.83,1.49,1.49,0,0,1-.6.51,2.49,2.49,0,0,1-1,.18H98.36V75.1h1.27a1.94,1.94,0,0,1,1.73.67,2.19,2.19,0,0,1,.29.85,9.32,9.32,0,0,1,0,2.28Z"/><rect class="cls-58" x="107.58" y="72.79" width="2.45" height="17.09"/><path class="cls-59" d="M119.1,73a4.15,4.15,0,0,0-1.67-.33,4.26,4.26,0,0,0-1.86.37,3.67,3.67,0,0,0-1.29,1,4.2,4.2,0,0,0-.79,1.48,6.48,6.48,0,0,0-.26,1.83,5.88,5.88,0,0,0,.54,2.67,3.86,3.86,0,0,0,2.12,1.72l1.75.72a6.47,6.47,0,0,1,.74.36,1.39,1.39,0,0,1,.44.43,1.82,1.82,0,0,1,.19.7,10.74,10.74,0,0,1,0,1.1c0,.39,0,.73,0,1a1.92,1.92,0,0,1-.22.8,1.35,1.35,0,0,1-.54.52,2.2,2.2,0,0,1-1,.18A1.55,1.55,0,0,1,116,87a2,2,0,0,1-.39-1.22v-.76h-2.45V86a4,4,0,0,0,.32,1.59,4.28,4.28,0,0,0,.88,1.29,4,4,0,0,0,1.32.86,4.29,4.29,0,0,0,1.65.31,4.64,4.64,0,0,0,2-.38,3.54,3.54,0,0,0,1.32-1.06,4.1,4.1,0,0,0,.69-1.57,8.4,8.4,0,0,0,.22-2,11.89,11.89,0,0,0-.1-1.67,4.35,4.35,0,0,0-.36-1.31,3,3,0,0,0-.79-1,4.81,4.81,0,0,0-1.32-.73l-1.87-.75a3.57,3.57,0,0,1-.76-.38,1.41,1.41,0,0,1-.42-.46,1.76,1.76,0,0,1-.18-.6q0-.33,0-.84a4.39,4.39,0,0,1,.07-.82,2,2,0,0,1,.26-.71,1.68,1.68,0,0,1,.51-.48,1.5,1.5,0,0,1,.81-.19,1.44,1.44,0,0,1,1.33.61,2.57,2.57,0,0,1,.4,1.45v.55h2.45v-1.2a3.7,3.7,0,0,0-1.11-2.64A4.29,4.29,0,0,0,119.1,73Z"/><polygon class="cls-60" points="124.55 89.88 131.84 89.88 131.84 87.43 127 87.43 127 82.42 131.22 82.42 131.22 80.11 127 80.11 127 75.09 131.84 75.09 131.84 72.79 124.55 72.79 124.55 89.88"/><path class="cls-61" d="M10.4,10.37a5.25,5.25,0,0,0,.36-1.15A9.3,9.3,0,0,0,10.91,8c0-.42,0-.94,0-1.57A9.6,9.6,0,0,0,10.64,4a6.19,6.19,0,0,0-1-2.06A4.83,4.83,0,0,0,8,.52,5.32,5.32,0,0,0,5.51,0,5.22,5.22,0,0,0,3.35.45,5.34,5.34,0,0,0,1.62,1.66,5.64,5.64,0,0,0,.43,3.42,5.38,5.38,0,0,0,0,5.58v2H3.67V5.51a1.79,1.79,0,0,1,.49-1.37,1.81,1.81,0,0,1,1.31-.47,1.73,1.73,0,0,1,1,.27,1.67,1.67,0,0,1,.54.67,2.35,2.35,0,0,1,.19.92c0,.34,0,.67,0,1A17.05,17.05,0,0,1,7.2,8.26,4.51,4.51,0,0,1,6.62,9.9L0,22.39v3.46H10.94V22.18H4.32l5.4-10.41C10,11.22,10.24,10.75,10.4,10.37Z"/><path class="cls-61" d="M24.52,24.59a5.66,5.66,0,0,0,1.21-1.73,5.75,5.75,0,0,0,.45-2.3v-15a5.8,5.8,0,0,0-.45-2.31,5.62,5.62,0,0,0-1.21-1.72A5.14,5.14,0,0,0,22.77.38a5.83,5.83,0,0,0-4.14,0,5.1,5.1,0,0,0-1.74,1.1A5.3,5.3,0,0,0,15.68,3.2a5.63,5.63,0,0,0-.45,2.31V20.56a5.59,5.59,0,0,0,.45,2.3,5.34,5.34,0,0,0,1.21,1.73,5.25,5.25,0,0,0,1.74,1.1,6,6,0,0,0,4.14,0A5.3,5.3,0,0,0,24.52,24.59Zm-2-4a1.84,1.84,0,0,1-.5,1.31,1.73,1.73,0,0,1-1.3.52,1.7,1.7,0,0,1-1.29-.52,1.81,1.81,0,0,1-.51-1.31v-15a1.82,1.82,0,0,1,.51-1.32,1.74,1.74,0,0,1,1.29-.52,1.76,1.76,0,0,1,1.3.52,1.85,1.85,0,0,1,.5,1.32Z"/><polygon class="cls-61" points="34.47 25.85 38.14 25.85 38.14 0.22 34.47 0.22 30.79 2.92 30.79 6.8 34.47 4.1 34.47 25.85"/><path class="cls-61" d="M53.94,11.36a3.37,3.37,0,0,0,.56-1.1,5.81,5.81,0,0,0,.21-1.4c0-.53,0-1.18,0-1.95s0-1.29,0-1.78a5.51,5.51,0,0,0-.24-1.28,5.07,5.07,0,0,0-.43-1,8.43,8.43,0,0,0-.61-.9A5,5,0,0,0,51.62.52a5.52,5.52,0,0,0-4.68,0A5,5,0,0,0,45.14,2a7,7,0,0,0-.6.9,6.74,6.74,0,0,0-.41,1,6,6,0,0,0-.25,1.28c-.05.49-.07,1.09-.07,1.78s0,1.42,0,1.95a6.32,6.32,0,0,0,.22,1.4,3.37,3.37,0,0,0,.56,1.1,7,7,0,0,0,1,1,5.74,5.74,0,0,0-1,1,3.45,3.45,0,0,0-.56,1.19,8.16,8.16,0,0,0-.22,1.67q0,1,0,2.43c0,.8,0,1.45,0,2S44,21.61,44,22a4.26,4.26,0,0,0,.31,1,8.29,8.29,0,0,0,.48.83,5.42,5.42,0,0,0,8.93,0,6.87,6.87,0,0,0,.49-.83,4.26,4.26,0,0,0,.31-1c.07-.39.12-.84.16-1.35s0-1.17,0-2c0-1,0-1.77,0-2.43a7.58,7.58,0,0,0-.21-1.67,3.45,3.45,0,0,0-.56-1.19,5.74,5.74,0,0,0-1-1A7,7,0,0,0,53.94,11.36Zm-2.86,9.23a1.71,1.71,0,0,1-.54,1.28,1.79,1.79,0,0,1-2.52,0,1.71,1.71,0,0,1-.54-1.28v-5A1.72,1.72,0,0,1,48,14.27a1.79,1.79,0,0,1,2.52,0,1.72,1.72,0,0,1,.54,1.28Zm0-11.37a1.69,1.69,0,0,1-.54,1.27,1.76,1.76,0,0,1-2.52,0,1.69,1.69,0,0,1-.54-1.27V5.47A1.72,1.72,0,0,1,48,4.19a1.79,1.79,0,0,1,2.52,0,1.72,1.72,0,0,1,.54,1.28Z"/><rect class="cls-61" x="59.1" y="22.18" width="3.67" height="3.67"/><path class="cls-61" d="M68.84,24.59a5.3,5.3,0,0,0,1.75,1.1,6,6,0,0,0,4.14,0,5.25,5.25,0,0,0,1.74-1.1,5.34,5.34,0,0,0,1.21-1.73,5.59,5.59,0,0,0,.45-2.3v-15a5.63,5.63,0,0,0-.45-2.31,5.3,5.3,0,0,0-1.21-1.72A5.1,5.1,0,0,0,74.73.38a5.83,5.83,0,0,0-4.14,0,5.14,5.14,0,0,0-1.75,1.1A5.45,5.45,0,0,0,67.63,3.2a5.63,5.63,0,0,0-.44,2.31V20.56a5.59,5.59,0,0,0,.44,2.3A5.5,5.5,0,0,0,68.84,24.59Zm2-19.08a1.81,1.81,0,0,1,.5-1.32,1.76,1.76,0,0,1,1.3-.52A1.74,1.74,0,0,1,74,4.19a1.82,1.82,0,0,1,.51,1.32V20.56A1.81,1.81,0,0,1,74,21.87a1.7,1.7,0,0,1-1.29.52,1.73,1.73,0,0,1-1.3-.52,1.8,1.8,0,0,1-.5-1.31Z"/><path class="cls-61" d="M92.53,23.58a6.48,6.48,0,0,0,.42-.83,6.53,6.53,0,0,0,.27-1c0-.36.08-.81.1-1.35s0-1.23,0-2.07c0-1,0-1.84,0-2.5s-.06-1.21-.1-1.64a6.25,6.25,0,0,0-.26-1,3.68,3.68,0,0,0-.39-.8,3.63,3.63,0,0,0-1.3-1.18,3.51,3.51,0,0,0-1.8-.47,4.39,4.39,0,0,0-1,.09,1.57,1.57,0,0,0-.56.23L87.85,11,92,.22H87.92L83.1,13.1c-.12.34-.23.66-.32,1a5.55,5.55,0,0,0-.22,1c0,.38-.08.83-.11,1.35s0,1.17,0,2,0,1.53,0,2.07a8.77,8.77,0,0,0,.15,1.35,3.46,3.46,0,0,0,.23,1,4.89,4.89,0,0,0,.45.83,5.29,5.29,0,0,0,1.91,1.82,5.45,5.45,0,0,0,2.7.66,5.69,5.69,0,0,0,2.72-.64A5.06,5.06,0,0,0,92.53,23.58Zm-2.84-3a1.74,1.74,0,0,1-.54,1.33,1.84,1.84,0,0,1-2.52,0,1.74,1.74,0,0,1-.54-1.33V15.8a1.74,1.74,0,0,1,.54-1.33,1.84,1.84,0,0,1,2.52,0,1.74,1.74,0,0,1,.54,1.33Z"/><rect class="cls-61" x="97.71" y="22.18" width="3.67" height="3.67"/><path class="cls-61" d="M113.34,25.69a5.25,5.25,0,0,0,1.74-1.1,5.34,5.34,0,0,0,1.21-1.73,5.59,5.59,0,0,0,.45-2.3v-15a5.63,5.63,0,0,0-.45-2.31,5.3,5.3,0,0,0-1.21-1.72,5.1,5.1,0,0,0-1.74-1.1,5.83,5.83,0,0,0-4.14,0,5.14,5.14,0,0,0-1.75,1.1,5.45,5.45,0,0,0-1.21,1.72,5.63,5.63,0,0,0-.45,2.31V20.56a5.59,5.59,0,0,0,.45,2.3,5.5,5.5,0,0,0,1.21,1.73,5.3,5.3,0,0,0,1.75,1.1,6,6,0,0,0,4.14,0Zm-3.87-5.13v-15a1.81,1.81,0,0,1,.5-1.32,1.76,1.76,0,0,1,1.3-.52,1.74,1.74,0,0,1,1.29.52,1.82,1.82,0,0,1,.51,1.32V20.56a1.81,1.81,0,0,1-.51,1.31,1.7,1.7,0,0,1-1.29.52,1.73,1.73,0,0,1-1.3-.52A1.8,1.8,0,0,1,109.47,20.56Z"/><path class="cls-61" d="M131.43,10.37a5.25,5.25,0,0,0,.36-1.15A9.32,9.32,0,0,0,131.93,8c0-.42,0-.94,0-1.57A9.16,9.16,0,0,0,131.66,4a6.18,6.18,0,0,0-.95-2.06A5,5,0,0,0,129,.52,5.36,5.36,0,0,0,126.53,0a5.26,5.26,0,0,0-2.16.45,5.19,5.19,0,0,0-1.72,1.21,5.47,5.47,0,0,0-1.19,1.76A5.38,5.38,0,0,0,121,5.58v2h3.67V5.51a1.83,1.83,0,0,1,.48-1.37,1.84,1.84,0,0,1,1.32-.47,1.72,1.72,0,0,1,1,.27,1.67,1.67,0,0,1,.54.67,2.35,2.35,0,0,1,.2.92c0,.34,0,.67,0,1,0,.69,0,1.27-.07,1.74a4.71,4.71,0,0,1-.58,1.64L121,22.39v3.46H132V22.18h-6.62l5.4-10.41C131,11.22,131.26,10.75,131.43,10.37Z"/><rect class="cls-61" x="135.64" y="14.04" width="10.84" height="3.67"/><path class="cls-61" d="M158.52,25.69a5.25,5.25,0,0,0,1.74-1.1,5.34,5.34,0,0,0,1.21-1.73,5.59,5.59,0,0,0,.45-2.3v-15a5.63,5.63,0,0,0-.45-2.31,5.3,5.3,0,0,0-1.21-1.72,5.1,5.1,0,0,0-1.74-1.1,5.83,5.83,0,0,0-4.14,0,5.24,5.24,0,0,0-1.75,1.1,5.43,5.43,0,0,0-1.2,1.72A5.63,5.63,0,0,0,151,5.51V20.56a5.59,5.59,0,0,0,.45,2.3,5.47,5.47,0,0,0,1.2,1.73,5.4,5.4,0,0,0,1.75,1.1,6,6,0,0,0,4.14,0Zm-3.87-5.13v-15a1.85,1.85,0,0,1,.5-1.32,1.89,1.89,0,0,1,2.6,0,1.85,1.85,0,0,1,.5,1.32V20.56a1.84,1.84,0,0,1-.5,1.31,1.88,1.88,0,0,1-2.6,0A1.84,1.84,0,0,1,154.65,20.56Z"/><path class="cls-61" d="M169,25.4a5.45,5.45,0,0,0,2.7.66,5.69,5.69,0,0,0,2.72-.64,5.06,5.06,0,0,0,1.92-1.84,6.48,6.48,0,0,0,.42-.83,4.76,4.76,0,0,0,.27-1c.05-.36.08-.81.11-1.35s0-1.23,0-2.07c0-1,0-1.84,0-2.5s-.06-1.21-.11-1.64a6.37,6.37,0,0,0-.25-1,4.27,4.27,0,0,0-.4-.8,3.55,3.55,0,0,0-1.3-1.18,3.51,3.51,0,0,0-1.8-.47,4.52,4.52,0,0,0-1,.09,1.51,1.51,0,0,0-.55.23l-.08-.07L175.82.22h-4.1L166.89,13.1c-.12.34-.23.66-.32,1a5.55,5.55,0,0,0-.22,1c0,.38-.08.83-.11,1.35s0,1.17,0,2,0,1.53,0,2.07a10.23,10.23,0,0,0,.15,1.35,3.84,3.84,0,0,0,.23,1,4.89,4.89,0,0,0,.45.83A5.29,5.29,0,0,0,169,25.4Zm.9-9.6a1.74,1.74,0,0,1,.54-1.33,1.84,1.84,0,0,1,2.52,0,1.74,1.74,0,0,1,.54,1.33v4.76a1.74,1.74,0,0,1-.54,1.33,1.84,1.84,0,0,1-2.52,0,1.74,1.74,0,0,1-.54-1.33Z"/><rect class="cls-61" x="181.5" y="22.18" width="3.67" height="3.67"/><path class="cls-61" d="M198.87,1.48a5.1,5.1,0,0,0-1.74-1.1,5.83,5.83,0,0,0-4.14,0,5.23,5.23,0,0,0-3,2.82,5.63,5.63,0,0,0-.46,2.31V20.56a5.59,5.59,0,0,0,.46,2.3,5.31,5.31,0,0,0,1.2,1.73,5.4,5.4,0,0,0,1.75,1.1,6,6,0,0,0,4.14,0,5.25,5.25,0,0,0,1.74-1.1,5.34,5.34,0,0,0,1.21-1.73,5.59,5.59,0,0,0,.45-2.3v-15a5.63,5.63,0,0,0-.45-2.31A5.3,5.3,0,0,0,198.87,1.48Zm-2,19.08a1.81,1.81,0,0,1-.51,1.31,1.7,1.7,0,0,1-1.29.52,1.73,1.73,0,0,1-1.3-.52,1.8,1.8,0,0,1-.5-1.31v-15a1.81,1.81,0,0,1,.5-1.32,1.76,1.76,0,0,1,1.3-.52,1.74,1.74,0,0,1,1.29.52,1.82,1.82,0,0,1,.51,1.32Z"/><path class="cls-61" d="M215.44,10.76a4.73,4.73,0,0,0,.27-1.36c0-.56,0-1.28,0-2.16a14.71,14.71,0,0,0-.32-3.53,4.25,4.25,0,0,0-.45-1,8.91,8.91,0,0,0-.63-.86,5.92,5.92,0,0,0-1.5-1.21,4.84,4.84,0,0,0-2.5-.59,5.38,5.38,0,0,0-2.16.43,5.89,5.89,0,0,0-1.76,1.15,5.14,5.14,0,0,0-1.19,1.73,5.3,5.3,0,0,0-.43,2.13V7.56h3.67V5.47a2.19,2.19,0,0,1,.41-1.19,1.58,1.58,0,0,1,1.39-.61,1.72,1.72,0,0,1,1.31.51,1.74,1.74,0,0,1,.49,1.29V8.78c0,1-.21,1.58-.63,1.84a4.68,4.68,0,0,1-2.29.4v3.24a11.54,11.54,0,0,1,1.46.07,1.61,1.61,0,0,1,.88.36,2.5,2.5,0,0,1,.58,2v3.67a2.16,2.16,0,0,1-.49,1.49,1.62,1.62,0,0,1-1.31.56,1.65,1.65,0,0,1-1.32-.56,2.09,2.09,0,0,1-.48-1.42V18.5h-3.67v2.09a5.67,5.67,0,0,0,.52,2.56,5.11,5.11,0,0,0,1.31,1.69,5.21,5.21,0,0,0,1.77.94,6.47,6.47,0,0,0,1.83.28A5.24,5.24,0,0,0,213,25.4a5.94,5.94,0,0,0,2.22-2.5,4.26,4.26,0,0,0,.28-1,9.81,9.81,0,0,0,.17-1.36c0-.56,0-1.25,0-2.09s0-1.66,0-2.25a5.21,5.21,0,0,0-.25-1.53,2.87,2.87,0,0,0-.66-1.08,7,7,0,0,0-1.32-1,8.35,8.35,0,0,0,1.24-.86A2.81,2.81,0,0,0,215.44,10.76Z"/><polygon class="cls-61" points="8.52 42.79 6.07 42.79 2.5 50.59 2.45 50.59 2.45 42.79 0 42.79 0 59.88 2.45 59.88 2.45 54.77 3.77 52.3 6.55 59.88 9.14 59.88 5.18 49.63 8.52 42.79"/><path class="cls-61" d="M17.56,48.53a3.32,3.32,0,0,0-1.18-.72,4.27,4.27,0,0,0-1.44-.24,4,4,0,0,0-1.51.27,3.55,3.55,0,0,0-1.15.76,3.9,3.9,0,0,0-1.11,2.64h2.38a1.49,1.49,0,0,1,.51-.91,1.39,1.39,0,0,1,.88-.31,1.07,1.07,0,0,1,1,.4,1.87,1.87,0,0,1,.26,1v1.27l-.36,0a1.19,1.19,0,0,1-.28,0,1.14,1.14,0,0,0-.27,0H15a6,6,0,0,0-1.9.25,2.64,2.64,0,0,0-1.17.75A2.87,2.87,0,0,0,11.29,55a8.84,8.84,0,0,0-.17,1.81,4.49,4.49,0,0,0,.26,1.65,2.2,2.2,0,0,0,.66,1,2.24,2.24,0,0,0,.85.49,3,3,0,0,0,.87.13,2.27,2.27,0,0,0,1.38-.36,4.44,4.44,0,0,0,1-1h0v1.25h2.45V51.41a4.35,4.35,0,0,0-.29-1.68A3.47,3.47,0,0,0,17.56,48.53Zm-1.4,7.77a1.76,1.76,0,0,1-.34,1.16,1.23,1.23,0,0,1-1,.4,1.1,1.1,0,0,1-.93-.43,1.75,1.75,0,0,1-.34-1.13A1.49,1.49,0,0,1,14.14,55a2.35,2.35,0,0,1,1.35-.37,3.71,3.71,0,0,1,.67.07Z"/><path class="cls-61" d="M28.05,48.24a2.16,2.16,0,0,0-.82-.52,2.85,2.85,0,0,0-.91-.15,2.37,2.37,0,0,0-1.38.37,3.34,3.34,0,0,0-.92,1H24V47.71H21.52V59.88H24V51.7a2.48,2.48,0,0,1,.26-1.25,1,1,0,0,1,1-.43,1.06,1.06,0,0,1,.89.38,1.63,1.63,0,0,1,.31,1.06v8.42h2.45V50.54a4,4,0,0,0-.21-1.38A2.73,2.73,0,0,0,28.05,48.24Z"/><path class="cls-61" d="M35.16,57.72a1.05,1.05,0,0,1-1-.43,2.43,2.43,0,0,1-.35-.94h-2.3a4.14,4.14,0,0,0,.33,1.6A3.51,3.51,0,0,0,35.19,60a3.72,3.72,0,0,0,1.46-.28,3.49,3.49,0,0,0,1.15-.8,3.82,3.82,0,0,0,.76-1.16,3.75,3.75,0,0,0,.27-1.43,4,4,0,0,0-.51-2,3.48,3.48,0,0,0-1.89-1.44L35,52.34a1.55,1.55,0,0,1-.86-.58A1.47,1.47,0,0,1,34,51.1a1.35,1.35,0,0,1,.31-.86,1.13,1.13,0,0,1,.89-.37,1.31,1.31,0,0,1,.85.31,1.23,1.23,0,0,1,.4.94h2.3a3.63,3.63,0,0,0-.26-1.4,3.69,3.69,0,0,0-.72-1.14,3.22,3.22,0,0,0-1.09-.75,3.89,3.89,0,0,0-2.77,0,3.19,3.19,0,0,0-1.13.73A3.38,3.38,0,0,0,32,49.69a3.42,3.42,0,0,0-.29,1.43,3.3,3.3,0,0,0,.66,2.08,4.06,4.06,0,0,0,1.81,1.28l1.18.43a2.16,2.16,0,0,1,1,.63,1.44,1.44,0,0,1,.26.86,1.18,1.18,0,0,1-.42,1A1.47,1.47,0,0,1,35.16,57.72Z"/><path class="cls-61" d="M43.09,59.89A3,3,0,0,0,44,60a2.31,2.31,0,0,0,1.38-.36,4.41,4.41,0,0,0,1-1h0v1.25h2.45V51.41a4.54,4.54,0,0,0-.29-1.68,3.49,3.49,0,0,0-.77-1.2,3.28,3.28,0,0,0-1.17-.72,4.27,4.27,0,0,0-1.44-.24,4.07,4.07,0,0,0-1.52.27,3.66,3.66,0,0,0-1.15.76,3.89,3.89,0,0,0-1.1,2.64h2.37a1.5,1.5,0,0,1,.52-.91,1.37,1.37,0,0,1,.88-.31,1.07,1.07,0,0,1,1,.4,2,2,0,0,1,.26,1v1.27l-.36,0a1.28,1.28,0,0,1-.29,0,1.1,1.1,0,0,0-.26,0h-.27a5.92,5.92,0,0,0-1.89.25,2.67,2.67,0,0,0-1.18.75A3,3,0,0,0,41.5,55a8.84,8.84,0,0,0-.17,1.81,4.51,4.51,0,0,0,.25,1.65,2.38,2.38,0,0,0,.66,1A2.31,2.31,0,0,0,43.09,59.89ZM44.34,55a2.41,2.41,0,0,1,1.36-.37,3.8,3.8,0,0,1,.67.07V56.3A1.76,1.76,0,0,1,46,57.46a1.2,1.2,0,0,1-1,.4,1.13,1.13,0,0,1-.94-.43,1.81,1.81,0,0,1-.33-1.13A1.51,1.51,0,0,1,44.34,55Z"/><rect class="cls-61" x="51.73" y="42.79" width="2.45" height="2.45"/><rect class="cls-61" x="51.73" y="47.71" width="2.45" height="12.17"/><path class="cls-61" d="M65.63,59.71a3.93,3.93,0,0,0,3.06,0,4,4,0,0,0,2.13-2.12,3.93,3.93,0,0,0,.3-1.55V42.79H68.67v13a1.8,1.8,0,0,1-.43,1.34,1.55,1.55,0,0,1-2.16,0,1.8,1.8,0,0,1-.43-1.34v-13H63.2V56a3.77,3.77,0,0,0,.31,1.55,4.34,4.34,0,0,0,.86,1.26A4.15,4.15,0,0,0,65.63,59.71Z"/><path class="cls-61" d="M78.86,50.4a1.63,1.63,0,0,1,.31,1.06v8.42h2.45V50.54a3.77,3.77,0,0,0-.22-1.38,2.57,2.57,0,0,0-.57-.92,2.24,2.24,0,0,0-.82-.52,2.89,2.89,0,0,0-.91-.15,2.37,2.37,0,0,0-1.38.37,3.51,3.51,0,0,0-.93,1h0V47.71H74.3V59.88h2.45V51.7A2.38,2.38,0,0,1,77,50.45,1,1,0,0,1,78,50,1.08,1.08,0,0,1,78.86,50.4Z"/><rect class="cls-61" x="84.63" y="42.79" width="2.45" height="2.45"/><rect class="cls-61" x="84.63" y="47.71" width="2.45" height="12.17"/><polygon class="cls-61" points="97.99 47.71 95.4 47.71 93.77 55.49 93.72 55.49 92.09 47.71 89.5 47.71 92.67 59.88 94.83 59.88 97.99 47.71"/><path class="cls-61" d="M107.26,56.35h-2.45a2.05,2.05,0,0,1-.28.82,1,1,0,0,1-.92.41,1.22,1.22,0,0,1-.88-.32,1.17,1.17,0,0,1-.32-.88V54.72h4.85V51.36a3.92,3.92,0,0,0-1-2.71,3.32,3.32,0,0,0-1.17-.79,3.71,3.71,0,0,0-1.52-.29,3.77,3.77,0,0,0-2,.48,3.33,3.33,0,0,0-1.23,1.27,3.17,3.17,0,0,0-.36,1.1,8.4,8.4,0,0,0-.1,1.37v4a8.32,8.32,0,0,0,.1,1.37,3.17,3.17,0,0,0,.36,1.1,3.33,3.33,0,0,0,1.23,1.27,3.77,3.77,0,0,0,2,.48,3.83,3.83,0,0,0,1.51-.28,3.56,3.56,0,0,0,2.14-3.39Zm-4.85-4.94a1.53,1.53,0,0,1,.32-1,1.15,1.15,0,0,1,.88-.34,1.12,1.12,0,0,1,.87.34,1.49,1.49,0,0,1,.33,1V52.8h-2.4Z"/><path class="cls-61" d="M112.55,52.66a2.87,2.87,0,0,1,.24-1.25,2.37,2.37,0,0,1,.62-.82,2.14,2.14,0,0,1,.81-.44A2.79,2.79,0,0,1,115,50a1.92,1.92,0,0,1,.75.14V47.57A3.81,3.81,0,0,0,114,48,7.35,7.35,0,0,0,112.55,49v-1.3H110.1V59.88h2.45Z"/><path class="cls-61" d="M124.17,58.94a3.62,3.62,0,0,0,.75-1.16,3.58,3.58,0,0,0,.28-1.43,3.92,3.92,0,0,0-.52-2,3.46,3.46,0,0,0-1.88-1.44l-1.44-.58a1.55,1.55,0,0,1-.86-.58,1.35,1.35,0,0,1-.17-.66,1.3,1.3,0,0,1,.31-.86,1.12,1.12,0,0,1,.89-.37,1.33,1.33,0,0,1,.85.31,1.23,1.23,0,0,1,.4.94h2.3a3.64,3.64,0,0,0-.27-1.4,3.49,3.49,0,0,0-.71-1.14,3.26,3.26,0,0,0-1.1-.75,3.65,3.65,0,0,0-1.38-.26,3.77,3.77,0,0,0-1.39.25,3.28,3.28,0,0,0-1.13.73,3.53,3.53,0,0,0-.79,1.14,3.58,3.58,0,0,0-.29,1.43,3.3,3.3,0,0,0,.66,2.08,4.09,4.09,0,0,0,1.82,1.28l1.17.43a2,2,0,0,1,1,.63,1.38,1.38,0,0,1,.27.86,1.21,1.21,0,0,1-.42,1,1.49,1.49,0,0,1-1,.35,1,1,0,0,1-1-.43,2.28,2.28,0,0,1-.35-.94H117.9a4.14,4.14,0,0,0,.34,1.6A3.51,3.51,0,0,0,121.55,60a3.74,3.74,0,0,0,1.47-.28A3.6,3.6,0,0,0,124.17,58.94Z"/><rect class="cls-61" x="127.89" y="47.71" width="2.45" height="12.17"/><rect class="cls-61" x="127.89" y="42.79" width="2.45" height="2.45"/><path class="cls-61" d="M136.33,44h-2.45v3.69h-1.22v1.92h1.22V57a3.59,3.59,0,0,0,.16,1,2.52,2.52,0,0,0,1.39,1.6,3.45,3.45,0,0,0,1.41.26h1v-2.3a6.39,6.39,0,0,1-.68,0,1,1,0,0,1-.47-.14.62.62,0,0,1-.27-.36,2,2,0,0,1-.09-.67V49.63h1.51V47.71h-1.51Z"/><path class="cls-61" d="M144.05,55.3H144l-1.68-7.59h-2.59l3.33,11.62c-.14.72-.27,1.28-.38,1.69a4.13,4.13,0,0,1-.36.95,1,1,0,0,1-.48.43,1.92,1.92,0,0,1-.62.1h-.56v2.3h.68a4.16,4.16,0,0,0,1.06-.13,3,3,0,0,0,1-.47,3.31,3.31,0,0,0,.8-.86,4.42,4.42,0,0,0,.54-1.35l3.5-14.28H145.7Z"/><path class="cls-61" d="M161.69,55.8a1.84,1.84,0,0,1-.43,1.34,1.47,1.47,0,0,1-1.08.44,1.44,1.44,0,0,1-1.08-.44,1.8,1.8,0,0,1-.44-1.34v-13h-2.44V56a3.77,3.77,0,0,0,.31,1.55,4.11,4.11,0,0,0,2.12,2.12,3.7,3.7,0,0,0,1.53.31,3.77,3.77,0,0,0,1.53-.31A3.92,3.92,0,0,0,164.14,56V42.79h-2.45Z"/><path class="cls-61" d="M178.64,48.24a2.31,2.31,0,0,0-.86-.52,3.13,3.13,0,0,0-.94-.15,2.79,2.79,0,0,0-1.53.36,5.17,5.17,0,0,0-1,.86,4,4,0,0,0-.86-.84,2.26,2.26,0,0,0-1.32-.38,2.37,2.37,0,0,0-1.38.37,3.51,3.51,0,0,0-.93,1h-.05V47.71h-2.44V59.88h2.44V51.7a2.37,2.37,0,0,1,.27-1.25,1,1,0,0,1,1-.43,1.08,1.08,0,0,1,.89.38,1.69,1.69,0,0,1,.31,1.06v8.42h2.45V51.7a2.38,2.38,0,0,1,.26-1.25,1,1,0,0,1,1-.43,1.08,1.08,0,0,1,.89.38,1.63,1.63,0,0,1,.31,1.06v8.42h2.45V50.54a3.55,3.55,0,0,0-.24-1.38A2.68,2.68,0,0,0,178.64,48.24Z"/><path class="cls-61" d="M187.52,47.86a3.71,3.71,0,0,0-1.52-.29,3.77,3.77,0,0,0-2,.48,3.33,3.33,0,0,0-1.23,1.27,3.17,3.17,0,0,0-.36,1.1,8.4,8.4,0,0,0-.1,1.37v4a8.32,8.32,0,0,0,.1,1.37,3.17,3.17,0,0,0,.36,1.1A3.33,3.33,0,0,0,184,59.54a3.77,3.77,0,0,0,2,.48,3.83,3.83,0,0,0,1.51-.28,3.56,3.56,0,0,0,2.14-3.39H187.2a2.05,2.05,0,0,1-.28.82,1,1,0,0,1-.92.41,1.22,1.22,0,0,1-.88-.32,1.17,1.17,0,0,1-.32-.88V54.72h4.85V51.36a3.92,3.92,0,0,0-1-2.71A3.32,3.32,0,0,0,187.52,47.86Zm-.32,4.94h-2.4V51.41a1.53,1.53,0,0,1,.32-1,1.31,1.31,0,0,1,1.76,0,1.53,1.53,0,0,1,.32,1Z"/><path class="cls-61" d="M197.32,48.82h0a3.06,3.06,0,0,0-1-.93,2.59,2.59,0,0,0-1.28-.32,2.42,2.42,0,0,0-1.37.31,2.32,2.32,0,0,0-1.13,1.8,18.3,18.3,0,0,0-.07,1.94v4.64a11.24,11.24,0,0,0,.09,1.6,3.24,3.24,0,0,0,.32,1A2.18,2.18,0,0,0,195,60a3,3,0,0,0,.79-.09,2.07,2.07,0,0,0,.6-.27,2.28,2.28,0,0,0,.48-.39l.46-.49v1.1h2.45V42.79h-2.45Zm0,7.24a1.68,1.68,0,0,1-.34,1.1,1.07,1.07,0,0,1-.88.42,1,1,0,0,1-.92-.46,2.22,2.22,0,0,1-.28-1.2V51.46a1.94,1.94,0,0,1,.25-1,1,1,0,0,1,.95-.43,1.13,1.13,0,0,1,.87.37,1.34,1.34,0,0,1,.35,1Z"/><path class="cls-61" d="M208.91,48.53a3.32,3.32,0,0,0-1.18-.72,4.27,4.27,0,0,0-1.44-.24,4,4,0,0,0-1.51.27,3.55,3.55,0,0,0-1.15.76,4,4,0,0,0-1.11,2.64h2.38a1.46,1.46,0,0,1,.52-.91,1.35,1.35,0,0,1,.87-.31,1.05,1.05,0,0,1,1,.4,1.87,1.87,0,0,1,.26,1v1.27l-.35,0a1.23,1.23,0,0,1-.29,0,1.14,1.14,0,0,0-.27,0h-.26a6,6,0,0,0-1.9.25,2.69,2.69,0,0,0-1.17.75,2.87,2.87,0,0,0-.63,1.31,8.89,8.89,0,0,0-.16,1.81,4.51,4.51,0,0,0,.25,1.65,2.38,2.38,0,0,0,.66,1,2.24,2.24,0,0,0,.85.49,3,3,0,0,0,.88.13,2.31,2.31,0,0,0,1.38-.36,4.63,4.63,0,0,0,1-1h0v1.25H210V51.41a4.35,4.35,0,0,0-.29-1.68A3.47,3.47,0,0,0,208.91,48.53Zm-1.4,7.77a1.76,1.76,0,0,1-.34,1.16,1.22,1.22,0,0,1-1,.4,1.11,1.11,0,0,1-.94-.43,1.81,1.81,0,0,1-.34-1.13,1.49,1.49,0,0,1,.57-1.35,2.38,2.38,0,0,1,1.35-.37,3.71,3.71,0,0,1,.67.07Z"/><path class="cls-61" d="M225.42,43.78a3.69,3.69,0,0,0-2.81-1.13A4.25,4.25,0,0,0,221,43a3.64,3.64,0,0,0-1.26.83,3.6,3.6,0,0,0-.81,1.24,4,4,0,0,0-.29,1.56V56a4.31,4.31,0,0,0,.37,1.93,3.63,3.63,0,0,0,.95,1.24,3.32,3.32,0,0,0,1.29.67,5.44,5.44,0,0,0,1.42.19,3.54,3.54,0,0,0,1.52-.32,3.94,3.94,0,0,0,1.24-.88,4,4,0,0,0,.83-1.26,3.79,3.79,0,0,0,.3-1.5V55H224.1v.84a2.3,2.3,0,0,1-.14.84,1.52,1.52,0,0,1-.37.53,1.57,1.57,0,0,1-.51.27,1.67,1.67,0,0,1-.52.09,1.27,1.27,0,0,1-1.16-.51,2.21,2.21,0,0,1-.32-1.25V47.09a2.91,2.91,0,0,1,.3-1.43,1.23,1.23,0,0,1,1.21-.56,1.32,1.32,0,0,1,1.1.52,2,2,0,0,1,.41,1.25v.82h2.45v-1a4.48,4.48,0,0,0-.3-1.65A4,4,0,0,0,225.42,43.78Z"/><path class="cls-61" d="M235.71,48.53a3.28,3.28,0,0,0-1.17-.72,4.27,4.27,0,0,0-1.44-.24,4.07,4.07,0,0,0-1.52.27,3.66,3.66,0,0,0-1.15.76,3.89,3.89,0,0,0-1.1,2.64h2.37a1.5,1.5,0,0,1,.52-.91,1.37,1.37,0,0,1,.88-.31,1.07,1.07,0,0,1,1,.4,2,2,0,0,1,.26,1v1.27l-.36,0a1.28,1.28,0,0,1-.29,0,1.1,1.1,0,0,0-.26,0h-.27a5.92,5.92,0,0,0-1.89.25,2.67,2.67,0,0,0-1.18.75,3,3,0,0,0-.62,1.31,8.84,8.84,0,0,0-.17,1.81,4.51,4.51,0,0,0,.25,1.65,2.38,2.38,0,0,0,.66,1,2.31,2.31,0,0,0,.85.49,3,3,0,0,0,.88.13,2.31,2.31,0,0,0,1.38-.36,4.41,4.41,0,0,0,1-1h0v1.25h2.45V51.41a4.54,4.54,0,0,0-.29-1.68A3.49,3.49,0,0,0,235.71,48.53Zm-1.39,7.77a1.76,1.76,0,0,1-.35,1.16,1.2,1.2,0,0,1-1,.4,1.13,1.13,0,0,1-.94-.43,1.81,1.81,0,0,1-.33-1.13,1.51,1.51,0,0,1,.56-1.35,2.41,2.41,0,0,1,1.36-.37,3.8,3.8,0,0,1,.67.07Z"/><path class="cls-61" d="M246.21,48.24a2.24,2.24,0,0,0-.82-.52,2.89,2.89,0,0,0-.91-.15,2.37,2.37,0,0,0-1.38.37,3.51,3.51,0,0,0-.93,1h0V47.71h-2.45V59.88h2.45V51.7a2.48,2.48,0,0,1,.26-1.25,1,1,0,0,1,1-.43,1.06,1.06,0,0,1,.89.38,1.63,1.63,0,0,1,.31,1.06v8.42H247V50.54a3.77,3.77,0,0,0-.22-1.38A2.57,2.57,0,0,0,246.21,48.24Z"/><polygon class="cls-61" points="253.46 55.49 253.41 55.49 251.78 47.71 249.18 47.71 252.35 59.88 254.51 59.88 257.68 47.71 255.09 47.71 253.46 55.49"/><path class="cls-61" d="M265.94,48.53a3.2,3.2,0,0,0-1.17-.72,4.27,4.27,0,0,0-1.44-.24,4,4,0,0,0-1.51.27,3.55,3.55,0,0,0-1.15.76,3.86,3.86,0,0,0-1.11,2.64h2.38a1.49,1.49,0,0,1,.51-.91,1.39,1.39,0,0,1,.88-.31,1.07,1.07,0,0,1,1,.4,2,2,0,0,1,.26,1v1.27l-.36,0a1.19,1.19,0,0,1-.28,0,1.14,1.14,0,0,0-.27,0h-.26a6,6,0,0,0-1.9.25,2.73,2.73,0,0,0-1.18.75,3,3,0,0,0-.62,1.31,8.84,8.84,0,0,0-.17,1.81,4.73,4.73,0,0,0,.25,1.65,2.38,2.38,0,0,0,.66,1,2.35,2.35,0,0,0,.86.49,2.91,2.91,0,0,0,.87.13,2.29,2.29,0,0,0,1.38-.36,4.41,4.41,0,0,0,1-1h.05v1.25H267V51.41a4.35,4.35,0,0,0-.29-1.68A3.49,3.49,0,0,0,265.94,48.53Zm-1.39,7.77a1.71,1.71,0,0,1-.35,1.16,1.2,1.2,0,0,1-1,.4,1.1,1.1,0,0,1-.93-.43A1.75,1.75,0,0,1,262,56.3a1.51,1.51,0,0,1,.56-1.35,2.41,2.41,0,0,1,1.36-.37,3.71,3.71,0,0,1,.67.07Z"/><path class="cls-61" d="M274.49,52.92l-1.44-.58a1.55,1.55,0,0,1-.87-.58,1.47,1.47,0,0,1-.17-.66,1.31,1.31,0,0,1,.32-.86,1.1,1.1,0,0,1,.88-.37,1.35,1.35,0,0,1,.86.31,1.23,1.23,0,0,1,.39.94h2.31a3.64,3.64,0,0,0-.27-1.4,3.51,3.51,0,0,0-.72-1.14,3.22,3.22,0,0,0-1.09-.75,3.65,3.65,0,0,0-1.38-.26,3.73,3.73,0,0,0-1.39.25,3.28,3.28,0,0,0-1.13.73,3.38,3.38,0,0,0-.79,1.14,3.58,3.58,0,0,0-.29,1.43,3.3,3.3,0,0,0,.66,2.08,4.11,4.11,0,0,0,1.81,1.28l1.18.43a2.16,2.16,0,0,1,1,.63,1.44,1.44,0,0,1,.26.86,1.18,1.18,0,0,1-.42,1,1.45,1.45,0,0,1-1,.35,1.06,1.06,0,0,1-1-.43,2.43,2.43,0,0,1-.35-.94h-2.3a4.14,4.14,0,0,0,.34,1.6,3.52,3.52,0,0,0,.81,1.14,3.57,3.57,0,0,0,2.5.93,3.69,3.69,0,0,0,1.46-.28,3.49,3.49,0,0,0,1.15-.8,3.65,3.65,0,0,0,.76-1.16,3.76,3.76,0,0,0,.28-1.43,4,4,0,0,0-.52-2A3.46,3.46,0,0,0,274.49,52.92Z"/><polygon class="cls-61" points="8.52 70.79 6.07 70.79 2.5 78.59 2.45 78.59 2.45 70.79 0 70.79 0 87.88 2.45 87.88 2.45 82.77 3.77 80.3 6.55 87.88 9.14 87.88 5.18 77.63 8.52 70.79"/><path class="cls-61" d="M17.56,76.53a3.32,3.32,0,0,0-1.18-.72,4.27,4.27,0,0,0-1.44-.24,4,4,0,0,0-1.51.27,3.55,3.55,0,0,0-1.15.76,3.9,3.9,0,0,0-1.11,2.64h2.38a1.49,1.49,0,0,1,.51-.91,1.39,1.39,0,0,1,.88-.31,1.07,1.07,0,0,1,1,.4,1.87,1.87,0,0,1,.26,1v1.27a2.19,2.19,0,0,0-.36,0,1.19,1.19,0,0,1-.28,0,1.14,1.14,0,0,0-.27,0H15a6,6,0,0,0-1.9.25,2.64,2.64,0,0,0-1.17.75A2.87,2.87,0,0,0,11.29,83a8.84,8.84,0,0,0-.17,1.81,4.49,4.49,0,0,0,.26,1.65,2.2,2.2,0,0,0,.66,1,2.24,2.24,0,0,0,.85.49,3,3,0,0,0,.87.13,2.27,2.27,0,0,0,1.38-.36,4.44,4.44,0,0,0,1-1h0v1.25h2.45V79.41a4.35,4.35,0,0,0-.29-1.68A3.47,3.47,0,0,0,17.56,76.53Zm-1.4,7.77a1.76,1.76,0,0,1-.34,1.16,1.23,1.23,0,0,1-1,.4,1.1,1.1,0,0,1-.93-.43,1.75,1.75,0,0,1-.34-1.13A1.49,1.49,0,0,1,14.14,83a2.35,2.35,0,0,1,1.35-.37,3.71,3.71,0,0,1,.67.07Z"/><path class="cls-61" d="M28.05,76.24a2.16,2.16,0,0,0-.82-.52,2.85,2.85,0,0,0-.91-.15,2.37,2.37,0,0,0-1.38.37,3.34,3.34,0,0,0-.92,1H24V75.71H21.52V87.88H24V79.7a2.48,2.48,0,0,1,.26-1.25,1,1,0,0,1,1-.43,1.06,1.06,0,0,1,.89.38,1.63,1.63,0,0,1,.31,1.06v8.42h2.45V78.54a4,4,0,0,0-.21-1.38A2.73,2.73,0,0,0,28.05,76.24Z"/><path class="cls-61" d="M36.71,76.82h-.05a3,3,0,0,0-1-.93,2.56,2.56,0,0,0-1.28-.32,2.42,2.42,0,0,0-1.37.31,2.32,2.32,0,0,0-1.13,1.8,18.3,18.3,0,0,0-.07,1.94v4.64a9.74,9.74,0,0,0,.1,1.6,3,3,0,0,0,.31,1A2.19,2.19,0,0,0,34.38,88a3.15,3.15,0,0,0,.8-.09,2.34,2.34,0,0,0,.6-.27,2.93,2.93,0,0,0,.48-.39l.45-.49v1.1h2.45V70.79H36.71Zm0,7.24a1.74,1.74,0,0,1-.33,1.1,1.09,1.09,0,0,1-.89.42,1,1,0,0,1-.91-.46,2.13,2.13,0,0,1-.29-1.2V79.46a1.94,1.94,0,0,1,.25-1,1,1,0,0,1,1-.43,1.13,1.13,0,0,1,.87.37,1.3,1.3,0,0,1,.35,1Z"/><path class="cls-61" d="M48.3,76.53a3.32,3.32,0,0,0-1.18-.72,4.18,4.18,0,0,0-1.44-.24,4,4,0,0,0-1.51.27A3.55,3.55,0,0,0,43,76.6a3.89,3.89,0,0,0-1.1,2.64h2.37a1.46,1.46,0,0,1,.52-.91,1.35,1.35,0,0,1,.87-.31,1,1,0,0,1,1,.4,1.87,1.87,0,0,1,.27,1v1.27l-.36,0a1.28,1.28,0,0,1-.29,0,1.1,1.1,0,0,0-.26,0h-.27a5.88,5.88,0,0,0-1.89.25,2.67,2.67,0,0,0-1.18.75A3,3,0,0,0,42,83a8.19,8.19,0,0,0-.17,1.81,4.51,4.51,0,0,0,.25,1.65,2.38,2.38,0,0,0,.66,1,2.31,2.31,0,0,0,.85.49,3,3,0,0,0,.88.13,2.31,2.31,0,0,0,1.38-.36,4.41,4.41,0,0,0,1-1h0v1.25h2.45V79.41a4.54,4.54,0,0,0-.29-1.68A3.49,3.49,0,0,0,48.3,76.53ZM46.91,84.3a1.76,1.76,0,0,1-.35,1.16,1.21,1.21,0,0,1-1,.4,1.13,1.13,0,0,1-.94-.43,1.81,1.81,0,0,1-.33-1.13A1.49,1.49,0,0,1,44.88,83a2.41,2.41,0,0,1,1.36-.37,3.8,3.8,0,0,1,.67.07Z"/><rect class="cls-61" x="52.26" y="70.79" width="2.45" height="2.45"/><rect class="cls-61" x="52.26" y="75.71" width="2.45" height="12.17"/><polygon class="cls-61" points="69.28 79.84 69.23 79.84 66.09 70.79 63.74 70.79 63.74 87.88 66.18 87.88 66.18 77.49 66.23 77.49 68.63 84.83 69.86 84.83 72.28 77.49 72.33 77.49 72.33 87.88 74.78 87.88 74.78 70.79 72.4 70.79 69.28 79.84"/><path class="cls-61" d="M83,75.86a4.19,4.19,0,0,0-3.48.19,3.26,3.26,0,0,0-1.59,2.37,8.4,8.4,0,0,0-.1,1.37v4a8.32,8.32,0,0,0,.1,1.37,3.26,3.26,0,0,0,1.59,2.37,3.77,3.77,0,0,0,2,.48A3.83,3.83,0,0,0,83,87.74a3.54,3.54,0,0,0,2.13-3.39H82.66a2.42,2.42,0,0,1-.28.82,1,1,0,0,1-.92.41,1.22,1.22,0,0,1-.88-.32,1.17,1.17,0,0,1-.32-.88V82.72H85.1V79.36a4,4,0,0,0-.95-2.71A3.41,3.41,0,0,0,83,75.86Zm-.32,4.94h-2.4V79.41a1.53,1.53,0,0,1,.32-1,1.15,1.15,0,0,1,.88-.34,1.12,1.12,0,0,1,.87.34,1.49,1.49,0,0,1,.33,1Z"/><path class="cls-61" d="M101.7,78.38a6.38,6.38,0,0,0,.47-2.57q0-5-4.32-5H93.91V87.88h2.45v-7.3h1.47l2.28,7.3h2.59l-2.64-7.8A3.63,3.63,0,0,0,101.7,78.38Zm-2-1.48a2.62,2.62,0,0,1-.26.83,1.49,1.49,0,0,1-.6.51,2.49,2.49,0,0,1-1,.18H96.36V73.1h1.27a1.94,1.94,0,0,1,1.73.67,2.19,2.19,0,0,1,.29.85,9.32,9.32,0,0,1,0,2.28Z"/><rect class="cls-61" x="105.58" y="70.79" width="2.45" height="17.09"/><path class="cls-61" d="M117.1,71a4.15,4.15,0,0,0-1.67-.33,4.26,4.26,0,0,0-1.86.37,3.67,3.67,0,0,0-1.29,1,4.2,4.2,0,0,0-.79,1.48,6.48,6.48,0,0,0-.26,1.83,5.88,5.88,0,0,0,.54,2.67,3.86,3.86,0,0,0,2.12,1.72l1.75.72a6.47,6.47,0,0,1,.74.36,1.39,1.39,0,0,1,.44.43,1.82,1.82,0,0,1,.19.7,10.74,10.74,0,0,1,0,1.1c0,.39,0,.73,0,1a1.92,1.92,0,0,1-.22.8,1.35,1.35,0,0,1-.54.52,2.2,2.2,0,0,1-1,.18A1.55,1.55,0,0,1,114,85a2,2,0,0,1-.39-1.22v-.76h-2.45V84a4,4,0,0,0,.32,1.59,4.28,4.28,0,0,0,.88,1.29,4,4,0,0,0,1.32.86,4.29,4.29,0,0,0,1.65.31,4.64,4.64,0,0,0,2-.38,3.54,3.54,0,0,0,1.32-1.06,4.1,4.1,0,0,0,.69-1.57,8.4,8.4,0,0,0,.22-2,11.89,11.89,0,0,0-.1-1.67,4.35,4.35,0,0,0-.36-1.31,3,3,0,0,0-.79-1,4.81,4.81,0,0,0-1.32-.73l-1.87-.75a3.57,3.57,0,0,1-.76-.38,1.41,1.41,0,0,1-.42-.46,1.76,1.76,0,0,1-.18-.6q0-.33,0-.84a4.39,4.39,0,0,1,.07-.82,2,2,0,0,1,.26-.71,1.68,1.68,0,0,1,.51-.48,1.5,1.5,0,0,1,.81-.19,1.44,1.44,0,0,1,1.33.61,2.57,2.57,0,0,1,.4,1.45v.55h2.45v-1.2a3.7,3.7,0,0,0-1.11-2.64A4.29,4.29,0,0,0,117.1,71Z"/><polygon class="cls-61" points="122.55 87.88 129.84 87.88 129.84 85.43 125 85.43 125 80.42 129.22 80.42 129.22 78.11 125 78.11 125 73.09 129.84 73.09 129.84 70.79 122.55 70.79 122.55 87.88"/></g></g></svg>