<svg xmlns="http://www.w3.org/2000/svg" viewBox="0 0 299.21 87.56"><defs><style>.cls-1{fill:#fff;}.cls-2{fill:#191919;}</style></defs><title>logo-main</title><g id="レイヤー_2" data-name="レイヤー 2"><g id="レイヤー_1-2" data-name="レイヤー 1"><polygon class="cls-1" points="278.54 42.06 278.54 32.41 299.21 20.99 278.54 9.56 272.42 5.76 272.42 45.27 278.54 45.27 278.54 42.06"/><polygon class="cls-1" points="68.86 6.44 65.86 14.51 71.86 14.51 68.86 6.44"/><polygon class="cls-1" points="62.16 16.51 54.33 12.93 57.92 20.75 62.16 16.51"/><polygon class="cls-1" points="48.34 27.77 56.4 30.76 56.4 24.77 48.34 27.77"/><polygon class="cls-1" points="57.81 33.71 54.22 41.53 62.05 37.95 57.81 33.71"/><polygon class="cls-1" points="71.73 39.89 65.74 39.89 68.73 47.96 71.73 39.89"/><polygon class="cls-1" points="79.28 33.94 75.37 38.48 83.44 41.47 79.28 33.94"/><polygon class="cls-1" points="81.42 30.76 89.49 27.77 81.42 24.77 81.42 30.76"/><polygon class="cls-1" points="83.39 12.36 75.57 15.95 79.81 20.19 83.39 12.36"/><polygon class="cls-1" points="21.72 29.9 22.05 30.76 23.88 26.23 24.87 28.9 27.14 22.48 36.66 46.28 50.73 9.35 44.36 9.35 36.6 30.77 28.65 9.35 23.6 9.35 15.49 30.77 7.94 9.35 1 9.35 15.08 46.28 21.72 29.9"/><path class="cls-1" d="M98.6,31.59h2.81l6,9.52h0l2.48,4H117l-4.33-6.73a14.18,14.18,0,0,1,7.67-2.18c3.51.11,6,1.73,8.67,3.44s5.59,3.6,9.64,3.74h.49c3.75,0,7.56-1.49,11.33-4.42l-.61-.79c-3.75,2.91-7.52,4.35-11.18,4.2s-6.49-1.88-9.13-3.58-5.39-3.48-9.18-3.6a15.2,15.2,0,0,0-8.25,2.33l-1.79-2.78c3.41-2.6,6.76-3.89,10-3.79,3.51.11,6,1.73,8.67,3.45s5.59,3.6,9.64,3.74h.49c3.75,0,7.39-1.36,11.16-4.3l.13-.52a19.67,19.67,0,0,0,1-6.09c0-10.3-7.25-17.85-17.65-17.85H122.22V30.12a11.91,11.91,0,0,0-1.83-.21c-3.45-.1-7,1.24-10.58,3.95l-1.72-2.68c5.1-1.27,8-5.35,8-10.71,0-6.53-4.75-11.12-11.84-11.12H92.48V45.06H98.6Zm29.74-16.43h5.51c6.94,0,11.32,5.51,11.32,12A12.2,12.2,0,0,1,140.59,37a14.94,14.94,0,0,1-1.89.08c-3.77-.13-6.49-1.89-9.13-3.58-.4-.27-.82-.53-1.23-.79Zm-29.74,0h4.85c3.93,0,6.37,1.79,6.37,5.31s-2.44,5.3-6.37,5.3H98.6Z"/><path class="cls-1" d="M175.11,45.88a18,18,0,0,0,13.72-6.07l-4.08-4a12.71,12.71,0,0,1-9.64,4.39c-7,0-11.89-5.87-11.89-12.76s4.85-12.75,11.89-12.75a12.29,12.29,0,0,1,9.08,3.93l4.13-4A17.89,17.89,0,0,0,175.11,9C164.8,9,157,16.86,157,27.41S164.8,45.88,175.11,45.88Z"/><path class="cls-1" d="M238.07,21.29l11.17,17,9.25-14.06a11.75,11.75,0,0,0,1.92-.65v21.7h6.13V9.56h-5.67L254.1,20a11.38,11.38,0,0,1-1.76-.77,6.81,6.81,0,0,0-3.5-1,7.18,7.18,0,0,0-4.38,1.89L237.61,9.56H232V45.27h6.12Zm22.34,0v1.18c-.36.17-.71.32-1.06.45Zm-11.17,6.23-2.84-4.4a5.17,5.17,0,0,1,2.47-.69,5.69,5.69,0,0,1,3,.89l.06,0Zm-.37-8.28a5.61,5.61,0,0,1,3,.9,13.53,13.53,0,0,0,1.66.75l-1,1.62-.15-.07a6.81,6.81,0,0,0-3.5-1,6,6,0,0,0-3,.84L245,21A6.34,6.34,0,0,1,248.87,19.24Z"/><polygon class="cls-1" points="201.53 36.8 208.63 36.8 211.89 45.27 226.07 45.27 212.19 9.56 209.69 3.26 209.69 3.25 209.5 2.78 210.29 0.79 209.57 0.5 209.08 1.73 208.59 0.5 207.87 0.79 208.66 2.78 205.97 9.56 192.09 45.27 198.27 45.27 201.53 36.8"/><path class="cls-1" d="M21.37,87.56c10.09,0,17.5-7.66,17.5-17.9s-7.41-17.9-17.5-17.9-17.5,7.67-17.5,17.9S11.28,87.56,21.37,87.56Zm0-30.16c7,0,11.47,5.59,11.47,12.26s-4.5,12.27-11.47,12.27S9.9,76.34,9.9,69.66,14.4,57.4,21.37,57.4Z"/><path class="cls-1" d="M68.65,77.92c0-6.28-4.41-8.65-9.7-10.63-4.74-1.78-7.46-2.72-7.46-5.74,0-2.32,2.32-4.15,5.29-4.15,4.3,0,7.17,3.91,7.17,3.91l4.1-4.06a14.86,14.86,0,0,0-11.27-5.49c-7,0-11.33,4.9-11.33,9.79,0,6.43,5.74,9.2,10.83,11C60.39,74,62.61,75,62.61,77.92s-3.06,4-6,4c-5.24,0-8.21-5.2-8.21-5.2l-4.45,3.76a15.14,15.14,0,0,0,12.66,7.07C63.11,87.56,68.65,84.2,68.65,77.92Z"/><path class="cls-1" d="M82.84,78.76H97.48L100.64,87h6L93.17,52.36h-6L73.69,87h6Zm7.32-18.94,5.19,13.5H85Z"/><polygon class="cls-1" points="113.06 52.36 113.06 86.97 119 86.97 119 71.34 132.6 86.97 140.46 86.97 125.23 69.37 138.78 52.36 131.36 52.36 119 67.88 119 52.36 113.06 52.36"/><path class="cls-1" d="M179.83,87,166.38,52.36h-6L146.9,87h6l3.17-8.21h14.63L173.85,87ZM158.17,73.32l5.19-13.5,5.2,13.5Z"/><path class="cls-1" d="M193.24,86.34H216V80.7H204.91l8-10.28a14.35,14.35,0,0,0,3-8.51c0-5.73-3.61-10.78-11.08-10.78-9.24,0-11.47,8.66-11.47,8.66l5.29,1.92s1.09-5,6.18-5A5.09,5.09,0,0,1,210,62c0,3.91-2.72,6.53-4,8.21Z"/><path class="cls-1" d="M234.14,51.13c-8.8,0-13.06,8.51-13.06,17.9s4.26,17.9,13.06,17.9,13-8.5,13-17.9S242.94,51.13,234.14,51.13Zm0,30.26c-4.8,0-7.12-5.58-7.12-12.36s2.32-12.36,7.12-12.36,7,5.59,7,12.36S238.93,81.39,234.14,81.39Z"/><polygon class="cls-1" points="260.24 86.34 266.17 86.34 266.17 51.73 261.28 51.73 250.75 60.13 254.16 64.48 260.24 59.64 260.24 86.34"/><path class="cls-1" d="M291.5,67.94a8.27,8.27,0,0,0,3.86-6.82c0-5.14-3.66-10-10.88-10S273.6,56,273.6,61.12a8.27,8.27,0,0,0,3.86,6.82,8.61,8.61,0,0,0-4.85,8.21c0,5.79,4.35,10.78,11.87,10.78s11.87-5,11.87-10.78A8.61,8.61,0,0,0,291.5,67.94Zm-7-11.37c2.77,0,5,1.78,5,4.6s-2.23,4.6-5,4.6-5-1.78-5-4.6S281.71,56.57,284.48,56.57Zm0,24.92c-3.91,0-5.88-2.62-5.88-5.44s2-5.34,5.88-5.34,5.88,2.53,5.88,5.34S288.39,81.49,284.48,81.49Z"/><polygon class="cls-2" points="277.54 41.56 277.54 31.91 298.21 20.49 277.54 9.06 271.42 5.26 271.42 44.77 277.54 44.77 277.54 41.56"/><polygon class="cls-2" points="67.86 5.94 64.86 14.01 70.86 14.01 67.86 5.94"/><polygon class="cls-2" points="61.16 16.01 53.33 12.43 56.92 20.25 61.16 16.01"/><polygon class="cls-2" points="47.34 27.27 55.4 30.26 55.4 24.27 47.34 27.27"/><polygon class="cls-2" points="56.81 33.21 53.22 41.03 61.05 37.45 56.81 33.21"/><polygon class="cls-2" points="70.73 39.39 64.74 39.39 67.73 47.46 70.73 39.39"/><polygon class="cls-2" points="78.28 33.44 74.37 37.98 82.44 40.97 78.28 33.44"/><polygon class="cls-2" points="80.42 30.26 88.49 27.27 80.42 24.27 80.42 30.26"/><polygon class="cls-2" points="82.39 11.86 74.57 15.45 78.81 19.69 82.39 11.86"/><polygon class="cls-2" points="20.72 29.4 21.05 30.26 22.88 25.73 23.87 28.4 26.14 21.98 35.66 45.78 49.73 8.85 43.36 8.85 35.6 30.27 27.65 8.85 22.6 8.85 14.49 30.27 6.94 8.85 0 8.85 14.08 45.78 20.72 29.4"/><path class="cls-2" d="M97.6,31.09h2.81l6,9.52h0l2.48,4H116l-4.33-6.73a14.18,14.18,0,0,1,7.67-2.18c3.51.11,6,1.73,8.67,3.44s5.59,3.6,9.64,3.74h.49c3.75,0,7.56-1.49,11.33-4.42l-.61-.79c-3.75,2.91-7.52,4.35-11.18,4.2s-6.49-1.88-9.13-3.58-5.39-3.48-9.18-3.6A15.2,15.2,0,0,0,111.14,37l-1.79-2.78c3.41-2.6,6.76-3.89,10-3.79,3.51.11,6,1.73,8.67,3.45s5.59,3.6,9.64,3.74h.49c3.75,0,7.39-1.36,11.16-4.3l.13-.52a19.67,19.67,0,0,0,1-6.09c0-10.3-7.25-17.85-17.65-17.85H121.22V29.62a11.91,11.91,0,0,0-1.83-.21c-3.45-.1-7,1.24-10.58,3.95l-1.72-2.68c5.1-1.27,8-5.35,8-10.71,0-6.53-4.75-11.12-11.84-11.12H91.48V44.56H97.6Zm29.74-16.43h5.51c6.94,0,11.32,5.51,11.32,12a12.2,12.2,0,0,1-4.58,9.82,14.94,14.94,0,0,1-1.89.08c-3.77-.13-6.49-1.89-9.13-3.58-.4-.27-.82-.53-1.23-.79Zm-29.74,0h4.85c3.93,0,6.37,1.79,6.37,5.31s-2.44,5.3-6.37,5.3H97.6Z"/><path class="cls-2" d="M174.11,45.38a18,18,0,0,0,13.72-6.07l-4.08-4a12.71,12.71,0,0,1-9.64,4.39c-7,0-11.89-5.87-11.89-12.76s4.85-12.75,11.89-12.75a12.29,12.29,0,0,1,9.08,3.93l4.13-4a17.89,17.89,0,0,0-13.21-5.61C163.8,8.45,156,16.36,156,26.91S163.8,45.38,174.11,45.38Z"/><path class="cls-2" d="M237.07,20.79l11.17,17,9.25-14.06a11.75,11.75,0,0,0,1.92-.65v21.7h6.13V9.06h-5.67L253.1,19.52a11.38,11.38,0,0,1-1.76-.77,6.81,6.81,0,0,0-3.5-1,7.18,7.18,0,0,0-4.38,1.89L236.61,9.06H231V44.77h6.12Zm22.34,0V22c-.36.17-.71.32-1.06.45ZM248.24,27l-2.84-4.4a5.17,5.17,0,0,1,2.47-.69,5.69,5.69,0,0,1,3,.89l.06,0Zm-.37-8.28a5.61,5.61,0,0,1,3,.9,13.53,13.53,0,0,0,1.66.75l-1,1.62-.15-.07a6.81,6.81,0,0,0-3.5-1,6,6,0,0,0-3,.84L244,20.48A6.34,6.34,0,0,1,247.87,18.74Z"/><polygon class="cls-2" points="200.53 36.3 207.63 36.3 210.89 44.77 225.07 44.77 211.19 9.06 208.69 2.76 208.69 2.75 208.5 2.28 209.29 0.29 208.57 0 208.08 1.23 207.59 0 206.87 0.29 207.66 2.28 204.97 9.06 191.09 44.77 197.27 44.77 200.53 36.3"/><path class="cls-2" d="M20.37,87.06c10.09,0,17.5-7.66,17.5-17.9s-7.41-17.9-17.5-17.9-17.5,7.67-17.5,17.9S10.28,87.06,20.37,87.06Zm0-30.16c7,0,11.47,5.59,11.47,12.26s-4.5,12.27-11.47,12.27S8.9,75.84,8.9,69.16,13.4,56.9,20.37,56.9Z"/><path class="cls-2" d="M67.65,77.42c0-6.28-4.41-8.65-9.7-10.63-4.74-1.78-7.46-2.72-7.46-5.74,0-2.32,2.32-4.15,5.29-4.15,4.3,0,7.17,3.91,7.17,3.91l4.1-4.06a14.86,14.86,0,0,0-11.27-5.49c-7,0-11.33,4.9-11.33,9.79,0,6.43,5.74,9.2,10.83,11,4.11,1.44,6.33,2.47,6.33,5.39s-3.06,4-6,4c-5.24,0-8.21-5.2-8.21-5.2L42.92,80a15.14,15.14,0,0,0,12.66,7.07C62.11,87.06,67.65,83.7,67.65,77.42Z"/><path class="cls-2" d="M81.84,78.26H96.48l3.16,8.21h6L92.17,51.86h-6L72.69,86.47h6Zm7.32-18.94,5.19,13.5H84Z"/><polygon class="cls-2" points="112.06 51.86 112.06 86.47 118 86.47 118 70.84 131.6 86.47 139.46 86.47 124.23 68.87 137.78 51.86 130.36 51.86 118 67.38 118 51.86 112.06 51.86"/><path class="cls-2" d="M178.83,86.47,165.38,51.86h-6L145.9,86.47h6l3.17-8.21h14.63l3.17,8.21ZM157.17,72.82l5.19-13.5,5.2,13.5Z"/><path class="cls-2" d="M192.24,85.84H215V80.2H203.91l8-10.28a14.35,14.35,0,0,0,3-8.51c0-5.73-3.61-10.78-11.08-10.78-9.24,0-11.47,8.66-11.47,8.66l5.29,1.92s1.09-5,6.18-5A5.09,5.09,0,0,1,209,61.51c0,3.91-2.72,6.53-4,8.21Z"/><path class="cls-2" d="M233.14,50.63c-8.8,0-13.06,8.51-13.06,17.9s4.26,17.9,13.06,17.9,13-8.5,13-17.9S241.94,50.63,233.14,50.63Zm0,30.26c-4.8,0-7.12-5.58-7.12-12.36s2.32-12.36,7.12-12.36,7,5.59,7,12.36S237.93,80.89,233.14,80.89Z"/><polygon class="cls-2" points="259.24 85.84 265.17 85.84 265.17 51.23 260.28 51.23 249.75 59.63 253.16 63.98 259.24 59.14 259.24 85.84"/><path class="cls-2" d="M290.5,67.44a8.27,8.27,0,0,0,3.86-6.82c0-5.14-3.66-10-10.88-10s-10.88,4.85-10.88,10a8.27,8.27,0,0,0,3.86,6.82,8.61,8.61,0,0,0-4.85,8.21c0,5.79,4.35,10.78,11.87,10.78s11.87-5,11.87-10.78A8.61,8.61,0,0,0,290.5,67.44Zm-7-11.37c2.77,0,5,1.78,5,4.6s-2.23,4.6-5,4.6-5-1.78-5-4.6S280.71,56.07,283.48,56.07Zm0,24.92c-3.91,0-5.88-2.62-5.88-5.44s2-5.34,5.88-5.34,5.88,2.53,5.88,5.34S287.39,81,283.48,81Z"/></g></g></svg>